<svg width="64" height="64" viewBox="0 0 512 512" xmlns="http://www.w3.org/2000/svg"><path d="M367.296 202.176l-95.872-84.8-95.872 84.8c-6.272 6.272-16.48 6.272-22.752 0-6.272-6.272-6.272-16.48 0-22.752l107.04-94.688c3.2-3.2 7.392-4.736 11.584-4.672 4.192-.064 8.416 1.472 11.584 4.672l107.04 94.688c6.272 6.272 6.272 16.48 0 22.752s-16.48 6.272-22.752 0zm0 114.752l-95.872-84.8-95.872 84.8c-6.304 6.272-16.512 6.272-22.784 0-6.272-6.272-6.272-16.48 0-22.752l107.04-94.688c3.2-3.2 7.392-4.736 11.584-4.672 4.192-.064 8.416 1.472 11.584 4.672l107.04 94.688c6.272 6.272 6.272 16.48 0 22.752s-16.448 6.272-22.72 0zm-94.144 128.768c-131.904 0-238.848-106.944-238.848-238.848S141.248-32 273.152-32 512 74.944 512 206.848 405.056 445.696 273.152 445.696zm0-445.696C159.104 0 66.304 92.8 66.304 206.848s92.8 206.848 206.848 206.848S480 320.896 480 206.848 387.2 0 273.152 0z"/></svg>