<svg width="64" height="64" viewBox="0 0 512 512" xmlns="http://www.w3.org/2000/svg"><path d="M480 480H32c-17.664 0-32-14.336-32-32V0c0-17.664 14.336-32 32-32h448c17.664 0 32 14.336 32 32v448c0 17.664-14.336 32-32 32zM208 64c8.832 0 16-7.168 16-16s-7.168-16-16-16H80c-2.08 0-4.16.416-6.112 1.248-1.92.8-3.616 1.952-5.056 3.36-.032.032-.096.032-.128.096-.064.064-.064.128-.128.192-1.408 1.44-2.56 3.136-3.328 5.024-.8 1.92-1.248 3.968-1.248 6.016V176c0 8.832 7.168 16 16 16s16-7.168 16-16V86.624l100.672 100.672c6.24 6.24 16.384 6.24 22.624 0 6.24-6.24 6.24-16.384 0-22.624L118.624 64H208zm240 336V272c0-8.832-7.168-16-16-16s-16 7.168-16 16v89.376L315.328 260.672c-6.24-6.24-16.384-6.24-22.624 0-6.24 6.24-6.24 16.384 0 22.624L393.376 384H304c-8.832 0-16 7.168-16 16s7.168 16 16 16h128c2.08 0 4.16-.416 6.112-1.248 3.904-1.632 7.04-4.736 8.64-8.64A15.585 15.585 0 0 0 448 400z"/></svg>