<svg width="64" height="64" viewBox="0 0 512 512" xmlns="http://www.w3.org/2000/svg"><path d="M364.512 259.2L272 166.688 179.488 259.2c-6.24 6.24-16.384 6.24-22.624 0-6.24-6.24-6.24-16.384 0-22.624L260.64 132.8a15.876 15.876 0 0 1 11.36-4.672c4.128 0 8.224 1.536 11.36 4.672l103.776 103.776c6.24 6.24 6.24 16.384 0 22.624-6.24 6.24-16.384 6.24-22.624 0zm-91.36 186.528c-131.904 0-238.848-106.944-238.848-238.848C34.272 74.944 141.216-32 273.152-32 405.056-32 512 74.944 512 206.848c0 131.936-106.944 238.88-238.848 238.88zm0-445.728C159.104 0 66.304 92.8 66.304 206.848c0 114.048 92.8 206.848 206.848 206.848C387.2 413.728 480 320.928 480 206.848 480 92.8 387.2 0 273.152 0z"/></svg>