<svg width="64" height="64" viewBox="0 0 512 512" xmlns="http://www.w3.org/2000/svg"><path d="M102.304 377.696C8.576 283.968 8.576 132 102.304 38.272c93.728-93.728 245.696-93.728 339.424 0 93.728 93.728 93.728 245.696 0 339.424-93.76 93.728-245.696 93.728-339.424 0zM390.976 89.024c-6.24-6.24-16.384-6.24-22.624 0L192 265.376v-97.152c0-8.832-7.168-16-16-16s-16 7.168-16 16V304c0 2.08.416 4.16 1.248 6.112.768 1.888 1.92 3.584 3.328 5.024.064.064.064.128.128.192.032.032.064.032.096.064 1.44 1.408 3.168 2.592 5.056 3.36A15.857 15.857 0 0 0 176 320h135.776c8.832 0 16-7.168 16-16s-7.168-16-16-16h-97.152l176.32-176.32c6.272-6.272 6.272-16.384.032-22.656z"/></svg>