<svg width="128" height="128" viewBox="0 0 512 512" xmlns="http://www.w3.org/2000/svg"><path d="M283.36 283.2c-3.136 3.136-7.232 4.672-11.36 4.672-4.128 0-8.224-1.536-11.36-4.672L156.864 179.424c-6.24-6.24-6.24-16.384 0-22.624 6.24-6.24 16.384-6.24 22.624 0L272 249.312l92.512-92.512c6.24-6.24 16.384-6.24 22.624 0 6.24 6.24 6.24 16.384 0 22.624L283.36 283.2zm-10.304 162.656c-131.968 0-238.944-106.976-238.944-238.944S141.12-32 273.056-32 512 74.976 512 206.944 405.024 445.856 273.056 445.856zm0-445.856C158.944 0 66.112 92.832 66.112 206.944s92.832 206.944 206.944 206.944S480 321.024 480 206.944 387.168 0 273.056 0z"/></svg>