<svg width="128" height="128" viewBox="0 0 512 512" xmlns="http://www.w3.org/2000/svg"><path d="M272 448C139.456 448 32 340.544 32 208S139.456-32 272-32 512 75.456 512 208 404.544 448 272 448zm0-448C157.312 0 64 93.312 64 208s93.312 208 208 208 208-93.312 208-208S386.688 0 272 0zm106.144 218.464l-123.424 97.76c-6.944 5.44-18.208 5.44-25.152 0-.064-.064-.096-.128-.16-.16-3.328-2.528-5.408-6.048-5.408-9.984V110.56c0-4 2.208-7.552 5.632-10.08l-.064-.064c6.944-5.44 18.208-5.44 25.152 0L378.784 198.4c6.944 5.44 6.944 14.304 0 19.744-.192.16-.448.192-.64.32z"/></svg>