<svg width="64" height="64" viewBox="0 0 512 512" xmlns="http://www.w3.org/2000/svg"><path d="M284.192 331.296c-3.2 3.2-7.392 4.736-11.584 4.672-4.224.064-8.416-1.472-11.616-4.672l-107.04-94.688c-6.272-6.272-6.272-16.48 0-22.752 6.272-6.272 16.48-6.272 22.752 0l95.872 84.832 95.872-84.832c6.272-6.272 16.48-6.272 22.752 0 6.272 6.272 6.272 16.48 0 22.752l-107.008 94.688zm0-114.752c-3.2 3.2-7.392 4.736-11.584 4.672-4.224.064-8.416-1.472-11.616-4.672l-107.04-94.688c-6.272-6.272-6.272-16.48 0-22.752 6.272-6.272 16.48-6.272 22.752 0l95.872 84.8 95.872-84.8c6.272-6.272 16.48-6.272 22.752 0 6.272 6.272 6.272 16.48 0 22.752l-107.008 94.688zm-11.04 229.152c-131.904 0-238.848-106.944-238.848-238.848S141.248-32 273.152-32 512 74.944 512 206.848 405.056 445.696 273.152 445.696zm0-445.696C159.104 0 66.304 92.8 66.304 206.848s92.8 206.848 206.848 206.848S480 320.896 480 206.848 387.2 0 273.152 0z"/></svg>