<svg width="64" height="64" viewBox="0 0 512 512" xmlns="http://www.w3.org/2000/svg"><path d="M347.2 219.36L243.424 323.136c-6.24 6.24-16.384 6.24-22.624 0-6.24-6.24-6.24-16.384 0-22.624L313.312 208 220.8 115.488c-6.24-6.24-6.24-16.384 0-22.624 6.24-6.24 16.384-6.24 22.624 0L347.2 196.64a15.876 15.876 0 0 1 4.672 11.36c0 4.128-1.536 8.224-4.672 11.36zm-74.048 226.336c-131.904 0-238.848-106.944-238.848-238.848S141.248-32 273.152-32 512 74.944 512 206.848 405.056 445.696 273.152 445.696zm0-445.696C159.104 0 66.304 92.8 66.304 206.848s92.8 206.848 206.848 206.848S480 320.896 480 206.848 387.2 0 273.152 0z"/></svg>