<svg width="128" height="128" viewBox="0 0 512 512" xmlns="http://www.w3.org/2000/svg"><path d="M181.344 208.608l84.8 95.872c6.272 6.272 6.272 16.48 0 22.752s-16.48 6.272-22.752 0l-94.688-107.04c-3.2-3.2-4.736-7.392-4.672-11.584-.032-4.192 1.472-8.416 4.672-11.616l94.688-107.04c6.272-6.272 16.48-6.272 22.752 0s6.272 16.48 0 22.752l-84.8 95.904zm199.584 118.624c-6.272 6.272-16.48 6.272-22.752 0l-94.72-107.04c-3.2-3.2-4.736-7.392-4.672-11.584-.032-4.192 1.472-8.416 4.672-11.616l94.688-107.04c6.272-6.272 16.48-6.272 22.752 0s6.272 16.48 0 22.752l-84.8 95.872 84.8 95.872c6.304 6.304 6.304 16.512.032 22.784zM272 448C139.456 448 32 340.544 32 208S139.456-32 272-32 512 75.456 512 208 404.544 448 272 448zm0-448C157.312 0 64 93.312 64 208s93.312 208 208 208 208-93.312 208-208S386.688 0 272 0z"/></svg>