<svg width="128" height="128" viewBox="0 0 512 512" xmlns="http://www.w3.org/2000/svg"><path d="M272 448C139.456 448 32 340.544 32 208S139.456-32 272-32 512 75.456 512 208 404.544 448 272 448zM391.232 99.072c-6.272-6.272-16.48-6.272-22.752 0l-95.872 84.8-95.872-84.8c-6.272-6.272-16.48-6.272-22.752 0-6.272 6.272-6.272 16.48 0 22.752l107.04 94.688c3.2 3.2 7.392 4.736 11.584 4.672 4.192.096 8.384-1.44 11.584-4.64l107.04-94.688a16.088 16.088 0 0 0 0-22.784zm0 114.752c-6.272-6.272-16.48-6.272-22.752 0l-95.904 84.832-95.872-84.832c-6.272-6.272-16.48-6.272-22.752 0-6.272 6.272-6.272 16.48 0 22.752l107.04 94.688c3.2 3.2 7.392 4.736 11.584 4.672 4.224.096 8.416-1.44 11.616-4.64l107.04-94.688a16.088 16.088 0 0 0 0-22.784z"/></svg>