<svg width="128" height="128" viewBox="0 0 512 512" xmlns="http://www.w3.org/2000/svg"><path d="M272 448C139.456 448 32 340.544 32 208S139.456-32 272-32 512 75.456 512 208 404.544 448 272 448zm107.328-283.328l-96-96a15.831 15.831 0 0 0-5.184-3.456 15.872 15.872 0 0 0-12.224 0c-1.92.8-3.616 1.952-5.056 3.36-.032.032-.096.032-.128.096l-96 96c-6.24 6.24-6.24 16.384 0 22.624 6.24 6.24 16.384 6.24 22.624 0L256 118.624V368c0 8.832 7.168 16 16 16s16-7.168 16-16V118.624l68.672 68.672c6.24 6.24 16.384 6.24 22.624 0 6.272-6.24 6.272-16.352.032-22.624z"/></svg>