<svg width="128" height="128" viewBox="0 0 512 512" xmlns="http://www.w3.org/2000/svg"><path d="M292.48-27.488a15.876 15.876 0 0 1 11.36-4.672c4.128 0 8.224 1.536 11.36 4.672l61.632 61.632c6.24 6.24 6.24 16.384 0 22.624s-16.384 6.24-22.624 0L320 22.56v281.28c0 8.832-7.168 16-16 16s-16-7.168-16-16V22.24l-36.864 36.864c-6.24 6.24-16.384 6.24-22.624 0-6.24-6.24-6.24-16.384 0-22.624l63.968-63.968zM208 127.84c8.832 0 16 7.168 16 16v281.6l36.864-36.864c6.24-6.24 16.384-6.24 22.624 0 6.24 6.24 6.24 16.384 0 22.624l-63.968 63.968c-3.136 3.136-7.232 4.672-11.36 4.672-4.128 0-8.224-1.536-11.36-4.672l-61.632-61.632c-6.24-6.24-6.24-16.384 0-22.624 6.24-6.24 16.384-6.24 22.624 0L192 425.12V143.84c0-8.832 7.168-16 16-16z"/></svg>