<svg width="128" height="128" viewBox="0 0 512 512" xmlns="http://www.w3.org/2000/svg"><path d="M80 224c-8.832 0-16-7.168-16-16V48v-.064c0-2.08.416-4.128 1.216-6.048.768-1.888 1.92-3.584 3.328-5.024.064-.064.064-.128.128-.192.032-.032.096-.032.128-.096 1.44-1.408 3.168-2.592 5.056-3.36A16.425 16.425 0 0 1 80 32h160c8.832 0 16 7.168 16 16s-7.168 16-16 16H118.624L416 361.376V240c0-8.832 7.168-16 16-16s16 7.168 16 16v160c0 2.08-.416 4.16-1.248 6.112-1.632 3.904-4.736 7.04-8.64 8.64A15.585 15.585 0 0 1 432 416H272c-8.832 0-16-7.168-16-16s7.168-16 16-16h121.376L96 86.624V208c0 8.832-7.168 16-16 16z"/></svg>