<svg width="128" height="128" viewBox="0 0 512 512" xmlns="http://www.w3.org/2000/svg"><path d="M272 448C139.456 448 32 340.544 32 208S139.456-32 272-32 512 75.456 512 208 404.544 448 272 448zm144-240v-.064c0-2.08-.416-4.128-1.216-6.048a15.831 15.831 0 0 0-3.456-5.184l-96-96c-6.24-6.24-16.384-6.24-22.624 0-6.24 6.24-6.24 16.384 0 22.624L361.376 192H112c-8.832 0-16 7.168-16 16s7.168 16 16 16h249.376l-68.704 68.672c-6.24 6.24-6.24 16.384 0 22.624 6.24 6.24 16.384 6.24 22.624 0l96-96a15.831 15.831 0 0 0 3.456-5.184A15.585 15.585 0 0 0 416 208z"/></svg>