<svg width="128" height="128" viewBox="0 0 512 512" xmlns="http://www.w3.org/2000/svg"><path d="M272 448C139.456 448 32 340.544 32 208S139.456-32 272-32 512 75.456 512 208 404.544 448 272 448zm0-448C157.312 0 64 93.312 64 208s93.312 208 208 208 208-93.312 208-208S386.688 0 272 0zm9.6 282.784c-5.44 6.944-14.304 6.944-19.744 0-.16-.192-.192-.448-.352-.64L163.776 158.72c-5.44-6.944-5.44-18.208 0-25.152.032-.064.128-.064.16-.128 2.528-3.36 6.048-5.44 9.984-5.44h195.52c4 0 7.552 2.208 10.08 5.632l.064-.064c5.44 6.944 5.44 18.208 0 25.152L281.6 282.784z"/></svg>