<svg width="128" height="128" viewBox="0 0 512 512" xmlns="http://www.w3.org/2000/svg"><path d="M395.296 219.008l-94.688 107.04c-6.272 6.272-16.48 6.272-22.752 0s-6.272-16.48 0-22.752l84.8-95.872-84.8-95.872c-6.272-6.272-6.272-16.48 0-22.752s16.48-6.272 22.752 0l94.688 107.04c3.2 3.2 4.736 7.392 4.672 11.584.032 4.192-1.472 8.384-4.672 11.584zm-110.08-11.584c.064 4.192-1.472 8.416-4.672 11.584l-94.688 107.04c-6.272 6.272-16.48 6.272-22.752 0s-6.272-16.48 0-22.752l84.8-95.872-84.8-95.872c-6.272-6.272-6.272-16.48 0-22.752s16.48-6.272 22.752 0l94.688 107.04c3.2 3.168 4.736 7.36 4.672 11.584zM272 448C139.456 448 32 340.544 32 208S139.456-32 272-32 512 75.456 512 208 404.544 448 272 448zm0-448C157.312 0 64 93.312 64 208s93.312 208 208 208 208-93.312 208-208S386.688 0 272 0z"/></svg>