<svg width="64" height="64" viewBox="0 0 512 512" xmlns="http://www.w3.org/2000/svg"><path d="M399.456 160l-12.128 32H124.672l-12.128-32L64 32h384l-48.544 128zm-252.672 0h218.464l36.416-96H110.368l36.416 96zm182.048 96h34.24l-12.128 32-65.088 171.552C281.088 471.872 269.216 480 256 480s-25.088-8.128-29.856-20.448L161.088 288l-12.128-32h179.872zM256 448l60.672-160H195.328L256 448zM495.744 0H16.256C7.264 0 0-6.784 0-15.744S7.264-32 16.256-32h479.488C504.736-32 512-24.736 512-15.744S504.736 0 495.744 0z"/></svg>