<svg width="128" height="128" viewBox="0 0 512 512" xmlns="http://www.w3.org/2000/svg"><path d="M256 480c-88.352 0-160-72.736-160-162.464V288H64c-17.664 0-32-14.336-32-32V0c0-17.664 14.336-32 32-32h384c17.664 0 32 14.336 32 32v256c0 17.664-14.336 32-32 32h-32v29.536C416 407.264 344.352 480 256 480zM128 317.536C128 389.472 185.408 448 256 448s128-58.528 128-130.464V288H128v29.536zM448 0H64v256h384V0zM320 128c0 35.36-28.64 64-64 64s-64-28.64-64-64 28.64-64 64-64 64 28.64 64 64zm-64-32c-17.632 0-32 14.368-32 32s14.368 32 32 32 32-14.368 32-32-14.368-32-32-32z"/></svg>