<svg width="128" height="128" viewBox="0 0 512 512" xmlns="http://www.w3.org/2000/svg"><path d="M480 160v64c0 17.664-14.336 32-32 32H288v64h96c17.664 0 32 14.336 32 32v32c0 17.664-14.336 32-32 32H160c-17.664 0-32-14.336-32-32v-32c0-17.664 14.336-32 32-32h96v-64H96c-17.664 0-32-14.336-32-32v-64c-17.664 0-32-14.336-32-32V64c0-17.664 14.336-32 32-32h32c17.664 0 32 14.336 32 32v64c0 17.664-14.336 32-32 32v64h160v-64c-17.664 0-32-14.336-32-32V64c0-17.664 14.336-32 32-32h32c17.664 0 32 14.336 32 32v64c0 17.664-14.336 32-32 32v64h160v-64c-17.664 0-32-14.336-32-32V64c0-17.664 14.336-32 32-32h32c17.664 0 32 14.336 32 32v64c0 17.664-14.336 32-32 32z"/></svg>