<svg width="64" height="64" viewBox="0 0 512 512" xmlns="http://www.w3.org/2000/svg"><path d="M481.888 133.792c-87.136-87.104-228.928-87.168-316.064 0-42.176 42.144-65.376 98.272-65.376 158.048s23.232 115.904 65.344 158.016c6.24 6.24 6.24 16.384 0 22.624s-16.384 6.24-22.624 0c-48.192-48.16-74.72-112.32-74.72-180.64s26.56-132.512 74.72-180.672C183.84 70.464 234.976 46.688 288 39.232V0h-48c-8.832 0-16-7.168-16-16s7.168-16 16-16h128c8.832 0 16 7.168 16 16s-7.168 16-16 16h-48v36.608c1.28-.032 2.56-.192 3.84-.192 65.408 0 130.848 24.896 180.672 74.72 6.24 6.24 6.24 16.384 0 22.624s-16.384 6.272-22.624.032zM323.84 480c-103.936 0-188.16-84.256-188.16-188.16s84.256-188.16 188.16-188.16S512 187.904 512 291.84 427.744 480 323.84 480zm0-344.32c-86.112 0-156.16 70.048-156.16 156.16S237.728 448 323.84 448 480 377.952 480 291.84s-70.048-156.16-156.16-156.16z"/></svg>