<svg width="64" height="64" viewBox="0 0 512 512" xmlns="http://www.w3.org/2000/svg"><path d="M433.6 320H288v83.008c1.152 44.928-8.992 76.928-47.008 76.928C200 479.936 192 445.92 192 445.92 184.512 325.44 64 288 64 288V32l46.752-1.984C231.808 30.016 159.168-32 358.08-32 509.12-32 512 100.928 512 192s-41.504 128-78.4 128zM358.08 0C257.024 0 235.616 16.096 216.704 30.304c-23.904 17.952-46.848 31.68-104.384 31.68h-.192L96 62.656v203.84c39.904 18.624 119.2 68.544 127.648 173.344 1.248 2.56 5.376 8.096 17.344 8.096 2.848 0 6.528-.32 8.096-1.92 1.312-1.312 7.744-9.632 6.912-43.008V288h177.6c23.072 0 46.4-32.96 46.4-96C480 67.488 460.576 0 358.08 0zM16 0c8.832 0 16 7.168 16 16v286.656c0 8.832-7.168 16-16 16s-16-7.168-16-16V16C0 7.168 7.168 0 16 0z"/></svg>