<svg width="64" height="64" viewBox="0 0 512 512" xmlns="http://www.w3.org/2000/svg"><path d="M139.04 195.648a32.07 32.07 0 0 1-7.168-28.352c2.304-10.048 9.344-18.368 18.848-22.336 22.72-9.504 61.344-15.52 105.312-16.736 0-.064-.032-.128-.032-.224V32c0-17.664 7.168-64 16-64s16 46.336 16 64v96c0 .096-.032.16-.032.256 43.968 1.184 82.592 7.232 105.312 16.736 9.504 3.968 16.544 12.288 18.848 22.336 2.304 10.048-.352 20.608-7.168 28.32-13.12 14.88-36.032 23.104-52.96 27.392V388.8c16.736 5.664 30.944 12.768 42.176 21.056 9.6 7.072 14.464 18.944 12.608 30.72s-10.112 21.568-21.44 25.376C369.728 471.2 334.208 480 272 480c-65.76 0-102.08-10.144-114.656-14.496a31.988 31.988 0 0 1-21.12-25.28c-1.824-11.648 2.944-23.392 12.384-30.528 11.392-8.544 25.952-15.776 43.36-21.472H192V223.04c-16.896-4.256-39.84-12.48-52.96-27.392zm62.912 222.976c-16.704 5.472-27.552 11.712-34.112 16.672C184.864 441.184 219.328 448 272 448c51.648 0 85.856-6.56 103.2-12.384-6.784-4.992-17.536-11.104-33.472-16.512L320 411.744v-213.6l24.128-6.112c17.696-4.48 31.072-11.008 36.8-17.536C366.112 168.32 330.112 160 272 160s-94.112 8.32-108.928 14.496c5.76 6.528 19.136 13.056 36.8 17.536L224 198.144v213.28l-22.048 7.2z"/></svg>