<svg width="128" height="128" viewBox="0 0 512 512" xmlns="http://www.w3.org/2000/svg"><path d="M30.368 9.888C32.992 4.256 38.656.672 44.864.672c45.92 0 84.768 11.168 128.896 37.184 21.408-3.392 63.68-7.584 82.24-7.584 140.096 0 254.048 93.536 254.048 208.544S396.096 447.328 256 447.328 1.952 353.824 1.952 238.816c0-54.208 26.144-106.592 72.16-145.408C63.68 69.728 49.76 47.392 32.608 26.944c-3.968-4.8-4.864-11.456-2.24-17.056zm3.584 228.928c0 97.344 99.616 176.544 222.048 176.544s222.048-79.2 222.048-176.544S378.432 62.272 256 62.272c-18.368 0-66.176 4.928-82.336 8.064a16.566 16.566 0 0 1-11.36-2.048c-29.824-18.24-55.84-28.672-83.68-33.088 12 18.176 21.984 37.376 29.76 57.376 2.592 6.688.48 14.24-5.248 18.56-44.64 33.792-69.184 79.168-69.184 127.68z"/></svg>