<svg width="64" height="64" viewBox="0 0 512 512" xmlns="http://www.w3.org/2000/svg"><path d="M432.672 480h-352C36.512 480 .768 444.512.128 400.512l-.128.16v-352C0 4.128 36.128-32 80.672-32h272C370.336-32 384-17.664 384 0v336c0 8.832-6.496 16-15.328 16h-288C53.824 352 32 372.512 32 399.328 32 426.176 53.824 448 80.672 448H416V80c0-8.832 7.84-16 16.672-16S448 71.168 448 80v384c0 8.832-6.496 16-15.328 16zm-352-160h271.36l.64-320h-272C53.824 0 32 21.824 32 48.672v286.976C45.44 325.792 62.24 320 80.672 320z"/></svg>