<svg width="64" height="64" viewBox="0 0 512 512" xmlns="http://www.w3.org/2000/svg"><path d="M510.112 390.016c-4.032 13.024-15.744 22.656-30.112 22.656h-32v-49.664c0-26.464-21.536-48-48-48s-48 21.536-48 48v49.664H159.84v-49.664c0-26.464-21.536-48-48-48s-48 21.536-48 48v49.664H32c-14.368 0-26.08-9.632-30.112-22.656H0V0c0-17.664 14.336-32 32-32h448c17.664 0 32 14.336 32 32v390.016h-1.888zM480 0H32v256h448V0zM111.84 347.008c8.832 0 16 7.168 16 16V464c0 8.832-7.168 16-16 16s-16-7.168-16-16V363.008c0-8.832 7.168-16 16-16zm288.16 0c8.832 0 16 7.168 16 16V464c0 8.832-7.168 16-16 16s-16-7.168-16-16V363.008c0-8.832 7.168-16 16-16z"/></svg>