<svg width="128" height="128" viewBox="0 0 512 512" xmlns="http://www.w3.org/2000/svg"><path d="M256 480C114.624 480 0 365.376 0 224S114.624-32 256-32 512 82.624 512 224 397.376 480 256 480zm0-480C132.48 0 32 100.48 32 224s100.48 224 224 224 224-100.48 224-224S379.52 0 256 0zm103.52 349.568l-59.552-37.184-39.776-24.8c31.936-2.112 57.28-27.424 59.392-59.392l24.8 39.744 37.184 59.584c3.968 6.304 3.04 14.528-2.24 19.776-5.312 5.312-13.568 6.208-19.808 2.272zm-167.104-129.76l-24.8-39.776-37.184-59.584c-3.968-6.304-3.04-14.528 2.24-19.776A16.097 16.097 0 0 1 144 96c2.944 0 5.888.8 8.48 2.432l59.552 37.184 39.776 24.8c-31.936 2.112-57.28 27.456-59.392 59.392zm67.776 67.776c-1.408.096-2.752.416-4.192.416-35.36 0-64-28.64-64-64 0-1.44.32-2.784.416-4.192 2.112-31.936 27.456-57.28 59.392-59.392 1.408-.096 2.752-.416 4.192-.416 35.36 0 64 28.64 64 64 0 1.44-.32 2.784-.416 4.192-2.112 31.936-27.456 57.28-59.392 59.392zM224 224c0 17.632 14.368 32 32 32s32-14.368 32-32-14.368-32-32-32-32 14.368-32 32z"/></svg>