<svg width="128" height="128" viewBox="0 0 512 512" xmlns="http://www.w3.org/2000/svg"><path d="M224 400c0 42.816-37.184 80-80 80s-80-37.184-80-80 37.184-80 80-80 80 37.184 80 80zm56-304c0 128-66.432 192-140 192S0 224 0 96C0 8.32 280 8.32 280 96zm96 161.76c42.816 0 80 37.184 80 80s-37.184 80-80 80-80-37.184-80-80 37.184-80 80-80zm-4-32c-22.112 0-43.296-6.496-62.496-18.08C321.12 176.448 328 139.424 328 96c0-43.104-28.736-76.672-78.048-95.872C311.104-51.648 512-40.608 512 33.76c0 128-66.432 192-140 192z"/></svg>