<svg width="64" height="64" viewBox="0 0 512 512" xmlns="http://www.w3.org/2000/svg"><path d="M25.984 195.488L64 225.888V0c0-17.664 14.336-32 32-32h96c17.664 0 32 14.336 32 32v128h64V0c0-17.664 14.336-32 32-32h96c17.664 0 32 14.336 32 32v225.888l38.016-30.4A16.01 16.01 0 0 1 496 192c4.704 0 9.344 2.048 12.512 6.016 5.504 6.912 4.384 16.96-2.496 22.496l-240 192a16.021 16.021 0 0 1-20 0L160 343.712V384c0 17.664-14.336 32-32 32s-32-14.336-32-32v-91.488l-89.984-72c-6.88-5.536-8-15.584-2.496-22.496 5.504-6.912 15.552-8.032 22.464-2.528zM256 379.52l160-128V0h-96v160H192V0H96v251.488L256 379.52z"/></svg>