<svg width="64" height="64" viewBox="0 0 512 512" xmlns="http://www.w3.org/2000/svg"><path d="M480 0v256c0 17.664-14.336 32-32 32H127.84l.16 13.568C128 387.776 181.248 448 257.536 448c55.84 0 105.6-32.096 129.888-83.776 3.744-8 13.248-11.424 21.28-7.648 8 3.744 11.424 13.28 7.648 21.28C386.752 440.832 325.92 480 257.536 480 163.936 480 96 404.96 96 301.76L95.84 288H64c-17.664 0-32-14.336-32-32V0c0-17.664 14.336-32 32-32h384c17.664 0 32 14.336 32 32zM64 256h384V0H64v256zm192-64c-35.36 0-64-28.64-64-64s28.64-64 64-64 64 28.64 64 64-28.64 64-64 64zm0-96c-17.632 0-32 14.368-32 32s14.368 32 32 32 32-14.368 32-32-14.368-32-32-32z"/></svg>