<svg width="128" height="128" viewBox="0 0 512 512" xmlns="http://www.w3.org/2000/svg"><path d="M256 480C114.624 480 0 365.376 0 224S114.624-32 256-32 512 82.624 512 224 397.376 480 256 480zm0-480C132.48 0 32 100.48 32 224s100.48 224 224 224 224-100.48 224-224S379.52 0 256 0zm0 384c-88.352 0-160-71.648-160-160S167.648 64 256 64s160 71.648 160 160-71.648 160-160 160zm0-256c-52.928 0-96 43.072-96 96s43.072 96 96 96 96-43.072 96-96-43.072-96-96-96zm-32 96a32 32 180 1 1 64 0 32 32 180 1 1-64 0z"/></svg>