<svg width="128" height="128" viewBox="0 0 512 512" xmlns="http://www.w3.org/2000/svg"><path d="M243.392 217.216c45.984 0 83.392 37.408 83.392 83.392 0 45.984-37.408 83.392-83.392 83.392S160 346.592 160 300.608c0-45.984 37.408-83.392 83.392-83.392zm0 134.784c28.32 0 51.392-23.04 51.392-51.392s-23.04-51.392-51.392-51.392S192 272.288 192 300.608 215.04 352 243.392 352zM231.744-23.328c2.688-2.976 5.28-4.896 7.776-6.24.032-.032.096-.032.128-.064 1.728-.896 3.424-1.568 5.024-1.568s3.296.672 5.024 1.568c.032.032.096.032.128.064 2.496 1.344 5.088 3.264 7.776 6.24 0 0 148.736 161.76 163.68 301.92.896 7.232 1.504 14.56 1.504 22.016 0 99.072-80.32 179.392-179.392 179.392S64 399.68 64 300.608c0-7.584.608-14.976 1.536-22.304C80.864 138.208 231.744-23.328 231.744-23.328zM243.392 448c81.28 0 147.392-66.112 147.392-147.392 0-5.408-.384-11.168-1.312-18.624C378.016 174.592 277.184 48.576 244.704 10.24c-33.312 38.4-135.584 164.096-147.424 272-.864 7.072-1.28 12.896-1.28 18.368C96 381.888 162.112 448 243.392 448z"/></svg>