<svg width="128" height="128" viewBox="0 0 512 512" xmlns="http://www.w3.org/2000/svg"><path d="M120.64 227.68c20.448-20.448 50.528-27.616 77.888-19.456L47.36 359.36c-4.928 4.928-7.52 12.064-7.52 20.576 0 14.08 7.36 32.064 17.12 41.824 12.8 12.8 47.52 26.976 63.68 10.912l151.136-151.168a79.577 79.577 0 0 1 3.328 22.752c0 20.864-8.096 40.416-22.784 55.136L149.824 461.856c-30.784 30.784-91.968 19.232-122.08-10.88-17.472-17.472-28.32-44.544-28.32-70.656 0-20.288 6.656-38.112 18.72-50.176L120.64 227.68zm270.72-7.36c-20.448 20.448-50.528 27.616-77.888 19.456L464.64 88.608c4.928-4.928 7.52-12.032 7.52-20.576 0-14.08-7.36-32.064-17.12-41.824-12.8-12.8-47.52-26.976-63.68-10.912l-151.136 151.2a79.577 79.577 0 0 1-3.328-22.752c0-20.864 8.096-40.416 22.784-55.136L362.144-13.856c30.784-30.784 91.968-19.232 122.08 10.88 17.472 17.472 28.32 44.544 28.32 70.656 0 20.288-6.656 38.112-18.72 50.176L391.36 220.32zM146.624 333.408c-4.096-4.064-6.336-9.504-6.336-15.264s2.24-11.168 6.304-15.232l188.288-188.32c8.416-8.384 22.08-8.384 30.496 0 4.096 4.064 6.304 9.504 6.304 15.264s-2.24 11.168-6.304 15.232l-188.288 188.32c-8.384 8.384-22.08 8.384-30.464 0z"/></svg>