<svg width="128" height="128" viewBox="0 0 512 512" xmlns="http://www.w3.org/2000/svg"><path d="M480 448H64c-17.664 0-32-14.336-32-32V0c0-17.664 14.336-32 32-32h416c17.664 0 32 14.336 32 32v416c0 17.664-14.336 32-32 32zM400 96H144c-8.832 0-16 7.168-16 16s7.168 16 16 16h256c8.832 0 16-7.168 16-16s-7.168-16-16-16zm0 96H144c-8.832 0-16 7.168-16 16s7.168 16 16 16h256c8.832 0 16-7.168 16-16s-7.168-16-16-16zm0 96H144c-8.832 0-16 7.168-16 16s7.168 16 16 16h256c8.832 0 16-7.168 16-16s-7.168-16-16-16z"/></svg>