<svg width="128" height="128" viewBox="0 0 512 512" xmlns="http://www.w3.org/2000/svg"><path d="M486.944 415.232l-144 64A31.631 31.631 0 0 1 336 480c-2.08 0-4.192-.192-6.24-.608l-154.048-62.688-136.736 62.528c-2.304.512-4.64.768-6.976.768-7.2 0-14.272-2.432-20-7.04A31.91 31.91 0 0 1 0 448V64c0-14.976 10.4-27.968 25.024-31.232l143.328-64a32.136 32.136 0 0 1 6.976-.768c2.08 0 4.192.192 6.24.608l154.048 62.688 137.408-62.528A32.576 32.576 0 0 1 480-32c7.2 0 14.304 2.432 20.032 7.04C507.584-18.88 512-9.696 512 0v384c0 15.008-10.432 28-25.056 31.232zM192 390.624L320 441.6v-384L192 6.624v384zM32 448l128-57.152v-384L32 64v384zM480 0L352 56.896v384L480 384V0z"/></svg>