<svg width="128" height="128" viewBox="0 0 512 512" xmlns="http://www.w3.org/2000/svg"><path d="M480 320h-32v128c0 17.664-14.336 32-32 32H96c-17.664 0-32-14.336-32-32V320H32c-17.664 0-32-14.336-32-32V128c0-17.664 14.336-32 32-32h32V0c0-17.664 14.336-32 32-32h320c17.664 0 32 14.336 32 32v96h32c17.664 0 32 14.336 32 32v160c0 17.664-14.336 32-32 32zM96 160h320V0H96v160zm256 80c0 8.832 7.168 16 16 16s16-7.168 16-16-7.168-16-16-16-16 7.168-16 16zM80 224c-8.832 0-16 7.168-16 16s7.168 16 16 16 16-7.168 16-16-7.168-16-16-16zm352 0c-8.832 0-16 7.168-16 16s7.168 16 16 16 16-7.168 16-16-7.168-16-16-16zM96 448h320V320H96v128zm288-336c0 8.832-7.168 16-16 16H144c-8.832 0-16-7.168-16-16s7.168-16 16-16h224c8.832 0 16 7.168 16 16zm-16-48H144c-8.832 0-16-7.168-16-16s7.168-16 16-16h224c8.832 0 16 7.168 16 16s-7.168 16-16 16z"/></svg>