<svg width="128" height="128" viewBox="0 0 512 512" xmlns="http://www.w3.org/2000/svg"><path d="M160 304.992a16.992 16.992 180 1 1 33.984 0 16.992 16.992 180 1 1-33.984 0zM256 480C114.624 480 0 365.376 0 224S114.624-32 256-32 512 82.624 512 224 397.376 480 256 480zM128 304.992c0 27.072 21.952 48.992 48.992 48.992s48.992-21.952 48.992-48.992S204.064 256 176.992 256 128 277.952 128 304.992zm43.328-188.32a16.07 16.07 0 0 0-22.656 0c-6.24 6.24-6.24 16.384 0 22.624l192 192c6.24 6.24 16.384 6.24 22.624 0s6.24-16.384 0-22.624l-191.968-192zM335.008 96c-27.072 0-48.992 21.952-48.992 48.992s21.952 48.992 48.992 48.992S384 172.064 384 144.992 362.048 96 335.008 96zm-16.992 48.992a16.992 16.992 180 1 1 33.984 0 16.992 16.992 180 1 1-33.984 0z"/></svg>