<svg width="128" height="128" viewBox="0 0 512 512" xmlns="http://www.w3.org/2000/svg"><path d="M32 0h288c17.664 0 32 14.336 32 32v43.2a112.344 112.344 0 0 1 19.168 11.68l98.208-98.208c3.136-3.136 7.232-4.672 11.328-4.672s8.192 1.568 11.328 4.672c6.24 6.24 6.24 16.384 0 22.624l-98.272 98.272C407.552 128.192 416 151.04 416 176c0 44.608-26.272 82.784-64 100.8V448c0 17.664-14.336 32-32 32H32c-17.664 0-32-14.336-32-32V32C0 14.336 14.336 0 32 0zm272 96c-44.096 0-80 35.904-80 80s35.904 80 80 80 80-35.904 80-80-35.904-80-80-80zm-32 256H80c-8.832 0-16 7.168-16 16s7.168 16 16 16h192c8.832 0 16-7.168 16-16s-7.168-16-16-16zM80 288h192c3.104 0 5.824-1.12 8.256-2.624-20.928-4.544-39.68-14.912-54.464-29.376H80c-8.832 0-16 7.168-16 16s7.168 16 16 16zm0-96h113.6c-.736-5.28-1.6-10.528-1.6-16s.864-10.72 1.6-16H80c-8.832 0-16 7.168-16 16s7.168 16 16 16z"/></svg>