<svg width="128" height="128" viewBox="0 0 512 512" xmlns="http://www.w3.org/2000/svg"><path d="M64 32h32V0c0-17.664 14.336-32 32-32h320c17.664 0 32 14.336 32 32v384c0 17.664-14.336 32-32 32h-32v32c0 17.664-14.336 32-32 32H64c-17.664 0-32-14.336-32-32V64c0-17.664 14.336-32 32-32zm384 352V0H128v32h256c17.664 0 32 14.336 32 32v320h32zm-112 32c8.832 0 16-7.168 16-16s-7.168-16-16-16H206.656c-8.832 0-16 7.168-16 16s7.168 16 16 16H336zm-225.344-96H336c8.832 0 16-7.168 16-16s-7.168-16-16-16H110.656c-8.832 0-16 7.168-16 16s7.168 16 16 16zm0-96H336c8.832 0 16-7.168 16-16s-7.168-16-16-16H110.656c-8.832 0-16 7.168-16 16s7.168 16 16 16zm0-96H336c8.832 0 16-7.168 16-16s-7.168-16-16-16H110.656c-8.832 0-16 7.168-16 16s7.168 16 16 16z"/></svg>