<svg width="64" height="64" viewBox="0 0 512 512" xmlns="http://www.w3.org/2000/svg"><path d="M371.424 470.624A31.99 31.99 0 0 1 348.768 480H163.232c-8.48 0-16.64-3.36-22.624-9.376L9.408 339.392C3.36 333.408 0 325.28 0 316.768V131.2c0-8.48 3.36-16.64 9.376-22.624l131.2-131.232A32.094 32.094 0 0 1 163.232-32H348.8c8.48 0 16.64 3.36 22.624 9.376l131.2 131.232c6.016 5.984 9.376 14.112 9.376 22.624v185.536c0 8.48-3.36 16.64-9.376 22.624l-131.2 131.232zM256 160c-17.664 0-32 14.336-32 32v192c0 17.664 14.336 32 32 32s32-14.336 32-32V192c0-17.664-14.336-32-32-32zm32-96c0-17.664-14.336-32-32-32s-32 14.336-32 32 14.336 32 32 32 32-14.336 32-32z"/></svg>