<svg width="128" height="128" viewBox="0 0 512 512" xmlns="http://www.w3.org/2000/svg"><path d="M480 352H32c-17.664 0-32-14.336-32-32v-96h32V0c0-17.664 14.336-32 32-32h384c17.664 0 32 14.336 32 32v224h32v96c0 17.664-14.336 32-32 32zM32 320h192v-64H32v64zM64 0v224h160V0H64zm384 0H288.672v224H448V0zm32 256H288.672v64H480v-64zM256 384c0 .064-.032.192-.032.256h.096A.753.753 0 0 1 256 384h128c44.192 0 64 21.504 64 48s-19.808 48-64 48c-41.376 0-73.952-18.624-96-40.224-9.664 5.728-20.832 9.216-32.928 9.216-11.584 0-22.304-3.264-31.712-8.576C201.344 461.76 168.96 480 128 480c-44.192 0-64-21.504-64-48s19.808-48 64-48h128zm160 48c0-13.216-17.408-16-32-16h-72.672c-.256.448-.48.928-.736 1.344C326.848 433.152 351.488 448 384 448c14.592 0 32-2.784 32-16zm-320 0c0 13.216 17.408 16 32 16 31.808 0 55.936-14.24 72.192-29.504-.512-.8-.896-1.664-1.376-2.496H128c-14.592 0-32 2.784-32 16z"/></svg>