<svg width="64" height="64" viewBox="0 0 512 512" xmlns="http://www.w3.org/2000/svg"><path d="M96-32h320c17.664 0 32 14.336 32 32v448c0 17.664-14.336 32-32 32H96c-17.664 0-32-14.336-32-32V0c0-17.664 14.336-32 32-32zm256 160c-17.664 0-32 14.336-32 32s14.336 32 32 32 32-14.336 32-32-14.336-32-32-32zm32-64c0-17.664-14.336-32-32-32s-32 14.336-32 32 14.336 32 32 32 32-14.336 32-32zm-32 160c-17.664 0-32 14.336-32 32s14.336 32 32 32 32-14.336 32-32-14.336-32-32-32zM128 352v64h256v-64H128zm128-224c-17.664 0-32 14.336-32 32s14.336 32 32 32 32-14.336 32-32-14.336-32-32-32zm32-64c0-17.664-14.336-32-32-32s-32 14.336-32 32 14.336 32 32 32 32-14.336 32-32zm-32 160c-17.664 0-32 14.336-32 32s14.336 32 32 32 32-14.336 32-32-14.336-32-32-32zm-96 64c17.664 0 32-14.336 32-32s-14.336-32-32-32-32 14.336-32 32 14.336 32 32 32zm0-96c17.664 0 32-14.336 32-32s-14.336-32-32-32-32 14.336-32 32 14.336 32 32 32zm0-96c17.664 0 32-14.336 32-32s-14.336-32-32-32-32 14.336-32 32 14.336 32 32 32z"/></svg>