<svg width="128" height="128" viewBox="0 0 512 512" xmlns="http://www.w3.org/2000/svg"><path d="M256 480c-105.856 0-192-86.144-192-192 0-61.888 30.08-120.32 80.512-156.32a37.359 37.359 0 0 1 2.368-1.536c11.712-6.88 12.864-29.056 12.608-33.12a42.435 42.435 0 0 1-.064-1.984V32a31.936 31.936 0 0 1 17.44-28.48l64.576-32.992a32.023 32.023 0 0 1 14.56-3.52c4.96 0 9.888 1.152 14.432 3.424l65.344 32.992A31.973 31.973 0 0 1 353.344 32v62.656c0 31.584 19.296 42.016 19.488 42.112a31 31 0 0 1 7.072 4.544C423.168 177.92 448 231.36 448 288c0 105.856-86.144 192-192 192zM191.424 95.008s0 .64.032.992H321.44c0-.48-.128-.832-.128-1.344V64H191.424v31.008zM256-.992L191.456 32h129.888L256-.992zM359.232 165.76s-21.44-10.08-32.064-37.76H186.304c-3.968 11.072-10.848 22.464-23.2 29.728C122.496 186.72 96 234.272 96 288c0 88.352 71.648 160 160 160s160-71.648 160-160c0-49.024-22.048-92.896-56.768-122.24zM272 416c-8.832 0-16-7.168-16-16s7.168-16 16-16c36 0 80-32.736 80-81.504 0-8.832 7.168-16 16-16s16 7.168 16 16C384 375.488 327.008 416 272 416z"/></svg>