<svg width="64" height="64" viewBox="0 0 512 512" xmlns="http://www.w3.org/2000/svg"><path d="M416 288H125.536v29.536C125.536 371.84 169.696 416 224 416c35.776 0 66.912-19.328 84.128-47.968.16.192.448.288.64.48 5.792-8.256 14.912-14.016 25.76-14.016 17.664 0 32 14.336 32 32 0 4.32-.896 8.448-2.464 12.224-.128.224-.224.48-.352.704-1.408 3.2-3.424 6.016-5.76 8.544C328.832 451.2 280.064 480 224 480c-89.728 0-162.464-72.736-162.464-162.464V288H32c-17.664 0-32-14.336-32-32V0c0-17.664 14.336-32 32-32h384c17.664 0 32 14.336 32 32v256c0 17.664-14.336 32-32 32zM224 64c-35.36 0-64 28.64-64 64s28.64 64 64 64 64-28.64 64-64-28.64-64-64-64z"/></svg>