<svg width="64" height="64" viewBox="0 0 512 512" xmlns="http://www.w3.org/2000/svg"><path d="M416 480H32c-17.664 0-32-14.336-32-32V0c0-17.664 14.336-32 32-32h384c17.664 0 32 14.336 32 32v448c0 17.664-14.336 32-32 32zM32 448h64V0H32v448zM416 0H128v448h288V0zM221.792 308.256a48.448 48.448 1260 1 1 96.896 0 48.448 48.448 1260 1 1-96.896 0zm49.44-67.808c-43.744 0-79.232-47.584-79.232-106.272s158.496-58.688 158.496 0-35.488 106.272-79.264 106.272zM480 448h32v-96h-32zm0-128h32v-96h-32zm0-128h32V96h-32z"/></svg>