<svg width="64" height="64" viewBox="0 0 512 512" xmlns="http://www.w3.org/2000/svg"><path d="M352 96v96c0 17.664 14.336 32 32 32h96v64c0 17.664-14.336 32-32 32h-36.736l-15.616 92.768c-.704 4.224-3.104 8-6.592 10.432-3.52 2.464-7.904 3.328-12.096 2.656L61.088 367.744a15.967 15.967 0 0 1-10.336-6.752c-2.4-3.552-3.296-7.904-2.432-12.128L54.048 320H32c-17.664 0-32-14.336-32-32V0c0-17.664 14.336-32 32-32h416c17.664 0 32 14.336 32 32v64h-96c-17.664 0-32 14.336-32 32zM82.848 339.2l283.936 52.256L378.816 320H86.656l-3.808 19.2zM496 192H384V96h112c8.832 0 16 7.168 16 16v64c0 8.832-7.168 16-16 16zm-64-64c-8.832 0-16 7.168-16 16s7.168 16 16 16 16-7.168 16-16-7.168-16-16-16z"/></svg>