<svg width="64" height="64" viewBox="0 0 512 512" xmlns="http://www.w3.org/2000/svg"><path d="M464.928 447.84h-.864c-.256 0-.48.032-.736 0H262.144c-4.896-.224-16.032-7.872-17.472-9.312L9.344 203.2c-12.48-12.48-12.48-32.704 0-45.184L190.016-22.656A31.915 31.915 0 0 1 212.608-32c8.16 0 16.352 3.104 22.592 9.344l235.328 235.328c1.44 1.44 9.472 11.328 9.472 17.472v201.824c.448 8.928-6.304 15.872-15.072 15.872zM448 236.128c-.48-.736-.96-1.504-1.408-2.112L212.64 0 31.968 180.576l234.016 234.016c.64.448 1.376.928 2.144 1.408H448V236.128zM384 368a16 16 1260 1 1 32 0 16 16 1260 1 1-32 0z"/></svg>