<svg width="128" height="128" viewBox="0 0 512 512" xmlns="http://www.w3.org/2000/svg"><path d="M480 416H32c-17.664 0-32-14.336-32-32V64c0-17.664 14.336-32 32-32h448c17.664 0 32 14.336 32 32v320c0 17.664-14.336 32-32 32zm0-352H32v192h448V64zM32 318.656V384h448v-65.344H32zM80 96h160c8.832 0 16 7.168 16 16s-7.168 16-16 16H80c-8.832 0-16-7.168-16-16s7.168-16 16-16zm208 16a16 16 1260 1 1 32 0 16 16 1260 1 1-32 0zm64 0a16 16 1260 1 1 32 0 16 16 1260 1 1-32 0zm64 0a16 16 1260 1 1 32 0 16 16 1260 1 1-32 0z"/></svg>