<svg width="128" height="128" viewBox="0 0 512 512" xmlns="http://www.w3.org/2000/svg"><path d="M480 320H352c0-17.664-14.336-32-32-32h160v-64H320c17.664 0 32-14.336 32-32h128V0H32v192h128c0 17.664 14.336 32 32 32H32v64h160c-17.664 0-32 14.336-32 32H32c-17.664 0-32-14.336-32-32V0c0-17.664 14.336-32 32-32h448c17.664 0 32 14.336 32 32v288c0 17.664-14.336 32-32 32zm-288-32h128c17.664 0 32 14.336 32 32v32c0 17.664-14.336 32-32 32H192c-17.664 0-32-14.336-32-32v-32c0-17.664 14.336-32 32-32zm0 64h128v-32H192v32zm-32-160v-32c0-17.664 14.336-32 32-32h128c17.664 0 32 14.336 32 32v32c0 17.664-14.336 32-32 32H192c-17.664 0-32-14.336-32-32zm160-32H192v32h128v-32z"/></svg>