<svg width="128" height="128" viewBox="0 0 512 512" xmlns="http://www.w3.org/2000/svg"><path d="M465.28 480H294.496c-4.896-.256-16.032-7.904-17.472-9.344L73.344 267.008c-12.48-12.48-12.48-32.704 0-45.184l25.408-25.408-25.408-25.408c-12.48-12.48-12.48-32.704 0-45.184L222.016-22.848c6.24-6.24 14.4-9.344 22.592-9.344 8.16 0 16.352 3.104 22.592 9.344l203.648 203.68c1.472 1.44 9.152 11.296 9.152 17.44v265.824c.448 8.928-5.952 15.904-14.72 15.904zm-16.928-276.32c-.096-.16-.16-.256-.128-.256L244.64-.256 95.968 148.352l25.408 25.408 100.64-100.64c6.24-6.24 14.4-9.344 22.592-9.344 8.16 0 16.352 3.104 22.592 9.344l181.152 181.152V203.68zm0 148.32v-52.32c-.096-.16-.16-.256-.128-.256L244.64 95.744 95.968 244.352l202.304 202.272a29.34 29.34 0 0 0 2.08 1.376h148v-96zm-64 48.128a16 16 1260 1 1 32 0 16 16 1260 1 1-32 0z"/></svg>