<svg width="128" height="128" viewBox="0 0 512 512" xmlns="http://www.w3.org/2000/svg"><path d="M432.32 114.88a2.912 2.912 1260 1 1 5.824 0 2.912 2.912 1260 1 1-5.824 0zm-64.288-66.336a5.792 5.792 1260 1 1 11.584 0 5.792 5.792 1260 1 1-11.584 0zM281.376 14.4a8.704 8.704 1260 1 1 17.408 0 8.704 8.704 1260 1 1-17.408 0zm-93.28 4.576a11.584 11.584 1260 1 1 23.168 0 11.584 11.584 1260 1 1-23.168 0zM105.344 61.44a14.496 14.496 1260 1 1 28.992 0 14.496 14.496 1260 1 1-28.992 0zm-57.312 72.192a17.408 17.408 1260 1 1 34.816 0 17.408 17.408 1260 1 1-34.816 0zm-21.504 88.64a20.288 20.288 1260 1 1 40.576 0 20.288 20.288 1260 1 1-40.576 0zm17.696 88.064a23.2 23.2 1260 1 1 46.4 0 23.2 23.2 1260 1 1-46.4 0zm53.088 71.008a26.112 26.112 1260 1 1 52.224 0 26.112 26.112 1260 1 1-52.224 0zm77.952 40.672a28.992 28.992 1260 1 1 57.984 0 28.992 28.992 1260 1 1-57.984 0zm87.552 2.528a31.904 31.904 1260 1 1 63.808 0 31.904 31.904 1260 1 1-63.808 0zm80.16-36.064a34.784 34.784 1260 1 1 69.568 0 34.784 34.784 1260 1 1-69.568 0zm56.96-67.744a37.696 37.696 1260 1 1 75.392 0 37.696 37.696 1260 1 1-75.392 0zm22.656-87.744a40.608 40.608 1260 1 1 81.216 0 40.608 40.608 1260 1 1-81.216 0z"/></svg>