<svg width="64" height="64" viewBox="0 0 512 512" xmlns="http://www.w3.org/2000/svg"><path d="M480 384H367.488c-17.664 0-37.984-8.992-47.488-32 0 0-4.16-29.344-32-32H64c-17.664 0-32-13.824-32-31.488V0c0-17.664 14.336-32 32-32h416c17.664 0 32 14.336 32 32v352c0 17.664-14.336 32-32 32zm0-95.488V0H64v288h224c1.024 0 2.016.064 3.04.16 30.016 2.848 48.576 23.872 57.152 45.472 8.32 20.864 22.816 18.368 22.816 18.368H480v-63.488zM352 160h-64v64c0 8.832-7.168 16-16 16s-16-7.168-16-16v-64h-64c-8.832 0-16-7.168-16-16s7.168-16 16-16h64V64c0-8.832 7.168-16 16-16s16 7.168 16 16v64h64c8.832 0 16 7.168 16 16s-7.168 16-16 16z"/></svg>