<svg width="128" height="128" viewBox="0 0 512 512" xmlns="http://www.w3.org/2000/svg"><path d="M416 309.568V448h15.776c8.96 0 16.224 7.168 16.224 16s-7.264 16-16.224 16H112.224C103.264 480 96 472.832 96 464s7.264-16 16.224-16H128V309.568c0-9.12 3.904-17.824 10.72-23.904L207.904 224l-69.184-61.664A32.053 32.053 0 0 1 128 138.432V0h-15.776C103.264 0 96-7.168 96-16s7.264-16 16.224-16h319.584C440.736-32 448-24.832 448-16s-7.264 16-16.224 16H416v138.432c0 9.12-3.904 17.824-10.72 23.904L336.096 224l69.184 61.664A32.053 32.053 0 0 1 416 309.568zm-32 0L288 224l96-85.568V0H160v138.432L256 224l-96 85.568V448h224V309.568zm-32 46.336V384H192v-28.096l80-71.296zM192 91.968V32h160v59.968L311.584 128h-79.168z"/></svg>