<svg width="128" height="128" viewBox="0 0 512 512" xmlns="http://www.w3.org/2000/svg"><path d="M272 448C139.456 448 32 340.544 32 208S139.456-32 272-32 512 75.456 512 208 404.544 448 272 448zm0-448C157.312 0 64 93.312 64 208s93.312 208 208 208 208-93.312 208-208S386.688 0 272 0zm27.424 320C328.416 320 352 298.464 352 272c0-8.832 7.168-16 16-16s16 7.168 16 16c0 44.128-37.952 80-84.576 80H288v16c0 8.832-7.168 16-16 16s-16-7.168-16-16v-16h-11.424C197.952 352 160 316.128 160 272s37.952-80 84.576-80H256V96h-11.424C215.584 96 192 117.536 192 144c0 8.832-7.168 16-16 16s-16-7.168-16-16c0-44.128 37.952-80 84.576-80H256V48c0-8.832 7.168-16 16-16s16 7.168 16 16v16h11.424C346.048 64 384 99.872 384 144s-37.952 80-84.576 80H288v96h11.424zm0-128C328.416 192 352 170.464 352 144s-23.584-48-52.576-48H288v96h11.424zM256 224h-11.424C215.584 224 192 245.536 192 272s23.584 48 52.576 48H256v-96z"/></svg>