<svg width="64" height="64" viewBox="0 0 512 512" xmlns="http://www.w3.org/2000/svg"><path d="M320 256H192V96c0-32-64-78.336-64-96v-16c0-8.832 7.168-16 16-16h224c8.832 0 16 7.168 16 16V0c0 17.664-64 64-64 96v160zm50.656 191.456V448h-32v-.544c-.896.16-1.696.544-2.656.544-8.832 0-16-7.168-16-16v-16h-32v16c0 7.904-5.824 14.144-13.344 15.456V448h-32v-.544c-.896.16-1.696.544-2.656.544-8.832 0-16-7.168-16-16v-16h-32v16c0 7.904-5.824 14.144-13.344 15.456V448h-32v-.544c-.896.16-1.696.544-2.656.544-8.832 0-16-7.168-16-16v-80c0-8.48 3.36-16.64 9.376-22.624l32-32A31.97 31.97 0 0 1 192 288h128c8.48 0 16.64 3.36 22.624 9.376l32 32C380.64 335.36 384 343.52 384 352v80c0 7.904-5.824 14.144-13.344 15.456z"/></svg>