<svg width="128" height="128" viewBox="0 0 512 512" xmlns="http://www.w3.org/2000/svg"><path d="M64-32h384c17.664 0 32 14.336 32 32v448c0 17.664-14.336 32-32 32H64c-17.664 0-32-14.336-32-32V0c0-17.664 14.336-32 32-32zm0 480h384V0H64v448zm304-64H240c-8.832 0-16-7.168-16-16s7.168-16 16-16h128c8.832 0 16 7.168 16 16s-7.168 16-16 16zm0-96H144c-8.832 0-16-7.168-16-16s7.168-16 16-16h224c8.832 0 16 7.168 16 16s-7.168 16-16 16zm0-96H144c-8.832 0-16-7.168-16-16s7.168-16 16-16h224c8.832 0 16 7.168 16 16s-7.168 16-16 16zm0-96H144c-8.832 0-16-7.168-16-16s7.168-16 16-16h224c8.832 0 16 7.168 16 16s-7.168 16-16 16z"/></svg>