<svg width="128" height="128" viewBox="0 0 512 512" xmlns="http://www.w3.org/2000/svg"><path d="M32 480c-17.664 0-32-14.336-32-32V0c0-17.664 14.336-32 32-32h32v512H32zm384 0H96V-32h320c17.664 0 32 14.336 32 32v448c0 17.664-14.336 32-32 32zM270.24 356.672c26.752 0 48.416-21.696 48.416-48.416 0-26.752-21.696-48.448-48.416-48.448-26.752 0-48.448 21.696-48.448 48.448s21.696 48.416 48.448 48.416zM192 134.176c0 58.688 35.488 106.24 79.232 106.24s79.232-47.584 79.232-106.24S192 75.52 192 134.176zM480 448h32v-96h-32zm0-128h32v-96h-32zm0-128h32V96h-32z"/></svg>