<svg width="128" height="128" viewBox="0 0 512 512" xmlns="http://www.w3.org/2000/svg"><path d="M32-32h416c17.664 0 32 14.336 32 32v192c0 17.664-14.336 32-32 32h-96c-17.664 0-32-14.336-32-32v256c0 17.664-14.336 32-32 32h-96c-17.664 0-32-14.336-32-32V320c0 17.664-14.336 32-32 32H32c-17.664 0-32-14.336-32-32V0c0-17.664 14.336-32 32-32zm0 32v64h32V0H32zm32 192v-32H32v32h32zm-32 32v32h32v-32H32zm32-96V96H32v32h32zm32 32v32h32v-32H96zm32-32V96H96v32h32zm-32 96v32h32v-32H96zM96 0v64h32V0H96zm32 288H96v32h32v-32zm-64 0H32v32h32v-32zM256 0v64h32V0h-32zm-32 320v-32h-32v32h32zm-32 32v32h32v-32h-32zm32-96v-32h-32v32h32zm0-64v-32h-32v32h32zm0-64V96h-32v32h32zm32 32v32h32v-32h-32zm32-32V96h-32v32h32zm-32 96v32h32v-32h-32zm0 64v32h32v-32h-32zm0 64v32h32v-32h-32zm32 64h-32v32h32v-32zm-64 0h-32v32h32v-32zM192 64h32V0h-32v64zm192 32h-32v32h32V96zm32 32h32V96h-32v32zm0-64h32V0h-32v64zm32 96h-32v32h32v-32zm-64 0h-32v32h32v-32zm-32-96h32V0h-32v64z"/></svg>