<svg width="64" height="64" viewBox="0 0 512 512" xmlns="http://www.w3.org/2000/svg"><path d="M96-32h320c17.664 0 32 14.336 32 32v448c0 17.664-14.336 32-32 32H96c-17.664 0-32-14.336-32-32V0c0-17.664 14.336-32 32-32zm0 480h320V0H96v448zm256-32H160c-17.664 0-32-14.336-32-32v-32c0-17.664 14.336-32 32-32h192c17.664 0 32 14.336 32 32v32c0 17.664-14.336 32-32 32zm0-64H160v32h192v-32zm-224-96a32 32 180 1 1 64 0 32 32 180 1 1-64 0zm0-96a32 32 180 1 1 64 0 32 32 180 1 1-64 0zm0-96a32 32 180 1 1 64 0 32 32 180 1 1-64 0zm96 192a32 32 180 1 1 64 0 32 32 180 1 1-64 0zm0-96a32 32 180 1 1 64 0 32 32 180 1 1-64 0zm0-96a32 32 180 1 1 64 0 32 32 180 1 1-64 0zm96 192a32 32 180 1 1 64 0 32 32 180 1 1-64 0zm0-96a32 32 180 1 1 64 0 32 32 180 1 1-64 0zm0-96a32 32 180 1 1 64 0 32 32 180 1 1-64 0z"/></svg>