<svg width="64" height="64" viewBox="0 0 512 512" xmlns="http://www.w3.org/2000/svg"><path d="M480 416c-1.984 31.328-28.64 64-64 64H96c-35.36 0-62.016-32.672-64-64L0 73.344c0-1.504.352-3.36.448-4.96C.352 66.912 0 65.504 0 64V32C0-3.36 28.64-32 64-32h384c35.36 0 64 28.64 64 64v32c0 1.504-.352 2.912-.448 4.352.096 1.632.448 3.488.448 4.992L480 416zM32 32v32c0 17.632 14.368 32 32 32h384c17.632 0 32-14.368 32-32V32c0-17.632-14.368-32-32-32H64C46.368 0 32 14.368 32 32zm31.936 381.952C64.928 429.696 79.168 448 96 448h320c16.832 0 31.072-18.304 32.128-34.976l27.2-291.392C467.04 125.6 457.824 128 448 128H64c-9.824 0-19.04-2.4-27.36-6.368l27.296 292.32zM416 48a16 16 180 1 1 32 0 16 16 180 1 1-32 0zm-64 0a16 16 180 1 1 32 0 16 16 180 1 1-32 0zM80 32h224c8.832 0 16 7.168 16 16s-7.168 16-16 16H80c-8.832 0-16-7.168-16-16s7.168-16 16-16z"/></svg>