<svg width="64" height="64" viewBox="0 0 512 512" xmlns="http://www.w3.org/2000/svg"><path d="M480 256v96c0 17.664-14.336 32-32 32h-9.536l-10.784 66.56a15.826 15.826 0 0 1-6.432 10.4 15.574 15.574 0 0 1-11.904 2.816L61.44 407.328c-8.736-1.408-14.656-9.632-13.216-18.368l.8-4.96H32c-17.664 0-32-14.336-32-32V0c0-17.664 14.336-32 32-32h416c17.664 0 32 14.336 32 32v96c17.664 0 32 14.336 32 32v96c0 17.664-14.336 32-32 32zM32 352h416v-96H320c-17.664 0-32-14.336-32-32v-96c0-17.664 14.336-32 32-32h128V0H32v352zm85.376 32l281.28 45.664L406.048 384H117.376zM320 128v96h160v-96H320zm32 48a16 16 180 1 1 32 0 16 16 180 1 1-32 0z"/></svg>