<svg width="128" height="128" viewBox="0 0 512 512" xmlns="http://www.w3.org/2000/svg"><path d="M416 96c3.776 0 7.52-.832 11.104-2.176 4.192-1.568 8.16-3.84 11.52-7.2L502.4 22.848C508.384 35.36 512 49.216 512 64c0 50.816-39.584 91.968-89.536 95.36-2.176.128-4.256.64-6.464.64-11.712 0-22.816-2.4-33.184-6.24L185.76 350.816C189.6 361.184 192 372.288 192 384c0 2.208-.512 4.288-.64 6.464C187.968 440.416 146.816 480 96 480c-14.784 0-28.64-3.616-41.152-9.6l63.776-63.776c3.36-3.36 5.664-7.328 7.2-11.52 4.192-11.36 1.92-24.576-7.2-33.728A31.912 31.912 0 0 0 96 352c-3.776 0-7.52.832-11.104 2.176-4.192 1.568-8.16 3.84-11.52 7.2L9.6 425.152C3.616 412.64 0 398.784 0 384c0-50.816 39.584-91.968 89.536-95.36 2.176-.128 4.256-.64 6.464-.64 11.712 0 22.816 2.4 33.184 6.24L326.24 97.184C322.4 86.816 320 75.712 320 64c0-2.208.512-4.288.64-6.464C324.032 7.584 365.184-32 416-32c14.784 0 28.64 3.616 41.152 9.6l-63.776 63.776c-3.36 3.36-5.664 7.328-7.2 11.52-4.192 11.36-1.92 24.576 7.2 33.728A31.912 31.912 0 0 0 416 96z"/></svg>