<svg width="64" height="64" viewBox="0 0 512 512" xmlns="http://www.w3.org/2000/svg"><path d="M26.496 195.904L256 394.816l229.504-198.912A16.019 16.019 0 0 1 496 192c4.48 0 8.928 1.888 12.096 5.504 5.792 6.688 5.056 16.768-1.6 22.592l-240 208a15.994 15.994 0 0 1-20.96 0L160 353.984V384c0 17.664-14.336 32-32 32s-32-14.336-32-32v-85.472L5.504 220.096c-6.656-5.792-7.392-15.904-1.6-22.592 5.824-6.656 15.904-7.392 22.592-1.6zM192 128h128V-32h96c17.664 0 32 14.336 32 32v156.832a31.93 31.93 0 0 1-11.712 24.736l-160 131.168A31.941 31.941 0 0 1 256 320c-7.2 0-14.4-2.432-20.288-7.264l-160-131.168C68.288 175.52 64 166.432 64 156.832V0c0-17.664 14.336-32 32-32h96v160z"/></svg>