<svg width="64" height="64" viewBox="0 0 512 512" xmlns="http://www.w3.org/2000/svg"><path d="M272 448C139.456 448 32 340.544 32 208S139.456-32 272-32 512 75.456 512 208 404.544 448 272 448zm175.008-128h-47.68c-9.28 29.184-22.016 54.752-37.376 75.264 34.816-16.8 64.288-42.944 85.056-75.264zM288 320v93.376c30.24-8.928 59.712-42.464 77.856-93.376H288zm87.168-32c4.512-19.584 7.424-41.024 8.352-64H288v64h87.168zM256 413.376V320h-77.856c18.144 50.912 47.616 84.448 77.856 93.376zM256 288v-64h-95.52c.928 22.976 3.84 44.416 8.352 64H256zm-127.52-64H64.8c1.728 22.496 6.88 44.064 15.232 64h56.32c-4.288-20.256-6.976-41.664-7.872-64zm0-32c.896-22.336 3.584-43.744 7.872-64h-56.32c-8.352 19.936-13.504 41.504-15.232 64h63.68zm32 0H256v-64h-87.168c-4.512 19.584-7.424 41.024-8.352 64zM256 96V2.624C225.76 11.552 196.288 45.088 178.144 96H256zm32-93.376V96h77.856C347.712 45.088 318.24 11.552 288 2.624zM288 128v64h95.52c-.928-22.976-3.84-44.416-8.352-64H288zm127.52 64h63.68c-1.728-22.496-6.88-44.064-15.232-64h-56.32c4.288 20.256 6.976 41.664 7.872 64zm0 32c-.896 22.336-3.584 43.744-7.872 64h56.32c8.352-19.936 13.504-41.504 15.232-64h-63.68zM182.048 395.264c-15.328-20.512-28.096-46.08-37.376-75.264h-47.68c20.768 32.32 50.24 58.464 85.056 75.264zM96.992 96h47.68c9.28-29.184 22.016-54.752 37.376-75.264C147.232 37.536 117.76 63.68 96.992 96zm264.96-75.264C377.28 41.248 390.048 66.816 399.328 96h47.68c-20.768-32.32-50.24-58.464-85.056-75.264z"/></svg>