<svg width="128" height="128" viewBox="0 0 512 512" xmlns="http://www.w3.org/2000/svg"><path d="M440.416 277.088c-4.032 14.016-9.504 27.36-16.448 39.872l31.808 66.912a258.544 258.544 0 0 1-39.904 39.904l-66.912-31.808c-12.48 6.912-25.856 12.416-39.872 16.448l-24.896 69.952C274.944 479.392 265.536 480 256 480s-18.944-.608-28.192-1.632l-24.896-69.952c-13.984-4.032-27.36-9.536-39.84-16.448l-66.944 31.808a258.544 258.544 0 0 1-39.904-39.904l31.808-66.912c-6.912-12.48-12.416-25.856-16.448-39.872L1.632 252.192C.608 242.944 0 233.536 0 224s.608-18.944 1.632-28.192l69.984-24.896c4.032-14.016 9.504-27.36 16.448-39.872L56.256 64.128C68.064 49.408 81.44 36 96.16 24.224l66.912 31.808c12.48-6.912 25.856-12.416 39.872-16.448L227.84-30.4c9.216-.992 18.624-1.6 28.16-1.6s18.944.608 28.192 1.632l24.896 69.984c14.016 4.032 27.36 9.504 39.872 16.448l66.912-31.808C430.592 36.064 444 49.44 455.776 64.16l-31.808 66.912c6.912 12.48 12.416 25.856 16.448 39.872L510.4 195.84c.992 9.216 1.6 18.624 1.6 28.16s-.608 18.944-1.632 28.192l-69.952 24.896zM256 96c-70.688 0-128 57.312-128 128s57.312 128 128 128 128-57.312 128-128S326.688 96 256 96zm-64 128a64 64 1260 1 1 128 0 64 64 1260 1 1-128 0z"/></svg>