<svg width="64" height="64" viewBox="0 0 512 512" xmlns="http://www.w3.org/2000/svg"><path d="M479.584 480c-17.92 0-32.416-14.528-32.416-32.416V372c-36.544 44.256-78.656 108-194.56 108C113.344 480 0 366.688 0 227.392S113.344-25.216 252.608-25.216c109.376 0 205.824 69.856 240.064 173.824 5.664 17.312-3.744 35.968-21.056 41.664-17.312 5.696-35.968-3.712-41.664-21.024C404.672 92.416 333.408 40.8 252.608 40.8c-102.912 0-186.624 83.712-186.624 186.624s83.712 186.24 186.624 186.24c72.864 0 113.344-45.344 146.368-92.896h-81.504c-17.92 0-32.416-14.528-32.416-32.416 0-17.92 14.528-32.416 32.416-32.416h162.112C497.472 255.872 512 270.4 512 288.288v159.296C512 465.472 497.472 480 479.584 480z"/></svg>