<svg width="128" height="128" viewBox="0 0 512 512" xmlns="http://www.w3.org/2000/svg"><path d="M480 352H289.344v-96H512v64c0 17.664-14.336 32-32 32zm-448 0c-17.664 0-32-14.336-32-32v-64h224v96H32zm0-128V0c0-17.664 14.336-32 32-32h160v256H32zM448-32c17.664 0 32 14.336 32 32v224H289.344V-32H448zM255.968 384.256h.096A.753.753 0 0 1 256 384h128c44.192 0 64 21.504 64 48s-19.808 48-64 48c-41.376 0-73.952-18.624-96-40.224-9.664 5.728-20.832 9.216-32.928 9.216-11.584 0-22.304-3.264-31.712-8.576C201.344 461.76 168.96 480 128 480c-44.192 0-64-21.504-64-48s19.808-48 64-48h128c0 .064-.032.192-.032.256zM416 432c0-13.216-17.408-16-32-16h-72.672c-.256.448-.48.928-.736 1.344C326.848 433.152 351.488 448 384 448c14.592 0 32-2.784 32-16zm-320 0c0 13.216 17.408 16 32 16 31.808 0 55.936-14.24 72.192-29.504-.512-.8-.896-1.664-1.376-2.496H128c-14.592 0-32 2.784-32 16z"/></svg>