<svg width="128" height="128" viewBox="0 0 512 512" xmlns="http://www.w3.org/2000/svg"><path d="M404.992 448H104c-17.664 0-32-12-40-32L0 192.512V16C0 7.168 7.168 0 16 0h480c8.832 0 16 7.168 16 16v174.528L448 416c-8.992 20-25.312 32-43.008 32zM94.24 405.344C95.712 408.64 99.456 416 104 416h300.992c4.384 0 9.44-4.512 12.992-11.392L478.304 192H336c-8.832 0-16-7.168-16-16v-48H192v48c0 8.832-7.168 16-16 16H33.152L94.24 405.344zM480 32H32v128h128v-48c0-8.832 7.168-16 16-16h160c8.832 0 16 7.168 16 16v48h128V32z"/></svg>