<svg width="64" height="64" viewBox="0 0 512 512" xmlns="http://www.w3.org/2000/svg"><path d="M272 448C139.456 448 32 340.544 32 208S139.456-32 272-32 512 75.456 512 208 404.544 448 272 448zm27.424-224C346.048 224 384 188.128 384 144s-37.952-80-84.576-80H288V48c0-8.832-7.168-16-16-16s-16 7.168-16 16v16h-11.424C197.952 64 160 99.872 160 144c0 8.832 7.168 16 16 16s16-7.168 16-16c0-26.464 23.584-48 52.576-48H256v96h-11.424C197.952 192 160 227.872 160 272s37.952 80 84.576 80H256v16c0 8.832 7.168 16 16 16s16-7.168 16-16v-16h11.424C346.048 352 384 316.128 384 272c0-8.832-7.168-16-16-16s-16 7.168-16 16c0 26.464-23.584 48-52.576 48H288v-96h11.424zM192 272c0-26.464 23.584-48 52.576-48H256v96h-11.424C215.584 320 192 298.464 192 272zM299.424 96C328.416 96 352 117.536 352 144s-23.584 48-52.576 48H288V96h11.424z"/></svg>