<svg width="128" height="128" viewBox="0 0 512 512" xmlns="http://www.w3.org/2000/svg"><path d="M247.2-30.752c2.88-.832 5.856-1.248 8.8-1.248s5.92.416 8.8 1.248C462.848 25.824 492 226.016 479.776 324c-2.016 15.968-15.648 28-31.776 28-4.576.352-32 5.088-32 64 0 8.48-3.36 16.64-9.376 22.624C399.712 445.536 360 480 256 480s-143.712-34.464-150.624-41.376C99.36 432.64 96 424.48 96 416c0-58.912-27.424-63.648-32.928-64.032-16.128 0-28.832-12-30.848-28C20 226.016 49.184 25.824 247.2-30.752zM64 320s64 0 64 96c0 0 32 32 128 32s128-32 128-32c0-96 64-96 64-96S480 64 256 0C32 64 64 320 64 320zm192-160c17.664 0 32 14.336 32 32v160c0 17.664-14.336 32-32 32s-32-14.336-32-32V192c0-17.664 14.336-32 32-32zm-32-64a32 32 180 1 1 64 0 32 32 180 1 1-64 0z"/></svg>