<svg width="64" height="64" viewBox="0 0 512 512" xmlns="http://www.w3.org/2000/svg"><path d="M480 448H32c-17.664 0-32-14.336-32-32V128c0-17.664 14.336-32 32-32h159.968c-.064-23.136-.992-53.184-9.76-64h-6.464C167.04 32 160 24.832 160 16s7.04-16 15.744-16h160.48C344.96 0 352 7.168 352 16s-7.04 16-15.744 16h-6.464c-8.8 10.816-9.696 40.864-9.76 64H480c17.664 0 32 14.336 32 32v288c0 17.664-14.336 32-32 32zM224 96l-.032-.064c0 .032 0 .032.032.064zm64.032-.064L288 96h.032v-.064zM480 160H32v256h448V160z"/></svg>