<svg width="128" height="128" viewBox="0 0 512 512" xmlns="http://www.w3.org/2000/svg"><path d="M480 352H96c-2.496 0-4.672-.864-7.008-1.408l-12.416 53.056A15.99 15.99 0 0 1 60.992 416h-45.92c-8.832 0-16-7.168-16-16s7.136-16 16-16H48.32l19.872-84.992L96 160c0-1.152.544-2.144.672-3.264l-16.288-73.28a15.948 15.948 0 0 1 3.136-13.472C86.56 66.176 91.136 64 96 64h363.008c8.832 0 16 7.168 16 16s-7.168 16-16 16h-343.04l7.328 32.96c1.6-.256 3.04-.96 4.704-.96h291.68c17.664 0 28.32 3.488 36.832 24l51.968 159.424C517.504 340 497.696 352 480 352zM96 0a32 32 1260 1 1 64 0 32 32 1260 1 1-64 0zm288 0a32 32 1260 1 1 64 0 32 32 1260 1 1-64 0z"/></svg>