<svg width="64" height="64" viewBox="0 0 512 512" xmlns="http://www.w3.org/2000/svg"><path d="M225.216 368.352c-33.888 33.824-76.448 36.672-106.048 7.072-29.6-29.568-26.784-72.192 7.04-106.048L309.376 86.208c6.24-6.24 16.384-6.24 22.624 0s6.24 16.384 0 22.624L148.832 292c-16.416 16.416-26.88 40.992-7.072 60.8 19.776 19.808 44.384 9.312 60.8-7.104L406.208 142.08c58.4-58.464 72.96-85.408 38.176-120.224-35.2-35.168-72.512-26.464-128.704 29.696L89.44 277.856C52.896 314.4 27.296 374.08 75.328 422.08c57.024 57.024 122.144.96 140.704-17.632l207.872-207.904c6.24-6.24 16.384-6.24 22.624 0s6.24 16.384 0 22.624L238.656 427.072c-62.848 62.848-134.112 69.568-185.984 17.632C.256 392.32 5.92 316.16 66.816 255.232L293.088 28.96c19.232-19.232 60.416-60.384 107.776-60.384 21.28 0 43.84 8.352 66.176 30.688 63.584 63.616 4.768 122.496-38.176 165.472L225.216 368.352z"/></svg>