<svg width="64" height="64" viewBox="0 0 512 512" xmlns="http://www.w3.org/2000/svg"><path d="M256 480C114.624 480 0 365.376 0 224S114.624-32 256-32 512 82.624 512 224 397.376 480 256 480zm0-480C132.48 0 32 100.48 32 224s100.48 224 224 224 224-100.48 224-224S379.52 0 256 0zm-30.016 304.992c0 27.072-21.952 48.992-48.992 48.992S128 332.064 128 304.992 149.952 256 176.992 256s48.992 21.952 48.992 48.992zm-65.984 0c0 9.376 7.616 16.992 16.992 16.992s16.992-7.616 16.992-16.992S186.368 288 176.992 288 160 295.616 160 304.992zm175.008-111.008c-27.072 0-48.992-21.952-48.992-48.992S307.936 96 335.008 96 384 117.952 384 144.992s-21.952 48.992-48.992 48.992zm0-65.984c-9.376 0-16.992 7.616-16.992 16.992s7.616 16.992 16.992 16.992S352 154.368 352 144.992 344.384 128 335.008 128zm28.32 203.328c-6.24 6.24-16.384 6.24-22.624 0l-192-192c-6.24-6.24-6.24-16.384 0-22.624 3.104-3.136 7.2-4.704 11.296-4.704s8.192 1.568 11.328 4.672l192 192c6.24 6.272 6.24 16.384 0 22.656z"/></svg>