<svg width="128" height="128" viewBox="0 0 512 512" xmlns="http://www.w3.org/2000/svg"><path d="M256-32c141.376 0 256 114.624 256 256S397.376 480 256 480 0 365.376 0 224 114.624-32 256-32zm0 448c63.712 0 128-36.48 128-118.016 0-47.456-23.52-84.512-69.888-110.016C300.672 180.576 288 165.952 288 160c0-17.664-14.336-32-32-32s-32 14.336-32 32c0 40.608 37.248 71.936 59.264 84.032C315.616 261.888 320 281.344 320 297.984 320 344.992 279.904 352 256 352c-30.816 0-64-20.224-64-64.672 0-17.664-14.336-32-32-32s-32 14.336-32 32C128 370.912 193.952 416 256 416zm0-385.408c-18.208 0-32.96 14.752-32.96 32.96s14.752 32.96 32.96 32.96 32.96-14.752 32.96-32.96-14.752-32.96-32.96-32.96z"/></svg>