<svg width="64" height="64" viewBox="0 0 512 512" xmlns="http://www.w3.org/2000/svg"><path d="M64 416V128l4.736-11.84L128-32l64 160-.16.064c.096.096.064.256.16.352V416c0 35.36-28.64 64-64 64s-64-28.64-64-64zm32 0c0 17.632 14.368 32 32 32s32-14.368 32-32v-32H96v32zm32-361.824L111.52 95.36l-6.4 16-.48 1.184 23.36 11.68 23.36-11.68-.48-1.216-6.4-16L128 54.176zm274.944 330.496l-30.24 77.344-.288-.064C370.912 472.096 362.56 480 352 480c-10.432 0-18.976-8.032-20.672-18.08l-.32.064-29.952-77.312L288 352V32c0-35.36 28.64-64 64-64s64 28.64 64 64c17.664 0 32 14.336 32 32v96c0 17.664-14.336 32-32 32v160l-13.056 32.672zm-29.728-11.904l8.32-20.768h-59.072l8.32 20.768 4.48 11.232L352 425.824 368.736 384l4.48-11.232z"/></svg>