<svg width="64" height="64" viewBox="0 0 512 512" xmlns="http://www.w3.org/2000/svg"><path d="M78.4 127.936H224V44.928C222.88.032 232.992-32 271.008-32 312-32 320 2.016 320 2.016c7.488 120.48 128 157.92 128 157.92v256l-46.752 1.984c-121.056 0-48.416 62.016-247.328 62.016C2.88 479.936 0 347.008 0 255.936s41.504-128 78.4-128zm75.52 320c101.056 0 122.464-16.096 141.376-30.304 23.872-17.952 46.848-31.68 104.384-31.68h.192L416 385.28V181.472c-39.904-18.656-119.2-68.544-127.648-173.376C287.104 5.536 282.976 0 271.008 0c-2.848 0-6.528.32-8.096 1.92-1.312 1.344-7.744 9.632-6.912 43.008v115.008H78.4c-23.072 0-46.4 32.96-46.4 96 0 124.512 19.424 192 121.92 192zm342.08 0c-8.832 0-16-7.168-16-16V145.28c0-8.832 7.168-16 16-16s16 7.168 16 16v286.656c0 8.832-7.168 16-16 16z"/></svg>