<svg width="64" height="64" viewBox="0 0 512 512" xmlns="http://www.w3.org/2000/svg"><path d="M64 384V128l4.736-11.84L128-32l64 160-.16.064c.096.096.064.256.16.352V416c0 35.36-28.64 64-64 64s-64-28.64-64-64v-32zm32 32c0 17.632 14.368 32 32 32s32-14.368 32-32v-32H96v32zm32-361.824L111.52 95.36l-6.4 16-.48 1.184 23.36 11.68 23.36-11.68-.48-1.216-6.4-16L128 54.176zM160 144l-32 16-32-16V352h64V144zm242.944 240.672L372.288 464l-.288-.096C369.76 473.056 361.856 480 352 480c-10.592 0-18.944-7.936-20.416-18.112l-.576.128-29.952-77.344L288 352V32c0-35.36 28.64-64 64-64s64 28.64 64 64c17.664 0 32 14.336 32 32v96c0 17.664-14.336 32-32 32v160l-13.056 32.672zM384 160V32c0-17.632-14.368-32-32-32s-32 14.368-32 32v320h64V160zm-15.264 224h-33.472L352 425.824 368.736 384z"/></svg>