<svg width="64" height="64" viewBox="0 0 512 512" xmlns="http://www.w3.org/2000/svg"><path d="M510.144 272.864c-3.776 11.584-13.792 20.032-25.824 21.792L346.4 314.688l-61.696 124.96c-5.408 10.944-16.512 17.856-28.704 17.856s-23.296-6.912-28.704-17.856l-61.664-124.96-137.92-20.032c-12.064-1.76-22.08-10.208-25.824-21.792a31.946 31.946 0 0 1 8.096-32.8l99.808-97.28L86.24 5.408a32.03 32.03 0 0 1 12.736-31.296C104.512-29.952 111.104-32 117.76-32a31.895 31.895 0 0 1 14.88 3.68L256 36.544 379.36-28.32A31.895 31.895 0 0 1 394.24-32c6.624 0 13.248 2.048 18.816 6.112a32.03 32.03 0 0 1 12.736 31.296L402.24 142.784l99.808 97.28c8.704 8.48 11.84 21.216 8.096 32.8zM367.84 153.952L394.24 0 256 72.672 117.76 0l26.4 153.952L32.32 262.976l154.56 22.464L256 425.504l69.12-140.064 154.56-22.464-111.84-109.024z"/></svg>