<svg width="128" height="128" viewBox="0 0 512 512" xmlns="http://www.w3.org/2000/svg"><path d="M272 448C139.456 448 32 340.544 32 208S139.456-32 272-32 512 75.456 512 208 404.544 448 272 448zm0-448C157.312 0 64 93.312 64 208s93.312 208 208 208 208-93.312 208-208S386.688 0 272 0zm88.576 319.2l-87.968-87.968-78.88 87.968c-6.24 6.24-16.384 6.24-22.624 0-6.24-6.24-6.24-16.384 0-22.624l78.912-87.968-89.184-89.184c-6.24-6.24-6.24-16.384 0-22.624 6.24-6.24 16.384-6.24 22.624 0l87.968 87.968L350.336 96.8c6.24-6.24 16.384-6.24 22.624 0s6.24 16.384 0 22.624l-78.944 87.968 89.184 89.184c6.24 6.24 6.24 16.384 0 22.624-6.24 6.24-16.384 6.24-22.624 0z"/></svg>