<svg width="64" height="64" viewBox="0 0 512 512" xmlns="http://www.w3.org/2000/svg"><path d="M506.24 15.072l-222.016 416A31.956 31.956 0 0 1 256.032 448H256a31.964 31.964 0 0 1-28.192-16.896L4.8 15.104a32.056 32.056 0 0 1 .736-31.552C11.328-26.08 21.76-32 32.992-32h444.992a32.007 32.007 0 0 1 27.456 15.552c5.792 9.632 6.08 21.6.8 31.52zM32.992 0L256 416 478.016 0H32.992zM224 255.488v-96c0-17.664 14.336-32 32-32s32 14.336 32 32v96c0 17.664-14.336 32-32 32s-32-14.304-32-32zM224 64a32 32 1260 1 1 64 0 32 32 1260 1 1-64 0z"/></svg>