<svg width="128" height="128" viewBox="0 0 512 512" xmlns="http://www.w3.org/2000/svg"><path d="M273.056 445.856c-61.152 0-122.304-23.328-168.96-69.984-93.312-93.312-93.312-244.608 0-337.888C150.784-8.672 211.904-32 273.056-32S395.36-8.672 442.016 37.984c93.312 93.312 93.312 244.608 0 337.888-46.656 46.656-107.808 69.984-168.96 69.984zM419.392 60.608C380.32 21.536 328.352 0 273.056 0 217.792 0 165.824 21.536 126.72 60.608c-39.072 39.072-60.608 91.04-60.608 146.336S87.648 314.176 126.72 353.28c39.072 39.072 91.04 60.608 146.336 60.608 55.264 0 107.232-21.536 146.336-60.608S480 262.208 480 206.944 458.464 99.68 419.392 60.608zM368 224h-80v112.224c0 8.832-7.168 16-16 16s-16-7.168-16-16V208.096 208c0-8.832 7.168-16 16-16h96c8.832 0 16 7.168 16 16s-7.168 16-16 16z"/></svg>