<svg width="64" height="64" viewBox="0 0 512 512" xmlns="http://www.w3.org/2000/svg"><path d="M128.96 183.904c24.736 43.744-7.968 53.344-13.088 85.056-20.96 129.6 149.504 218.112 238.784 127.552 61.76-62.72 21.088-255.552-78.496-235.52-95.392 19.168 46.72 172.672-29.408 202.784-61.888 24.512-94.752-74.88-65.408-124.288C164.128 154.528 127.072 74.528 142.08-32c48.64 35.296 65.056 102.912 78.496 173.408 24.448-14.88 37.536-30.336 68.704-32.736 114.976-8.928 179.232 114.784 163.488 228.96-13.952 101.184-114.848 152.704-222.432 140.64-85.056-9.536-169.856-78.304-173.376-176.64-2.144-60.032 14.88-105.088 72-117.728z"/></svg>