<svg width="128" height="128" viewBox="0 0 512 512" xmlns="http://www.w3.org/2000/svg"><path d="M352 229.056l-34.016-12-29.984 12V167.04C288 107.072 331.072 64 384 64s96 43.072 96 96v64h-64v-64c0-17.632-14.368-32-32-32-17.632 0-32 14.368-32 39.008v62.048zM128 64c52.928 0 96 43.072 96 96v128c0 17.632 14.368 32 32 32 17.6 0 32-14.336 32-24.96V264l30.016-12L352 264v31.04c0 45.92-43.072 88.96-96 88.96s-96-43.04-96-96V160c0-17.632-14.368-32-32-32-17.632 0-32 14.368-32 32v64H32v-64c0-52.928 43.072-96 96-96z"/></svg>