<svg width="128" height="128" viewBox="0 0 512 512" xmlns="http://www.w3.org/2000/svg"><path d="M416 480H96c-53.024 0-96-42.976-96-96V64c0-53.024 42.976-96 96-96h320c53.024 0 96 42.976 96 96v320c0 53.024-42.976 96-96 96zM138.08 64.768c-23.008 0-41.696 18.56-41.696 41.536 0 22.848 18.688 41.632 41.696 41.632 23.072 0 41.728-18.784 41.76-41.632 0-22.976-18.656-41.536-41.76-41.536zm104.768-.384c0 39.264-15.264 76.16-42.912 103.776-27.648 27.712-64.416 43.008-103.488 43.008V271.2c113.952 0 206.72-92.768 206.72-206.816h-60.32zm106.528.032c0 139.584-113.44 253.152-252.864 253.152V377.6C269.12 377.6 409.6 237.056 409.6 64.416h-60.224z"/></svg>