<svg width="128" height="128" viewBox="0 0 512 512" xmlns="http://www.w3.org/2000/svg"><path d="M478.912 288h-28.704c-17.568 0-32.992 14.88-34.208 32 0 91.328-73.632 160-165.6 160h-83.904C74.592 480 .064 405.984 0 314.656V133.248C0 41.952 74.592-32 166.496-32h179.2C437.664-32 512 41.952 512 133.28v117.184c0 18.24-14.72 37.536-33.088 37.536zM160 352h96c17.6 0 32-14.4 32-32s-14.4-32-32-32h-96c-17.6 0-32 14.4-32 32s14.4 32 32 32zM352 96H160c-17.6 0-32 14.4-32 32s14.4 32 32 32h192c17.6 0 32-14.4 32-32s-14.4-32-32-32z"/></svg>