<svg width="128" height="128" viewBox="0 0 512 512" xmlns="http://www.w3.org/2000/svg"><path d="M256 480C114.624 480 0 365.376 0 224S114.624-32 256-32 512 82.624 512 224c0 141.408-114.624 256-256 256zm-64-380h-64v224h64V100zm-30.016 237.728c-16.576 0-29.984 13.44-29.984 30.016s13.44 30.016 29.984 30.016C178.56 397.728 192 384.288 192 367.744c0-16.576-13.44-30.016-30.016-30.016zM416 100h-64v138.496c0 16.224-4.64 27.584-24.576 27.584-33.056 0-39.424-27.584-39.424-27.584V100h-64v224h64v-21.408c9.152 7.008 32 21.376 64 21.376 20.768 0 64-12.416 64-87.424V100z"/></svg>