<svg width="128" height="128" viewBox="0 0 512 512" xmlns="http://www.w3.org/2000/svg"><path d="M377.376 328.896c14.08-10.656 31.552-17.024 50.56-17.024 46.432 0 84.064 37.632 84.064 84.064C512 442.368 474.368 480 427.936 480c-46.4 0-84.064-37.632-84.064-84.064v-.064l-207.488-100.32c-14.368 11.456-32.544 18.368-52.32 18.368C37.632 313.92 0 276.256 0 229.856s37.632-84.064 84.064-84.064c16.768 0 32.384 4.992 45.504 13.44L343.904 55.616v-.064c0-46.432 37.632-84.064 84.064-84.064 46.432 0 84.064 37.632 84.064 84.064 0 46.432-37.632 84.064-84.064 84.064-19.008 0-36.48-6.368-50.56-17.024l-209.6 101.312c.096 1.28.16 2.528.192 3.808l209.376 101.184z"/></svg>