<svg width="64" height="64" viewBox="0 0 512 512" xmlns="http://www.w3.org/2000/svg"><path d="M293.696 327.136c58.496 35.104 89.728-14.272 59.776-70.176-29.888-55.872-57.184-92.288-71.488-92.288-14.272 0-25.248 37.376-41.6 102.72-16.896 67.552-16.8 189.216-87.072 175.424C87.072 429.792 0 325.824 0 325.824l20.8-27.264s42.88 33.792 57.184 16.896c14.304-16.896 68.864-220.992 87.072-258.624C180.96 23.808 224.8-19.84 272.928 11.328c48.064 31.168 207.904 167.648 236.544 328.8 28.576 161.12-192.352 127.36-215.776-12.992z"/></svg>