<svg width="128" height="128" viewBox="0 0 512 512" xmlns="http://www.w3.org/2000/svg"><path d="M256 480C114.624 480 0 365.376 0 224S114.624-32 256-32 512 82.624 512 224c0 141.408-114.624 256-256 256zM416 75.552C416 69.184 410.816 64 404.448 64H107.552C101.184 64 96 69.184 96 75.552v296.896c0 6.368 5.184 11.552 11.552 11.552h296.896c6.368 0 11.552-5.184 11.552-11.552V75.552zM192 224a64 64 1260 1 1 128 0 64 64 1260 1 1-128 0zm128 128h64v-64h-64zm31.2-128c0-52.512-42.72-95.2-95.2-95.2s-95.2 42.688-95.2 95.2c0 6.816.8 9.568 2.144 16H128V96h256v144h-34.944c1.376-6.432 2.144-9.184 2.144-16z"/></svg>