<svg width="128" height="128" viewBox="0 0 512 512" xmlns="http://www.w3.org/2000/svg"><path d="M488.896 480H23.104C10.368 480 0 469.664 0 456.928V-8.928C0-21.632 10.368-32 23.104-32h465.792C501.632-32 512-21.632 512-8.928v465.856C512 469.664 501.632 480 488.896 480zM345.344 224c0-49.344-40-89.344-89.344-89.344s-89.344 40-89.344 89.344c0 49.344 40 89.344 89.344 89.344s89.344-40 89.344-89.344zM448 32H64v224h42.144c-2.208-10.336-3.488-21.024-3.488-32 0-84.544 68.8-153.344 153.344-153.344S409.344 139.456 409.344 224c0 10.976-1.28 21.664-3.488 32H448V32zm0 288h-96v96h96v-96z"/></svg>