<svg width="128" height="128" viewBox="0 0 512 512" xmlns="http://www.w3.org/2000/svg"><path d="M416 480H96c-53.024 0-96-42.976-96-96V64c0-53.024 42.976-96 96-96h320c53.024 0 96 42.976 96 96v320c0 53.024-42.976 96-96 96zm0-404.448C416 69.184 410.816 64 404.448 64H107.552C101.184 64 96 69.184 96 75.552v296.896c0 6.368 5.184 11.552 11.552 11.552h296.896c6.368 0 11.552-5.184 11.552-11.552V75.552zM320 352h64v-64h-64zM192 224a64 64 1260 1 1 128 0 64 64 1260 1 1-128 0zm159.2 0c0-52.512-42.72-95.2-95.2-95.2s-95.2 42.688-95.2 95.2c0 6.816.8 9.568 2.144 16H128V96h256v144h-34.944c1.376-6.432 2.144-9.184 2.144-16z"/></svg>