<svg width="64" height="64" viewBox="0 0 512 512" xmlns="http://www.w3.org/2000/svg"><path d="M416 480H96c-53.024 0-96-42.976-96-96V64c0-53.024 42.976-96 96-96h320c53.024 0 96 42.976 96 96v320c0 53.024-42.976 96-96 96zM256 292.608c-12.608 0-22.88-10.272-22.88-22.88V178.24c0-37.824-30.784-68.608-68.608-68.608-37.824 0-68.608 30.784-68.608 68.608V224h45.728v-45.728c0-12.608 10.272-22.88 22.88-22.88 12.608 0 22.88 10.272 22.88 22.88v91.456c0 37.824 30.784 68.608 68.608 68.608s68.608-30.784 68.608-63.616v-22.176L295.296 244l-16.448 8.576v22.176c0 7.584-10.272 17.856-22.848 17.856zm160.064-114.336c0-37.824-30.784-68.608-68.608-68.608s-68.608 30.784-68.608 73.632v44.288l16.448-8.576 29.312 8.576v-44.32c0-17.6 10.272-27.872 22.88-27.872s22.88 10.272 22.88 22.88V224h45.728v-45.728z"/></svg>