<svg width="64" height="64" viewBox="0 0 512 512" xmlns="http://www.w3.org/2000/svg"><path d="M256 480C114.624 480 0 365.376 0 224S114.624-32 256-32 512 82.624 512 224c0 141.408-114.624 256-256 256zm0-64c25.472 0 49.76-4.96 72-13.952V268.16L191.328 404.832A192.301 192.301 0 0 0 256 416zM69.6 177.792A192.744 192.744 0 0 0 64 224c0 72.544 40.192 135.648 99.552 168.32L223.84 332 69.6 177.792zM160 57.696c-35.488 20.512-63.776 52.064-80.192 89.952L160 227.84V57.696zM256 32c-25.472 0-49.76 4.96-72 13.984V128h238.304C389.088 70.624 327.072 32 256 32zm178.016 120H352v238.304c57.376-33.216 96-95.232 96-166.304 0-25.472-4.96-49.76-13.984-72z"/></svg>