<svg width="128" height="128" viewBox="0 0 512 512" xmlns="http://www.w3.org/2000/svg"><path d="M164.736 90.624c0-23.392 2.464-41.28 7.36-53.6 4.928-12.32 13.696-23.968 26.432-34.912 12.672-10.88 28.032-19.36 46.016-25.28C262.56-29.056 276.32-32 299.744-32c20.608 0 39.776 2.08 57.536 6.208 17.728 4.16 36.8 10.176 58.656 20.448v76.992c-25.632-16.864-40.96-20.288-66.88-20.288-14.56 0-27.488 3.392-38.848 10.208-8.544 5.024-16.352 13.728-19.488 22.08-3.168 8.416-2.784 25.536-2.784 55.264L288 256h127.968v96H288v128h-82.56c-3.264-26.4-9.28-48.192-17.952-65.248-8.672-17.12-20.192-31.744-34.56-43.968-14.272-12.192-36.768-21.568-56.864-28.096V256h68.704V90.624z"/></svg>