<svg width="128" height="128" viewBox="0 0 512 512" xmlns="http://www.w3.org/2000/svg"><path d="M128 2.272V229.12L21.056 122.208C42.976 71.68 80.704 29.632 128 2.272zm32-15.648C189.632-25.376 222.048-32 256-32c94.752 0 177.472 51.488 221.728 128H160V-13.376zM213.12 368l-80.384 80.416C53.6 404.864 0 320.704 0 224c0-21.248 2.592-41.888 7.488-61.632L213.12 368zM352 461.376c-29.664 12-62.048 18.624-96 18.624-30.272 0-59.296-5.28-86.24-14.912L352 282.88v178.496zm32-15.648V128h109.376c12 29.664 18.624 62.048 18.624 96 0 94.752-51.488 177.472-128 221.728z"/></svg>