<svg width="128" height="128" viewBox="0 0 512 512" xmlns="http://www.w3.org/2000/svg"><path d="M256 480C114.848 480 0 365.152 0 224S114.848-32 256-32 512 82.848 512 224 397.152 480 256 480zm0-37.664c55.584 0 106.336-20.832 144.96-55.104-3.936-5.6-36.832-49.824-114.592-78.976-35.84 65.824-75.552 119.904-81.6 128a218.206 218.206 0 0 0 51.232 6.08zm-92.96-20.768c5.76-7.904 44.832-62.048 81.056-126.464-102.272-27.168-192.352-26.784-202.144-26.656 14.176 67.872 59.904 124.256 121.088 153.12zM37.312 223.68c0 2.24.032 4.48.096 6.688 9.568-.224 115.552-1.568 224.736 31.104a740.394 740.394 0 0 0 17.728-37.12c-2.88-.8-5.76-1.664-8.608-2.592C158.496 185.312 98.496 85.952 93.536 77.472 58.624 116.224 37.344 167.52 37.312 223.68zM255.968 5.024c-50.528 0-97.12 17.248-134.208 46.144 3.936 8.032 48.224 93.568 171.552 136.544l1.44.48c30.72-79.776 43.392-146.624 46.656-165.824-26.24-11.168-55.104-17.376-85.44-17.344zM378.176 42.4c-2.24 13.312-13.856 77.312-42.464 155.904 68.512 10.976 128.704-6.976 136.192-9.344-9.76-60.832-44.672-113.376-93.728-146.56zm-55.84 190.368c-1.536 3.744-3.104 7.52-4.704 11.296a688.325 688.325 0 0 1-14.496 31.68C384 308.736 420.64 355.712 425.248 361.952c30.464-37.216 48.896-84.608 49.344-136.224-7.2 1.536-79.488 16.192-152.256 7.04z"/></svg>