<svg width="128" height="128" viewBox="0 0 1664 1664" xmlns="http://www.w3.org/2000/svg"><path d="M1201 298q0 57-5.5 107t-21 100.5-39.5 86-64 58-91 22.5q-6-4-33.5-20.5T904 627t-40.5-20-49-17-46.5-5-46.5 5-49 17-40.5 20-42.5 24.5T556 672q-51 0-91-22.5t-64-58-39.5-86-21-100.5-5.5-107q0-73 42-121.5T480 128h576q61 0 103 48.5t42 121.5zm-173 594q0 108-76.5 184T768 1152t-183.5-76T508 892q0-107 76.5-183T768 633t183.5 76 76.5 183zm636-540V160q0-14-9-23t-23-9h-96V-96q0-66-47-113t-113-47H160q-66 0-113 47T0-96v1472q0 66 47 113t113 47h1216q66 0 113-47t47-113v-224h96q14 0 23-9t9-23V928q0-14-9-23t-23-9h-96V768h96q14 0 23-9t9-23V544q0-14-9-23t-23-9h-96V384h96q14 0 23-9t9-23z"/></svg>