<svg width="128" height="128" viewBox="0 0 2048 2048" xmlns="http://www.w3.org/2000/svg"><path d="M1024 405q0 64-9 117.5t-29.5 103-60.5 78-97 28.5q-6-4-30-18t-37.5-21.5T725 675t-43-14.5-42-4.5-42 4.5-43 14.5-35.5 17.5T482 714t-30 18q-57 0-97-28.5t-60.5-78-29.5-103-9-117.5 37-106.5 91-42.5h512q54 0 91 42.5t37 106.5zM867 925q0 94-66.5 160.5T640 1152t-160.5-66.5T413 925t66.5-160.5T640 698t160.5 66.5T867 925zm925-509v64q0 14-9 23t-23 9h-576q-14 0-23-9t-9-23v-64q0-14 9-23t23-9h576q14 0 23 9t9 23zm0 260v56q0 15-10.5 25.5T1756 768h-568q-15 0-25.5-10.5T1152 732v-56q0-15 10.5-25.5T1188 640h568q15 0 25.5 10.5T1792 676zm0 252v64q0 14-9 23t-23 9h-576q-14 0-23-9t-9-23v-64q0-14 9-23t23-9h576q14 0 23 9t9 23zm256 320V32q0-66-47-113t-113-47h-352v96q0 14-9 23t-23 9h-64q-14 0-23-9t-9-23v-96H640v96q0 14-9 23t-23 9h-64q-14 0-23-9t-9-23v-96H160q-66 0-113 47T0 32v1216q0 66 47 113t113 47h1728q66 0 113-47t47-113z"/></svg>