<svg width="64" height="64" viewBox="0 0 1664 1664" xmlns="http://www.w3.org/2000/svg"><path d="M1028 892q0-107-76.5-183T768 633t-183.5 76T508 892q0 108 76.5 184t183.5 76 183.5-76 76.5-184zm-48-220q46 0 82.5-17t60-47.5 39.5-67 24-81 11.5-82.5 3.5-79q0-67-39.5-118.5T1056 128H480q-66 0-105.5 51.5T335 298q0 48 4.5 93.5T358 490t36.5 91.5 63 64.5 93.5 26h5q7-4 32-19.5t35.5-21 33-17 37-16 35-9T768 585t39.5 4.5 35 9 37 16 33 17 35.5 21 32 19.5zm684 256q0-13-9.5-22.5T1632 896h-96V768h96q13 0 22.5-9.5t9.5-22.5V544q0-13-9.5-22.5T1632 512h-96V384h96q13 0 22.5-9.5t9.5-22.5V160q0-13-9.5-22.5T1632 128h-96V-96q0-66-47-113t-113-47H160q-66 0-113 47T0-96v1472q0 66 47 113t113 47h1216q66 0 113-47t47-113v-224h96q13 0 22.5-9.5t9.5-22.5V928zM1408-96v1472q0 13-9.5 22.5t-22.5 9.5H160q-13 0-22.5-9.5T128 1376V-96q0-13 9.5-22.5T160-128h1216q13 0 22.5 9.5T1408-96z"/></svg>