<svg width="64" height="64" viewBox="0 0 1792 1792" xmlns="http://www.w3.org/2000/svg"><path d="M1551 60q15 6 26 3t11-17.5-15-33.5q-13-16-44-43.5t-95.5-68-141-74-188-58T875-256q-119 0-238 31t-209 76.5-172.5 104T123 60.5 39 148q-8 9-10 16.5t1 12 8 7 11.5 2T61 181Q253 64 361 15q389-176 799-90 190 40 391 135zm207 115q11-16 2.5-69.5T1732 3q-34-83-85-124-17-14-26-9t0 24q21 45 44.5 121.5t6.5 98.5q-5 7-15.5 11.5t-27 6-29.5 2.5-35 0-31.5-2-31-3-22.5-2q-6-1-13-1.5t-11-1-8.5-1-7-.5h-10l-3 .5-2 1.5-1.5 3q-6 16 47 40t103 30q46 7 108 1t76-24zm-394 443q0-31 13.5-64t32-58 37.5-46 33-32l13-11-227-224q-40 37-79 75.5t-58 58.5l-19 20q-11 11-25 33-38-59-97.5-102.5T860 204t-140-23-137.5 21T465 267.5t-83 113T351 543q0 84 28 154t72 116.5 106.5 83 122.5 57T810 988t119.5 18.5 99.5 6.5v127q0 65-21 97-34 53-121 53-6 0-16.5-1t-40.5-12-56-29.5-56-59.5-48-96l-294 27q0 60 22 119t67 113 108 95 151.5 65.5T915 1536q100 0 181-25t129.5-61.5 81-83 45-86 12.5-73.5V618zm-672-21q0-86 70-133 66-44 139-22 84 25 114 123 14 45 14 101v162q-59-2-111-12t-106.5-33.5-87-71T692 597z"/></svg>