<svg width="128" height="128" viewBox="0 0 1920 1920" xmlns="http://www.w3.org/2000/svg"><path d="M640 128q0 53-37.5 90.5T512 256t-90.5-37.5T384 128t37.5-90.5T512 0t90.5 37.5T640 128zM256 640h384v256H482q-14-2-22-9L265 692q-7-12-9-22v-30zm1280-512q0 53-37.5 90.5T1408 256t-90.5-37.5T1280 128t37.5-90.5T1408 0t90.5 37.5T1536 128zm128 672v192q0 14-9 23t-23 9h-224v224q0 14-9 23t-23 9h-192q-14 0-23-9t-9-23v-224H928q-14 0-23-9t-9-23V800q0-14 9-23t23-9h224V544q0-14 9-23t23-9h192q14 0 23 9t9 23v224h224q14 0 23 9t9 23zm256 544V192q0-26-19-45t-45-19h-192q0-106-75-181t-181-75-181 75-75 181H768q0-106-75-181t-181-75-181 75-75 181H128q-26 0-45 19t-19 45 19 45 45 19v416q0 26 13 58t32 51l198 198q19 19 51 32t58 13h160v320q0 26 19 45t45 19h1152q26 0 45-19t19-45z"/></svg>