<svg width="64" height="64" viewBox="0 0 1408 1408" xmlns="http://www.w3.org/2000/svg"><path d="M493 1053q16 0 27.5 11.5T532 1092t-11.5 27.5T493 1131t-27-11.5-11-27.5 11-27.5 27-11.5zm422 0q16 0 27 11.5t11 27.5-11 27.5-27 11.5-27.5-11.5T876 1092t11.5-27.5T915 1053zM103 869q42 0 72-30t30-72V337q0-43-29.5-73T103 234t-73 30-30 73v430q0 42 30 72t73 30zm1060-19V184q0-46-32-78t-77-32h-75v-227q0-43-30-73t-73-30-73 30-30 73V74H635v-227q0-43-30-73t-73-30q-42 0-72 30t-30 73l-1 227h-74q-46 0-78 32t-32 78v666h918zm-232 405q107-55 171-153.5t64-215.5H241q0 117 64 215.5T477 1255l-71 131q-7 13 5 20 13 6 20-6l72-132q95 42 201 42t201-42l72 132q7 12 20 6 12-7 5-20zm477-488V337q0-43-30-73t-73-30q-42 0-72 30t-30 73v430q0 43 30 72.5t72 29.5q43 0 73-29.5t30-72.5z"/></svg>