<svg width="128" height="128" viewBox="0 0 1536 1536" xmlns="http://www.w3.org/2000/svg"><path d="M1152 736V544q0-13-9.5-22.5T1120 512H768V320q0-14-9-23t-23-9q-12 0-24 10L393 617q-9 9-9 23t9 23l320 320q9 9 23 9 13 0 22.5-9.5T768 960V768h352q13 0 22.5-9.5t9.5-22.5zm160-96q0 148-73 273t-198 198-273 73-273-73-198-198-73-273 73-273 198-198 273-73 273 73 198 198 73 273zm224 0q0-209-103-385.5T1153.5-25 768-128 382.5-25 103 254.5 0 640t103 385.5T382.5 1305 768 1408t385.5-103 279.5-279.5T1536 640z"/></svg>