<svg width="128" height="128" viewBox="0 0 1792 1792" xmlns="http://www.w3.org/2000/svg"><path d="M1792 640q0-26-19-45l-256-256q-19-19-45-19t-45 19-19 45v128h-384V128h128q26 0 45-19t19-45-19-45L941-237q-19-19-45-19t-45 19L595 19q-19 19-19 45t19 45 45 19h128v384H384V384q0-26-19-45t-45-19-45 19L19 595Q0 614 0 640t19 45l256 256q19 19 45 19t45-19 19-45V768h384v384H640q-26 0-45 19t-19 45 19 45l256 256q19 19 45 19t45-19l256-256q19-19 19-45t-19-45-45-19h-128V768h384v128q0 26 19 45t45 19 45-19l256-256q19-19 19-45z"/></svg>