<svg width="128" height="128" viewBox="0 0 1536 1536" xmlns="http://www.w3.org/2000/svg"><path d="M1152 640q0-14-9-23L823 297q-9-9-23-9-13 0-22.5 9.5T768 320v192H416q-13 0-22.5 9.5T384 544v192q0 13 9.5 22.5T416 768h352v192q0 14 9 23t23 9q12 0 24-10l319-319q9-9 9-23zm160 0q0 148-73 273t-198 198-273 73-273-73-198-198-73-273 73-273 198-198 273-73 273 73 198 198 73 273zm224 0q0-209-103-385.5T1153.5-25 768-128 382.5-25 103 254.5 0 640t103 385.5T382.5 1305 768 1408t385.5-103 279.5-279.5T1536 640z"/></svg>