<svg width="128" height="128" viewBox="0 0 2304 2304" xmlns="http://www.w3.org/2000/svg"><path d="M1032 576q-59 2-84 55-17 34-48 53.5T832 704q-53 0-90.5-37.5T704 576q0-56 36-89l10-8q34-31 82-31 37 0 68 19.5t48 53.5q25 53 84 55zm568 128q0 56-36 89l-10 8q-34 31-82 31-37 0-68-19.5t-48-53.5q-25-53-84-55 59-2 84-55 17-34 48-53.5t68-19.5q53 0 90.5 37.5T1600 704zm-426 221q-17-35-55-48t-73 4q-62 31-134 31-51 0-99-17 3 0 9.5.5t9.5.5q92 0 170.5-50T1121 713q17-36 3.5-73.5T1075 585q-18-9-39-9 21 0 39-9 36-17 49.5-54.5T1121 439q-40-83-118.5-133T832 256h-6q-16 2-44 4l-290 27-239-120q-14-7-29-7-40 0-57 35L7 515q-11 23-4 47.5T32 600l209 119 148 267q17 155 91.5 291.5T676 1514q31 25 70.5 21.5T811 1501t21.5-70-34.5-65q-70-59-117-128 123 84 267 101 40 5 71.5-19t35.5-64q5-40-19-71.5t-64-35.5q-84-10-159-55 46 10 99 10 115 0 218-50 36-18 49-55.5t-5-73.5zm963 160l160-320q11-23 4-47.5t-29-37.5l-209-119-148-267q-17-155-91.5-291.5T1628-234q-26-22-61-22-45 0-74 35-25 31-21.5 70t34.5 65q70 59 117 128-123-84-267-101-4-1-12-1-36 0-63.5 24T1249 24q-5 40 19 71.5t64 35.5q84 10 159 55-46-10-99-10-115 0-218 50-36 18-49 55.5t5 73.5q17 35 55 48t73-4q62-31 134-31 51 0 99 17-3 0-9.5-.5t-9.5-.5q-92 0-170.5 50T1183 567q-17 36-3.5 73.5T1229 695q18 9 39 9-21 0-39 9-36 17-49.5 54.5t3.5 73.5q40 83 118.5 133t170.5 50h7q14-2 42-4l291-27 239 120q14 7 29 7 40 0 57-35z"/></svg>