<svg width="64" height="64" viewBox="0 0 1536 1536" xmlns="http://www.w3.org/2000/svg"><path d="M972 761q0 108-53.5 169T771 991q-63 0-124-30.5T537 876t-79.5-137T427 559q0-112 53.5-173T631 325q96 0 176 66.5t122.5 166T972 761zm564-121q0-111-37-197t-98.5-135-131.5-74.5-145-27.5q-6 0-15.5-.5t-16.5-.5q-95 0-142 53-28 33-33 83-52-66-131.5-110T612 187q-161 0-249.5 95.5T274 552q0 157 66 290t179 210.5 246 77.5q87 0 155-35.5t106-99.5l2 19 11 56q1 6 5.5 12t9.5 6h118q5 0 13-11 5-5 3-16l-120-614q-5-24-5-48 0-39 12.5-52t44.5-13q28 1 57 5.5t73 24 77 50 57 89.5 24 137q0 292-174 466t-466 174q-130 0-248.5-51t-204-136.5-136.5-204T128 640t51-248.5 136.5-204T519.5 51 768 0q228 0 405 144 11 9 24 8t21-12l41-49q8-12 7-24-2-13-12-22-102-83-227.5-128T768-128q-156 0-298 61T225 97 61 342 0 640t61 298 164 245 245 164 298 61q344 0 556-212t212-556z"/></svg>