<svg width="128" height="128" viewBox="0 0 2304 2304" xmlns="http://www.w3.org/2000/svg"><path d="M504 542h171l-1 265zm1026 99q0 87-50.5 140T1333 834h-54V446h52q91 0 145 57t54 138zm-574 377l1-756q0-14-9.5-24T924 228H708q-14 0-23.5 10t-9.5 24v62H384l-55-81q-10-15-28-15H34q-21 0-30.5 18T7 281l556 757q9 14 27 14h332q14 0 24-10t10-24zm827-377q0-193-125.5-303T1333 228h-270q-14 0-24 10t-10 24v756q0 14 10 24t24 10h268q200 0 326-109t126-302zm156-1q0-11-.5-29t-8-71.5-21.5-102-44.5-108T1791 227h-51q38 45 66.5 104.5t41.5 112 21 98 9 72.5l1 27q0 8-.5 22.5t-7.5 60-20 91.5-41 111.5-66 124.5h43q41-47 72-107t45.5-111.5 23-96T1938 666zm184 0q0-11-.5-29t-8-71.5-21.5-102-45-108-74-102.5h-51q38 45 66.5 104.5t41.5 112 21 98 9 72.5l1 27q0 8-.5 22.5t-7.5 60-19.5 91.5-40.5 111.5-66 124.5h43q41-47 72-107t45.5-111.5 23-96T2122 666zm181 0q0-11-.5-29t-8-71.5-21.5-102-44.5-108T2156 227h-51q38 45 66 104.5t41 112 21 98 9 72.5l1 27q0 8-.5 22.5t-7.5 60-19.5 91.5-40.5 111.5-66 124.5h43q41-47 72-107t45.5-111.5 23-96 9.5-70.5z"/></svg>