<svg width="64" height="64" viewBox="0 0 2048 2048" xmlns="http://www.w3.org/2000/svg"><path d="M1848 1197h-511v-124h511v124zm-252-426q-90 0-146-52.5T1388 576h408q-18 195-200 195zm16-585q63 0 122 32t76 87h221Q1931-2 1604-2q-214 0-340.5 132T1137 477q0 208 130.5 345.5T1604 960q138 0 240.5-68t153-179 50.5-248q0-17-2-47h-658q0-111 57.5-171.5T1612 186zM277 236h296q205 0 205 167 0 180-199 180H277V236zm0 537h281q78 0 123.5 36.5T727 923q0 144-190 144H277V773zM0 1282h594q87 0 155-14t126.5-47.5 90-96.5T997 970q0-181-172-263 114-32 172-115t58-204q0-75-24.5-136.5t-66-103.5T866 77 745 35 611 22H0v1260z"/></svg>