<svg width="128" height="128" viewBox="0 0 1536 1536" xmlns="http://www.w3.org/2000/svg"><path d="M1248 1408q119 0 203.5-84.5T1536 1120V160q0-119-84.5-203.5T1248-128H288q-119 0-203.5 84.5T0 160v960q0 119 84.5 203.5T288 1408h960zm-749-367H128V254h382q117 0 197 57.5T787 482q0 158-143 200 107 52 107 164 0 57-19.5 96.5T675 1003t-79 29.5-97 8.5zm-22-318H301v184h163q119 0 119-90 0-94-106-94zm9-335H301v217h189q124 0 124-113 0-104-128-104zm650-32q-68 0-104 38t-36 107h411q1 10 1 30 0 132-74.5 220.5T1130 840q-128 0-210-86t-82-216q0-135 79-217t213-82q205 0 267 191h-138q-11-34-47.5-54t-75.5-20zm-10 366q113 0 124-122H996q4 56 39 89t91 33zM964 988h319v-77H964v77z"/></svg>