<svg width="64" height="64" viewBox="0 0 2048 2048" xmlns="http://www.w3.org/2000/svg"><path d="M1040-160q0 16-16 16-59 0-101.5 42.5T880 0q0 16-16 16T848 0q0-73 51.5-124.5T1024-176q16 0 16 16zM503 315l877 760q-42 88-132.5 146.5T1024 1280q-93 0-169.5-31.5T733 1168t-69-103-24-105q0-384-137-645zm1353-187q0-52-38-90t-90-38h-448q0-106-75-181t-181-75-180.5 74.5T768-1l149 129h757q-166 187-227 459l111 97q61-356 298-556zm86 1392l84-96q8-10 7.5-23.5T2023 1378L151-244q-10-8-23.5-7T106-240l-84 96q-8 10-7.5 23.5T25-99L211 62q-19 32-19 66 50 42 91 88t85 119.5T442.5 494t50 206T512 960q0 152 117 282.5T936 1401q-8 19-8 39 0 40 28 68t68 28 68-28 28-68q0-20-8-39 124-18 219-82.5t148-157.5l418 363q10 8 23.5 7t21.5-11z"/></svg>