<svg width="128" height="128" viewBox="0 0 1792 1792" xmlns="http://www.w3.org/2000/svg"><path d="M912-160q0 16-16 16-59 0-101.5 42.5T752 0q0 16-16 16T720 0q0-73 51.5-124.5T896-176q16 0 16 16zM246 128h1300q-266 300-266 832 0 51-24 105t-69 103-121.5 80.5T896 1280t-169.5-31.5T605 1168t-69-103-24-105q0-532-266-832zm1482 0q0-52-38-90t-90-38h-448q0-106-75-181t-181-75-181 75T640 0H192q-52 0-90 38t-38 90q50 42 91 88t85 119.5T314.5 494t50 206T384 960q0 152 117 282.5T808 1401q-8 19-8 39 0 40 28 68t68 28 68-28 28-68q0-20-8-39 190-28 307-158.5T1408 960q0-139 19.5-260t50-206 74.5-158.5 85-119.5 91-88z"/></svg>