<svg width="64" height="64" viewBox="0 0 1280 1280" xmlns="http://www.w3.org/2000/svg"><path d="M1167 896q18-182-131-258 117-28 175-103t45-214q-7-71-32.5-125t-64.5-89-97-58.5T940.5 14 795-1v-255H641V-5q-80 0-122 1v-252H365V-1q-18 0-54 .5T256 0H56l31 183h111q50 0 58 51v402h16q-6 1-16 1v287q-13 68-89 68H56v164l212-1q64 0 97 1v252h154v-247q82 2 122 2v245h154v-252q79-7 140-22.5t113-45 82.5-78T1167 896zM952 351q0 36-15 64t-37 46-57.5 30.5T777 510t-74 9-69 3-64.5-1-47.5-1V182q8 0 37-.5t48-.5 53 1.5 58.5 4 57 8.5 55.5 14 47.5 21 39.5 30 24.5 40 9.5 51zm-71 476q0 33-12.5 58.5t-30.5 42-48 28-55 16.5-61.5 8-58 2.5-54-1-39.5-.5V674q5 0 34.5-.5t46.5 0 50 2 55 5.5 51.5 11 48.5 18.5 37 27 27 38.5 9 51z"/></svg>