<svg width="128" height="128" viewBox="0 0 2176 2176" xmlns="http://www.w3.org/2000/svg"><path d="M192 352q-66 0-113-47T32 192 79 79t113-47 113 47 47 113-47 113-113 47zm512 0q-66 0-113-47t-47-113 47-113 113-47 113 47 47 113-47 113-113 47zm0 512q-66 0-113-47t-47-113 47-113 113-47 113 47 47 113-47 113-113 47zm768-512q-66 0-113-47t-47-113 47-113 113-47 113 47 47 113-47 113-113 47zm512 0q-66 0-113-47t-47-113 47-113 113-47 113 47 47 113-47 113-113 47zm-512 512q-66 0-113-47t-47-113 47-113 113-47 113 47 47 113-47 113-113 47zm512 0q-66 0-113-47t-47-113 47-113 113-47 113 47 47 113-47 113-113 47zm0 512q-66 0-113-47t-47-113 47-113 113-47 113 47 47 113-47 113-113 47zM384 192q0-80-56-136T192 0 56 56 0 192t56 136 136 56 136-56 56-136zm512 0q0-80-56-136T704 0 568 56t-56 136 56 136 136 56 136-56 56-136zM384 704q0-80-56-136t-136-56-136 56T0 704t56 136 136 56 136-56 56-136zm512 0q0-80-56-136t-136-56-136 56-56 136 56 136 136 56 136-56 56-136zm-512 512q0-80-56-136t-136-56-136 56-56 136 56 136 136 56 136-56 56-136zM1664 192q0-80-56-136T1472 0t-136 56-56 136 56 136 136 56 136-56 56-136zM896 1216q0-80-56-136t-136-56-136 56-56 136 56 136 136 56 136-56 56-136zM2176 192q0-80-56-136T1984 0t-136 56-56 136 56 136 136 56 136-56 56-136zm-512 512q0-80-56-136t-136-56-136 56-56 136 56 136 136 56 136-56 56-136zm512 0q0-80-56-136t-136-56-136 56-56 136 56 136 136 56 136-56 56-136zm-512 512q0-80-56-136t-136-56-136 56-56 136 56 136 136 56 136-56 56-136zm512 0q0-80-56-136t-136-56-136 56-56 136 56 136 136 56 136-56 56-136z"/></svg>