<svg width="64" height="64" viewBox="0 0 1664 1664" xmlns="http://www.w3.org/2000/svg"><path d="M1632 576q0-26-19-45t-45-19h-224q0-171-67-290l208-209q19-19 19-45t-19-45q-18-19-45-19t-45 19l-198 197q-5-5-15-13t-42-28.5-65-36.5-82-29-97-13v896H768V0q-51 0-101.5 13.5t-87 33-66 39T470 118l-15 14L272-75q-20-21-48-21-24 0-43 16-19 18-20.5 44.5T176 11l202 227q-58 114-58 274H96q-26 0-45 19t-19 45 19 45 45 19h224v294l-173 173q-19 19-19 45t19 45 45 19 45-19l173-173h844l173 173q19 19 45 19t45-19 19-45-19-45l-173-173V640h224q26 0 45-19t19-45zm-480 576H512q0 133 93.5 226.5T832 1472t226.5-93.5T1152 1152z"/></svg>