<svg width="128" height="128" viewBox="0 0 1408 1408" xmlns="http://www.w3.org/2000/svg"><path d="M384 224v-64q0-13-9.5-22.5T352 128h-64q-13 0-22.5 9.5T256 160v64q0 13 9.5 22.5T288 256h64q13 0 22.5-9.5T384 224zm0 256v-64q0-13-9.5-22.5T352 384h-64q-13 0-22.5 9.5T256 416v64q0 13 9.5 22.5T288 512h64q13 0 22.5-9.5T384 480zm256 0v-64q0-13-9.5-22.5T608 384h-64q-13 0-22.5 9.5T512 416v64q0 13 9.5 22.5T544 512h64q13 0 22.5-9.5T640 480zM384 736v-64q0-13-9.5-22.5T352 640h-64q-13 0-22.5 9.5T256 672v64q0 13 9.5 22.5T288 768h64q13 0 22.5-9.5T384 736zm768-512v-64q0-13-9.5-22.5T1120 128h-64q-13 0-22.5 9.5T1024 160v64q0 13 9.5 22.5t22.5 9.5h64q13 0 22.5-9.5t9.5-22.5zM896 480v-64q0-13-9.5-22.5T864 384h-64q-13 0-22.5 9.5T768 416v64q0 13 9.5 22.5T800 512h64q13 0 22.5-9.5T896 480zM640 736v-64q0-13-9.5-22.5T608 640h-64q-13 0-22.5 9.5T512 672v64q0 13 9.5 22.5T544 768h64q13 0 22.5-9.5T640 736zM384 992v-64q0-13-9.5-22.5T352 896h-64q-13 0-22.5 9.5T256 928v64q0 13 9.5 22.5t22.5 9.5h64q13 0 22.5-9.5T384 992zm768-512v-64q0-13-9.5-22.5T1120 384h-64q-13 0-22.5 9.5T1024 416v64q0 13 9.5 22.5t22.5 9.5h64q13 0 22.5-9.5t9.5-22.5zM896 736v-64q0-13-9.5-22.5T864 640h-64q-13 0-22.5 9.5T768 672v64q0 13 9.5 22.5T800 768h64q13 0 22.5-9.5T896 736zM640 992v-64q0-13-9.5-22.5T608 896h-64q-13 0-22.5 9.5T512 928v64q0 13 9.5 22.5t22.5 9.5h64q13 0 22.5-9.5T640 992zm-256 256v-64q0-13-9.5-22.5T352 1152h-64q-13 0-22.5 9.5T256 1184v64q0 13 9.5 22.5t22.5 9.5h64q13 0 22.5-9.5t9.5-22.5zm768-512v-64q0-13-9.5-22.5T1120 640h-64q-13 0-22.5 9.5T1024 672v64q0 13 9.5 22.5t22.5 9.5h64q13 0 22.5-9.5t9.5-22.5zM896 992v-64q0-13-9.5-22.5T864 896h-64q-13 0-22.5 9.5T768 928v64q0 13 9.5 22.5t22.5 9.5h64q13 0 22.5-9.5T896 992zm-256 256v-64q0-13-9.5-22.5T608 1152h-64q-13 0-22.5 9.5T512 1184v64q0 13 9.5 22.5t22.5 9.5h64q13 0 22.5-9.5t9.5-22.5zm512-256v-64q0-13-9.5-22.5T1120 896h-64q-13 0-22.5 9.5T1024 928v64q0 13 9.5 22.5t22.5 9.5h64q13 0 22.5-9.5t9.5-22.5zm-256 256v-64q0-13-9.5-22.5T864 1152h-64q-13 0-22.5 9.5T768 1184v64q0 13 9.5 22.5t22.5 9.5h64q13 0 22.5-9.5t9.5-22.5zm256 0v-64q0-13-9.5-22.5t-22.5-9.5h-64q-13 0-22.5 9.5t-9.5 22.5v64q0 13 9.5 22.5t22.5 9.5h64q13 0 22.5-9.5t9.5-22.5zM896-128h384v1536H128V-128h384V96q0 13 9.5 22.5T544 128h320q13 0 22.5-9.5T896 96v-224zm512 1600V-192q0-26-19-45t-45-19H64q-26 0-45 19T0-192v1664q0 26 19 45t45 19h1280q26 0 45-19t19-45z"/></svg>