<svg width="128" height="128" viewBox="0 0 1536 1536" xmlns="http://www.w3.org/2000/svg"><path d="M1344 1536q26 0 45-19t19-45V-192q0-26-19-45t-45-19H64q-26 0-45 19T0-192v1664q0 26 19 45t45 19h1280zm-832-288v-64q0-14 9-23t23-9h64q14 0 23 9t9 23v64q0 14-9 23t-23 9h-64q-14 0-23-9t-9-23zm0-256v-64q0-14 9-23t23-9h64q14 0 23 9t9 23v64q0 14-9 23t-23 9h-64q-14 0-23-9t-9-23zm0-256v-64q0-14 9-23t23-9h64q14 0 23 9t9 23v64q0 14-9 23t-23 9h-64q-14 0-23-9t-9-23zm0-256v-64q0-14 9-23t23-9h64q14 0 23 9t9 23v64q0 14-9 23t-23 9h-64q-14 0-23-9t-9-23zM384 160v64q0 14-9 23t-23 9h-64q-14 0-23-9t-9-23v-64q0-14 9-23t23-9h64q14 0 23 9t9 23zm0 256v64q0 14-9 23t-23 9h-64q-14 0-23-9t-9-23v-64q0-14 9-23t23-9h64q14 0 23 9t9 23zm0 256v64q0 14-9 23t-23 9h-64q-14 0-23-9t-9-23v-64q0-14 9-23t23-9h64q14 0 23 9t9 23zm0 256v64q0 14-9 23t-23 9h-64q-14 0-23-9t-9-23v-64q0-14 9-23t23-9h64q14 0 23 9t9 23zm0 256v64q0 14-9 23t-23 9h-64q-14 0-23-9t-9-23v-64q0-14 9-23t23-9h64q14 0 23 9t9 23zM896-96V96q0 14-9 23t-23 9H544q-14 0-23-9t-9-23V-96q0-14 9-23t23-9h320q14 0 23 9t9 23zm0 512v64q0 14-9 23t-23 9h-64q-14 0-23-9t-9-23v-64q0-14 9-23t23-9h64q14 0 23 9t9 23zm0 256v64q0 14-9 23t-23 9h-64q-14 0-23-9t-9-23v-64q0-14 9-23t23-9h64q14 0 23 9t9 23zm0 256v64q0 14-9 23t-23 9h-64q-14 0-23-9t-9-23v-64q0-14 9-23t23-9h64q14 0 23 9t9 23zm0 256v64q0 14-9 23t-23 9h-64q-14 0-23-9t-9-23v-64q0-14 9-23t23-9h64q14 0 23 9t9 23zm256-1024v64q0 14-9 23t-23 9h-64q-14 0-23-9t-9-23v-64q0-14 9-23t23-9h64q14 0 23 9t9 23zm0 256v64q0 14-9 23t-23 9h-64q-14 0-23-9t-9-23v-64q0-14 9-23t23-9h64q14 0 23 9t9 23zm0 256v64q0 14-9 23t-23 9h-64q-14 0-23-9t-9-23v-64q0-14 9-23t23-9h64q14 0 23 9t9 23zm0 256v64q0 14-9 23t-23 9h-64q-14 0-23-9t-9-23v-64q0-14 9-23t23-9h64q14 0 23 9t9 23zm0 256v64q0 14-9 23t-23 9h-64q-14 0-23-9t-9-23v-64q0-14 9-23t23-9h64q14 0 23 9t9 23z"/></svg>