<svg width="128" height="128" viewBox="0 0 1536 1536" xmlns="http://www.w3.org/2000/svg"><path d="M1024 640q0-106-75-181t-181-75-181 75-75 181 75 181 181 75 181-75 75-181zm128 0q0 159-112.5 271.5T768 1024 496.5 911.5 384 640t112.5-271.5T768 256t271.5 112.5T1152 640zm128 0q0-212-150-362T768 128 406 278 256 640t150 362 362 150 362-150 150-362zm128 0q0 130-51 248.5t-136.5 204-204 136.5-248.5 51-248.5-51-204-136.5-136.5-204T128 640t51-248.5 136.5-204T519.5 51 768 0t248.5 51 204 136.5 136.5 204 51 248.5zm128 0q0-209-103-385.5T1153.5-25 768-128 382.5-25 103 254.5 0 640t103 385.5T382.5 1305 768 1408t385.5-103 279.5-279.5T1536 640z"/></svg>