<svg width="64" height="64" viewBox="0 0 1536 1536" xmlns="http://www.w3.org/2000/svg"><path d="M384 320q0 53-37.5 90.5T256 448t-90.5-37.5T128 320t37.5-90.5T256 192t90.5 37.5T384 320zm1024 0q0 53-37.5 90.5T1280 448t-90.5-37.5T1152 320t37.5-90.5T1280 192t90.5 37.5T1408 320zm-46 396l-72 384q-5 23-22.5 37.5T1227 1152H309q-23 0-40.5-14.5T246 1100l-72-384q-5-30 14-53t49-23h1062q30 0 49 23t14 53zm-226 612q0 20-14 34t-34 14H448q-20 0-34-14t-14-34 14-34 34-14h640q20 0 34 14t14 34zm400-725V0h-128v-128q0-53-37.5-90.5T1280-256t-90.5 37.5T1152-128V0H384v-128q0-53-37.5-90.5T256-256t-90.5 37.5T128-128V0H0v603q0 112 25 223l103 454q9 78 97.5 137t230 89 312.5 30 312.5-30 230-89 97.5-137l105-454q23-102 23-223z"/></svg>