<svg width="128" height="128" viewBox="0 0 1792 1792" xmlns="http://www.w3.org/2000/svg"><path d="M384 0q0 53-37.5 90.5T256 128t-90.5-37.5T128 0t37.5-90.5T256-128t90.5 37.5T384 0zm384 0q0 53-37.5 90.5T640 128t-90.5-37.5T512 0t37.5-90.5T640-128t90.5 37.5T768 0zM384 384q0 53-37.5 90.5T256 512t-90.5-37.5T128 384t37.5-90.5T256 256t90.5 37.5T384 384zM1152 0q0 53-37.5 90.5T1024 128t-90.5-37.5T896 0t37.5-90.5T1024-128t90.5 37.5T1152 0zM768 384q0 53-37.5 90.5T640 512t-90.5-37.5T512 384t37.5-90.5T640 256t90.5 37.5T768 384zM384 768q0 53-37.5 90.5T256 896t-90.5-37.5T128 768t37.5-90.5T256 640t90.5 37.5T384 768zm768-384q0 53-37.5 90.5T1024 512t-90.5-37.5T896 384t37.5-90.5T1024 256t90.5 37.5T1152 384zM768 768q0 53-37.5 90.5T640 896t-90.5-37.5T512 768t37.5-90.5T640 640t90.5 37.5T768 768zM1536 0v384q0 52-38 90t-90 38-90-38-38-90V0q0-52 38-90t90-38 90 38 38 90zm-384 768q0 53-37.5 90.5T1024 896t-90.5-37.5T896 768t37.5-90.5T1024 640t90.5 37.5T1152 768zm384 320v256q0 26-19 45t-45 19H192q-26 0-45-19t-19-45v-256q0-26 19-45t45-19h1280q26 0 45 19t19 45zm0-320q0 53-37.5 90.5T1408 896t-90.5-37.5T1280 768t37.5-90.5T1408 640t90.5 37.5T1536 768zm128 640V-128q0-52-38-90t-90-38H128q-52 0-90 38T0-128v1536q0 52 38 90t90 38h1408q52 0 90-38t38-90z"/></svg>