<svg width="64" height="64" viewBox="0 0 1792 1792" xmlns="http://www.w3.org/2000/svg"><path d="M1152 416v-64q0-14-9-23t-23-9H544q-14 0-23 9t-9 23v64q0 14 9 23t23 9h576q14 0 23-9t9-23zM128-128h1408V896H128V-128zm384 1216v288q0 14-9 23t-23 9h-64q-14 0-23-9t-9-23v-288q0-14 9-23t23-9h64q14 0 23 9t9 23zm768 0v288q0 14-9 23t-23 9h-64q-14 0-23-9t-9-23v-288q0-14 9-23t23-9h64q14 0 23 9t9 23zm384 64V-128q0-52-38-90t-90-38H128q-52 0-90 38T0-128v1280q0 52 38 90t90 38h128v96q0 66 47 113t113 47h64q66 0 113-47t47-113v-96h384v96q0 66 47 113t113 47h64q66 0 113-47t47-113v-96h128q52 0 90-38t38-90z"/></svg>