<svg width="64" height="64" viewBox="0 0 1792 1792" xmlns="http://www.w3.org/2000/svg"><path d="M928 704q0 14-9 23t-23 9q-66 0-113-47t-47-113q0-14 9-23t23-9 23 9 9 23q0 40 28 68t68 28q14 0 23 9t9 23zm224-130q0-106-75-181t-181-75-181 75-75 181 75 181 181 75 181-75 75-181zM128 0h1536v128H128V0zm1152 574q0 159-112.5 271.5T896 958 624.5 845.5 512 574t112.5-271.5T896 190t271.5 112.5T1280 574zM256 1216h384v128H256v-128zm-128-192h1536v256H836l-64-128H128v-128zm1664 256V0q0-53-37.5-90.5T1664-128H128q-53 0-90.5 37.5T0 0v1280q0 53 37.5 90.5T128 1408h1536q53 0 90.5-37.5t37.5-90.5z"/></svg>