<svg width="128" height="128" viewBox="0 0 2304 2304" xmlns="http://www.w3.org/2000/svg"><path d="M119 854h89l-45 108zm621-526l74 79-70 79H581v-49h142v-55H581v-54h159zm158 78l99-110v217zm288 47q0 33-40 33h-84v-69h83q41 0 41 36zm289 4q0 29-42 29h-82v-61h81q43 0 43 32zm-278 466q0 29-42 29h-82v-60h81q43 0 43 31zm459-69h89l-44 108zm-957 155V738h-66v212l-94-212h-57l-94 212V738H256l-25 60H96l-25-60H1l116 271h96l110-257v257h106l85-184 77 184h108zm556-556q0-20-5.5-35t-14-25-22.5-16.5-26-10-31.5-4.5-31.5-1-32.5.5-29.5.5v-91H936l-80 90-83-90H517v271h260l80-89 82 89h207q109 0 109-89zM964 794v-56H747v271h217v-57H812v-49h148v-55H812v-54h152zm1340-559V6q0-55-38.5-94.5T2172-128H132q-55 0-93.5 39.5T0 6v678h111l25 61h55l25-61h218v46l19-46h113l20 47v-47h541v99l10 1q10 0 10-14v-86h279v23q23-12 55-18t52.5-6.5 63 .5 51.5 1l25 61h56l25-61h227v58l34-58h182v378h-180v-44l-25 44h-185v-44l-23 44h-249q-69 0-109-22v22h-172v-22q-24 22-73 22H553l-43-97-43 97H269v-44l-22 44H78L0 883v391q0 55 38.5 94.5T132 1408h2040q55 0 93.5-39.5t38.5-94.5V596h-120q-51 0-81-22v22h-177q-55 0-78-22v22h-316v-22q-31 22-87 22h-209v-22q-23 22-91 22H911l-54-58-50 58H458V218h343l55 59 52-59h211v89h21q59 0 90 13V218h174v99h8q8 0 10-2t2-10v-87h529q57 0 88 24v-24h168q60 0 95 17zm-758 234q0-23-12-43t-34-29q25-9 34-26t9-46v-54h-65v45q0 33-12 43.5t-46 10.5h-69v-99h-65v271h154q48 0 77-15t29-58zm-277 467q0-24-12.5-44t-33.5-29q26-9 34.5-25.5t8.5-46.5v-53h-65q0 9 .5 26.5t0 25-3 18.5-8.5 16-17.5 8.5-29.5 3.5h-70v-98h-64v271l153-1q49 0 78-14.5t29-57.5zm529-609v-56h-216v271h216v-56h-151v-49h148v-55h-148v-54zm-426 682V738h-66v271h66zm693-652q0-86-102-86h-126v58h126q34 0 34 25 0 16-17 21t-41.5 5-49.5 3.5-42 22.5-17 55q0 39 26 60t66 21h130v-57h-119q-36 0-36-25 0-16 17.5-20.5t42-4 49-2.5 42-21.5T2065 357zm239 50V306q-24-35-88-35h-125v58h125q33 0 33 25 0 13-12.5 19t-31 5.5-40 2-40 8-31 24T2082 461q0 39 26.5 60t66.5 21h129v-57h-118q-36 0-36-25 0-20 29-22t68.5-5 56.5-26zm-165 601V738h-92l-122 203V738h-132l-26 60h-134l-25-60h-75q-129 0-129 133 0 138 133 138h63v-59q-7 0-28 1t-28.5.5-23-2-21.5-6.5-14.5-13.5-11.5-23-3-33.5q0-38 13.5-58t49.5-20h29l92 213h97l109-256v256h99l114-188v188h66z"/></svg>