<svg width="128" height="128" viewBox="0 0 2304 2304" xmlns="http://www.w3.org/2000/svg"><path d="M313 759q0-51-36-84-29-26-89-26h-17v220h17q61 0 89-27 36-31 36-83zm1776 65q0-52-64-52h-19v101h20q63 0 63-49zM380 759q0 74-50 120.5T201 926h-95V593h95q74 0 119 38 60 51 60 128zm30-166h65v333h-65V593zm320 101q0 40-20.5 62T634 798q-29 10-39.5 19T584 840q0 16 13.5 26.5T632 877q29 0 53-27l34 44q-41 37-98 37-44 0-74-27.5T517 836q0-35 18-55.5t64-36.5q37-13 45-19 19-12 19-34 0-20-14-33.5T613 644q-48 0-71 44l-42-40q44-64 115-64 51 0 83 30.5t32 79.5zm278-90v77q-37-37-78-37-49 0-80.5 32.5T818 759q0 48 31.5 81.5T927 874q43 0 81-38v77q-40 20-80 20-74 0-125.5-50.5T751 759t51-123.5T927 585q42 0 81 19zM2240 0v527q-65-40-144.5-84T1858 326t-329.5-137.5T1111 54 607-64h1569q26 0 45 19t19 45zm-851 757q0 75-53 128t-128 53-128-53-53-128 53-128 128-53 128 53 53 128zm152-173l144 342h-71l-90-224-89 224h-71l142-342h35zm173 9h184v56h-119v90h115v56h-115v74h119v57h-184V593zm391 0h80l-105 140q76 16 76 94 0 47-31 73t-87 26h-97V593h65v133h9zm199 681V6q0-56-38.5-95t-93.5-39H132q-55 0-93.5 39T0 6v1268q0 56 38.5 95t93.5 39h2040q55 0 93.5-39t38.5-95z"/></svg>