<svg width="128" height="128" viewBox="0 0 2304 2304" xmlns="http://www.w3.org/2000/svg"><path d="M858 295v693q-106-41-172-135.5T620 641t66-211.5T858 295zm504 346q0 117-66 211.5T1124 988V294q106 41 172 135.5t66 211.5zm215 0q0-159-78.5-294T1285 133.5 991 55q-119 0-227.5 46.5t-187 125-125 187T405 641q0 159 78.5 294T697 1148.5t294 78.5 294-78.5T1498.5 935t78.5-294zm383-7q0 139-55.5 261.5T1757 1101t-213.5 131-252.5 48H990q-176 0-323.5-81t-235-230T344 634q0-171 87-317.5T667 85 990 0h301q129 0 251.5 50.5t214.5 135T1904.5 388t55.5 246zm344 646V0q0-52-38-90t-90-38H128q-52 0-90 38T0 0v1280q0 52 38 90t90 38h2048q52 0 90-38t38-90z"/></svg>