<svg width="128" height="128" viewBox="0 0 2304 2304" xmlns="http://www.w3.org/2000/svg"><path d="M1119 1195q-128 85-281 85-103 0-197.5-40.5T478 1131 369.5 969 329 772q0-104 40.5-198T478 412t162-108.5T838 263q153 0 281 85-131 107-178 265.5t.5 316.5 177.5 265zm33-24q-126-99-172-249.5t-.5-300.5T1152 372q127 99 172.5 249t-.5 300.5-172 249.5zm33 24q130-107 177.5-265.5t.5-317T1185 348q128-85 281-85 104 0 198 40.5T1826 412t108.5 162 40.5 198q0 103-40.5 197T1826 1131t-162.5 108.5T1466 1280q-153 0-281-85zm741-722h7v3h-17v-3h7v-17h3v17zm29-17h4v20h-5l-6-13-6 13h-5v-20h3v15l6-13h4l5 13v-15zm-8-440v-2h-5v3h5v-1zm0-9h3l-4 5h2l1 1q1 1 1 3t-1 3l-1 1h-9V7h3v5h1zM685 75q0 19 11 31t30 12q18 0 29-12.5T766 75q0-19-11-31t-29-12q-19 0-30 12t-11 31zm473 44q30 0 35-32h-70q5 32 35 32zm356-44q0 19 11 31t29 12 29.5-12.5T1595 75q0-19-11-31t-30-12q-18 0-29 12t-11 31zm272 0q0 18 11.5 30.5T1827 118t29.5-12.5T1868 75q0-19-11.5-31T1827 32t-29.5 12.5T1786 75zm158-72q-2 0-4 1-1 0-3 2t-2 3q-1 2-1 4 0 3 1 4 0 2 2 4l1 1q2 0 2 1 2 1 4 1 3 0 4-1l4-2 2-4v-1q1-2 1-3l-1-1V9l-1-1-1-2q-2-2-4-2-1-1-4-1zM599 7h30v85q0 24-14.5 38.5T575 146q-32 0-47-24-14 24-45 24-24 0-39-20v16h-30V7h30v75q0 36 33 36 30 0 30-36V7h29v75q0 36 33 36 30 0 30-36V7zm166 0h29v135h-29v-16q-17 20-43 20-29 0-48-20t-19-51 19-51 48-20q28 0 43 20V7zm178 41q0 34-47 40l-14 2q-23 4-23 14 0 15 25 15 23 0 43-11l12 24q-22 14-55 14-26 0-41-12t-15-32q0-33 47-39l13-2q24-4 24-14 0-17-31-17-25 0-45 14l-13-23q25-17 58-17 29 0 45.5 12T943 48zm130-34l-8 25q-13-7-26-7-19 0-19 22v61h48v27h-48v41h-30v-41h-28v-27h28V54q0-50 47-50 21 0 36 10zm86 132q-29 0-48-20t-19-51q0-32 19.5-51.5T1161 4q33 0 55 19l-14 22q-18-15-39-15-34 0-41 33h101v12q0 32-18 51.5t-46 19.5zm159 0q-23 0-35-20v16h-30V7h30v76q0 35 29 35 10 0 18-4l9 28q-9 4-21 4zm30-71q0-31 19.5-51T1420 4q29 0 48 16l-14 24q-18-13-35-12-18 0-29.5 12T1378 75t11.5 31 29.5 12q19 0 35-12l14 24q-20 16-48 16-33 0-52.5-20T1348 75zm245-68h30v135h-30v-16q-15 20-42 20-29 0-48.5-20T1483 75t19.5-51T1551 4q28 0 42 20V7zm133 139q-23 0-35-20v16h-29V7h29v76q0 35 29 35 10 0 18-4l9 28q-8 4-21 4zM1866 7h29v190h-29v-71q-15 20-43 20t-47.5-20.5T1756 75t19.5-50.5T1823 4q29 0 43 20V7zm78 20l-2-1h-3q-2-1-4-3-3-1-3-4-1-2-1-6 0-3 1-5 0-2 3-4 2-2 4-3t5-1q4 0 6 1 0 1 2 2l2 1q1 1 3 4 1 2 1 5 0 4-1 6-1 1-3 4 0 1-2 2l-2 1q-1 0-3 .5t-3 .5zm360 1253V0q0-52-38-90t-90-38H128q-52 0-90 38T0 0v1280q0 52 38 90t90 38h2048q52 0 90-38t38-90z"/></svg>