<svg width="64" height="64" viewBox="0 0 2304 2304" xmlns="http://www.w3.org/2000/svg"><path d="M1597 633q0-69-21-106-19-35-52-35-23 0-41 9v224q29 30 57 30 57 0 57-122zm438 36h-110q6 98 56 98 51 0 54-98zM476 534q0 59-33 91.5T342 683q-36 13-52 24t-16 25q0 26 38 26 58 0 124-33l18 112q-67 32-149 32-77 0-123-38-48-39-48-109 0-58 32.5-90.5T266 575q39-14 54.5-25.5T336 522q0-31-48-31-29 0-70 12.5T146 534l-18-113q72-41 168-41 81 0 129 37 51 41 51 117zm295 215l19 111h-96v135l-129-21-18-114-46-8-17-103h62V530q0-84 44-120 38-30 111-30 32 0 79 11v118q-32-7-44-7-42 0-42 50v197h77zm316-25v139q-15 3-28 3-32 0-55.5-16T970 804l-10 56H829V389h150v306q26 31 82 31 16 0 26-2zm37-335h150v471h-150V389zm622 249q0 122-45 179-40 52-111 52-64 0-117-56l-8 47h-132V215l150 25v151q36-11 68-11 83 0 134 56 61 65 61 202zm-468 348q0 33-23 56t-56 23-56-23-23-56 23-56.5 56-23.5 56 23.5 23 56.5zm898-357q0 113-48 176-50 64-144 64-96 0-151.5-66T1777 623q0-128 63-188 55-55 161-55 101 0 160 40l-16 103q-57-31-128-31-43 0-63 19-23 19-28 66h248q2 14 2 52zm128 651V0q0-52-38-90t-90-38H128q-52 0-90 38T0 0v1280q0 52 38 90t90 38h2048q52 0 90-38t38-90z"/></svg>