<svg width="128" height="128" viewBox="0 0 2048 2048" xmlns="http://www.w3.org/2000/svg"><path d="M785 528h207q-14-158-98.5-248.5T679 189q-162 0-254.5 116T332 621q0 194 93 311.5T658 1050q148 0 232-87t97-247H784q-5 64-35.5 99T667 850q-57 0-88.5-60.5T547 612q0-48 5-84t18-69.5 40-51.5 66-18q95 0 109 139zm712 0h206q-14-158-98-248.5T1391 189q-162 0-254.5 116T1044 621q0 194 93 311.5t233 117.5q148 0 232-87t97-247h-204q-4 64-35 99t-81 35q-57 0-88.5-60.5T1259 612q0-48 5-84t18-69.5 39.5-51.5 65.5-18q49 0 76.5 38t33.5 101zm359 119q0 207-15.5 307t-60.5 161q-6 8-13.5 14t-21.5 15-16 11q-86 63-697 63-625 0-710-63-5-4-17.5-11.5t-21-14T269 1115q-45-60-60-159.5T194 647q0-208 15-307.5T269 179q6-8 15-15t20.5-14 17.5-12q44-33 239.5-49T1032 73q610 0 697 65 5 4 17 11t20.5 14 13.5 16q46 60 61 159t15 309zm192 761V-128H0v1536h2048z"/></svg>