<svg width="64" height="64" viewBox="0 0 1792 1792" xmlns="http://www.w3.org/2000/svg"><path d="M893 1536q240 2 451-120 232-134 352-372l-742 39q-160 9-294-74.5T475 779l-276 424q128 159 311 245.5t383 87.5zm-747-405l337-663q72-143 211-217t293-45L757-245Q545-212 372-87.5t-272.5 316T0 640q0 267 146 491zm1586-169q58-150 59.5-310.5t-48.5-306-153-272T1344-136q-230-133-498-119l405 623q88 131 82.5 290.5T1227 936zm-836-20q125 0 213.5-88.5T1198 640t-88.5-213.5T896 338t-213.5 88.5T594 640t88.5 213.5T896 942z"/></svg>