<svg width="64" height="64" viewBox="0 0 1792 1792" xmlns="http://www.w3.org/2000/svg"><path d="M1664-96V992q0 13-9.5 22.5t-22.5 9.5H544q-13 0-22.5-9.5T512 992V-96q0-13 9.5-22.5T544-128h1088q13 0 22.5 9.5T1664-96zm128 1088V-96q0-66-47-113t-113-47H544q-66 0-113 47T384-96V992q0 66 47 113t113 47h1088q66 0 113-47t47-113zm-384 384v-160h-128v160q0 13-9.5 22.5t-22.5 9.5H160q-13 0-22.5-9.5T128 1376V288q0-13 9.5-22.5T160 256h160V128H160q-66 0-113 47T0 288v1088q0 66 47 113t113 47h1088q66 0 113-47t47-113z"/></svg>