<svg width="128" height="128" viewBox="0 0 1920 1920" xmlns="http://www.w3.org/2000/svg"><path d="M617 137l-50-50q-10-10-23-10t-23 10L55 553q-10 10-10 23t10 23l466 466q10 10 23 10t23-10l50-50q10-10 10-23t-10-23L224 576l393-393q10-10 10-23t-10-23zm591 1067L835-87q-4-13-15.5-19.5T796-109l-62 17q-13 4-19.5 15.5T712-52l373 1291q4 13 15.5 19.5t23.5 2.5l62-17q13-4 19.5-15.5t2.5-24.5zm657-651L1399 87q-10-10-23-10t-23 10l-50 50q-10 10-10 23t10 23l393 393-393 393q-10 10-10 23t10 23l50 50q10 10 23 10t23-10l466-466q10-10 10-23t-10-23z"/></svg>