<svg width="128" height="128" viewBox="0 0 1024 1024" xmlns="http://www.w3.org/2000/svg"><path d="M288 64q0 40-28 68t-68 28-68-28-28-68 28-68 68-28 68 28 28 68zm0 1152q0 40-28 68t-68 28-68-28-28-68 28-68 68-28 68 28 28 68zm640-128q0 40-28 68t-68 28-68-28-28-68 28-68 68-28 68 28 28 68zm96 0q0-52-26-96.5T928 922q-2-287-226-414-67-38-203-81-128-40-169.5-71T288 256v-26q44-25 70-69.5T384 64q0-80-56-136t-136-56T56-72 0 64q0 52 26 96.5T96 230v820q-44 25-70 69.5T0 1216q0 80 56 136t136 56 136-56 56-136q0-52-26-96.5t-70-69.5V553q54 26 154 57 55 17 87.5 29.5t70.5 31 59 39.5 40.5 51 28 69.5T736 922q-44 25-70 69.5t-26 96.5q0 80 56 136t136 56 136-56 56-136z"/></svg>