<svg width="64" height="64" viewBox="0 0 1792 1792" xmlns="http://www.w3.org/2000/svg"><path d="M1584 246l-218 111q-74-120-196.5-189T906 99q-147 0-271 72T439 367t-72 270q0 110 42.5 209.5t115 172 172 115T906 1176q131 0 247.5-60.5T1346 947l215 125q-110 169-286.5 265T896 1433q-161 0-308-63t-253-169-169-253-63-308 63-308T335 79 588-90t308-63q213 0 397.5 107T1584 246zm-554 397l693-352q-116-253-334.5-400T896-256q-182 0-348 71T262 6 71 292 0 640t71 348 191 286 286 191 348 71q260 0 470.5-133.5T1702 1036zm513-3h-39V480h-96v352h136q32 0 54.5-20t28.5-48 1-56-27.5-48-57.5-20z"/></svg>