<svg width="128" height="128" viewBox="0 0 1792 1792" xmlns="http://www.w3.org/2000/svg"><path d="M896 1152q-204 0-381.5-69.5T232.5 895 128 640q0-112 71.5-213.5T401 251l87-50-27-96q-24-91-70-172Q543-4 666 104l43 38 57-6q69-8 130-8 204 0 381.5 69.5t282 187.5T1664 640t-104.5 255-282 187.5T896 1152zm896-512q0-174-120-321.5t-326-233T896 0q-70 0-145 8-198-175-460-242-49-14-114-22h-5q-15 0-27 10.5T129-218v1q-3 4-.5 12t2 10 4.5 9.5l6 9 7 8.5 8 9q7 8 31 34.5t34.5 38 31 39.5T285 4t27 59 26 76Q181 228 90.5 359T0 640q0 174 120 321.5t326 233 450 85.5 450-85.5 326-233T1792 640z"/></svg>