<svg width="64" height="64" viewBox="0 0 1792 1792" xmlns="http://www.w3.org/2000/svg"><path d="M138 1408h197q-70-64-126-149-36-56-59-115t-30-125.5-8.5-120 10.5-132 21-126T171 504q4-19 6-28 51-238 81-329 57-171 152-275H138q-48 0-82 34T22-12v1304q0 48 34 82t82 34zm1208 0h308q48 0 82-34t34-82V-12q0-48-34-82t-82-34h-178q212 210 196 565l-469-101q-2-45-12-82t-31-72-59.5-59.5T1007 86q-123-26-199 40-32 27-53 61t-51.5 129T639 574q-35 163-45.5 263T588 976t23 77q20 41 62.5 73t102.5 45q45 12 83.5 6.5t67-17 54-35 43-48 34.5-56.5l468 100q-68 175-180 287z"/></svg>