<svg width="128" height="128" viewBox="0 0 1536 1536" xmlns="http://www.w3.org/2000/svg"><path d="M1150 462V353q0-50-36.5-89t-94-60.5-118-32.5T784 160q-205 0-342.5 139T304 645q0 203 136 339t339 136q34 0 75.5-4.5t93-18 92.5-34 69-56.5 28-81V817q0-16-16-16h-118q-16 0-16 16v70q0 43-65.5 67.5T784 979q-140 0-228.5-91.5T467 650q0-151 91.5-249.5T792 302q68 0 138 24t70 66v70q0 7 4.5 11.5t10.5 4.5h119q6 0 11-4.5t5-11.5zm-382 818q-130 0-248.5-51t-204-136.5-136.5-204T128 640t51-248.5 136.5-204T519.5 51 768 0t248.5 51 204 136.5 136.5 204 51 248.5-51 248.5-136.5 204-204 136.5-248.5 51zm768-640q0-209-103-385.5T1153.5-25 768-128 382.5-25 103 254.5 0 640t103 385.5T382.5 1305 768 1408t385.5-103 279.5-279.5T1536 640z"/></svg>