<svg width="128" height="128" viewBox="0 0 1792 1792" xmlns="http://www.w3.org/2000/svg"><path d="M605 303q153 0 257 104 14 18 3 36l-45 82q-6 13-24 17-16 2-27-11l-4-3q-4-4-11.5-10T736 504.5 712.5 490 684 477t-33.5-9.5T613 464q-76 0-125 50t-49 127q0 76 48 125.5T609 816q37 0 71.5-14t50.5-28l16-14q11-11 26-10 16 2 24 14l53 78q13 20-2 39-3 4-11 12t-30 23.5-48.5 28T691 967t-86 10q-148 0-246-96.5T261 640q0-146 97-241.5T605 303zm630 0q153 0 257 104 14 18 4 36l-45 82q-8 14-25 17-16 2-27-11l-4-3q-4-4-11.5-10t-17.5-13.5-23.5-14.5-28.5-13-33.5-9.5-37.5-3.5q-76 0-125 50t-49 127q0 76 48 125.5t122 49.5q37 0 71.5-14t50.5-28l16-14q11-11 26-10 16 2 24 14l53 78q13 20-2 39-3 4-11 12t-30 23.5-48.5 28T1321 967t-86 10q-147 0-245.5-96.5T891 640q0-146 97-241.5t247-95.5zM896 1376q-150 0-286-58.5t-234.5-157-157-234.5T160 640t58.5-286 157-234.5T610-37.5 896-96t286 58.5 234.5 157 157 234.5 58.5 286-58.5 286-157 234.5-234.5 157-286 58.5zm0 160q182 0 348-71t286-191 191-286 71-348-71-348T1530 6t-286-191-348-71-348 71T262 6 71 292 0 640t71 348 191 286 286 191 348 71z"/></svg>