<svg width="64" height="64" viewBox="0 0 1536 1536" xmlns="http://www.w3.org/2000/svg"><path d="M1197 512h-109q-26 0-45 19t-19 45v128q0 26 19 45t45 19h109q-32 108-112.5 188.5T896 1069V960q0-26-19-45t-45-19H704q-26 0-45 19t-19 45v109q-108-32-188.5-112.5T339 768h109q26 0 45-19t19-45V576q0-26-19-45t-45-19H339q32-108 112.5-188.5T640 211v109q0 26 19 45t45 19h128q26 0 45-19t19-45V211q108 32 188.5 112.5T1197 512zm339 192V576q0-26-19-45t-45-19h-143q-37-161-154.5-278.5T896 79V-64q0-26-19-45t-45-19H704q-26 0-45 19t-19 45V79q-161 37-278.5 154.5T207 512H64q-26 0-45 19T0 576v128q0 26 19 45t45 19h143q37 161 154.5 278.5T640 1201v143q0 26 19 45t45 19h128q26 0 45-19t19-45v-143q161-37 278.5-154.5T1329 768h143q26 0 45-19t19-45z"/></svg>