<svg width="64" height="64" viewBox="0 0 2304 2304" xmlns="http://www.w3.org/2000/svg"><path d="M640-96l384 192v314L640 246V-96zm-64 454l404 173-404 173-404-173zM1664-96l384 192v314l-384-164V-96zm-64 454l404 173-404 173-404-173zm-448 293l384 165v266l-384-164V651zm-64 379l441 189-441 189-441-189zm1088-518V96q0-36-19-67t-52-47l-448-224q-25-14-57-14t-57 14L1095-18q-4 2-7 4-2-2-7-4L633-242q-25-14-57-14t-57 14L71-18Q38-2 19 29T0 96v416q0 38 21.5 70T78 630l434 186v400q0 38 21.5 70t56.5 48l448 192q23 10 50 10t50-10l448-192q35-16 56.5-48t21.5-70V816l434-186q36-16 57-48t21-70z"/></svg>