<svg width="128" height="128" viewBox="0 0 1408 1408" xmlns="http://www.w3.org/2000/svg"><path d="M640 1472V832q0-61-35.5-111T512 651v-779q0-52-38-90t-90-38H256q-52 0-90 38t-38 90v779q-57 20-92.5 70T0 832v640q0 26 19 45t45 19 45-19 19-45v-416q0-26 19-45t45-19 45 19 19 45v416q0 26 19 45t45 19 45-19 19-45v-416q0-26 19-45t45-19 45 19 19 45v416q0 26 19 45t45 19 45-19 19-45zm768 0V-128q0-52-38-90t-90-38h-128q-52 0-90 38t-38 90v512H800q-13 0-22.5 9.5T768 416v800q0 132 94 226t226 94h256q26 0 45-19t19-45z"/></svg>