<svg width="64" height="64" viewBox="0 0 1536 1536" xmlns="http://www.w3.org/2000/svg"><path d="M768 768q237 0 443 43t325 127V768q0-69-103-128t-280-93.5T768 512t-385 34.5T103 640 0 768v170q119-84 325-127t443-43zm0-768q237 0 443 43t325 127V0q0-69-103-128t-280-93.5T768-256t-385 34.5T103-128 0 0v170Q119 86 325 43T768 0zm0 384q237 0 443 43t325 127V384q0-69-103-128t-280-93.5T768 128t-385 34.5T103 256 0 384v170q119-84 325-127t443-43zm0 1152q208 0 385-34.5t280-93.5 103-128v-128q0-69-103-128t-280-93.5T768 896t-385 34.5-280 93.5T0 1152v128q0 69 103 128t280 93.5 385 34.5z"/></svg>