<svg width="64" height="64" viewBox="0 0 1792 1792" xmlns="http://www.w3.org/2000/svg"><path d="M1056 704q0-26 19-45t45-19 45 19 19 45q0 146-103 249t-249 103-249-103-103-249q0-26 19-45t45-19 45 19 19 45q0 93 66 158.5T832 928t158-65.5 66-158.5zm-221 576q-117 0-223.5-45.5t-184-123-123-184T259 704q0-26 19-45t45-19 45 19 19 45q0 185 131.5 316.5T835 1152t316.5-131.5T1283 704q0-55-18-103.5t-37.5-74.5-59.5-72q-34-39-52-63t-43.5-66.5-37-91T1024 128q0-106-75-181t-181-75q-26 0-45-19t-19-45 19-45 45-19q159 0 271.5 112.5T1152 128q0 41 7.5 74t26.5 64 33.5 50 45.5 54q35 41 53 64.5t44 67.5 37.5 93.5T1411 704q0 117-45.5 223.5t-123 184-184 123T835 1280zM591 561l226-226-579-579q-12-12-29-12t-29 12L12-76Q0-64 0-47t12 29zm1021 963l168-168q12-12 12-29t-12-30l-233-233-26-25-71-71q-66 153-195 258l91 91 207 207q13 12 30 12t29-12z"/></svg>