<svg width="64" height="64" viewBox="0 0 2048 2048" xmlns="http://www.w3.org/2000/svg"><path d="M896 324q0-55-31.5-93.5T789 192H363q-44 0-75.5 38.5T256 324q0 54 7.5 100.5t24.5 90 51 68.5 81 25q64-64 156-64t156 64q47 0 81-25t51-68.5 24.5-90T896 324zM768 768q0-80-56-136t-136-56-136 56-56 136 56 136 136 56 136-56 56-136zm1024-416v-64q0-14-9-23t-23-9h-704q-14 0-23 9t-9 23v64q0 14 9 23t23 9h704q14 0 23-9t9-23zm-384 256v-64q0-14-9-23t-23-9h-320q-14 0-23 9t-9 23v64q0 14 9 23t23 9h320q14 0 23-9t9-23zm384 0v-64q0-14-9-23t-23-9h-192q-14 0-23 9t-9 23v64q0 14 9 23t23 9h192q14 0 23-9t9-23zm0 256v-64q0-14-9-23t-23-9h-704q-14 0-23 9t-9 23v64q0 14 9 23t23 9h704q14 0 23-9t9-23zm128-832v1120H128V32q0-13 9.5-22.5T160 0h1728q13 0 22.5 9.5T1920 32zm128 1216V32q0-66-47-113t-113-47H160q-66 0-113 47T0 32v1216q0 66 47 113t113 47h1728q66 0 113-47t47-113z"/></svg>