<svg width="128" height="128" viewBox="0 0 1792 1792" xmlns="http://www.w3.org/2000/svg"><path d="M1341 752q29 44-6.5 129.5T1213 1024q-58 39-125.5 53.5t-118 4.5-68.5-37q-12-23-4.5-28t42.5-10q23-3 38.5-5t44.5-9.5 56-17.5q36-13 67.5-31.5t53-37 40-38.5 30.5-38 22-34.5 16.5-28.5 12-18.5 10.5-6 11 9.5zm363-574q-52-127-148.5-220T1341-183.5 1088-244t-266 13.5-251 91T361 22 219.5 257.5 173 561q1 41 8.5 84.5t12.5 64 24 80.5 23 73q-51-208 1-397t173-318T706-58t346-83 349 74.5T1690 178q20 27 18 14 0-4-4-14zm-239 449q0-104-40.5-199T1316 264t-162-109.5T956 114t-198 40.5T596 264 487.5 428 447 627t40.5 199T596 990t162 109.5 198 40.5 198-40.5T1316 990t108.5-164 40.5-199zm287 288q-65 147-180.5 251t-253 153.5-292 53.5-301-36.5-275.5-129T230 996 99 699 89 326Q40 487 37.5 637.5T73 910t109 227 165.5 180.5 207 126 232 71 242.5 9 236-54 216-124.5 178-197q33-50 62-121t31-112zm-62-342q12 244-136.5 416T1157 1229q-8 0-10 5t24 8q125-4 230-50t173-120 116-168.5 58.5-199-1-208T1686 299t-122.5-167-185-117.5T1130-32q108 30 201.5 80t174 123T1635 347.5t55 225.5z"/></svg>