<svg width="64" height="64" viewBox="0 0 1792 1792" xmlns="http://www.w3.org/2000/svg"><path d="M874-102v-66q-208 6-385 109.5T206 217l58 34q29-49 73-99l65 57Q550 41 770-3l-17-86q65-12 121-13zM276 428l-83-28q22-60 49-112l-57-33Q87 435 87 640t98 385l57-33q-30-56-49-112l82-28q-35-100-35-212 0-109 36-212zm1252-177l58-34Q1480 45 1303-58.5T918-168v66q56 1 121 13l-17 86q220 44 368 212l65-57q44 50 73 99zm-151 554l-233-80q14-42 14-85t-14-85l232-80q-31-92-98-169l-185 162q-57-67-147-85l48-241q-52-10-98-10t-98 10l48 241q-90 18-147 85L514 306q-67 77-98 169l232 80q-14 42-14 85t14 85l-233 80q33 93 99 169l185-162q59 68 147 86l-48 240q44 10 98 10t98-10l-48-240q88-18 147-86l185 162q66-76 99-169zm-503 643v-66q-65-2-121-13l17-86q-220-42-368-211l-65 56q-38-42-73-98l-57 33q106 172 282 275.5T874 1448zm831-808q0-205-98-385l-57 33q27 52 49 112l-83 28q36 103 36 212 0 112-35 212l82 28q-19 56-49 112l57 33q98-180 98-385zm-120 423l-57-33q-35 56-73 98l-65-56q-148 169-368 211l17 86q-56 11-121 13v66q209-6 385-109.5t282-275.5zm163-423q0 173-67.5 331T1499 1243t-272 181.5-331 67.5-331-67.5T293 1243 111.5 971 44 640t67.5-331T293 37t272-181.5T896-212t331 67.5T1499 37t181.5 272 67.5 331zm44 0q0-182-71-348T1530 6t-286-191-348-71-348 71T262 6 71 292 0 640t71 348 191 286 286 191 348 71 348-71 286-191 191-286 71-348z"/></svg>