<svg width="128" height="128" viewBox="0 0 1536 1536" xmlns="http://www.w3.org/2000/svg"><path d="M1248 1408q119 0 203.5-84.5T1536 1120V160q0-119-84.5-203.5T1248-128H288q-119 0-203.5 84.5T0 160v960q0 119 84.5 203.5T288 1408h960zm32-1056v436q-31-35-64-55-34-22-132.5-85T932 549q-98-69-164-69t-164 69q-47 32-142 92.5T320 734q-12 8-33 27t-31 27V352q0-40 28-68t68-28h832q40 0 68 28t28 68zm0 573q0 41-27.5 70t-68.5 29H352q-40 0-68-28t-28-68q0-37 30.5-76.5T354 787q47-32 137.5-89T621 615q3-2 17-11.5t21-14 21-13 23.5-13T725 554t22.5-7.5T768 544t20.5 2.5T811 554t21.5 9.5 23.5 13 21 13 21 14 17 11.5l267 174q35 23 66.5 62.5T1280 925z"/></svg>