<svg width="64" height="64" viewBox="0 0 1792 1792" xmlns="http://www.w3.org/2000/svg"><path d="M1792 882V-96q0-66-47-113t-113-47H160q-66 0-113 47T0-96v978q0 15 11 24 8 7 39 34.5t41.5 36T137 1014t70 55.5 96 73 143.5 107T639 1390q5 4 52.5 40t71.5 52.5 64 35 69 18.5 69-18.5 65-35.5 71-52 52-40q110-80 192.5-140.5t143.5-107 96-73 70-55.5 45.5-37.5 41.5-36 39-34.5q11-9 11-24zm-564-585q263 191 345 252 11 8 12.5 20.5T1579 593l-38 52q-8 11-21 12.5t-24-6.5q-231-169-343-250-5-3-52-39t-71.5-52.5-64.5-35-69-18.5-69 18.5-64.5 35T691 362t-52 39Q453 535 296 651q-11 8-24 6.5T251 645l-38-52q-8-11-6.5-23.5T219 549q82-61 345-252 10-8 50-38t65-47 64-39.5 77.5-33.5 75.5-11 75.5 11 79 34.5T1115 213t65 47.5 48 36.5z"/></svg>