<svg width="64" height="64" viewBox="0 0 1792 1792" xmlns="http://www.w3.org/2000/svg"><path d="M896 720Q792 916 736 998q-139 202-347 318-34 19-70 36-89 40-94 32t34-38l39-31q62-43 112.5-93.5T505 1105t70.5-113T646 861q9-17 13-25 44-84 84-153t98-154 115.5-150 131-123.5T1236 165q153-66 154-60 1 3-49 37-53 36-81 57-77 58-179 211T896 720zM549 177q-76 60-132.5 125t-98 143.5-71 154.5T189 786t-52 209-60.5 252T0 1536q273 0 497.5-36t379-92 271-144.5T1333 1091t110-198.5 56-199.5 12.5-198.5-9.5-173-20-143.5-13-107l323-327h-104L1407 29q-22-2-91.5-14T1194-4t-138-6T895.5 7 728 66 549 177z"/></svg>