<svg width="64" height="64" viewBox="0 0 1536 1536" xmlns="http://www.w3.org/2000/svg"><path d="M518 1353V698q103-1 191.5 1.5T835 705l37 3q68 2 90.5 24.5T1002 827l33 142h103l-14-322 7-319h-103l-29 127q-15 68-45 93t-84 26q-87 8-352 8V26q0-78 43.5-115.5T695-127h357q35 0 59.5 2t55 7.5 54 18 48.5 32 46 50.5 39 73l93 216h89q-6-37-31.5-252T1474-256q-146 5-263.5 8t-162.5 4H376L0-256v102l127 25q67 13 91.5 37T244-13l8 643q3 402-8 645-2 61-25.5 84t-91.5 36L0 1419v102l376-12h702q139 0 374 27-6-68-14-194.5t-12-219.5l-5-92h-93l-32 124q-31 121-74 179.5t-113 58.5H561q-28 0-35.5-8.5T518 1353z"/></svg>