<svg width="64" height="64" viewBox="0 0 1792 1792" xmlns="http://www.w3.org/2000/svg"><path d="M896 1472q-169 0-323-66t-265.5-177.5T130 963 64 640t66-323T307.5 51.5 573-126t323-66 323 66 265.5 177.5T1662 317t66 323-66 323-177.5 265.5T1219 1406t-323 66zm0 64q182 0 348-71t286-191 191-286 71-348-71-348T1530 6t-286-191-348-71-348 71T262 6 71 292 0 640t71 348 191 286 286 191 348 71zM496 704q16 0 16-16V208q0-16-16-16h-32q-16 0-16 16v480q0 16 16 16h32zm400-64q53 0 90.5-37.5T1024 512q0-35-17.5-64T960 402V288q0-14-9-23t-23-9h-64q-14 0-23 9t-9 23v114q-29 17-46.5 46T768 512q0 53 37.5 90.5T896 640zm0 768q209 0 385.5-103t279.5-279.5T1664 640t-103-385.5T1281.5-25 896-128 510.5-25 231 254.5 128 640t103 385.5T510.5 1305 896 1408zM544 928v-96q0-14 9-23t23-9h64q14 0 23 9t9 23v96q0 93 65.5 158.5T896 1152t158.5-65.5T1120 928v-96q0-14 9-23t23-9h64q14 0 23 9t9 23v96q0 146-103 249t-249 103-249-103-103-249zm864-736v512q0 26-19 45t-45 19H448q-26 0-45-19t-19-45V192q0-26 19-45t45-19h896q26 0 45 19t19 45z"/></svg>