<svg width="64" height="64" viewBox="0 0 1792 1792" xmlns="http://www.w3.org/2000/svg"><path d="M288 1152q66 0 113-47t47-113V-96q0-66-47-113t-113-47H160q-66 0-113 47T0-96V992q0 66 47 113t113 47h128zm1376-163q58-34 93-93t35-128V0q0-106-75-181t-181-75H672q-66 0-113 47T512-96v1536q0 40 28 68t68 28h672q40 0 88-20t76-48l152-152q28-28 48-76t20-88V989zM928 0v128q0 14-9 23t-23 9H768q-14 0-23-9t-9-23V0q0-14 9-23t23-9h128q14 0 23 9t9 23zm0 256v128q0 14-9 23t-23 9H768q-14 0-23-9t-9-23V256q0-14 9-23t23-9h128q14 0 23 9t9 23zm0 256v128q0 14-9 23t-23 9H768q-14 0-23-9t-9-23V512q0-14 9-23t23-9h128q14 0 23 9t9 23zM1184 0v128q0 14-9 23t-23 9h-128q-14 0-23-9t-9-23V0q0-14 9-23t23-9h128q14 0 23 9t9 23zm0 256v128q0 14-9 23t-23 9h-128q-14 0-23-9t-9-23V256q0-14 9-23t23-9h128q14 0 23 9t9 23zm0 256v128q0 14-9 23t-23 9h-128q-14 0-23-9t-9-23V512q0-14 9-23t23-9h128q14 0 23 9t9 23zM1440 0v128q0 14-9 23t-23 9h-128q-14 0-23-9t-9-23V0q0-14 9-23t23-9h128q14 0 23 9t9 23zm0 256v128q0 14-9 23t-23 9h-128q-14 0-23-9t-9-23V256q0-14 9-23t23-9h128q14 0 23 9t9 23zm0 256v128q0 14-9 23t-23 9h-128q-14 0-23-9t-9-23V512q0-14 9-23t23-9h128q14 0 23 9t9 23zm96 384v256h-160q-40 0-68 28t-28 68v160H640V896h896z"/></svg>