<svg width="64" height="64" viewBox="0 0 1280 1280" xmlns="http://www.w3.org/2000/svg"><path d="M1280 480q0-40-28-68t-68-28q-51 0-80 43L877 768h-45V636l247-411q9-15 9-33 0-26-19-45t-45-19H832v-272q0-46-33-79t-79-33H560q-46 0-79 33t-33 79v272H256q-26 0-45 19t-19 45q0 18 9 33l247 411v132h-45L176 427q-29-43-80-43-40 0-68 28T0 480q0 29 16 53l256 384q73 107 176 107h384q103 0 176-107l256-384q16-24 16-53zm-416 800q0-93-65.5-158.5T640 1056t-158.5 65.5T416 1280t65.5 158.5T640 1504t158.5-65.5T864 1280z"/></svg>