<svg width="64" height="64" viewBox="0 0 1536 1536" xmlns="http://www.w3.org/2000/svg"><path d="M1468 1156q28-28 48-76t20-88V-160q0-40-28-68t-68-28H96q-40 0-68 28T0-160v1600q0 40 28 68t68 28h896q40 0 88-20t76-48zm-444 244v-376h376q-10 29-22 41l-313 313q-12 12-41 22zm384-1528V896H992q-40 0-68 28t-28 68v416H128V-128h1280zM620 686q20-8 20-30V112q0-22-20-30-8-2-12-2-12 0-23 9L419 256H288q-14 0-23 9t-9 23v192q0 14 9 23t23 9h131l166 167q16 15 35 7zM1037-3q31 0 50 24 129 159 129 363t-129 363q-16 21-43 24t-47-14q-21-17-23.5-43.5T988 666q100-123 100-282T988 102q-17-21-14.5-47.5T997 12q18-15 40-15zM826 145q27 0 47 20 87 93 87 219t-87 219q-18 19-45 20t-46-17-20-44.5 18-46.5q52-57 52-131t-52-131q-19-20-18-46.5t20-44.5q20-17 44-17z"/></svg>