<svg width="64" height="64" viewBox="0 0 1536 1536" xmlns="http://www.w3.org/2000/svg"><path d="M1468 1156q28-28 48-76t20-88V-160q0-40-28-68t-68-28H96q-40 0-68 28T0-160v1600q0 40 28 68t68 28h896q40 0 88-20t76-48zm-444 244v-376h376q-10 29-22 41l-313 313q-12 12-41 22zm384-1528V896H992q-40 0-68 28t-28 68v416H128V-128h1280zM384 736q0 14 9 23t23 9h704q14 0 23-9t9-23v-64q0-14-9-23t-23-9H416q-14 0-23 9t-9 23v64zm736-224q14 0 23-9t9-23v-64q0-14-9-23t-23-9H416q-14 0-23 9t-9 23v64q0 14 9 23t23 9h704zm0-256q14 0 23-9t9-23v-64q0-14-9-23t-23-9H416q-14 0-23 9t-9 23v64q0 14 9 23t23 9h704z"/></svg>