<svg width="64" height="64" viewBox="0 0 1536 1536" xmlns="http://www.w3.org/2000/svg"><path d="M1468 1156q28-28 48-76t20-88V-160q0-40-28-68t-68-28H96q-40 0-68 28T0-160v1600q0 40 28 68t68 28h896q40 0 88-20t76-48zm-444 244v-376h376q-10 29-22 41l-313 313q-12 12-41 22zm384-1528V896H992q-40 0-68 28t-28 68v416H128V-128h1280zM480 768q8 11 21 12.5t24-6.5l51-38q11-8 12.5-21t-6.5-24L400 448l182-243q8-11 6.5-24T576 160l-51-38q-11-8-24-6.5T480 128L254 429q-14 19 0 38zm802-301q14-19 0-38l-226-301q-8-11-21-12.5t-24 6.5l-51 38q-11 8-12.5 21t6.5 24l182 243-182 243q-8 11-6.5 24t12.5 21l51 38q11 8 24 6.5t21-12.5zM662 6q-13 2-20.5 13T636 43l138 831q2 13 13 20.5t24 5.5l63-10q13-2 20.5-13t5.5-24L762 22q-2-13-13-20.5T725-4z"/></svg>