<svg width="64" height="64" viewBox="0 0 1536 1536" xmlns="http://www.w3.org/2000/svg"><path d="M1468 1156q28-28 48-76t20-88V-160q0-40-28-68t-68-28H96q-40 0-68 28T0-160v1600q0 40 28 68t68 28h896q40 0 88-20t76-48zm-444 244v-376h376q-10 29-22 41l-313 313q-12 12-41 22zm384-1528V896H992q-40 0-68 28t-28 68v416H128V-128h1280zM429 106V0h281v106h-75l103 161q5 7 10 16.5t7.5 13.5 3.5 4h2q1-4 5-10 2-4 4.5-7.5t6-8 6.5-8.5l107-161h-76V0h291v106h-68L845 379l195 282h67v107H828V661h74L799 502q-4-7-10-16.5t-9-13.5l-2-3h-2q-1 4-5 10-6 11-17 23L648 661h76v107H434V661h68l189-272-194-283h-68z"/></svg>