<svg width="128" height="128" viewBox="0 0 1536 1536" xmlns="http://www.w3.org/2000/svg"><path d="M1468 1156q28-28 48-76t20-88V-160q0-40-28-68t-68-28H96q-40 0-68 28T0-160v1600q0 40 28 68t68 28h896q40 0 88-20t76-48zm-444 244v-376h376q-10 29-22 41l-313 313q-12 12-41 22zm384-1528V896H992q-40 0-68 28t-28 68v416H128V-128h1280zM894 465q33-26 84-56 59 7 117 7 147 0 177-49 16-22 2-52 0-1-1-2l-2-2v-1q-6-38-71-38-48 0-115 20t-130 53q-221-24-392-83Q410 0 321 0q-15 0-28 7l-24 12q-1 1-6 5-10 10-6 36 9 40 56 91.5T445 248q14 9 23-6 2-2 2-4 52 85 107 197 68 136 104 262-24 82-30.5 159.5T657 984q11 40 42 40h22q23 0 35-15 18-21 9-68-2-6-4-8 1-3 1-8v-30q-2-123-14-192 55-164 146-238zM318 54q52 24 137 158-51-40-87.5-84T318 54zm398 920q-15-42-2-132 1 7 7 44 0 3 7 43 1 4 4 8-1 1-1 2-1 2-1 3-1 22-13 36 0-1-1-2v-2zM592 313q135 54 284 81-2 1-13 9.5T847 417q-76 67-127 176-27-86-83-197-30-56-45-83zm646 16q-24 24-140 24 76-28 124-28 14 0 18 1 0 1-2 3z"/></svg>