<svg width="64" height="64" viewBox="0 0 1536 1536" xmlns="http://www.w3.org/2000/svg"><path d="M1468 1060q14-14 28-36h-472v472q22-14 36-28zM992 896h544V-160q0-40-28-68t-68-28H96q-40 0-68 28T0-160v1600q0 40 28 68t68 28h800V992q0-40 28-68t68-28zm160-736v64q0 14-9 23t-23 9H416q-14 0-23-9t-9-23v-64q0-14 9-23t23-9h704q14 0 23 9t9 23zm0 256v64q0 14-9 23t-23 9H416q-14 0-23-9t-9-23v-64q0-14 9-23t23-9h704q14 0 23 9t9 23zm0 256v64q0 14-9 23t-23 9H416q-14 0-23-9t-9-23v-64q0-14 9-23t23-9h704q14 0 23 9t9 23z"/></svg>