<svg width="128" height="128" viewBox="0 0 1536 1536" xmlns="http://www.w3.org/2000/svg"><path d="M640 1152v128H512v-128h128zm128-128v128H640v-128h128zM640 896v128H512V896h128zm128-128v128H640V768h128zm700 388q28-28 48-76t20-88V-160q0-40-28-68t-68-28H96q-40 0-68 28T0-160v1600q0 40 28 68t68 28h896q40 0 88-20t76-48zm-444 244v-376h376q-10 29-22 41l-313 313q-12 12-41 22zm384-1528V896H992q-40 0-68 28t-28 68v416H768v-128H640v128H128V-128h1280zM781 593l107-349q8-27 8-52 0-83-72.5-137.5T640 0 456.5 54.5 384 192q0 25 8 52 21 63 120 396v128h128V640h79q22 0 39-13t23-34zM640 128q53 0 90.5 19t37.5 45-37.5 45-90.5 19-90.5-19-37.5-45 37.5-45 90.5-19z"/></svg>