<svg width="128" height="128" viewBox="0 0 1536 1536" xmlns="http://www.w3.org/2000/svg"><path d="M1468 1156q28-28 48-76t20-88V-160q0-40-28-68t-68-28H96q-40 0-68 28T0-160v1600q0 40 28 68t68 28h896q40 0 88-20t76-48zm-444 244v-376h376q-10 29-22 41l-313 313q-12 12-41 22zm384-1528V896H992q-40 0-68 28t-28 68v416H128V-128h1280zM768 768q52 0 90-38t38-90V256q0-52-38-90t-90-38H384q-52 0-90 38t-38 90v384q0 52 38 90t90 38h384zm492-2q20-8 20-30V160q0-22-20-30-8-2-12-2-14 0-23 9L960 403v90l265 266q9 9 23 9 4 0 12-2z"/></svg>