<svg width="128" height="128" viewBox="0 0 1536 1536" xmlns="http://www.w3.org/2000/svg"><path d="M1468 1156q28-28 48-76t20-88V-160q0-40-28-68t-68-28H96q-40 0-68 28T0-160v1600q0 40 28 68t68 28h896q40 0 88-20t76-48zm-444 244v-376h376q-10 29-22 41l-313 313q-12 12-41 22zm384-1528V896H992q-40 0-68 28t-28 68v416H128V-128h1280zM233 768V661h70L467 0h159l128 485q7 20 10 46 2 16 2 24h4l3-24q1-3 3.5-20t5.5-26L910 0h159l164 661h70v107h-300V661h90l-99-438q-5-20-7-46l-2-21h-4q0 3-.5 6.5t-1.5 8-1 6.5q-1 5-4 21t-5 25L825 768H711L567 223q-2-9-4.5-24.5T559 177l-4-21h-4l-2 21q-2 26-7 46l-99 438h90v107H233z"/></svg>