<svg width="128" height="128" viewBox="0 0 1536 1536" xmlns="http://www.w3.org/2000/svg"><path d="M1468 1156q28-28 48-76t20-88V-160q0-40-28-68t-68-28H96q-40 0-68 28T0-160v1600q0 40 28 68t68 28h896q40 0 88-20t76-48zm-444 244v-376h376q-10 29-22 41l-313 313q-12 12-41 22zm384-1528V896H992q-40 0-68 28t-28 68v416H128V-128h1280zM416 106V0h327v106h-93v167h137q76 0 118 15 67 23 106.5 87t39.5 146q0 81-37 141t-100 87q-48 19-130 19H416V661h92V106h-92zm353 280H650v268h120q52 0 83-18 56-33 56-115 0-89-62-120-31-15-78-15z"/></svg>