<svg width="64" height="64" viewBox="0 0 1920 1920" xmlns="http://www.w3.org/2000/svg"><path d="M384-64V64q0 26-19 45t-45 19H192q-26 0-45-19t-19-45V-64q0-26 19-45t45-19h128q26 0 45 19t19 45zm0 384v128q0 26-19 45t-45 19H192q-26 0-45-19t-19-45V320q0-26 19-45t45-19h128q26 0 45 19t19 45zm0 384v128q0 26-19 45t-45 19H192q-26 0-45-19t-19-45V704q0-26 19-45t45-19h128q26 0 45 19t19 45zM1408-64v512q0 26-19 45t-45 19H576q-26 0-45-19t-19-45V-64q0-26 19-45t45-19h768q26 0 45 19t19 45zM384 1088v128q0 26-19 45t-45 19H192q-26 0-45-19t-19-45v-128q0-26 19-45t45-19h128q26 0 45 19t19 45zM1792-64V64q0 26-19 45t-45 19h-128q-26 0-45-19t-19-45V-64q0-26 19-45t45-19h128q26 0 45 19t19 45zm-384 768v512q0 26-19 45t-45 19H576q-26 0-45-19t-19-45V704q0-26 19-45t45-19h768q26 0 45 19t19 45zm384-384v128q0 26-19 45t-45 19h-128q-26 0-45-19t-19-45V320q0-26 19-45t45-19h128q26 0 45 19t19 45zm0 384v128q0 26-19 45t-45 19h-128q-26 0-45-19t-19-45V704q0-26 19-45t45-19h128q26 0 45 19t19 45zm0 384v128q0 26-19 45t-45 19h-128q-26 0-45-19t-19-45v-128q0-26 19-45t45-19h128q26 0 45 19t19 45zm128 160V-96q0-66-47-113t-113-47H160q-66 0-113 47T0-96v1344q0 66 47 113t113 47h1600q66 0 113-47t47-113z"/></svg>