<svg width="128" height="128" viewBox="0 0 1408 1408" xmlns="http://www.w3.org/2000/svg"><path d="M1408-160v-64q0-13-9.5-22.5T1376-256H32q-13 0-22.5 9.5T0-224v64q0 13 9.5 22.5T32-128h1344q13 0 22.5-9.5t9.5-22.5zM1152 896q0-78-24.5-144t-64-112.5-87.5-88-96-77.5-87.5-72-64-81.5T704 224q0-96 67-224l-4 1 1-1q-90 41-160 83T469.5 183 356 305.5 283.5 456 256 640q0 78 24.5 144t64 112.5 87.5 88 96 77.5 87.5 72 64 81.5T704 1312q0 94-66 224l3-1-1 1q90-41 160-83t138.5-100 113.5-122.5 72.5-150.5 27.5-184z"/></svg>