<svg width="128" height="128" viewBox="0 0 1536 1536" xmlns="http://www.w3.org/2000/svg"><path d="M1322 640q0-45-5-76l-236 14 224-78q-19-73-58-141l-214 103 177-158q-44-61-107-108L946 374l103-215q-61-37-140-59l-79 228 14-240q-38-6-76-6t-76 6l14 238-78-226q-74 19-140 59l103 215-157-178q-59 43-108 108l178 158-214-104q-39 69-58 141l224 79-237-14q-5 42-5 76 0 35 5 77l238-14-225 79q19 73 58 140l214-104-177 159q46 61 107 108l158-178-103 215q67 39 140 58l77-224-13 236q36 6 75 6 38 0 76-6l-14-237 78 225q74-19 140-59L945 907l158 178q61-47 107-108l-177-159 213 104q37-62 58-141l-224-78 237 14q5-31 5-77zm30 0q0 160-78.5 295.5t-213 214T768 1228q-119 0-227-46.5t-186.5-125T230 869t-46-229q0-119 46-228t124.5-187.5T541 99.5 768 53q158 0 292.5 78.5t213 214T1352 640zm73 383V257L768-126 111 257v766l657 383zM768-183l708 412v823l-708 411-708-411V229zm768 1271V192L768-256 0 192v896l768 448z"/></svg>