<svg width="128" height="128" viewBox="0 0 1792 1792" xmlns="http://www.w3.org/2000/svg"><path d="M320 1280q0-72-64-110V-96q0-13-9.5-22.5T224-128h-64q-13 0-22.5 9.5T128-96v1266q-64 38-64 110 0 53 37.5 90.5T192 1408t90.5-37.5T320 1280zm1472-64V453q0-25-12.5-38.5T1740 387q-215-116-369-116-61 0-123.5 22T1139 341t-115.5 48T881 411q-192 0-464-146-17-9-33-9-26 0-45 19t-19 45v742q0 32 31 55 21 14 79 43 236 120 421 120 107 0 200-29t219-88q38-19 88-19 54 0 117.5 21t110 47 88 47 54.5 21q26 0 45-19t19-45z"/></svg>