<svg width="64" height="64" viewBox="0 0 1536 1536" xmlns="http://www.w3.org/2000/svg"><path d="M0 1408h1536V-128H0v1536zm908-320l-12-33 75-83-31-114 25-25 107 57 107-57 25 25-31 114 75 83-12 33h-95l-53 96h-32l-53-96h-95zM641 925q32 0 44.5-16t11.5-63l174 21q0 55-17.5 92.5t-50.5 56-69 25.5-85 7q-133 0-199-57.5T384 808v-72h-96V608h76q20 0 20-8V218q0-14-5-20t-18-7l-73-7V96h448v86l-149 14q-6 1-8.5 1.5T575 200t-.5 4 1 7 .5 10v387h191l38 128H574q-6 0-2 6t4 9v80q0 27 1.5 40.5t7.5 28 19.5 20T641 925zm607-829v86l-54 9q-7 1-9.5 2.5t-2.5 3 1 7.5 1 12v520H909l-23-101 83-22q23-7 23-27V216q0-14-6-18.5t-20-6.5l-70-9V96h352z"/></svg>