<svg width="128" height="128" viewBox="0 0 1664 1664" xmlns="http://www.w3.org/2000/svg"><path d="M725 977L555 527q33 0 136.5-2t160.5-2q19 0 57 2-87 253-184 452zM0-128l2 79q23 7 56 12.5T115-26t49.5 14.5 44.5 29T240 68l237 616 280 724h128q8-14 11-21l205-480q33-78 106-257.5T1321 375q15-34 58-144.5T1451 62q20-45 35-57 19-15 88-29.5t84-20.5q6-38 6-57 0-5-.5-13.5t-.5-12.5q-63 0-190 8t-191 8q-76 0-215-7t-178-8q0 43 4 78l131 28q1 0 12.5 2.5T1052-15t14.5 4.5 15 6.5 11 8 9 11 2.5 14q0 16-31 96.5T1001 303t-42 100l-450 2q-26-58-76.5-195.5T382 47q0-22 14-37.5T439.5-15 488-28.5t57-8.5 41-4q1-19 1-58 0-9-2-27-58 0-174.5 10T236-106q-8 0-26.5-4t-21.5-4q-80-14-188-14z"/></svg>