<svg width="128" height="128" viewBox="0 0 1792 1792" xmlns="http://www.w3.org/2000/svg"><path d="M640 528v224q0 16-16 16h-96q-16 0-16-16V528q0-16 16-16h96q16 0 16 16zm512 0v224q0 16-16 16h-96q-16 0-16-16V528q0-16 16-16h96q16 0 16 16zm512-32v-752h-640V64q0 80-56 136t-136 56-136-56-56-136v-320H0v752q0 16 16 16h96q16 0 16-16V384h128v624q0 16 16 16h96q16 0 16-16V896h128v112q0 16 16 16h96q16 0 16-16V896h128v112q0 6 2.5 9.5t8.5 5 9.5 2 11.5 0 9-.5v391q-32 15-32 50 0 23 16.5 39t38.5 16 38.5-16 16.5-39q0-35-32-50v-17q45 10 83 10 21 0 59.5-7.5t54.5-7.5q17 0 47 7.5t37 7.5q16 0 16-16v-210q0-15-35-21.5t-62-6.5q-18 0-54.5 7.5T945 1169q-40 0-90-12v-133q1 0 9 .5t11.5 0 9.5-2 8.5-5 2.5-9.5V896h128v112q0 16 16 16h96q16 0 16-16V896h128v112q0 16 16 16h96q16 0 16-16V384h128v112q0 16 16 16h96q16 0 16-16z"/></svg>