<svg width="128" height="128" viewBox="0 0 1920 1920" xmlns="http://www.w3.org/2000/svg"><path d="M832 448v128q0 14-9 23t-23 9H608v192q0 14-9 23t-23 9H448q-14 0-23-9t-9-23V608H224q-14 0-23-9t-9-23V448q0-14 9-23t23-9h192V224q0-14 9-23t23-9h128q14 0 23 9t9 23v192h192q14 0 23 9t9 23zm576-64q0 53-37.5 90.5T1280 512t-90.5-37.5T1152 384t37.5-90.5T1280 256t90.5 37.5T1408 384zm256 256q0 53-37.5 90.5T1536 768t-90.5-37.5T1408 640t37.5-90.5T1536 512t90.5 37.5T1664 640zm256-128q0-212-150-362T1408 0q-192 0-338 128H850Q704 0 512 0 300 0 150 150T0 512t150 362 362 150h896q212 0 362-150t150-362z"/></svg>