<svg width="128" height="128" viewBox="0 0 1536 1536" xmlns="http://www.w3.org/2000/svg"><path d="M768 1408q209 0 385.5-103t279.5-279.5T1536 640q0-251-146.5-451.5T1011-89q-27-5-40 7t-13 30q0 3 .5 76.5T959 159q0 97-52 142 57 6 102.5 18t94 39 81 66.5 53 105T1258 680q0 119-79 206 37 91-8 204-28 9-81-11t-92-44l-38-24q-93 26-192 26t-192-26q-16 11-42.5 27t-83.5 38.5-85 13.5q-45-113-8-204-79-87-79-206 0-85 20.5-150T351 425t80.5-67 94-39T628 301q-39-36-49-103-21-10-45-15t-57-5-65.5 21.5T356 262q-19 32-48.5 52T258 338l-20 3q-21 0-29-4.5t-5-11.5 9-14 13-12l7-5q22-10 43.5-38t31.5-51l10-23q13-38 44-61.5t67-30 69.5-7T554 87l23 4q0-38 .5-88.5T578-52q0-18-13-30t-40-7Q293-12 146.5 188.5T0 640q0 209 103 385.5T382.5 1305 768 1408zM291 305q3 7-7 12-10 3-13-2-3-7 7-12 9-6 13 2zm31-34q7 5-2 16-10 9-16 3-7-5 2-16 10-10 16-3zm30-45q9 7 0 19-8 13-17 6-9-5 0-18t17-7zm42-42q8 8-4 19-12 12-20 3-9-8 4-19 12-12 20-3zm57-25q3 11-13 16-15 4-19-7t13-15q15-6 19 6zm63-5q0 13-17 11-16 0-16-11 0-13 17-11 16 0 16 11zm58 10q-2 11-18 9-16-3-14-15t18-8 14 14z"/></svg>