<svg width="128" height="128" viewBox="0 0 1536 1536" xmlns="http://www.w3.org/2000/svg"><path d="M917 631q0 26-6 64H549V563h217q-3-24-16.5-50T712 460t-66.5-44.5T549 398q-99 0-169 71t-70 171 70 171 169 71q92 0 153-59l104 101q-108 100-257 100-160 0-272-112.5T165 640t112-271.5T549 256q165 0 266.5 105T917 631zm345-46h109v110h-109v110h-110V695h-110V585h110V475h110v110zm274 535V160q0-119-84.5-203.5T1248-128H288q-119 0-203.5 84.5T0 160v960q0 119 84.5 203.5T288 1408h960q119 0 203.5-84.5T1536 1120z"/></svg>