<svg width="128" height="128" viewBox="0 0 1536 1536" xmlns="http://www.w3.org/2000/svg"><path d="M1408 576q0 84-32 183t-64 194-32 167v32H640v-32q0-35-12-67.5T591 990t-46-50-54-49q-9-8-14-12-81-72-145-112-22-14-68-38-3-1-22.5-10.5t-36-18.5-35.5-20-30.5-21.5T128 640q0-71 30.5-115.5T256 480q43 0 84.5 15t68 33 55 33 48.5 15V0q0-50 38.5-89t89.5-39q52 0 90 38t38 90v331q46-35 103-35 69 0 119 53 32-18 69-18t73.5 17.5T1185 396q24-4 56-4 85 0 126 48.5t41 135.5zm-128 768q0 26-19 45t-45 19-45-19-19-45 19-45 45-19 45 19 19 45zm256-764q0-142-77.5-230T1241 263l-5 1q-76-61-178-61-22 0-43 3-54-30-119-37V0q0-105-76-180.5T639-256q-103 0-179 76T384 0v374q-54-22-128-22-121 0-188.5 81.5T0 640q0 38 17.5 69.5t49.5 55 63 40.5 72 37 62 33q55 35 129 100 3 2 17 14t21.5 19 21.5 20.5 22.5 24 18 22.5 14 23.5 4.5 21.5v288q0 53 37.5 90.5T640 1536h640q53 0 90.5-37.5t37.5-90.5v-288q0-59 59-223 69-190 69-317z"/></svg>