<svg width="128" height="128" viewBox="0 0 1536 1536" xmlns="http://www.w3.org/2000/svg"><path d="M768 1152q-53 0-90.5-37.5T640 1024V896h-32v93q0 48-32 81.5t-80 33.5q-46 0-79-33t-33-79V563l-32 30v172q0 48-32 81.5T240 880q-46 0-79-33t-33-79V544q0-47 35-82l310-296q39-39 39-102 0-26 19-45t45-19h640q26 0 45 19t19 45v25q0 41 10 77l108 436q10 36 10 77v246q0 48-32 81.5t-80 33.5q-46 0-79-33t-33-79v-32h-32v125q0 40-25 72.5t-64 40.5q-14 2-23 2-46 0-79-33t-33-79V896h-32v122q0 51-32.5 89.5T781 1151q-5 1-13 1zm0 128q84 0 149-50 57 34 123 34 59 0 111-27t86-76q27 7 59 7 100 0 170-71.5t70-171.5V679q0-51-13-108l-109-436q-6-24-6-71 0-80-56-136t-136-56H576q-84 0-138 58.5T384 73L76 369Q0 442 0 544v224q0 99 70.5 169.5T240 1008q11 0 16-1 6 95 75.5 160t164.5 65q52 0 98-21 72 69 174 69z"/></svg>