<svg width="128" height="128" viewBox="0 0 1792 1792" xmlns="http://www.w3.org/2000/svg"><path d="M880 1408q-46 0-79-33t-33-79V640h-32v528q0 46-33 79t-79 33-79-33-33-79V384L358 589q-38 51-102 51-53 0-90.5-37.5T128 512q0-43 26-77L538-77q38-51 102-51h688q34 0 61 22t34 56l76 405q5 32 5 59v498q0 46-33 79t-79 33-79-33-33-79V640h-32v528q0 46-33 79t-79 33-79-33-33-79V640h-32v656q0 46-33 79t-79 33zm0 128q68 0 125.5-35.5t88.5-96.5q19 4 42 4 99 0 169.5-70.5T1376 1168v-17q105 6 180.5-64t75.5-175V414q0-40-8-83l-76-404q-14-79-76.5-131T1328-256H640q-60 0-114.5 27.5T435-154L51 358Q0 426 0 512q0 106 75 181t181 75q78 0 128-34v434q0 99 70.5 169.5T624 1408q23 0 42-4 31 61 88.5 96.5T880 1536z"/></svg>