<svg width="64" height="64" viewBox="0 0 1792 1792" xmlns="http://www.w3.org/2000/svg"><path d="M640 1408q-53 0-90.5-37.5T512 1280V384L361 586q-41 54-107 54-52 0-89-38t-37-90q0-43 26-77L538-77q38-51 102-51h718q22 0 39.5 13.5T1420-80l92 368q24 96 24 194v217q0 41-28 71t-68 30-68-28-28-68h-32v61q0 48-32 81.5t-80 33.5q-46 0-79-33t-33-79v-64h-32v90q0 55-37 94.5T928 928q-53 0-90.5-37.5T800 800v-96h-32v570q0 55-37 94.5t-91 39.5zm0 128q107 0 181.5-77.5T896 1274v-220q22 2 32 2 99 0 173-69 47 21 99 21 113 0 184-87 27 7 56 7 94 0 159-67.5t65-161.5V482q0-116-28-225l-92-368q-16-64-68-104.5T1358-256H640q-60 0-114.5 27.5T435-154L51 358Q0 426 0 512q0 105 74.5 180.5T254 768q71 0 130-35v547q0 106 75 181t181 75zM768 128v384h-32V128h32zm256 0v384h-32V128h32zm256 0v384h-32V128h32z"/></svg>