<svg width="128" height="128" viewBox="0 0 1536 1536" xmlns="http://www.w3.org/2000/svg"><path d="M1288 889q60 0 107-23 141-63 141-226V463q0-94-23-186l-85-339q-21-86-90.5-140T1180-256H512q-106 0-181 75T256 0v401L17 1029q-17 45-17 91 0 106 75 181t181 75q80 0 145.5-45.5T495 1211l17-44v113q0 106 75 181t181 75 181-75 75-181v-261q27 5 48 5 69 0 127.5-36.5T1288 889zm-216 7q-33 0-60.5-18T970 830l-74-163-71-155h55q50 0 90-31.5t50-80.5l154 338q10 20 10 46 0 46-33 79t-79 33zm221-135q-22 0-40.5-8t-29-16-23.5-29.5-17-30.5-17-37l-132-290q-10-20-10-46 0-46 33-79t79-33q33 0 60.5 18t41.5 48l160 352q9 18 9 38 0 50-32 81.5t-82 31.5zM128 1120q0-22 8-46l248-650v-69l102 111q43 46 106 46h198l106 233v535q0 53-37.5 90.5T768 1408t-90.5-37.5T640 1280V640h-64l-200 526q-14 37-47 59.5t-73 22.5q-53 0-90.5-37.5T128 1120zM1180-128q44 0 78.5 27t45.5 70l85 339q19 73 19 155v91l-141-310q-17-38-53-61t-78-23q-53 0-93.5 34.5T994 281q-44-57-114-57H672v32h208q46 0 81 33t35 79-31 79-77 33H592q-49 0-82-36L384 308V0q0-53 37.5-90.5T512-128h668z"/></svg>