<svg width="128" height="128" viewBox="0 0 2048 2048" xmlns="http://www.w3.org/2000/svg"><path d="M1151 1536q61 0 116-28t91-77l572-781q118-159 118-359V-64q0-80-56-136t-136-56h-384q-80 0-136 56t-56 136v177L994 256H448q-80 0-136 56t-56 136v32q0 119 84.5 203.5T544 768h420l42 128H320q-100 0-173.5 67.5T65 1130q-65 79-65 182v32q0 80 56 136t136 56h959zM1920-64v355q0 157-93 284l-573 781q-39 52-103 52H192q-26 0-45-19t-19-45q0-32 1.5-49.5t9.5-40.5 25-43q10 31 35.5 50t56.5 19h832v-32H256q-26 0-45-19t-19-45q0-44 3-58 8-44 44-73t81-29h731q40 0 68-28t28-68q0-15-5-30l-64-192q-10-29-35-47.5T987 640H544q-66 0-113-47t-47-113v-32q0-26 19-45t45-19h561q16 0 29-7l317-158q24-13 38.5-36t14.5-50V-64q0-26 19-45t45-19h384q26 0 45 19t19 45z"/></svg>