<svg width="64" height="64" viewBox="0 0 1792 1792" xmlns="http://www.w3.org/2000/svg"><path d="M1073-128H896q-163 0-226 141-23 49-23 102v5q-62 30-98.5 88.5T512 336q0 38 5 48H256q-106 0-181 75T0 640t75 181 181 75h113l-44 17q-74 28-119.5 93.5T160 1152q0 106 75 181t181 75q46 0 91-17l628-239h401q106 0 181-75t75-181V228q0-88-54-157.5T1598-20l-339-85q-92-23-186-23zm-49 711l-155-71-163-74q-30-14-48-41.5T640 336q0-46 33-79t79-33q26 0 46 10l338 154q-49 10-80.5 50t-31.5 90v55zm320-311q0 46-33 79t-79 33q-26 0-46-10L896 242q-28-13-37-17t-30.5-17-29.5-23.5-16-29-8-40.5q0-50 31.5-82T888 1q20 0 38 9l352 160q30 14 48 41.5t18 60.5zm-232 752l-650 248q-24 8-46 8-53 0-90.5-37.5T288 1152q0-40 22.5-73t59.5-47l526-200v-64H256q-53 0-90.5-37.5T128 640t37.5-90.5T256 512h535l233 106v198q0 63 46 106l111 102h-69zM1073 0q82 0 155 19l339 85q43 11 70 45.5t27 78.5v668q0 53-37.5 90.5T1536 1024h-308l-136-126q-36-33-36-82V520q0-46 33-77t79-31 79 35 33 81v208h32V528q0-70-57-114 52-8 86.5-48.5T1376 272q0-42-23-78t-61-53L982 0h91z"/></svg>