<svg width="64" height="64" viewBox="0 0 2304 2304" xmlns="http://www.w3.org/2000/svg"><path d="M192 384q40 0 56 32t0 64-56 32-56-32 0-64 56-32zm1473 58q-10 13-38.5 50t-41.5 54-38 49-42.5 53-40.5 47-45 49l-125-140q-83-94-208.5-92T880 610q-57 69-56.5 158T882 925l177 206q-22 11-51 16.5t-47.5 6-56.5-.5-49-1q-92 0-158-66L539 928H384V384q5 0 21 .5t22 0 19.5-2T467 378t17.5-8.5T503 356L800 64Q915-47 1027-47q78 0 125 47 57-20 112.5 8t72.5 85q74-6 127 44 20 18 36 45.5t14 50.5q10-10 43-10 43 0 77 21t49.5 53 12 71.5T1665 442zm159-58h96v512h-93l-157 180q-66 76-169 76h-167q-89 0-146-67L979 842q-28-33-28-75t27-75q43-51 110-52t111 49l193 218q25 23 53.5 21.5t47-27 8.5-56.5q16-19 56-63t60-68q29-36 82.5-105.5T1764 524q52-66 60-140zm288 0q40 0 56 32t0 64-56 32-56-32 0-64 56-32zm192 576V320q0-26-19-45t-45-19h-434q-27-65-82-106.5T1599 98q-33-48-80.5-81.5T1416-29q-42-53-104.5-81.5T1183-135q-60-34-126-39.5t-127.5 14-117 53.5T709-26L422 256H64q-26 0-45 19T0 320v672q0 26 19 45t45 19h421q14 14 47 48t47.5 48 44 40 50.5 37.5 51 25.5 62 19.5 68 5.5h117q99 0 181-56 82 56 181 56h167q35 0 67-6t56.5-14.5 51.5-26.5 44.5-31 43-39.5 39-42 41-48 41.5-48.5h355q26 0 45-19t19-45z"/></svg>