<svg width="128" height="128" viewBox="0 0 1536 1536" xmlns="http://www.w3.org/2000/svg"><path d="M1040 320q0-33-23.5-56.5T960 240t-56.5 23.5T880 320t23.5 56.5T960 400t56.5-23.5T1040 320zm256 0q0-33-23.5-56.5T1216 240t-56.5 23.5T1136 320t23.5 56.5T1216 400t56.5-23.5T1296 320zm112-160v320q0 13-9.5 22.5T1376 512H160q-13 0-22.5-9.5T128 480V160q0-13 9.5-22.5T160 128h1216q13 0 22.5 9.5t9.5 22.5zM178 640h1180l-157 482q-4 13-16 21.5t-26 8.5H377q-14 0-26-8.5t-16-21.5zm1358-160V160q0-66-47-113T1376 0H160Q94 0 47 47T0 160v320q0 25 16 75l197 606q17 53 63 86t101 33h782q55 0 101-33t63-86l197-606q16-50 16-75z"/></svg>