<svg width="64" height="64" viewBox="0 0 1792 1792" xmlns="http://www.w3.org/2000/svg"><path d="M1280 512h305q-5-6-10-10.5t-9-7.5l-3-4-623-600q-18-18-44-18t-44 18L228 492q-5 2-21 20h369q22 0 39.5 13.5T638 560l70 281 190-667q6-20 23-33t39-13q21 0 38 13t23 33l146 485 56-112q18-35 57-35zm512 428q0-145-103-300h-369l-111 221q-8 17-25.5 27t-36.5 8q-45-5-56-46L962 420l-196 686q-6 20-23.5 33t-39.5 13-39-13.5-22-34.5L526 640H103Q0 795 0 940q0 220 127 344t351 124q62 0 126.5-21.5t120-58T820 1260t76-68q36 36 76 68t95.5 68.5 120 58T1314 1408q224 0 351-124t127-344z"/></svg>