<svg width="128" height="128" viewBox="0 0 1792 1792" xmlns="http://www.w3.org/2000/svg"><path d="M1664 940q0 81-21.5 143t-55 98.5-81.5 59.5-94 31-98 8-112-25.5-110.5-64-86.5-72-60-61.5q-18-22-49-22t-49 22q-24 28-60 61.5t-86.5 72-110.5 64-112 25.5-98-8-94-31-81.5-59.5-55-98.5T128 940q0-168 187-355L896 25l580 559q188 188 188 356zm128 0q0-221-229-450L940-110q-18-18-44-18t-44 18L228 492q-10 8-27.5 26T145 583.5 77 681 23.5 802 0 940q0 220 127 344t351 124q62 0 126.5-21.5t120-58T820 1260t76-68q36 36 76 68t95.5 68.5 120 58T1314 1408q224 0 351-124t127-344z"/></svg>