<svg width="128" height="128" viewBox="0 0 1408 1408" xmlns="http://www.w3.org/2000/svg"><path d="M384 224v-64q0-13-9.5-22.5T352 128h-64q-13 0-22.5 9.5T256 160v64q0 13 9.5 22.5T288 256h64q13 0 22.5-9.5T384 224zm0 256v-64q0-13-9.5-22.5T352 384h-64q-13 0-22.5 9.5T256 416v64q0 13 9.5 22.5T288 512h64q13 0 22.5-9.5T384 480zm256 0v-64q0-13-9.5-22.5T608 384h-64q-13 0-22.5 9.5T512 416v64q0 13 9.5 22.5T544 512h64q13 0 22.5-9.5T640 480zM384 736v-64q0-13-9.5-22.5T352 640h-64q-13 0-22.5 9.5T256 672v64q0 13 9.5 22.5T288 768h64q13 0 22.5-9.5T384 736zm768-512v-64q0-13-9.5-22.5T1120 128h-64q-13 0-22.5 9.5T1024 160v64q0 13 9.5 22.5t22.5 9.5h64q13 0 22.5-9.5t9.5-22.5zM896 480v-64q0-13-9.5-22.5T864 384h-64q-13 0-22.5 9.5T768 416v64q0 13 9.5 22.5T800 512h64q13 0 22.5-9.5T896 480zM640 736v-64q0-13-9.5-22.5T608 640h-64q-13 0-22.5 9.5T512 672v64q0 13 9.5 22.5T544 768h64q13 0 22.5-9.5T640 736zm512-256v-64q0-13-9.5-22.5T1120 384h-64q-13 0-22.5 9.5T1024 416v64q0 13 9.5 22.5t22.5 9.5h64q13 0 22.5-9.5t9.5-22.5zM896 736v-64q0-13-9.5-22.5T864 640h-64q-13 0-22.5 9.5T768 672v64q0 13 9.5 22.5T800 768h64q13 0 22.5-9.5T896 736zm256 0v-64q0-13-9.5-22.5T1120 640h-64q-13 0-22.5 9.5T1024 672v64q0 13 9.5 22.5t22.5 9.5h64q13 0 22.5-9.5t9.5-22.5zM896-128h384v1152h-256v-32q0-40-28-68t-68-28H480q-40 0-68 28t-28 68v32H128V-128h384V96q0 13 9.5 22.5T544 128h320q13 0 22.5-9.5T896 96v-224zm0 1184v320q0 13-9.5 22.5T864 1408h-64q-13 0-22.5-9.5T768 1376v-96H640v96q0 13-9.5 22.5T608 1408h-64q-13 0-22.5-9.5T512 1376v-320q0-13 9.5-22.5t22.5-9.5h64q13 0 22.5 9.5t9.5 22.5v96h128v-96q0-13 9.5-22.5t22.5-9.5h64q13 0 22.5 9.5t9.5 22.5zm512 32V-192q0-26-19-45t-45-19H64q-26 0-45 19T0-192v1280q0 26 19 45t45 19h320v288q0 40 28 68t68 28h448q40 0 68-28t28-68v-288h320q26 0 45-19t19-45z"/></svg>