<svg width="128" height="128" viewBox="0 0 1536 1536" xmlns="http://www.w3.org/2000/svg"><path d="M1408 1408q0-261-106.5-461.5T1035 640q160-106 266.5-306.5T1408-128h96q14 0 23-9t9-23v-64q0-14-9-23t-23-9H32q-14 0-23 9t-9 23v64q0 14 9 23t23 9h96q0 261 106.5 461.5T501 640Q341 746 234.5 946.5T128 1408H32q-14 0-23 9t-9 23v64q0 14 9 23t23 9h1472q14 0 23-9t9-23v-64q0-14-9-23t-23-9h-96zM874 700q77 29 149 92.5T1152.5 945t92.5 210 35 253H256q0-132 35-253t92.5-210T513 792.5 662 700q19-7 30.5-23.5T704 640t-11.5-36.5T662 580q-77-29-149-92.5T383.5 335 291 125t-35-253h1024q0 132-35 253t-92.5 210T1023 487.5 874 580q-19 7-30.5 23.5T832 640t11.5 36.5T874 700z"/></svg>