<svg width="128" height="128" viewBox="0 0 1536 1536" xmlns="http://www.w3.org/2000/svg"><path d="M1408 1408q0-261-106.5-461.5T1035 640q160-106 266.5-306.5T1408-128h96q14 0 23-9t9-23v-64q0-14-9-23t-23-9H32q-14 0-23 9t-9 23v64q0 14 9 23t23 9h96q0 261 106.5 461.5T501 640Q341 746 234.5 946.5T128 1408H32q-14 0-23 9t-9 23v64q0 14 9 23t23 9h1472q14 0 23-9t9-23v-64q0-14-9-23t-23-9h-96zm-128 0H256q0-206 85-384h854q85 178 85 384zm-57-1216q-54 141-145.5 241.5T883 576H653q-103-42-194.5-142.5T313 192h910z"/></svg>