<svg width="128" height="128" viewBox="0 0 1536 1536" xmlns="http://www.w3.org/2000/svg"><path d="M1070 463L910 303 759 151l-30-30q-65-64-151.5-87T406 32q-16-70-72-115t-129-45q-85 0-145 60.5T0 78q0 72 44.5 128T158 278q-22 86 1 173t88 152l12 12 151-152-11-11q-37-37-37-89t37-90q37-37 89-37t89 37l30 30 151 152 161 160zm-341 682l12-12-152-152-12 12q-37 37-89 37t-89-37-37-89.5 37-89.5l29-29 152-152 160-160-151-152-161 160-151 152-30 30q-68 67-90 159.5t5 179.5q-70 15-115 71T2 1202q0 85 60 145.5t145 60.5q76 0 133.5-49t69.5-123q84 20 169.5-3.5T729 1145zM1536 78q0-85-60-145.5T1331-128q-74 0-131 47t-71 118q-86-28-179.5-6T788 121l-11 12 151 152 12-12q37-37 89-37t89 37 37 89-37 89l-30 30-152 152-160 160 152 152 160-160 152-152 29-30q64-64 87.5-150.5T1359 281q76-11 126.5-68.5T1536 78zm-2 1124q0-77-51-135t-127-69q26-85 3-176.5T1269 663l-12-12-151 152 12 12q37 37 37 89t-37 89-89 37-89-37l-30-30-152-152-160-160-152 152 161 160 152 152 29 30q67 67 159 89.5t178-3.5q11 75 68.5 126t135.5 51q85 0 145-60.5t60-145.5z"/></svg>