<svg width="64" height="64" viewBox="0 0 2048 2048" xmlns="http://www.w3.org/2000/svg"><path d="M1800 764q111-46 179.5-145.5T2048 397q0-164-118-280.5T1645 0q-4 0-11.5.5T1623 1H406Q236 11 118 126.5T0 407q0 110 55 203t147 147q-12 39-12 82 0 115 82 196t199 81q95 0 172-58 75 154 222.5 248t326.5 94q166 0 306-80.5t221.5-218.5 81.5-301q0-6-.5-18t-.5-18zM468 498q0-122 84-193t208-71q137 0 240 99-16 20-47.5 56.5T909 440q-67-65-144-65-55 0-93.5 33.5T633 496q0 53 38.5 87t91.5 34q44 0 84.5-21t73-55 65-75 69-82 77-75 97-55 121.5-21q121 0 204.5 71.5T1638 495q0 121-84 192t-207 71q-143 0-241-97l93-108q66 64 142 64 52 0 92-33t40-84q0-57-37-91.5t-94-34.5q-43 0-82.5 21t-72 55-65.5 75-69.5 82-77.5 75-96.5 55T760 758q-122 0-207-70.5T468 498z"/></svg>