<svg width="64" height="64" viewBox="0 0 1920 1920" xmlns="http://www.w3.org/2000/svg"><path d="M384 368v-96q0-16-16-16h-96q-16 0-16 16v96q0 16 16 16h96q16 0 16-16zm128 256v-96q0-16-16-16H272q-16 0-16 16v96q0 16 16 16h224q16 0 16-16zM384 880v-96q0-16-16-16h-96q-16 0-16 16v96q0 16 16 16h96q16 0 16-16zm1024-512v-96q0-16-16-16H528q-16 0-16 16v96q0 16 16 16h864q16 0 16-16zM768 624v-96q0-16-16-16h-96q-16 0-16 16v96q0 16 16 16h96q16 0 16-16zM640 880v-96q0-16-16-16h-96q-16 0-16 16v96q0 16 16 16h96q16 0 16-16zm384-256v-96q0-16-16-16h-96q-16 0-16 16v96q0 16 16 16h96q16 0 16-16zM896 880v-96q0-16-16-16h-96q-16 0-16 16v96q0 16 16 16h96q16 0 16-16zm384-256v-96q0-16-16-16h-96q-16 0-16 16v96q0 16 16 16h96q16 0 16-16zm384-256v-96q0-16-16-16h-96q-16 0-16 16v96q0 16 16 16h96q16 0 16-16zm-512 512v-96q0-16-16-16h-96q-16 0-16 16v96q0 16 16 16h96q16 0 16-16zm256 0v-96q0-16-16-16h-96q-16 0-16 16v96q0 16 16 16h96q16 0 16-16zm256 0V528q0-16-16-16h-224q-16 0-16 16v96q0 16 16 16h112v240q0 16 16 16h96q16 0 16-16zm128-752v896H128V128h1664zm128 896V128q0-53-37.5-90.5T1792 0H128Q75 0 37.5 37.5T0 128v896q0 53 37.5 90.5T128 1152h1664q53 0 90.5-37.5t37.5-90.5z"/></svg>