<svg width="128" height="128" viewBox="0 0 1536 1536" xmlns="http://www.w3.org/2000/svg"><path d="M1432 484q0 173-234 239-35 10-53 16.5t-38 25-29 46.5q0 2-2 8.5t-3 12-1 7.5q0 36 24.5 59.5T1157 922q54 0 71-15h-1q20-15 39-51l93 71q-39 54-49 64-33 29-67.5 39t-85.5 10q-80 0-142-57.5T953 845q0-7 2-23 16-96 64.5-140t148.5-73q29-8 49-15.5t45-21.5 38.5-34.5T1314 491v-5q1-58-40.5-93T1173 358q-97 0-167 144-23 47-51.5 121.5t-48 125.5-54 110.5-74 95.5-103.5 60.5-147 24.5q-101 0-192-56T192 836t-50-192v-1q4-108 50.5-199T326 296.5 522 240q186 0 279 110 20 27 31 51l-60 109q-42-80-99-116t-146-36q-115 0-191 87t-76 204q0 105 82 189t186 84q112 0 170-53.5T802 696q8-21 25.5-68.5T856 551t31.5-74.5 38.5-74 45.5-62.5 55.5-53.5 66-33 80-13.5q107 0 183 69.5t76 174.5zm104 636V160q0-119-84.5-203.5T1248-128H288q-119 0-203.5 84.5T0 160v960q0 119 84.5 203.5T288 1408h960q119 0 203.5-84.5T1536 1120z"/></svg>