<svg width="64" height="64" viewBox="0 0 1792 1792" xmlns="http://www.w3.org/2000/svg"><path d="M1280 832q0 26-19 45t-45 19q-172 0-318-49.5t-259.5-134T403 493q-19-21-19-45 0-26 19-45t45-19q24 0 45 19 27 24 74 71t67 66q137 124 268.5 176t313.5 52q26 0 45 19t19 45zm512 198q0-95-20-193-46-224-184.5-383T1230 186Q1016 78 792 78q-148 0-286 47-15 5-88 42t-96 37q-16 0-39.5-32t-45-70T185 32 125 0Q82 0 61.5 17.5T16 77q-2 4-6 11T4.5 98t-3 9.5T0 121q0 35 31 73.5T99 260t68 56 31 48q0 4-14 38t-16 44q-9 51-9 104 0 115 43.5 220t119 184.5 170.5 139 204 95.5q55 18 145 25.5t179.5 9 178.5 6 163.5 24T1476 1310l29.5 29.5 29.5 28 27 20 36.5 16 43.5 4.5q39 0 70.5-46t47.5-112 24-124 8-96z"/></svg>