<svg width="64" height="64" viewBox="0 0 2048 2048" xmlns="http://www.w3.org/2000/svg"><path d="M1893 1144l155-1272q-131 0-257 57-200 91-393 91-226 0-374-148Q876 20 650 20q-193 0-393-91-128-57-252-57H0l155 1272q224 127 482 127 233 0 387-106 154 106 387 106 258 0 482-127zm-495-987q129 0 232-28.5T1890 35l-124 1021q-171 78-368 78-224 0-374-141-150 141-374 141-197 0-368-78L158 35q105 43 165.5 65T472 139.5 650 157q202 0 374-108 172 108 374 108zm40 34l-55 907q-211-4-359-155-152 155-374 155-176 0-336-66L200 91q124 51 228.5 76T650 192q209 0 374-102 172 107 374 102z"/></svg>