<svg width="64" height="64" viewBox="0 0 1792 1792" xmlns="http://www.w3.org/2000/svg"><path d="M384 352v-64q0-13-9.5-22.5T352 256h-64q-13 0-22.5 9.5T256 288v64q0 13 9.5 22.5T288 384h64q13 0 22.5-9.5T384 352zm0 256v-64q0-13-9.5-22.5T352 512h-64q-13 0-22.5 9.5T256 544v64q0 13 9.5 22.5T288 640h64q13 0 22.5-9.5T384 608zm0 256v-64q0-13-9.5-22.5T352 768h-64q-13 0-22.5 9.5T256 800v64q0 13 9.5 22.5T288 896h64q13 0 22.5-9.5T384 864zm1152-512v-64q0-13-9.5-22.5T1504 256H544q-13 0-22.5 9.5T512 288v64q0 13 9.5 22.5T544 384h960q13 0 22.5-9.5t9.5-22.5zm0 256v-64q0-13-9.5-22.5T1504 512H544q-13 0-22.5 9.5T512 544v64q0 13 9.5 22.5T544 640h960q13 0 22.5-9.5t9.5-22.5zm0 256v-64q0-13-9.5-22.5T1504 768H544q-13 0-22.5 9.5T512 800v64q0 13 9.5 22.5T544 896h960q13 0 22.5-9.5t9.5-22.5zm128-704v832q0 13-9.5 22.5t-22.5 9.5H160q-13 0-22.5-9.5T128 992V160q0-13 9.5-22.5T160 128h1472q13 0 22.5 9.5t9.5 22.5zm128 1088V160q0-66-47-113T1632 0H160Q94 0 47 47T0 160v1088q0 66 47 113t113 47h1472q66 0 113-47t47-113z"/></svg>