<svg width="128" height="128" viewBox="0 0 1792 1792" xmlns="http://www.w3.org/2000/svg"><path d="M381-84q0-80-54.5-126T191-256q-106 0-172 66l57 88q49-45 106-45 29 0 50.5 14.5T254-90q0 64-105 56l-26 56q8 10 32.5 43.5t42.5 54 37 38.5v1q-16 0-48.5-1t-48.5-1v-53H32v152h333v-88L270 53q51-12 81-49t30-88zm2 627V384H21q-6 36-6 54 0 51 23.5 93T95 599t66 47.5 56.5 43.5 23.5 45q0 25-14.5 38.5T187 787q-46 0-81-58l-85 59q24 51 71.5 79.5T198 896q73 0 123-41.5T371 742q0-50-34-91.5T262 586t-75.5-50.5T151 483h127v60h105zm1409-319V32q0-13-9.5-22.5T1760 0H544q-13 0-22.5 9.5T512 32v192q0 14 9 23t23 9h1216q13 0 22.5-9.5t9.5-22.5zM384 1123v-99H49v99h107q0 41 .5 121.5t.5 121.5v12h-2q-8-17-50-54l-71 76 136 127h106v-404h108zm1408-387V544q0-13-9.5-22.5T1760 512H544q-13 0-22.5 9.5T512 544v192q0 14 9 23t23 9h1216q13 0 22.5-9.5t9.5-22.5zm0 512v-192q0-13-9.5-22.5t-22.5-9.5H544q-13 0-22.5 9.5T512 1056v192q0 13 9.5 22.5t22.5 9.5h1216q13 0 22.5-9.5t9.5-22.5z"/></svg>