<svg width="64" height="64" viewBox="0 0 1792 1792" xmlns="http://www.w3.org/2000/svg"><path d="M256 224V32q0-13-9.5-22.5T224 0H32Q19 0 9.5 9.5T0 32v192q0 13 9.5 22.5T32 256h192q13 0 22.5-9.5T256 224zm0 384V416q0-13-9.5-22.5T224 384H32q-13 0-22.5 9.5T0 416v192q0 13 9.5 22.5T32 640h192q13 0 22.5-9.5T256 608zm0 384V800q0-13-9.5-22.5T224 768H32q-13 0-22.5 9.5T0 800v192q0 13 9.5 22.5T32 1024h192q13 0 22.5-9.5T256 992zm1536-768V32q0-13-9.5-22.5T1760 0H416q-13 0-22.5 9.5T384 32v192q0 13 9.5 22.5T416 256h1344q13 0 22.5-9.5t9.5-22.5zM256 1376v-192q0-13-9.5-22.5T224 1152H32q-13 0-22.5 9.5T0 1184v192q0 13 9.5 22.5T32 1408h192q13 0 22.5-9.5t9.5-22.5zm1536-768V416q0-13-9.5-22.5T1760 384H416q-13 0-22.5 9.5T384 416v192q0 13 9.5 22.5T416 640h1344q13 0 22.5-9.5t9.5-22.5zm0 384V800q0-13-9.5-22.5T1760 768H416q-13 0-22.5 9.5T384 800v192q0 13 9.5 22.5t22.5 9.5h1344q13 0 22.5-9.5t9.5-22.5zm0 384v-192q0-13-9.5-22.5t-22.5-9.5H416q-13 0-22.5 9.5T384 1184v192q0 13 9.5 22.5t22.5 9.5h1344q13 0 22.5-9.5t9.5-22.5z"/></svg>