<svg width="128" height="128" viewBox="0 0 1792 1792" xmlns="http://www.w3.org/2000/svg"><path d="M384 128q0-80-56-136T192-64 56-8 0 128t56 136 136 56 136-56 56-136zm0 512q0-80-56-136t-136-56-136 56T0 640t56 136 136 56 136-56 56-136zm1408-416V32q0-13-9.5-22.5T1760 0H544q-13 0-22.5 9.5T512 32v192q0 13 9.5 22.5T544 256h1216q13 0 22.5-9.5t9.5-22.5zM384 1152q0-80-56-136t-136-56-136 56-56 136 56 136 136 56 136-56 56-136zm1408-416V544q0-13-9.5-22.5T1760 512H544q-13 0-22.5 9.5T512 544v192q0 13 9.5 22.5T544 768h1216q13 0 22.5-9.5t9.5-22.5zm0 512v-192q0-13-9.5-22.5t-22.5-9.5H544q-13 0-22.5 9.5T512 1056v192q0 13 9.5 22.5t22.5 9.5h1216q13 0 22.5-9.5t9.5-22.5z"/></svg>