<svg width="64" height="64" viewBox="0 0 1536 1536" xmlns="http://www.w3.org/2000/svg"><path d="M1536 704V576q0-201-98.5-362t-274-251.5T768-128 372.5-37.5 98.5 214 0 576v128q0 26 19 45t45 19h384q26 0 45-19t19-45V576q0-52 23.5-90t53.5-57 71-30 64-13 44-2 44 2 64 13 71 30 53.5 57 23.5 90v128q0 26 19 45t45 19h384q26 0 45-19t19-45zM512 1344V960q0-26-19-45t-45-19H64q-26 0-45 19T0 960v384q0 26 19 45t45 19h384q26 0 45-19t19-45zm1024 0V960q0-26-19-45t-45-19h-384q-26 0-45 19t-19 45v384q0 26 19 45t45 19h384q26 0 45-19t19-45z"/></svg>