<svg width="128" height="128" viewBox="0 0 1920 1920" xmlns="http://www.w3.org/2000/svg"><path d="M1536 1120q0 14 9 23t23 9h288q26 0 45-19t19-45V800q0-14-9-23t-23-9h-64q-14 0-23 9t-9 23v134l-254-255q76-95 107.5-214t9.5-247q-31-182-166-312t-318-156q-210-29-384.5 80T545 130q-117 6-221 57.5t-177.5 133T33 513 1 743q9 135 78 252t182 191.5 248 89.5q118 14 227.5-19T935 1154l255 254h-134q-14 0-23 9t-9 23v64q0 14 9 23t23 9h288q26 0 45-19t19-45v-288q0-14-9-23t-23-9h-64q-14 0-23 9t-9 23v134l-254-255q59-74 93-169 182-9 328-124l255 254h-134q-14 0-23 9t-9 23v64zm-512-416q0 20-4 58-162-25-271-150T640 320q0-20 4-58 162 25 271 150t109 292zm-896 0q0-168 111-294t276-149q-3 29-3 59 0 210 135 369.5T985 886q-53 120-163.5 193T576 1152q-185 0-316.5-131.5T128 704zm960-832q185 0 316.5 131.5T1536 320q0 168-111 294t-276 149q3-28 3-59 0-210-135-369.5T679 138Q732 18 842.5-55t245.5-73z"/></svg>