<svg width="64" height="64" viewBox="0 0 2048 2048" xmlns="http://www.w3.org/2000/svg"><path d="M1901 621q19-19 19-45t-19-45l-294-294q-9-10-22.5-10t-22.5 10l-45 45q-10 9-10 22.5t10 22.5l185 185h-294V288q0-14-9-23t-23-9h-64q-14 0-23 9t-9 23v224h-132q-24-217-187.5-364.5T576 0Q409 0 270 87T58 323 4 642q15 133 88 245.5t188 182 249 80.5q155 12 292-52.5t224-186T1148 640h132v224q0 14 9 23t23 9h64q14 0 23-9t9-23V640h294l-185 185q-10 9-10 22.5t10 22.5l45 45q9 10 22.5 10t22.5-10zM576 128q185 0 316.5 131.5T1024 576 892.5 892.5 576 1024 259.5 892.5 128 576t131.5-316.5T576 128z"/></svg>