<svg width="64" height="64" viewBox="0 0 1280 1280" xmlns="http://www.w3.org/2000/svg"><path d="M640 892q217-24 364.5-187.5T1152 320q0-167-87-306T829-198t-319-54q-133 15-245.5 88T82.5 24 2 273q-12 155 52.5 292t186 224T512 892v132H352q-14 0-23 9t-9 23v64q0 14 9 23t23 9h160v165l-92-92q-10-9-23-9t-22 9l-46 46q-9 9-9 22t9 23l202 201q19 19 45 19t45-19l202-201q9-10 9-23t-9-22l-46-46q-9-9-22-9t-23 9l-92 92v-165h160q14 0 23-9t9-23v-64q0-14-9-23t-23-9H640V892zM576-128q185 0 316.5 131.5T1024 320 892.5 636.5 576 768 259.5 636.5 128 320 259.5 3.5 576-128z"/></svg>