<svg width="64" height="64" viewBox="0 0 1792 1792" xmlns="http://www.w3.org/2000/svg"><path d="M1280 416v192q0 14-9 23t-23 9h-224v224q0 14-9 23t-23 9H800q-14 0-23-9t-9-23V640H544q-14 0-23-9t-9-23V416q0-14 9-23t23-9h224V160q0-14 9-23t23-9h192q14 0 23 9t9 23v224h224q14 0 23 9t9 23zm-640 736h512v128H640v-128zm-384 0V-128h-32q-92 0-158 66T0 96v832q0 92 66 158t158 66h32zm1184 0V-128H352v1280h160v160q0 40 28 68t68 28h576q40 0 68-28t28-68v-160h160zm352-224V96q0-92-66-158t-158-66h-32v1280h32q92 0 158-66t66-158z"/></svg>