<svg width="64" height="64" viewBox="0 0 1536 1536" xmlns="http://www.w3.org/2000/svg"><path d="M1152 448q0-26-19-45t-45-19H448q-26 0-45 19t-19 45 19 45 45 19h640q26 0 45-19t19-45zM640 896q0-53-37.5-90.5T512 768t-90.5 37.5T384 896t37.5 90.5T512 1024t90.5-37.5T640 896zm512 0q0-53-37.5-90.5T1024 768t-90.5 37.5T896 896t37.5 90.5 90.5 37.5 90.5-37.5T1152 896zm256-256q0 130-51 248.5t-136.5 204-204 136.5-248.5 51-248.5-51-204-136.5-136.5-204T128 640t51-248.5 136.5-204T519.5 51 768 0t248.5 51 204 136.5 136.5 204 51 248.5zm128 0q0-209-103-385.5T1153.5-25 768-128 382.5-25 103 254.5 0 640t103 385.5T382.5 1305 768 1408t385.5-103 279.5-279.5T1536 640z"/></svg>