<svg width="128" height="128" viewBox="0 0 1280 1280" xmlns="http://www.w3.org/2000/svg"><path d="M830 1220q145-72 233.5-210.5T1152 704q0-221-147.5-384.5T640 132V0h96q14 0 23-9t9-23v-64q0-14-9-23t-23-9h-96v-96q0-14-9-23t-23-9h-64q-14 0-23 9t-9 23v96h-96q-14 0-23 9t-9 23v64q0 14 9 23t23 9h96v132q-217 24-364.5 187.5T0 704q0 167 88.5 305.5T322 1220q-165 96-228 273-6 16 3.5 29.5T124 1536h69q21 0 29-20 44-106 140-171t214-65 214 65 140 171q8 20 37 20h61q17 0 26.5-13.5t3.5-29.5q-63-177-228-273zM576 256q185 0 316.5 131.5T1024 704t-131.5 316.5T576 1152t-316.5-131.5T128 704t131.5-316.5T576 256z"/></svg>