<svg width="64" height="64" viewBox="0 0 1408 1408" xmlns="http://www.w3.org/2000/svg"><path d="M271 591L170 490q-42 103-42 214v128q0 26 19 45t45 19 45-19 19-45V704q0-53 15-113zm1114 602l-361-361V704q0-132-94-226t-226-94q-55 0-109 19l-96-96q97-51 205-51 185 0 316.5 131.5T1152 704v128q0 26 19 45t45 19 45-19 19-45V704q0-221-147.5-384.5T768 132V0h256q26 0 45-19t19-45-19-45-45-19H384q-26 0-45 19t-19 45 19 45 45 19h256v132q-125 13-235 81L151-41q-10-10-23-10t-23 10L23 41Q13 51 13 64t10 23l1234 1234q10 10 23 10t23-10l82-82q10-10 10-23t-10-23zm-380 132L384 704v512q0 132 94 226t226 94q102 0 184.5-59t116.5-152z"/></svg>