<svg width="64" height="64" viewBox="0 0 1536 1536" xmlns="http://www.w3.org/2000/svg"><path d="M192 256V128H80q-16 0-16 16v16H16q-16 0-16 16v32q0 16 16 16h48v16q0 16 16 16h112zm0 256V384H80q-16 0-16 16v16H16q-16 0-16 16v32q0 16 16 16h48v16q0 16 16 16h112zm0 256V640H80q-16 0-16 16v16H16q-16 0-16 16v32q0 16 16 16h48v16q0 16 16 16h112zm0 256V896H80q-16 0-16 16v16H16q-16 0-16 16v32q0 16 16 16h48v16q0 16 16 16h112zm0 256v-128H80q-16 0-16 16v16H16q-16 0-16 16v32q0 16 16 16h48v16q0 16 16 16h112zm1088 160V-32q0-40-28-68t-68-28H352q-40 0-68 28t-28 68v1472q0 40 28 68t68 28h832q40 0 68-28t28-68zm256-1232v-32q0-16-16-16h-48v-16q0-16-16-16h-112v128h112q16 0 16-16v-16h48q16 0 16-16zm0 256v-32q0-16-16-16h-48v-16q0-16-16-16h-112v128h112q16 0 16-16v-16h48q16 0 16-16zm0 256v-32q0-16-16-16h-48v-16q0-16-16-16h-112v128h112q16 0 16-16v-16h48q16 0 16-16zm0 256v-32q0-16-16-16h-48v-16q0-16-16-16h-112v128h112q16 0 16-16v-16h48q16 0 16-16zm0 256v-32q0-16-16-16h-48v-16q0-16-16-16h-112v128h112q16 0 16-16v-16h48q16 0 16-16z"/></svg>