<svg width="128" height="128" viewBox="0 0 1920 1920" xmlns="http://www.w3.org/2000/svg"><path d="M768 384h384v96h-128v448H910L762 791l77-80q42 37 55 57h2V480H768v-96zm512 256q0-70-21-142t-59.5-134T1098 263t-138-39-138 39-101.5 101T661 498t-21 142 21 142 59.5 134T822 1017t138 39 138-39 101.5-101 59.5-134 21-142zm512-256v512q-106 0-181 75t-75 181H384q0-106-75-181t-181-75V384q106 0 181-75t75-181h1152q0 106 75 181t181 75zm128 832V64q0-26-19-45t-45-19H64Q38 0 19 19T0 64v1152q0 26 19 45t45 19h1792q26 0 45-19t19-45z"/></svg>