<svg width="128" height="128" viewBox="0 0 1536 1536" xmlns="http://www.w3.org/2000/svg"><path d="M1262 233q-54-9-110-9-182 0-337 90T570 559t-90 337q0 192 104 357-201-60-328.5-229T128 640q0-130 51-248.5t136.5-204T519.5 51 768 0q144 0 273.5 61.5T1262 233zm203 85q-94-203-283.5-324.5T768-128q-156 0-298 61T225 97 61 342 0 640q0 153 57.5 292.5t156 241.5T449 1338.5t290 68.5q44 2 61-39 18-41-15-72-86-78-131.5-181.5T608 896q0-148 73-273t198-198 273-73q118 0 228 51 41 18 72-13 14-14 17.5-34t-4.5-38z"/></svg>