<svg width="128" height="128" viewBox="0 0 2304 2304" xmlns="http://www.w3.org/2000/svg"><path d="M2304 768h-128V128h128v-384h-384v128h-896v-128H640v384h128v128H384V128H0v384h128v640H0v384h384v-128h896v128h384v-384h-128v-128h384v128h384V768zm-256 256V896h128v128h-128zm-640 384v-128h128v128h-128zm-1280 0v-128h128v128H128zM256 256v128H128V256h128zm1280 128h-128V256h128v128zm-1152 0h896v128h128v640h-128v128H384v-128H256V512h128V384zm512-512V0H768v-128h128zm1280 0V0h-128v-128h128zm-128 256v640h-128v128h-384V512h128V128h-384v128H896V128h128V0h896v128h128z"/></svg>