<svg width="128" height="128" viewBox="0 0 1536 1536" xmlns="http://www.w3.org/2000/svg"><path d="M927 956q0-66-46.5-112.5T768 797t-112.5 46.5T609 956t46.5 112.5T768 1115t112.5-46.5T927 956zm214-363q-10 20-28 32t-47.5 9.5T1005 607q-10-8-29-20t-81-32-127-20-124 18-86 36l-27 18q-31 25-60.5 27.5T423 625t-28-32q-22-45-2-74.5t87-73.5q83-53 226-67l-51-52Q513 184 464 136q-22-22-22-52.5T464 31l9-9q22-22 52.5-22T578 22l191 191Q883 98 960 22q22-22 52.5-22t52.5 22l9 9q22 22 22 52.5t-22 52.5L883 326l-52 52q141 14 225 67 67 44 87 73.5t-2 74.5zm-49 363q0 134-95 229t-229 95-229-95-95-229 95-229 229-95 229 95 95 229zm444 164V160q0-119-84.5-203.5T1248-128H288q-119 0-203.5 84.5T0 160v960q0 119 84.5 203.5T288 1408h960q119 0 203.5-84.5T1536 1120z"/></svg>