<svg width="128" height="128" viewBox="0 0 1280 1280" xmlns="http://www.w3.org/2000/svg"><path d="M640 629q-188 0-321 133t-133 320q0 188 133 321t321 133 321-133 133-321q0-187-133-320T640 629zm0 677q-92 0-157.5-65.5T417 1082q0-92 65.5-157.5T640 859t157.5 65.5T863 1082q0 93-65.5 158.5T640 1306zm523-732q13-27 15-49.5t-4.5-40.5-26.5-38.5-42.5-37T1043 367q-115-73-315-94l73-72 267-267q30-31 30-74t-30-73l-12-13q-31-30-74-30t-74 30q-67 68-267 268L374-226q-31-30-74-30t-73 30l-12 13q-31 30-31 73t31 74l267 267 72 72q-203 21-317 94-39 25-61.5 41.5t-42.5 37-26.5 38.5-4.5 40.5 15 49.5q10 20 28 35t42 22 56-2 65-35q5-4 15-11t43-24.5 69-30.5 92-24 113-11q91 0 174 25.5T934 569l38 25q33 26 65 35t56 2 42-22 28-35z"/></svg>