<svg width="128" height="128" viewBox="0 0 2304 2304" xmlns="http://www.w3.org/2000/svg"><path d="M1524-25q0-68-48-116t-116-48-116.5 48T1195-25t48.5 116.5T1360 140t116-48.5T1524-25zm-749 0q0-68-48.5-116T610-189t-116 48-48 116 48 116.5T610 140t116.5-48.5T775-25zM0 1469q57-60 110.5-104.5t121-82 136-63 166-45.5 200-31.5 250-18.5 304-9.5 372.5-2.5q139 0 244.5-5t181-16.5 124-27.5 71-39.5 24-51.5-19.5-64-56.5-76.5-89.5-91T2023 636t-139-119q-185-157-286-247 29 51 76.5 109t94 105.5T1863 583t83 91.5 54 80.5 13 70-45.5 55.5-116.5 41-204 23.5-304 5q-168-2-314 6t-256 23-204.5 41-159.5 51.5-122.5 62.5-91.5 66.5-68 71.5-50.5 69.5-40 68T0 1469z"/></svg>