<svg width="64" height="64" viewBox="0 0 1792 1792" xmlns="http://www.w3.org/2000/svg"><path d="M384 992V416q0-13-9.5-22.5T352 384q-14 0-23 9L41 681q-9 9-9 23t9 23l288 288q9 9 23 9 13 0 22.5-9.5T384 992zm1408-768V32q0-13-9.5-22.5T1760 0H32Q19 0 9.5 9.5T0 32v192q0 13 9.5 22.5T32 256h1728q13 0 22.5-9.5t9.5-22.5zm0 384V416q0-13-9.5-22.5T1760 384H672q-13 0-22.5 9.5T640 416v192q0 13 9.5 22.5T672 640h1088q13 0 22.5-9.5t9.5-22.5zm0 384V800q0-13-9.5-22.5T1760 768H672q-13 0-22.5 9.5T640 800v192q0 13 9.5 22.5t22.5 9.5h1088q13 0 22.5-9.5t9.5-22.5zm0 384v-192q0-13-9.5-22.5t-22.5-9.5H32q-13 0-22.5 9.5T0 1184v192q0 13 9.5 22.5T32 1408h1728q13 0 22.5-9.5t9.5-22.5z"/></svg>