<svg width="128" height="128" viewBox="0 0 1536 1536" xmlns="http://www.w3.org/2000/svg"><path d="M1280 256q0 52-38 90t-90 38-90-38-38-90 38-90 90-38 90 38 38 90zm-768 768q0 52-38 90t-90 38-90-38-38-90 38-90 90-38 90 38 38 90zm1024-768q0-159-112.5-271.5T1152-128 880.5-15.5 768 256t112.5 271.5T1152 640t271.5-112.5T1536 256zm-96 1088q0-20-13-38L371-102q-19-26-51-26H160q-26 0-45 19T96-64q0 20 13 38l1056 1408q19 26 51 26h160q26 0 45-19t19-45zm-672-320q0-159-112.5-271.5T384 640 112.5 752.5 0 1024t112.5 271.5T384 1408t271.5-112.5T768 1024z"/></svg>