<svg width="64" height="64" viewBox="0 0 1536 1536" xmlns="http://www.w3.org/2000/svg"><path d="M1046 516q0-64-38-109t-91-45q-43 0-70 15v277q28 17 70 17 53 0 91-45.5t38-109.5zM703 944q0-64-38-109.5T574 789q-43 0-70 15v277q28 17 70 17 53 0 91-45t38-109zm562-431q0 134-88 229t-213 95q-20 0-39-3-23-78-78-136-87-95-211-101V-39L847 2v206q51-19 117-19 125 0 213 95t88 229zM922 940q0 134-88.5 229T620 1264q-74 0-141-36H293V388l211 41v206q55-19 116-19 125 0 213.5 95T922 940zm614 180V160q0-119-84.5-203.5T1248-128H288q-119 0-203.5 84.5T0 160v960q0 119 84.5 203.5T288 1408h960q119 0 203.5-84.5T1536 1120z"/></svg>