<svg width="64" height="64" viewBox="0 0 1536 1536" xmlns="http://www.w3.org/2000/svg"><path d="M1536 640q0-209-103-385.5T1153.5-25 768-128q-111 0-218 32 59 93 78 164 9 34 54 211 20-39 73-67.5T869 183q121 0 216 68.5T1232 440t52 270q0 114-59.5 214T1052 1087t-255 63q-105 0-196-29t-154.5-77-109-110.5-67-129.5T249 670q0-104 40-183t117-111q30-12 38 20 2 7 8 31t8 30q6 23-11 43-51 61-51 151 0 151 104.5 259.5T776 1019q151 0 235.5-82t84.5-213q0-170-68.5-289T852 316q-61 0-98 43.5T731 464q8 35 26.5 93.5t30 103T799 736q0 50-27 83t-77 33q-62 0-105-57t-43-142q0-73 25-122l-99-418q-17-70-13-177-206 91-333 281T0 640q0 209 103 385.5T382.5 1305 768 1408t385.5-103 279.5-279.5T1536 640z"/></svg>