<svg width="64" height="64" viewBox="0 0 1408 1408" xmlns="http://www.w3.org/2000/svg"><path d="M1152 736v-64q0-14-9-23t-23-9H768V288q0-14-9-23t-23-9h-64q-14 0-23 9t-9 23v352H288q-14 0-23 9t-9 23v64q0 14 9 23t23 9h352v352q0 14 9 23t23 9h64q14 0 23-9t9-23V768h352q14 0 23-9t9-23zm128-448v832q0 66-47 113t-113 47H288q-66 0-113-47t-47-113V288q0-66 47-113t113-47h832q66 0 113 47t47 113zm128 832V288q0-119-84.5-203.5T1120 0H288Q169 0 84.5 84.5T0 288v832q0 119 84.5 203.5T288 1408h832q119 0 203.5-84.5T1408 1120z"/></svg>