<svg width="64" height="64" viewBox="0 0 1536 1536" xmlns="http://www.w3.org/2000/svg"><path d="M994 344q0-86-17-197-31-215-55-313-22-90-152-90t-152 90q-24 98-55 313-17 110-17 197 0 168 224 168t224-168zm542 424q0-240-134-434T1052 54q-8-3-15 3t-6 15q7 48 10 66 4 32 6 47 1 9 9 12 159 81 255.5 234t96.5 337q0 180-91 330.5T1070 1333t-337 74q-124-7-237-61t-193.5-140.5-128-202T128 763q1-184 99-336.5T484 195q7-3 9-12 3-21 6-45 1-9 5-32.5t6-35.5q1-9-6.5-15T488 53q-148 58-261 169.5t-173.5 264T1 806q7 143 66 273.5t154.5 227 225 157.5 272.5 70q164 10 315.5-46.5t261-160.5 175-250.5T1536 768zm-542 32q0-93-65.5-158.5T770 576t-158.5 65.5T546 800t65.5 158.5T770 1024t158.5-65.5T994 800zm288-32q0-122-53.5-228.5T1082 362q-8-6-16-2t-10 14q-6 52-29 92-7 10 3 20 58 54 91 127t33 155q0 111-58.5 204T938 1113.5 726 1150q-133-15-229-113T388 806q-10-92 23.5-176T510 486q10-10 3-20-24-41-29-93-2-9-10-13t-16 2q-95 74-148.5 183T258 779q3 131 69 244t177 181.5 241 74.5q144 7 268-60t196.5-187.5T1282 768z"/></svg>