<svg width="64" height="64" viewBox="0 0 1536 1536" xmlns="http://www.w3.org/2000/svg"><path d="M1536 640q0-156-61-298T1311 97 1066-67t-298-61-298 61T225 97 61 342 0 640q0 182 80.5 343T307 1253q43 32 95.5 25t83.5-50q32-42 24.5-94.5T461 1049q-98-74-151.5-181T256 640q0-104 40.5-198.5T406 278t163.5-109.5T768 128t198.5 40.5T1130 278t109.5 163.5T1280 640q0 121-53.5 228T1075 1049q-42 32-49.5 84.5t24.5 94.5q31 43 84 50t95-25q146-109 226.5-270t80.5-343zm-640 768V768q0-52-38-90t-90-38-90 38-38 90v640q0 52 38 90t90 38 90-38 38-90z"/></svg>