<svg width="128" height="128" viewBox="0 0 1664 1664" xmlns="http://www.w3.org/2000/svg"><path d="M1664 438q0-81-44.5-135T1496 249q-41 0-77.5 17.5t-59 38-56.5 38-71 17.5q-110 0-110-124 0-39 16-115t15-115V1q-22 0-33-1-34-3-97.5-11.5T907-25t-98-5q-61 0-103 26.5T664 80q0 37 17.5 71t38 56.5 38 59T775 344q0 79-54 123.5T586 512q-84 0-143-45.5T384 339q0-43 15-83t33.5-64.5 33.5-53T481 88q0-45-46-89-37-35-117-35-95 0-245 24-9 2-27.5 4T18-4L5-2Q4-2 2-1 0-1 0 0v1024q2-1 17.5-3.5t34-5T73 1012q150-24 245-24 80 0 117 35 46 44 46 89 0 22-15 50.5t-33.5 53T399 1280t-15 83q0 82 59 127.5t144 45.5q80 0 134-44.5t54-123.5q0-41-17.5-77.5t-38-59-38-56.5-17.5-71q0-57 42-83.5T809 994q64 0 180 15t163 17v-2q-1-2-3.5-17.5t-5-34-3.5-21.5q-24-150-24-245 0-80 35-117 44-46 89-46 22 0 50.5 15t53 33.5T1408 625t83 15q82 0 127.5-59t45.5-143z"/></svg>