<svg width="128" height="128" viewBox="0 0 1536 1536" xmlns="http://www.w3.org/2000/svg"><path d="M896 160v192q0 14-9 23t-23 9H672q-14 0-23-9t-9-23V160q0-14 9-23t23-9h192q14 0 23 9t9 23zm256 672q0 88-55.5 163T958 1111t-170 41q-243 0-371-213-15-24 8-42l132-100q7-6 19-6 16 0 25 12 53 68 86 92 34 24 86 24 48 0 85.5-26t37.5-59q0-38-20-61t-68-45q-63-28-115.5-86.5T640 516v-36q0-14 9-23t23-9h192q14 0 23 9t9 23q0 19 21.5 49.5T972 579q32 18 49 28.5t46 35 44.5 48 28 60.5 12.5 81zm384-192q0-209-103-385.5T1153.5-25 768-128 382.5-25 103 254.5 0 640t103 385.5T382.5 1305 768 1408t385.5-103 279.5-279.5T1536 640z"/></svg>