<svg width="128" height="128" viewBox="0 0 1664 1664" xmlns="http://www.w3.org/2000/svg"><path d="M768 576V192q0-80-56-136T576 0H192Q112 0 56 56T0 192v704q0 104 40.5 198.5T150 1258t163.5 109.5T512 1408h64q26 0 45-19t19-45v-128q0-26-19-45t-45-19h-64q-106 0-181-75t-75-181v-32q0-40 28-68t68-28h224q80 0 136-56t56-136zm896 0V192q0-80-56-136T1472 0h-384q-80 0-136 56t-56 136v704q0 104 40.5 198.5T1046 1258t163.5 109.5T1408 1408h64q26 0 45-19t19-45v-128q0-26-19-45t-45-19h-64q-106 0-181-75t-75-181v-32q0-40 28-68t68-28h224q80 0 136-56t56-136z"/></svg>