<svg width="128" height="128" viewBox="0 0 1664 1664" xmlns="http://www.w3.org/2000/svg"><path d="M768 1216V512q0-104-40.5-198.5T618 150 454.5 40.5 256 0h-64q-26 0-45 19t-19 45v128q0 26 19 45t45 19h64q106 0 181 75t75 181v32q0 40-28 68t-68 28H192q-80 0-136 56T0 832v384q0 80 56 136t136 56h384q80 0 136-56t56-136zm896 0V512q0-104-40.5-198.5T1514 150 1350.5 40.5 1152 0h-64q-26 0-45 19t-19 45v128q0 26 19 45t45 19h64q106 0 181 75t75 181v32q0 40-28 68t-68 28h-224q-80 0-136 56t-56 136v384q0 80 56 136t136 56h384q80 0 136-56t56-136z"/></svg>