<svg width="64" height="64" viewBox="0 0 2176 2176" xmlns="http://www.w3.org/2000/svg"><path d="M1143-197q-6 1-11 4-13 8-36 23t-86 65T893.5-.5t-112 140T692 312q-17 3-175 37 66-213 235-362t391-184zM502 409l168-28q-25 76-41 167.5T610 694l-4 53q-84-82-121-224 5-65 17-114zm110 609q-43-64-77-148 44 46 74 68zm1437-434q0 161-62 307t-167.5 252-250.5 168.5-304 62.5q-147 0-281-52.5T744 1173q-30-58-45-160 60 51 143 83.5t158.5 43 143 13.5 108.5-1l40-3q33-1 53-15.5t24.5-33 6.5-37-1-28.5q-126 11-227.5.5t-183-43.5T822 920.5 691 822q4-36 11.5-92.5t35.5-178T800 372q123-6 247.5 14.5T1262 440t162.5 67 109.5 59l37 24q22 16 39.5 20.5t30.5-5 17-34.5q14-97-39-121-208-97-467-134-135-20-317-16 41-96 110-176.5t137-127 130.5-79T1314-126l39-12q143-23 263 15 195 99 314 289t119 418zm74 37q-14-135-40-212-70-208-181.5-346.5T1583-191q-48-33-82-44-72-26-163-16-36-3-73-3-283 0-504.5 173T465 361q-1 0-4 .5t-5 .5q-6-50 2.5-112.5t26-115 36-98T552-35l14-26q8-12 54-82-71 38-124.5 106.5t-78.5 140-39.5 137T360 348l-2 42q-5 2-33.5 12.5t-48.5 18-53 20.5-57.5 25-50 25.5-42.5 27T48 544q19-10 50.5-25.5t113-45.5T357 435l2 32q11 149 94 290 41 202 176 365 28 115 81 214 15 28 32 45t49 32q158 74 303.5 104t302 11 306.5-97q220-115 333-336t87-474z"/></svg>