<svg width="128" height="128" viewBox="0 0 1536 1536" xmlns="http://www.w3.org/2000/svg"><path d="M939 407q13-13 0-26-53-53-171-53t-171 53q-13 13 0 26 5 6 13 6t13-6q42-42 145-42t145 42q5 6 13 6t13-6zM676 563q0-31-23-54t-54-23-54 23-23 54q0 32 22.5 54.5T599 640t54.5-22.5T676 563zm338 0q0-31-23-54t-54-23-54 23-23 54q0 32 22.5 54.5T937 640t54.5-22.5T1014 563zm215 103q0 42-30 72t-73 30q-42 0-73-31-113 78-267 82l54 243 171-39q1-32 23.5-54t53.5-22q32 0 54.5 22.5t22.5 54.5-22.5 54.5-54.5 22.5q-48 0-69-43l-189 42q-17 5-21-13l-60-268q-154-6-265-83-30 32-74 32-43 0-73-30t-30-72q0-30 16-55t42-38q-5-25-5-48 0-122 120-208.5T769 230q170 0 290 86.5T1179 525q0 25-6 49 25 13 40.5 37.5T1229 666zm307 454V160q0-119-84.5-203.5T1248-128H288q-119 0-203.5 84.5T0 160v960q0 119 84.5 203.5T288 1408h960q119 0 203.5-84.5T1536 1120z"/></svg>