<svg width="128" height="128" viewBox="0 0 1792 1792" xmlns="http://www.w3.org/2000/svg"><path d="M1042 833q0 88-60 121-33 18-117 18H742V691h162q66 0 102 37t36 105zm52-285l205-373q8-17-1-31-8-16-27-16h-152q-20 0-28 17L897 510H742V160q0-14-9-23t-23-9H576q-14 0-23 9t-9 23v960q0 14 9 23t23 9h294q128 0 190-24 85-31 134-109t49-180q0-92-42.5-165.5T1085 564q6-10 9-16zm-198 828q-150 0-286-58.5t-234.5-157-157-234.5T160 640t58.5-286 157-234.5T610-37.5 896-96t286 58.5 234.5 157 157 234.5 58.5 286-58.5 286-157 234.5-234.5 157-286 58.5zm896-736q0-182-71-348T1530 6t-286-191-348-71-348 71T262 6 71 292 0 640t71 348 191 286 286 191 348 71 348-71 286-191 191-286 71-348z"/></svg>