<svg width="128" height="128" viewBox="0 0 1920 1920" xmlns="http://www.w3.org/2000/svg"><path d="M1111 540v4l-24 320q-1 13-11 22.5t-23 9.5H867q-13 0-23-9.5T833 864l-24-320v-4q-1-12 8-20t21-8h244q12 0 21 8t8 20zm759-467q0-73-46-73h-704q13 0 22 9.5t8 22.5l-20 256q-1 13-11 22.5t-23 9.5H824q-13 0-23-9.5T790 288L770 32q-1-13 8-22.5T800 0H96Q50 0 50 73q0 54 26 116l417 1044q8 19 26 33t38 14h339q-13 0-23-9.5t-11-22.5l-15-192q-1-14 8-23t22-9h166q13 0 22 9t8 23l-15 192q-1 13-11 22.5t-23 9.5h339q20 0 38-14t26-33l417-1044q26-62 26-116z"/></svg>