<svg width="128" height="128" viewBox="0 0 1536 1536" xmlns="http://www.w3.org/2000/svg"><path d="M1536 1280V832q0-26-19-45t-45-19h-448q-42 0-59 40-17 39 14 69l138 138q-148 137-349 137-104 0-198.5-40.5T406 1002 296.5 838.5 256 640t40.5-198.5T406 278t163.5-109.5T768 128q119 0 225 52t179 147q7 10 23 12 15 0 25-9l137-138q9-8 9.5-20.5T1359 149Q1250 17 1095-55.5T768-128q-156 0-298 61T225 97 61 342 0 640t61 298 164 245 245 164 298 61q147 0 284.5-55.5T1297 1196l130 129q29 31 70 14 39-17 39-59z"/></svg>