<svg width="64" height="64" viewBox="0 0 1536 1536" xmlns="http://www.w3.org/2000/svg"><path d="M512 256q0 53-37.5 90.5T384 384t-90.5-37.5T256 256t37.5-90.5T384 128t90.5 37.5T512 256zm351-94q-13 233-176.5 396.5T290 735q-14 1-24-9t-10-23V575q0-13 8.5-22t21.5-10q154-11 264-121t121-264q1-13 10-21.5t22-8.5h128q13 0 23 10t9 24zm384-1q-5 154-56 297.5t-139.5 260-205 205-260 139.5-297.5 56q-14 1-23-9-10-10-10-23V959q0-13 9-22t22-10q204-7 378-111.5T943.5 537 1055 159q1-13 10-22t22-9h128q13 0 23 10 11 9 9 23zm289 959V160q0-119-84.5-203.5T1248-128H288q-119 0-203.5 84.5T0 160v960q0 119 84.5 203.5T288 1408h960q119 0 203.5-84.5T1536 1120z"/></svg>