<svg width="64" height="64" viewBox="0 0 1792 1792" xmlns="http://www.w3.org/2000/svg"><path d="M949 643q0-26-16.5-45T891 579q-26 0-45 16.5T827 637q0 26 17 45t42 19 44-16.5 19-41.5zm15-58l350 581q-9-8-67.5-62.5T1121 987 984.5 860t-117-110.5T817 698L468 118q7 7 67 62t126 116.5 136 127 117 111 50 50.5zm647 55q0-201-104-371-3 2-17 11t-26.5 16.5-16.5 7.5q-13 0-13-13 0-10 59-44-74-112-184.5-190.5T1067-54l-16 67q-1 10-15 10-5 0-8-5.5t-2-9.5l16-68q-72-15-146-15-199 0-372 105 1 2 13 20.5T558.5 84t9.5 19q0 13-13 13-6 0-17-14.5T515.5 67 502 44q-113 75-192 187.5T200 476l69 15q10 3 10 15 0 5-5.5 8t-10.5 2l-68-15q-14 72-14 139 0 206 109 379 2-1 18.5-12t30-19 17.5-8q13 0 13 12 0 6-12.5 15.5T324 1029l-20 12q77 112 189 189t244 107l15-67q2-10 15-10 5 0 8 5.5t2 10.5l-15 66q71 13 134 13 204 0 379-109-39-56-39-65 0-13 12-13 11 0 48 64 111-75 187.5-186T1591 805l-56-12q-10-2-10-16 0-5 5.5-8t9.5-2l57 13q14-72 14-140zm85 0q0 163-63.5 311T1462 1206t-255 170.5-311 63.5-311-63.5T330 1206 159.5 951 96 640t63.5-311T330 74 585-96.5 896-160t311 63.5T1462 74t170.5 255 63.5 311zm96 0q0-182-71-348T1530 6t-286-191-348-71-348 71T262 6 71 292 0 640t71 348 191 286 286 191 348 71 348-71 286-191 191-286 71-348z"/></svg>