<svg width="64" height="64" viewBox="0 0 1536 1536" xmlns="http://www.w3.org/2000/svg"><path d="M384 0h768v384H384V0zm896 0h128v896q0 14-10 38.5t-20 34.5l-281 281q-10 10-34 20t-39 10V864q0-40-28-68t-68-28H352q-40 0-68 28t-28 68v416H128V0h128v416q0 40 28 68t68 28h832q40 0 68-28t28-68V0zM896 928v320q0 13-9.5 22.5T864 1280H672q-13 0-22.5-9.5T640 1248V928q0-13 9.5-22.5T672 896h192q13 0 22.5 9.5T896 928zm640-32V-32q0-40-28-68t-68-28H96q-40 0-68 28T0-32v1344q0 40 28 68t68 28h928q40 0 88-20t76-48l280-280q28-28 48-76t20-88z"/></svg>