<svg width="64" height="64" viewBox="0 0 1664 1664" xmlns="http://www.w3.org/2000/svg"><path d="M1024 736v-64q0-13-9.5-22.5T992 640H768V416q0-13-9.5-22.5T736 384h-64q-13 0-22.5 9.5T640 416v224H416q-13 0-22.5 9.5T384 672v64q0 13 9.5 22.5T416 768h224v224q0 13 9.5 22.5t22.5 9.5h64q13 0 22.5-9.5T768 992V768h224q13 0 22.5-9.5t9.5-22.5zm128-32q0 185-131.5 316.5T704 1152t-316.5-131.5T256 704t131.5-316.5T704 256t316.5 131.5T1152 704zm512-832q0-53-37.5-90.5T1536-256q-54 0-90 38l-343 342Q924 0 704 0 561 0 430.5 55.5t-225 150-150 225T0 704t55.5 273.5 150 225 225 150T704 1408t273.5-55.5 225-150 150-225T1408 704q0-220-124-399l343-343q37-37 37-90z"/></svg>