<svg width="128" height="128" viewBox="0 0 2048 2048" xmlns="http://www.w3.org/2000/svg"><path d="M1500 165v733q0 21-15 36t-35 15h-93q-20 0-35-15t-15-36V165q0-20 15-35t35-15h93q20 0 35 15t15 35zm-284 0v531q0 20-15 35t-35 15h-101q-20 0-35-15t-15-35V165q0-20 15-35t35-15h101q20 0 35 15t15 35zm-292 0v429q0 20-15 35t-35 15H773q-20 0-35-15t-15-35V165q0-20 15-35t35-15h101q20 0 35 15t15 35zm-292 0v362q0 20-15 35t-35 15H481q-20 0-35-15t-15-35V165q0-20 15-35t35-15h101q20 0 35 15t15 35zm1416 146q0-166-118-284T1646-91H402Q236-91 118 27T0 311q0 116 63 214.5T231 674q-10 34-10 73 0 113 80.5 193.5T495 1021q102 0 180-67 45 183 194 300t338 117q149 0 275-73.5t199.5-199.5 73.5-275q0-66-14-122 135-33 221-142.5t86-247.5z"/></svg>