<svg width="128" height="128" viewBox="0 0 1536 1536" xmlns="http://www.w3.org/2000/svg"><path d="M1280 341q0 88-62.5 151T1067 555q-84 0-145-58L681 617q2 16 2 23t-2 23l241 120q61-58 145-58 88 0 150.5 63t62.5 151-62.5 150.5T1067 1152t-151-62.5T853 939q0-7 2-23L614 796q-62 57-145 57-88 0-150.5-62.5T256 640t62.5-150.5T469 427q83 0 145 57l241-120q-2-16-2-23 0-88 63-150.5t151-62.5 150.5 62.5T1280 341zm256 779V160q0-119-84.5-203.5T1248-128H288q-119 0-203.5 84.5T0 160v960q0 119 84.5 203.5T288 1408h960q119 0 203.5-84.5T1536 1120z"/></svg>