<svg width="64" height="64" viewBox="0 0 2048 2048" xmlns="http://www.w3.org/2000/svg"><path d="M1811-19q19 19 45 19t45-19l128-128-90-90-83 83-83-83q-18-19-45-19t-45 19l-83 83-83-83q-19-19-45-19t-45 19l-83 83-83-83q-19-19-45-19t-45 19l-83 83-83-83q-19-19-45-19t-45 19l-83 83-83-83q-19-19-45-19t-45 19l-83 83-83-83q-19-19-45-19t-45 19l-83 83-83-83q-19-19-45-19t-45 19L19-109l90 90 83-83 83 83q19 19 45 19t45-19l83-83 83 83q19 19 45 19t45-19l83-83 83 83q19 19 45 19t45-19l83-83 83 83q19 19 45 19t45-19l83-83 83 83q19 19 45 19t45-19l83-83 83 83q19 19 45 19t45-19l83-83zM237 19Q218 0 192 0t-45 19L19 147l90 90 83-82 83 82q19 19 45 19t45-19l83-82 64 64v293L302 826q-17 26-7 56.5t40 40.5l177 58v299h128v128h256v128h256v-128h256v-128h128V981l177-58q30-10 40-40.5t-7-56.5l-210-314V219l19 18q19 19 45 19t45-19l83-82 83 82q19 19 45 19t45-19l128-128-90-90-83 83-83-83q-18-19-45-19t-45 19l-83 83-83-83q-19-19-45-19t-45 19l-83 83-83-83q-19-19-45-19t-45 19l-83 83-83-83Q986 0 960 0t-45 19l-83 83-83-83Q730 0 704 0t-45 19l-83 83-83-83Q474 0 448 0t-45 19l-83 83zm403 1133v-128l384 128 384-128v128h-128v128H768v-128H640z"/></svg>