<svg width="64" height="64" viewBox="0 0 1536 1536" xmlns="http://www.w3.org/2000/svg"><path d="M0 1536h1536V144L760-194 0 144v1392zM1436 209v926H100V209L761-85zm0 1026v201H100v-201h1336zM181 937V822h-37v115h37zm0-148V674h-37v115h37zm0-148V526h-37v115h37zm0-148V378h-37v115h37zm0-148V230h-37v115h37zm26-143l15 34 105-47-15-33zm136-60l15 34 105-46-15-34zm135-60l15 34 105-46-15-34zm136-59l15 33 104-46-15-34zm183-13l105 46 15-33-105-47zm135 60l105 46 15-34-105-46zm136 60l105 46 15-34-105-46zm135 59l105 47 15-34-105-46zM259 1389v-36H145v36h114zm162 0v-36H306v36h115zm162 0v-36H468v36h115zm161 0v-36H630v36h114zm162 0v-36H792v36h114zm162 0v-36H953v36h115zm162 0v-36h-115v36h115zm161 0v-36h-114v36h114zM181 1049v-79h-37v115h115v-36h-78zm240 36v-36H306v36h115zm162 0v-36H468v36h115zm161 0v-36H630v36h114zm162 0v-36H792v36h114zm162 0v-36H953v36h115zm162 0v-36h-115v36h115zm125-115v79h-78v36h115V970h-37zm0-148v115h37V822h-37zm0-148v115h37V674h-37zm0-148v115h37V526h-37zm0-148v115h37V378h-37zm0-148v115h37V230h-37zm-595 35q-129 0-221 91.5T447 578q0 129 92 221t221 92q130 0 221.5-92t91.5-221q0-130-91.5-221.5T760 265zM595 646q0-36 19.5-56.5t49.5-25 64-7 64-2 49.5-9T861 516q0-49-112-49-97 0-123 51h-3l-31-63q67-42 162-42 29 0 56.5 5t55.5 16 45.5 33 17.5 53q0 46-27.5 69.5t-67.5 27-79.5 3-67 5T660 650q0 21 20.5 33t40.5 15 41 3q34 0 70.5-11t51.5-34h3l30 58q-3 1-21 8.5t-22.5 9-19.5 7-22 7-20 4.5-24 4-23 1q-29 0-56.5-5t-54-16.5-43-34T595 646z"/></svg>