<svg width="64" height="64" viewBox="0 0 2048 2048" xmlns="http://www.w3.org/2000/svg"><path d="M1920 768q53 0 90.5-37.5T2048 640t-37.5-90.5T1920 512h-15l-115-662q-8-46-44-76t-82-30H384q-46 0-82 30t-44 76L143 512h-15q-53 0-90.5 37.5T0 640t37.5 90.5T128 768h1792zM485-32q26 2 43.5 22.5T544 37l-32 416q-2 26-22.5 43.5T443 512t-43.5-22.5T384 443l32-416q2-25 20.5-42T480-32h5zm411 64v416q0 26-19 45t-45 19-45-19-19-45V32q0-26 19-45t45-19 45 19 19 45zm384 0v416q0 26-19 45t-45 19-45-19-19-45V32q0-26 19-45t45-19 45 19 19 45zm352-5l32 416q2 26-15.5 46.5T1605 512t-46.5-15.5T1536 453l-32-416q-2-26 15.5-46.5T1563-32h5q25 0 43.5 17t20.5 42zM476 1244l-93-412H251l101 441q19 88 89 143.5t160 55.5h167q0 26 19 45t45 19h384q26 0 45-19t19-45h167q90 0 160-55.5t89-143.5l101-441h-132l-93 412q-11 44-45.5 72t-79.5 28h-167q0-26-19-45t-45-19H832q-26 0-45 19t-19 45H601q-45 0-79.5-28t-45.5-72z"/></svg>