<svg width="128" height="128" viewBox="0 0 1664 1664" xmlns="http://www.w3.org/2000/svg"><path d="M640 96q0-4 1-20t.5-26.5-3-23.5-10-19.5T608 0H288Q169 0 84.5 84.5T0 288v704q0 119 84.5 203.5T288 1280h320q13 0 22.5-9.5t9.5-22.5q0-4 1-20t.5-26.5-3-23.5-10-19.5-20.5-6.5H288q-66 0-113-47t-47-113V288q0-66 47-113t113-47h312l11.5-1 11.5-3 8-5.5 7-9 2-13.5zm928 544q0-26-19-45L1005 51q-19-19-45-19t-45 19-19 45v288H448q-26 0-45 19t-19 45v384q0 26 19 45t45 19h448v288q0 26 19 45t45 19 45-19l544-544q19-19 19-45z"/></svg>