<svg width="64" height="64" viewBox="0 0 1536 1536" xmlns="http://www.w3.org/2000/svg"><path d="M1184 640q0-26-19-45L621 51q-19-19-45-19t-45 19-19 45v288H64q-26 0-45 19T0 448v384q0 26 19 45t45 19h448v288q0 26 19 45t45 19 45-19l544-544q19-19 19-45zm352 352V288q0-119-84.5-203.5T1248 0H928q-13 0-22.5 9.5T896 32q0 4-1 20t-.5 26.5 3 23.5 10 19.5T928 128h320q66 0 113 47t47 113v704q0 66-47 113t-113 47H936l-11.5 1-11.5 3-8 5.5-7 9-2 13.5q0 4-1 20t-.5 26.5 3 23.5 10 19.5 20.5 6.5h320q119 0 203.5-84.5T1536 992z"/></svg>