<svg width="64" height="64" viewBox="0 0 1792 1792" xmlns="http://www.w3.org/2000/svg"><path d="M256 96V-96q0-14-9-23t-23-9H32q-14 0-23 9T0-96V96q0 14 9 23t23 9h192q14 0 23-9t9-23zm384 128V-96q0-14-9-23t-23-9H416q-14 0-23 9t-9 23v320q0 14 9 23t23 9h192q14 0 23-9t9-23zm384 256V-96q0-14-9-23t-23-9H800q-14 0-23 9t-9 23v576q0 14 9 23t23 9h192q14 0 23-9t9-23zm384 384V-96q0-14-9-23t-23-9h-192q-14 0-23 9t-9 23v960q0 14 9 23t23 9h192q14 0 23-9t9-23zm384 512V-96q0-14-9-23t-23-9h-192q-14 0-23 9t-9 23v1472q0 14 9 23t23 9h192q14 0 23-9t9-23z"/></svg>