<svg width="128" height="128" viewBox="0 0 1536 1536" xmlns="http://www.w3.org/2000/svg"><path d="M352 128V0H0v128h352zm352 128q26 0 45-19t19-45V-64q0-26-19-45t-45-19H448q-26 0-45 19t-19 45v256q0 26 19 45t45 19h256zm160 384V512H0v128h864zm-640 512v-128H0v128h224zM1536 128V0H800v128h736zM576 1280q26 0 45-19t19-45V960q0-26-19-45t-45-19H320q-26 0-45 19t-19 45v256q0 26 19 45t45 19h256zm640-512q26 0 45-19t19-45V448q0-26-19-45t-45-19H960q-26 0-45 19t-19 45v256q0 26 19 45t45 19h256zm320-128V512h-224v128h224zm0 512v-128H672v128h864z"/></svg>