<svg width="64" height="64" viewBox="0 0 1536 1536" xmlns="http://www.w3.org/2000/svg"><path d="M1134 461q-37-121-138-195t-228-74-228 74-138 195q-8 25 4 48.5t38 31.5q25 8 48.5-4t31.5-38q25-80 92.5-129.5T768 320t151.5 49.5T1012 499q8 26 32 38t49 4 37-31.5 4-48.5zM640 896q0-53-37.5-90.5T512 768t-90.5 37.5T384 896t37.5 90.5T512 1024t90.5-37.5T640 896zm512 0q0-53-37.5-90.5T1024 768t-90.5 37.5T896 896t37.5 90.5 90.5 37.5 90.5-37.5T1152 896zm256-256q0 130-51 248.5t-136.5 204-204 136.5-248.5 51-248.5-51-204-136.5-136.5-204T128 640t51-248.5 136.5-204T519.5 51 768 0t248.5 51 204 136.5 136.5 204 51 248.5zm128 0q0-209-103-385.5T1153.5-25 768-128 382.5-25 103 254.5 0 640t103 385.5T382.5 1305 768 1408t385.5-103 279.5-279.5T1536 640z"/></svg>