<svg width="128" height="128" viewBox="0 0 1664 1664" xmlns="http://www.w3.org/2000/svg"><path d="M848 1408q134 1 240.5-68.5T1252 1147q27-58 27-179 0-47-9-191 14-7 28-7 18 0 51 13.5t51 13.5q29 0 56-18t27-46q0-32-31.5-54t-69-31.5-69-29T1282 571q0-15 12-43 37-82 102.5-150T1541 277q28-12 80-23 28-6 28-35 0-70-219-103-7-11-11-39t-14-46.5-33-18.5q-20 0-62 6.5t-64 6.5q-37 0-62-5-32-5-63-22.5t-58-38-58-40.5-76-33.5-99-13.5q-52 0-96.5 13.5t-75 33.5T601-40.5t-58 38T481 20q-26 5-63 5-24 0-65.5-7.5T294 10q-25 0-35 18.5T245 76t-11 40Q15 149 15 219q0 29 28 35 52 11 80 23 78 32 144.5 101T370 528q12 28 12 43 0 28-31.5 47.5T281 648t-69.5 31.5T180 732q0 27 26 45.5t55 18.5q15 0 48-13t53-13q18 0 32 7-9 142-9 190 0 122 27 180 64 137 172 198t264 63z"/></svg>