<svg width="128" height="128" viewBox="0 0 1536 1536" xmlns="http://www.w3.org/2000/svg"><path d="M1279 388q0 22-22 27-67 15-118 59t-80 108q-7 19-7 25 0 15 19.5 26t43 17 43 20.5T1177 707q0 19-18.5 31.5T1120 751q-12 0-32-8t-31-8q-4 0-12 2 5 95 5 114 0 79-17 114-36 78-103 121.5T778 1130q-199 0-275-165-17-35-17-114 0-19 5-114-4-2-14-2-12 0-32 7.5t-30 7.5q-21 0-38.5-12T359 706q0-21 19.5-35.5t43-20.5 43-17 19.5-26q0-6-7-25-64-138-198-167-22-5-22-27 0-46 137-68 2-5 6-26t11.5-30.5T435 254q12 0 37.5 4.5T512 263q35 0 67-15t54-32.5 57.5-32.5 76.5-15q43 0 79 15t57.5 32.5T957 248t67 15q14 0 39.5-4t38.5-4q16 0 23 10t11 30 6 25q137 22 137 68zm257 252q0-209-103-385.5T1153.5-25 768-128 382.5-25 103 254.5 0 640t103 385.5T382.5 1305 768 1408t385.5-103 279.5-279.5T1536 640z"/></svg>