<svg width="128" height="128" viewBox="0 0 1792 1792" xmlns="http://www.w3.org/2000/svg"><path d="M609 720l287 208 287-208-109-336H719zm287 816q182 0 348-71t286-191 191-286 71-348-71-348T1530 6t-286-191-348-71-348 71T262 6 71 292 0 640t71 348 191 286 286 191 348 71zm619-1350q149 203 149 454v3l-102-89-240 224 63 323 134-12q-150 206-389 282l53-124-287-159-287 159 53 124q-239-76-389-282l135 12 62-323-240-224-102 89v-3q0-251 149-454l30 132 326-40L772-20 656-89q117-39 240-39t240 39l-116 69 139 298 326 40z"/></svg>