<svg width="128" height="128" viewBox="0 0 1664 1664" xmlns="http://www.w3.org/2000/svg"><path d="M1191 104h177l-72 218-12 47q-2 16-2 20h-4l-3-20q0-1-3.5-18t-7.5-29zm-455-8q0-12-10-24L407-247q-10-9-23-9-12 0-23 9L41 73q-15 16-7 35 8 20 30 20h192v1376q0 14 9 23t23 9h192q14 0 23-9t9-23V128h192q14 0 23-9t9-23zm925-246v-106h-288v106h75L1401-6h-243l-47-144h75v-106H899v106h70l230 662h162l230-662h70zm-89 1151V768H988v90l369 529q12 18 21 27l11 9v3q-2 0-6.5-.5t-7.5-.5q-12-3-30-3h-232v-115H993v229h567v-89l-369-530q-6-8-21-26l-11-10v-3l14 3q9 1 30 1h248v119h121z"/></svg>