<svg width="128" height="128" viewBox="0 0 1792 1792" xmlns="http://www.w3.org/2000/svg"><path d="M736 96q0-12-10-24L407-247q-10-9-23-9-12 0-23 9L41 73q-15 16-7 35 8 20 30 20h192v1376q0 14 9 23t23 9h192q14 0 23-9t9-23V128h192q14 0 23-9t9-23zM1792-32v-192q0-14-9-23t-23-9H928q-14 0-23 9t-9 23v192q0 14 9 23t23 9h832q14 0 23-9t9-23zm-192 512V288q0-14-9-23t-23-9H928q-14 0-23 9t-9 23v192q0 14 9 23t23 9h640q14 0 23-9t9-23zm-192 512V800q0-14-9-23t-23-9H928q-14 0-23 9t-9 23v192q0 14 9 23t23 9h448q14 0 23-9t9-23zm-192 512v-192q0-14-9-23t-23-9H928q-14 0-23 9t-9 23v192q0 14 9 23t23 9h256q14 0 23-9t9-23z"/></svg>