<svg width="128" height="128" viewBox="0 0 1792 1792" xmlns="http://www.w3.org/2000/svg"><path d="M526 142q0-53-37.5-90.5T398 14q-52 0-90 38t-38 90q0 53 37.5 90.5T398 270t90.5-37.5T526 142zm498-206q0-53-37.5-90.5T896-192t-90.5 37.5T768-64t37.5 90.5T896 64t90.5-37.5T1024-64zM320 640q0-53-37.5-90.5T192 512t-90.5 37.5T64 640t37.5 90.5T192 768t90.5-37.5T320 640zm1202-498q0-52-38-90t-90-38q-53 0-90.5 37.5T1266 142t37.5 90.5T1394 270t90.5-37.5T1522 142zm-964 996q0-66-47-113t-113-47-113 47-47 113 47 113 113 47 113-47 47-113zm1170-498q0-53-37.5-90.5T1600 512t-90.5 37.5T1472 640t37.5 90.5T1600 768t90.5-37.5T1728 640zm-640 704q0-80-56-136t-136-56-136 56-56 136 56 136 136 56 136-56 56-136zm530-206q0-93-66-158.5T1394 914q-93 0-158.5 65.5T1170 1138q0 92 65.5 158t158.5 66q92 0 158-66t66-158z"/></svg>