<svg width="128" height="128" viewBox="0 0 1536 1536" xmlns="http://www.w3.org/2000/svg"><path d="M1242 889q0 80-57 136.5t-137 56.5-136.5-57T855 889q0-80 56.5-136.5T1048 696t137 56.5 57 136.5zM632 301q0-83-58-140.5T434 103q-56 0-103 29t-72 77q52-20 98-40 60-24 120 1.5t85 86.5q24 60-1.5 120T474 461l-82 33q22 5 42 5 82 0 140-57.5T632 301zm904 819V160q0-119-84.5-203.5T1248-128H288q-119 0-203.5 84.5T0 160v153l172-69q20-92 93.5-152T434 32q104 0 181 70t87 173l345 252q150 0 255.5 105.5T1408 887q0 150-105.5 255.5T1047 1248q-148 0-253-104.5T687 891L462 569q-9 1-28 1-75 0-137-37L0 652v468q0 119 84.5 203.5T288 1408h960q119 0 203.5-84.5T1536 1120zm-247-233q0-100-71-170.5T1047 646t-170.5 70.5T806 887t70.5 171 170.5 71q101 0 171.5-70.5T1289 887z"/></svg>