<svg width="64" height="64" viewBox="0 0 1792 1792" xmlns="http://www.w3.org/2000/svg"><path d="M1582 954q0-101-71.5-172.5T1338 710t-172.5 71.5T1094 954t71.5 172.5T1338 1198t172.5-71.5T1582 954zM812 212q0 104-73 177t-177 73q-27 0-54-6l104-42q77-31 109.5-106.5T723 156Q692 79 616 47t-152-1q-21 8-62 24.5T341 95q32-60 91-96.5T562-38q104 0 177 73t73 177zm830 741q0 126-89.5 215.5T1337 1258q-127 0-216.5-89.5T1031 953q0-127 89.5-216t216.5-89q126 0 215.5 89t89.5 216zm150 0q0-189-133.5-322T1337 498L900 179Q888 50 791-39t-229-89q-121 0-214 76T230 140L0 232v429l389-157q79 48 173 48 13 0 35-2l284 407q2 187 135.5 319t320.5 132q188 0 321.5-133.5T1792 953z"/></svg>