<svg width="64" height="64" viewBox="0 0 1408 1408" xmlns="http://www.w3.org/2000/svg"><path d="M1280 832q0 26-19 45t-45 19-45-19-19-45 19-45 45-19 45 19 19 45zm128 0q0-62-35.5-111t-92.5-70V256q0-159-131.5-271.5T832-128 515.5-15.5 384 256v132q-164 20-274 128T0 768v512q0 26 19 45t45 19q6 0 16-2 17 30 47 48t65 18q53 0 90.5-37.5T320 1280t-37.5-90.5T192 1152q-33 0-64 18V768q0-106 94-181t226-75 226 75 94 181v402q-31-18-64-18-53 0-90.5 37.5T576 1280t37.5 90.5T704 1408q35 0 65-18t47-48q10 2 16 2 26 0 45-19t19-45V768q0-144-110-252T512 388V256q0-106 94-181T832 0t226 75 94 181v395q-57 21-92.5 70T1024 832q0 80 56 136t136 56 136-56 56-136z"/></svg>