<svg width="64" height="64" viewBox="0 0 1536 1536" xmlns="http://www.w3.org/2000/svg"><path d="M1408 0q0-63-61.5-113.5t-164-81-225-46T704-256t-253.5 15.5-225 46-164 81T0 0q0 49 33 88.5t91 66.5 118 44.5T373 229q26 5 48-10.5t26-41.5q5-26-10.5-48T395 103q-58-10-106-23.5T212.5 54 164 30.5 136.5 11 128-1q3-11 27-26.5t73-33T342-93t160.5-25T704-128t201.5 10T1066-93t114 33 73 33.5T1280 1q-1 4-8.5 11T1244 31t-48.5 23.5-76.5 25-106 23.5q-26 4-41.5 26T961 177q4 26 26 41.5t48 10.5q71-12 131-29.5t118-44.5 91-66.5T1408 0zm-384 896V512q0-26-19-45t-45-19h-64V64q0-26-19-45T832 0H576q-26 0-45 19t-19 45v384h-64q-26 0-45 19t-19 45v384q0 53 37.5 90.5T512 1024h384q53 0 90.5-37.5T1024 896zm-96 384q0-93-65.5-158.5T704 1056t-158.5 65.5T480 1280t65.5 158.5T704 1504t158.5-65.5T928 1280z"/></svg>