<svg width="64" height="64" viewBox="0 0 1536 1536" xmlns="http://www.w3.org/2000/svg"><path d="M897 167V0H649L490 252l-24 42q-8 9-11 21h-3q-1-3-2.5-6.5t-3.5-8-3-6.5q-10-20-25-44L263 0H5v167h128l197 291-185 272H8v168h276l139-228q2-4 23-42 8-9 11-21h3q3 9 11 21l25 42 140 228h257V730H768L584 463l204-296h109zm639-217v-206h-514l-4 27q-3 45-3 46 0 64 26 117t65 86.5 84 65 84 54.5 65 54 26 64q0 38-29.5 62.5T1265 345q-51 0-97-39-14-11-36-38l-105 92q26 37 63 66 80 65 188 65 110 0 178-59.5t68-158.5q0-66-34.5-118.5t-84-86T1306 6t-87-63-41-73h232v80h126z"/></svg>