<svg width="64" height="64" viewBox="0 0 1536 1536" xmlns="http://www.w3.org/2000/svg"><path d="M897 167V0H649L490 252l-24 42q-8 9-11 21h-3q-1-3-2.5-6.5t-3.5-8-3-6.5q-10-20-25-44L263 0H5v167h128l197 291-185 272H8v168h276l139-228q2-4 23-42 8-9 11-21h3q3 9 11 21l25 42 140 228h257V730H768L584 463l204-296h109zm637 679V640h-514l-3 27q-4 28-4 46 0 64 26 117t65 86.5 84 65 84 54.5 65 54 26 64q0 38-29.5 62.5T1263 1241q-51 0-97-39-14-11-36-38l-105 92q26 37 63 66 83 65 188 65 110 0 178-59.5t68-158.5q0-56-24.5-103t-62-76.5T1354 931t-82-50.5-65.5-51.5-30.5-63h232v80h126z"/></svg>