<svg width="128" height="128" viewBox="0 0 1664 1664" xmlns="http://www.w3.org/2000/svg"><path d="M512 160v192q0 14-9 23t-23 9H160q-14 0-23-9t-9-23V160q0-14 9-23t23-9h320q14 0 23 9t9 23zm0 384v192q0 14-9 23t-23 9H160q-14 0-23-9t-9-23V544q0-14 9-23t23-9h320q14 0 23 9t9 23zm512-384v192q0 14-9 23t-23 9H672q-14 0-23-9t-9-23V160q0-14 9-23t23-9h320q14 0 23 9t9 23zM512 928v192q0 14-9 23t-23 9H160q-14 0-23-9t-9-23V928q0-14 9-23t23-9h320q14 0 23 9t9 23zm512-384v192q0 14-9 23t-23 9H672q-14 0-23-9t-9-23V544q0-14 9-23t23-9h320q14 0 23 9t9 23zm512-384v192q0 14-9 23t-23 9h-320q-14 0-23-9t-9-23V160q0-14 9-23t23-9h320q14 0 23 9t9 23zm-512 768v192q0 14-9 23t-23 9H672q-14 0-23-9t-9-23V928q0-14 9-23t23-9h320q14 0 23 9t9 23zm512-384v192q0 14-9 23t-23 9h-320q-14 0-23-9t-9-23V544q0-14 9-23t23-9h320q14 0 23 9t9 23zm0 384v192q0 14-9 23t-23 9h-320q-14 0-23-9t-9-23V928q0-14 9-23t23-9h320q14 0 23 9t9 23zm128 320V160q0-66-47-113T1504 0H160Q94 0 47 47T0 160v1088q0 66 47 113t113 47h1344q66 0 113-47t47-113z"/></svg>