<svg width="64" height="64" viewBox="0 0 1792 1792" xmlns="http://www.w3.org/2000/svg"><path d="M384 384q0 53-37.5 90.5T256 512t-90.5-37.5T128 384t37.5-90.5T256 256t90.5 37.5T384 384zm192 448q0 53-37.5 90.5T448 960t-90.5-37.5T320 832t37.5-90.5T448 704t90.5 37.5T576 832zm428-481l101 382q6 26-7.5 48.5T1059 811t-48-6.5-30-39.5L880 383q-60-5-107-43.5T710 241q-20-77 20-146T847 6t146 20 89 117q16 60-6 117t-72 91zm660 33q0 53-37.5 90.5T1536 512t-90.5-37.5T1408 384t37.5-90.5T1536 256t90.5 37.5T1664 384zm-640 640q0 53-37.5 90.5T896 1152t-90.5-37.5T768 1024t37.5-90.5T896 896t90.5 37.5 37.5 90.5zm448-192q0 53-37.5 90.5T1344 960t-90.5-37.5T1216 832t37.5-90.5T1344 704t90.5 37.5T1472 832zm320-448q0-261-141-483-19-29-54-29H195q-35 0-54 29Q0 122 0 384q0 182 71 348t191 286 286 191 348 71 348-71 286-191 191-286 71-348z"/></svg>