<svg width="128" height="128" viewBox="0 0 1920 1920" xmlns="http://www.w3.org/2000/svg"><path d="M448 1088q0 53-37.5 90.5T320 1216t-90.5-37.5T192 1088t37.5-90.5T320 960t90.5 37.5T448 1088zm1067-576q0-53-37-90L987-70q-39-37-91-37-53 0-90 37L91 646q-38 37-64.5 101T0 864v416q0 52 38 90t90 38h416q53 0 117-26.5t102-64.5l715-714q37-39 37-91zm384 0q0-53-37-90L1371-70q-39-37-91-37-36 0-59 14t-53 45l470 470q37 37 37 90 0 52-37 91l-715 714q-38 38-102 64.5T704 1408h224q53 0 117-26.5t102-64.5l715-714q37-39 37-91z"/></svg>