<svg width="64" height="64" viewBox="0 0 2048 2048" xmlns="http://www.w3.org/2000/svg"><path d="M1824 640q93 0 158.5-65.5T2048 416V32q0-14-9-23t-23-9h-96v-64q0-80-56-136t-136-56-136 56-56 136V0H512v-64q0-80-56-136t-136-56-136 56-56 136V0H32Q18 0 9 9T0 32v384q0 93 65.5 158.5T224 640h28l105 419q23 94 104 157.5t179 63.5h128v224q0 14 9 23t23 9h448q14 0 23-9t9-23v-224h128q98 0 179-63.5t104-157.5l105-419h28zM320 160q66 0 113 47t47 113-47 113-113 47-113-47-47-113 47-113 113-47zm196 480h1016l-89 357q-2 8-14 17.5t-21 9.5H640q-9 0-21-9.5T605 997zm1212-480q66 0 113 47t47 113-47 113-113 47-113-47-47-113 47-113 113-47z"/></svg>