<svg width="128" height="128" viewBox="0 0 1280 1280" xmlns="http://www.w3.org/2000/svg"><path d="M842 964q0-80-57-136.5T649 771q-60 0-111 35-62-67-115-146-247-371-202-859 1-22-12.5-38.5T174-256h-5q-20 0-35 13.5T117-209q-14 126-3.5 247.5t29.5 217 54 186T266 597t74 125q61 90 132 165-16 35-16 77 0 80 56.5 136.5T649 1157t136.5-56.5T842 964zm381-11q0-158-78-292T932.5 449 640 371q-64 0-131 14-21 5-32.5 23.5T470 448q5 20 23 31.5t39 7.5q51-13 108-13 97 0 186 38t153 102 102 153 38 186-38 186-102 153-153 102-186 38-186-38-153-102-102-153-38-186q0-114 52-218 10-20 3.5-40T191 665t-39.5-3-30.5 26Q57 811 57 953q0 119 46.5 227T228 1366t186 124 226 46q158 0 292.5-78t212.5-212.5 78-292.5z"/></svg>