<svg width="128" height="128" viewBox="0 0 1792 1792" xmlns="http://www.w3.org/2000/svg"><path d="M512 288V96q0-40-28-68T416 0H96Q56 0 28 28T0 96v192q0 40 28 68t68 28h320q40 0 68-28t28-68zm0 512V608q0-40-28-68t-68-28H96q-40 0-68 28T0 608v192q0 40 28 68t68 28h320q40 0 68-28t28-68zm640-512V96q0-40-28-68t-68-28H736q-40 0-68 28t-28 68v192q0 40 28 68t68 28h320q40 0 68-28t28-68zM512 1312v-192q0-40-28-68t-68-28H96q-40 0-68 28t-28 68v192q0 40 28 68t68 28h320q40 0 68-28t28-68zm640-512V608q0-40-28-68t-68-28H736q-40 0-68 28t-28 68v192q0 40 28 68t68 28h320q40 0 68-28t28-68zm640-512V96q0-40-28-68t-68-28h-320q-40 0-68 28t-28 68v192q0 40 28 68t68 28h320q40 0 68-28t28-68zm-640 1024v-192q0-40-28-68t-68-28H736q-40 0-68 28t-28 68v192q0 40 28 68t68 28h320q40 0 68-28t28-68zm640-512V608q0-40-28-68t-68-28h-320q-40 0-68 28t-28 68v192q0 40 28 68t68 28h320q40 0 68-28t28-68zm0 512v-192q0-40-28-68t-68-28h-320q-40 0-68 28t-28 68v192q0 40 28 68t68 28h320q40 0 68-28t28-68z"/></svg>