<svg width="128" height="128" viewBox="0 0 1024 1024" xmlns="http://www.w3.org/2000/svg"><path d="M640 192q0-80-56-136T448 0 312 56t-56 136q0 60 35 110t93 71v139h128V373q58-21 93-71t35-110zm128 0q0 77-34 144t-94 112v768q0 80-56 136t-136 56-136-56-56-136V448q-60-45-94-112t-34-144q0-133 93.5-226.5T448-128t226.5 93.5T768 192zm128 0q0-185-131.5-316.5T448-256 131.5-124.5 0 192q0 182 128 313v711q0 133 93.5 226.5T448 1536t226.5-93.5T768 1216V505q128-131 128-313zm128 576V640H832v128h192zm0 256V896H832v128h192zm0 256v-128H832v128h192z"/></svg>