<svg width="64" height="64" viewBox="0 0 1664 1664" xmlns="http://www.w3.org/2000/svg"><path d="M256 960q0-26-19-45t-45-19q-27 0-45.5 19T128 960q0 27 18.5 45.5T192 1024q26 0 45-18.5t19-45.5zm160-512v640q0 26-19 45t-45 19H64q-26 0-45-19t-19-45V448q0-26 19-45t45-19h288q26 0 45 19t19 45zm1129 149q55-61 55-149-1-78-57.5-135T1408 256h-277q4-14 8-24t11-22 10-18q18-37 27-57t19-58.5T1216 0q0-24-.5-39t-5-45-12-50-24-45-40-40.5-60-26T992-256q-26 0-45 19-20 20-34 50t-19.5 52T881-74q-9 42-13.5 60.5T850 35t-31 48q-33 33-101 120-49 64-101 121t-76 59q-25 2-43 20.5T480 447v641q0 26 19 44.5t45 19.5q35 1 158 44 77 26 120.5 39.5t121.5 29 144 15.5h129q133-2 197-78 58-69 49-181 39-37 54-94 17-61 0-117 46-61 43-137 0-32-15-76z"/></svg>