<svg width="128" height="128" viewBox="0 0 1536 1536" xmlns="http://www.w3.org/2000/svg"><path d="M256 1088q0 26-19 45t-45 19-45-19-19-45 19-45 45-19 45 19 19 45zm1152-576q0 35-21.5 81t-53.5 47q15 17 25 47.5t10 55.5q0 69-53 119 18 31 18 69 0 37-17.5 73.5T1268 1057q5 30 5 56 0 85-49 126t-136 41H960q-131 0-342-73-5-2-29-10.5t-35.5-12.5-35-11.5-38-11-33-6.5-31.5-3h-32V512h32q16 0 35.5-9t40-27 38.5-35.5 40-44 34.5-42.5 31.5-41 23-30q55-68 77-91 41-43 59.5-109.5T826-43t38-85q96 0 128 47t32 145q0 59-48 160.5T928 384h352q50 0 89 38.5t39 89.5zm128-1q0-103-76-179t-180-76h-176q48-99 48-192 0-118-35-186-35-69-102-101.5T864-256q-51 0-90 37-34 33-54 82t-25.5 90.5T677 38t-31 64q-48 50-107 127-101 131-137 155H128q-53 0-90.5 37.5T0 512v640q0 53 37.5 90.5T128 1280h288q22 0 138 40 128 44 223 66t200 22h112q140 0 226.5-79t85.5-216v-5q60-77 60-178 0-22-3-43 38-67 38-144 0-36-9-69 49-73 49-163z"/></svg>