<svg width="64" height="64" viewBox="0 0 1536 1536" xmlns="http://www.w3.org/2000/svg"><path d="M256 192q0 26-19 45t-45 19-45-19-19-45 19-45 45-19 45 19 19 45zm1152 576q0 51-39 89.5t-89 38.5H928q0 58 48 159.5t48 160.5q0 98-32 145t-128 47q-26-26-38-85t-30.5-125.5T736 1088q-22-23-77-91-4-5-23-30t-31.5-41-34.5-42.5-40-44-38.5-35.5-40-27-35.5-9h-32V128h32q13 0 31.5-3t33-6.5 38-11 35-11.5T589 83.5 618 73Q829 0 960 0h121q192 0 192 167 0 26-5 56 30 16 47.5 52.5T1333 349t-18 69q53 50 53 119 0 25-10 55.5t-25 47.5q32 1 53.5 47t21.5 81zm128 1q0-89-49-163 9-33 9-69 0-77-38-144 3-21 3-43 0-101-60-178 1-139-85-219.5T1089-128H960q-96 0-189.5 22.5T554-40Q438 0 416 0H128Q75 0 37.5 37.5T0 128v640q0 53 37.5 90.5T128 896h274q36 24 137 155 58 75 107 128 24 25 35.5 85.5T712 1391t62 108q39 37 90 37 84 0 151-32.5t102-101.5 35-186q0-93-48-192h176q104 0 180-76t76-179z"/></svg>