<svg width="64" height="64" viewBox="0 0 1536 1536" xmlns="http://www.w3.org/2000/svg"><path d="M1097 457L951 311q-10-10-23-10t-23 10L768 448 631 311q-10-10-23-10t-23 10L439 457q-10 10-10 23t10 23l137 137-137 137q-10 10-10 23t10 23l146 146q10 10 23 10t23-10l137-137 137 137q10 10 23 10t23-10l146-146q10-10 10-23t-10-23L960 640l137-137q10-10 10-23t-10-23zm215 183q0 148-73 273t-198 198-273 73-273-73-198-198-73-273 73-273 198-198 273-73 273 73 198 198 73 273zm224 0q0-209-103-385.5T1153.5-25 768-128 382.5-25 103 254.5 0 640t103 385.5T382.5 1305 768 1408t385.5-103 279.5-279.5T1536 640z"/></svg>