<svg width="128" height="128" viewBox="0 0 1536 1536" xmlns="http://www.w3.org/2000/svg"><path d="M1149 414q0 26-19 45L949 640l181 181q19 19 19 45 0 27-19 46l-90 90q-19 19-46 19-26 0-45-19L768 821l-181 181q-19 19-45 19-27 0-46-19l-90-90q-19-19-19-46 0-26 19-45l181-181-181-181q-19-19-19-45 0-27 19-46l90-90q19-19 46-19 26 0 45 19l181 181 181-181q19-19 45-19 27 0 46 19l90 90q19 19 19 46zm387 226q0-209-103-385.5T1153.5-25 768-128 382.5-25 103 254.5 0 640t103 385.5T382.5 1305 768 1408t385.5-103 279.5-279.5T1536 640z"/></svg>