<svg width="64" height="64" viewBox="0 0 2048 2048" xmlns="http://www.w3.org/2000/svg"><path d="M1152 640q0 104-40.5 198.5T1002 1002t-163.5 109.5T640 1152t-198.5-40.5T278 1002 168.5 838.5 128 640t40.5-198.5T278 278t163.5-109.5T640 128t198.5 40.5T1002 278t109.5 163.5T1152 640zm768 0q0 104-40.5 198.5T1770 1002t-163.5 109.5T1408 1152h-386q119-90 188.5-224t69.5-288-69.5-288T1022 128h386q104 0 198.5 40.5T1770 278t109.5 163.5T1920 640zm128 0q0-130-51-248.5t-136.5-204-204-136.5T1408 0H640Q510 0 391.5 51t-204 136.5T51 391.5 0 640t51 248.5 136.5 204 204 136.5 248.5 51h768q130 0 248.5-51t204-136.5 136.5-204 51-248.5z"/></svg>