<svg width="128" height="128" viewBox="0 0 1973 1973" xmlns="http://www.w3.org/2000/svg"><path d="M857 992V875q0-13-9.5-22t-22.5-9H527V32q0-13-9-22.5T496 0H361q-13 0-22.5 9T329 32v812H32q-13 0-22.5 9T0 875v117q0 14 9 23t23 9h793q13 0 22.5-9.5T857 992zm1038 3l77-961q1-13-8-24-10-10-23-10h-134q-12 0-21 8.5T1776 29l-46 588-189-425q-8-19-29-19h-120q-20 0-29 19l-188 427-45-590q-1-12-10-20.5T1099 0H964q-13 0-23 10-9 10-9 24l78 961q1 12 10 20.5t21 8.5h142q20 0 29-19l220-520q10-24 20-51 3 7 9.5 24.5T1472 485l221 520q9 19 29 19h141q13 0 22-8.5t10-20.5z"/></svg>