<svg width="64" height="64" viewBox="0 0 1536 1536" xmlns="http://www.w3.org/2000/svg"><path d="M1024 1504q0 14 9 23t23 9h288q26 0 45-19t19-45v-288q0-14-9-23t-23-9h-64q-14 0-23 9t-9 23v134l-254-255q126-158 126-359 0-221-147.5-384.5T640 132V0h96q14 0 23-9t9-23v-64q0-14-9-23t-23-9h-96v-96q0-14-9-23t-23-9h-64q-14 0-23 9t-9 23v96h-96q-14 0-23 9t-9 23v64q0 14 9 23t23 9h96v132q-149 16-270.5 103T55 458.5 2 750q16 204 160 353.5T509 1276q118 14 228-19t198-103l255 254h-134q-14 0-23 9t-9 23v64zM576 256q185 0 316.5 131.5T1024 704t-131.5 316.5T576 1152t-316.5-131.5T128 704t131.5-316.5T576 256z"/></svg>