<svg width="64" height="64" viewBox="0 0 2304 2304" xmlns="http://www.w3.org/2000/svg"><path d="M651 539q0-39-27.5-66.5T558 445q-39 0-66.5 27.5T464 539q0 38 27.5 65.5T558 632q38 0 65.5-27.5T651 539zm1154 1q0-39-27.5-66.5T1711 446t-66.5 27.5T1617 540t27.5 66 66.5 27 66.5-27 27.5-66zm-1040-1q0 79-56.5 136T572 732t-136.5-56.5T379 539t56.5-136.5T572 346t136.5 56.5T765 539zm1153 1q0 80-56.5 136.5T1725 733q-79 0-136-56.5T1532 540t56.5-136.5T1725 347t136.5 56.5T1918 540zm-1068-1q0-116-81.5-197.5T572 260q-116 0-197.5 82T293 539t82 196.5T572 817t196.5-81.5T850 539zm1154 1q0-115-81.5-196.5T1725 262q-115 0-196.5 81.5T1447 540t81.5 196.5T1725 818q116 0 197.5-81.5T2004 540zm-964-3q0 191-135.5 326.5T578 999q-125 0-231-62T179 768.5 117 537t62-231.5T347 137t231-62q191 0 326.5 135.5T1040 537zm668 573q-254 111-556 111-319 0-573-110 117 0 223-45.5T984.5 943t122-183 45.5-223q0 115 43.5 219.5t118 180.5 177.5 123 217 50zm479-573q0 191-135 326.5T1726 999t-326.5-135.5T1264 537t135.5-326.5T1726 75t326 135.5T2187 537zm-266 566h383q-44-51-75-114.5T2189 874q110-151 110-337 0-156-77-288T2013 40.5 1726-36q-133 0-249 56t-196 155q-47-56-129-179-11 22-53.5 82.5T1024 176Q944 77 827.5 20.5T578-36q-155 0-287 76.5T82 249 5 537q0 186 110 337-9 51-40 114.5T0 1103h365q149 100 355 156.5t432 56.5q224 0 421-56t348-157z"/></svg>