<svg width="128" height="128" viewBox="0 0 1792 1792" xmlns="http://www.w3.org/2000/svg"><path d="M448 224V32q0-14-9-23t-23-9H224q-14 0-23 9t-9 23v192q0 14 9 23t23 9h192q14 0 23-9t9-23zM256 608V416q0-14-9-23t-23-9H32q-14 0-23 9t-9 23v192q0 14 9 23t23 9h192q14 0 23-9t9-23zm576-384V32q0-14-9-23t-23-9H608q-14 0-23 9t-9 23v192q0 14 9 23t23 9h192q14 0 23-9t9-23zM640 608V416q0-14-9-23t-23-9H416q-14 0-23 9t-9 23v192q0 14 9 23t23 9h192q14 0 23-9t9-23zM66 768q-28 0-47 19T0 833v129h514V833q0-27-19-46t-46-19H66zm1150-544V32q0-14-9-23t-23-9H992q-14 0-23 9t-9 23v192q0 14 9 23t23 9h192q14 0 23-9t9-23zm-192 384V416q0-14-9-23t-23-9H800q-14 0-23 9t-9 23v192q0 14 9 23t23 9h192q14 0 23-9t9-23zm576-384V32q0-14-9-23t-23-9h-192q-14 0-23 9t-9 23v192q0 14 9 23t23 9h192q14 0 23-9t9-23zm-192 384V416q0-14-9-23t-23-9h-192q-14 0-23 9t-9 23v192q0 14 9 23t23 9h192q14 0 23-9t9-23zm384 408v-13h-514v10q0 104-382 102-382-1-382-102v-10H0v13q0 17 8.5 43t34 64 65.5 75.5 110.5 76 160 67.5 224 47.5T896 1408t293-18.5 224-47.5 160.5-67.5 110.5-76 65.5-75.5 34-64 8.5-43zm0-408V416q0-14-9-23t-23-9h-192q-14 0-23 9t-9 23v192q0 14 9 23t23 9h192q14 0 23-9t9-23zm0 354V833q0-27-19-46t-46-19h-384q-27 0-46 19t-19 46v129h514z"/></svg>