<svg width="128" height="128" viewBox="0 0 1536 1536" xmlns="http://www.w3.org/2000/svg"><path d="M1536 640q0-156-61-298T1311 97 1066-67t-298-61q-172 0-327 72.5T177 149q-7 10-6.5 22.5T179 192l137 138q10 9 25 9 16-2 23-12 73-95 179-147t225-52q104 0 198.5 40.5T1130 278t109.5 163.5T1280 640t-40.5 198.5T1130 1002t-163.5 109.5T768 1152q-98 0-188-35.5T420 1015l137-138q31-30 14-69-17-40-59-40H64q-26 0-45 19T0 832v448q0 42 40 59 39 17 69-14l130-129q107 101 244.5 156.5T768 1408q156 0 298-61t245-164 164-245 61-298z"/></svg>