<svg width="128" height="128" viewBox="0 0 1024 1024" xmlns="http://www.w3.org/2000/svg"><path d="M978 351q0-153-99.5-263.5T620-49v-175q0-14-9-23t-23-9H453q-13 0-22.5 9.5T421-224v175q-66 9-127.5 31T192 26.5t-74 48T71.5 112 54 130q-17 21-2 41l103 135q7 10 23 12 15 2 24-9l2-2q113-99 243-125 37-8 74-8 81 0 142.5 43T725 339q0 28-15 53t-33.5 42-58.5 37.5-66 32-80 32.5q-39 16-61.5 25T349 587.5t-62.5 31T230 654t-53.5 42.5-43.5 49-35.5 58-21 66.5-8.5 78q0 138 98 242t255 134v180q0 13 9.5 22.5t22.5 9.5h135q14 0 23-9t9-23v-176q57-6 110.5-23t87-33.5T881 1234t39-29 15-14q17-18 5-38l-81-146q-8-15-23-16-14-3-27 7-3 3-14.5 12t-39 26.5-58.5 32-74.5 26T537 1106q-95 0-155-43t-60-111q0-26 8.5-48t29.5-41.5 39.5-33 56-31 60.5-27 70-27.5q53-20 81-31.5t76-35 75.5-42.5 62-50 53-63.5T965 445t13-94z"/></svg>