<svg width="128" height="128" viewBox="0 0 1920 1920" xmlns="http://www.w3.org/2000/svg"><path d="M593 640q-162-5-265-128H194q-82 0-138 40.5T0 671q0 353 124 353 6 0 43.5-21t97.5-42.5T384 939q67 0 133 23-5-37-5-66 0-139 81-256zM1664 3q0-120-73-189.5T1397-256H523q-121 0-194 69.5T256 3q0 53 3.5 103.5t14 109T300 324t43 97.5 62 81 85.5 53.5T602 576q10 0 43-21.5t73-48 107-48T960 437t135 21.5 107 48 73 48 43 21.5q61 0 111.5-20t85.5-53.5 62-81 43-97.5 26.5-108.5 14-109T1664 3zM640 1280q0-106-75-181t-181-75-181 75-75 181 75 181 181 75 181-75 75-181zm704-384q0-159-112.5-271.5T960 512 688.5 624.5 576 896t112.5 271.5T960 1280t271.5-112.5T1344 896zm576-225q0-78-56-118.5T1726 512h-134q-103 123-265 128 81 117 81 256 0 29-5 66 66-23 133-23 59 0 119 21.5t97.5 42.5 43.5 21q124 0 124-353zm-128 609q0-106-75-181t-181-75-181 75-75 181 75 181 181 75 181-75 75-181z"/></svg>