<svg width="64" height="64" viewBox="0 0 1536 1536" xmlns="http://www.w3.org/2000/svg"><path d="M1201 752q47-14 89.5-38t89-73 79.5-115.5 55-172 22-236.5q0-154-100-263.5T1195-256H341q-141 0-241 109.5T0 117q0 131 22 236.5t55 172T156.5 641t89 73 89.5 38q-79 125-79 272 0 104 40.5 198.5T406 1386t163.5 109.5T768 1536t198.5-40.5T1130 1386t109.5-163.5T1280 1024q0-147-79-272zm-433 656q-159 0-271.5-112.5T384 1024t112.5-271.5T768 640t271.5 112.5T1152 1024t-112.5 271.5T768 1408zm427-1536q88 0 150.5 71.5T1408 117q0 239-78.5 377T1104 639Q959 512 768 512T432 639q-147-7-225.5-145T128 117q0-102 62.5-173.5T341-128h854z"/></svg>