<svg width="128" height="128" viewBox="0 0 1792 1792" xmlns="http://www.w3.org/2000/svg"><path d="M896 1536q182 0 348-71t286-191 191-286 71-348q0-181-70.5-347T1531 7t-286-191.5T896-256t-349 71T261.5 6.5 71 292.5 0 640t71 348 191 286 286 191 348 71zm619-1351q149 205 149 455 0 156-61 298t-164 245-245 164-298 61-298-61-245-164-164-245-61-298q0-250 149-455 66 327 306 327 131-128 313-128t313 128q240 0 306-327zm-235 647q0 159-112.5 271.5T896 1216t-271.5-112.5T512 832t112.5-271.5T896 448t271.5 112.5T1280 832z"/></svg>