<svg width="64" height="64" viewBox="0 0 1792 1792" xmlns="http://www.w3.org/2000/svg"><path d="M1523 197q-22 155-87.5 257.5T1251 573q-67-74-159.5-115.5T896 416t-195.5 41.5T541 573q-119-16-184.5-118.5T269 197Q375 47 540-40.5T896-128t356 87.5T1523 197zm-243 699q0 159-112.5 271.5T896 1280t-271.5-112.5T512 896t112.5-271.5T896 512t271.5 112.5T1280 896zm512-256q0-182-71-347.5t-190.5-286T1245-185t-349-71q-182 0-348 71T262 6 71 292 0 640t71 348 191 286 286 191 348 71 348-71 286-191 191-286 71-348z"/></svg>