<svg width="64" height="64" viewBox="0 0 2048 2048" xmlns="http://www.w3.org/2000/svg"><path d="M704 640q-159 0-271.5 112.5T320 1024t112.5 271.5T704 1408t271.5-112.5T1088 1024 975.5 752.5 704 640zm960-128h352q13 0 22.5-9.5t9.5-22.5V288q0-13-9.5-22.5T2016 256h-352V-96q0-13-9.5-22.5T1632-128h-192q-13 0-22.5 9.5T1408-96v352h-352q-13 0-22.5 9.5T1024 288v192q0 13 9.5 22.5t22.5 9.5h352v352q0 13 9.5 22.5t22.5 9.5h192q13 0 22.5-9.5t9.5-22.5V512zM928 288q0-52 38-90t90-38h256V-78q-68-50-171-50H267q-121 0-194 69T0 131q0 53 3.5 103.5t14 109T44 452t43 97.5 62 81 85.5 53.5T346 704q19 0 39-17 79-61 154.5-91.5T704 565t164.5 30.5T1023 687q20 17 39 17 132 0 217-96h-223q-52 0-90-38t-38-90V288z"/></svg>