<svg width="64" height="64" viewBox="0 0 1408 1408" xmlns="http://www.w3.org/2000/svg"><path d="M384 192q0-26-19-45t-45-19-45 19-19 45 19 45 45 19 45-19 19-45zm1024-61q0-121-73-190t-194-69H267q-121 0-194 69T0 131q0 68 5.5 131t24 138T77 532.5t81 103T278 696q-22-52-22-120V373q-58-20-93-70t-35-111q0-80 56-136T320 0t136 56 56 136q0 61-35.5 111T384 373v203q0 62 25 93 132-104 295-104t295 104q25-31 25-93v-64q-106 0-181-75t-75-181v-89q-32-29-32-71 0-40 28-68t68-28 68 28 28 68q0 42-32 71v89q0 52 38 90t90 38 90-38 38-90v-89q-32-29-32-71 0-40 28-68t68-28 68 28 28 68q0 42-32 71v89q0 68-34.5 127.5T1152 477q0 10 .5 42.5t0 48-2.5 41.5-7 47-13 40q68-15 120-60.5t81-103 47.5-132.5 24-138 5.5-131zm-320 893q0-159-112.5-271.5T704 640 432.5 752.5 320 1024t112.5 271.5T704 1408t271.5-112.5T1088 1024z"/></svg>