<svg width="128" height="128" viewBox="0 0 2048 2048" xmlns="http://www.w3.org/2000/svg"><path d="M1664 1504q0 14 9 23t23 9h288q26 0 45-19t19-45v-288q0-14-9-23t-23-9h-64q-14 0-23 9t-9 23v134l-254-255q76-95 107.5-214t9.5-247q-32-180-164.5-310T1305 135q-223-34-409 90-117-78-256-93V0h96q14 0 23-9t9-23v-64q0-14-9-23t-23-9h-96v-96q0-14-9-23t-23-9h-64q-14 0-23 9t-9 23v96h-96q-14 0-23 9t-9 23v64q0 14 9 23t23 9h96v132q-155 17-279.5 109.5T45.5 479 6 786q25 187 159.5 322.5T486 1273q224 34 410-90 146 97 320 97 201 0 359-126l255 254h-134q-14 0-23 9t-9 23v64zM896 391q128 131 128 313t-128 313Q768 886 768 704t128-313zM128 704q0-185 131.5-316.5T576 256q117 0 218 57-154 167-154 391t154 391q-101 57-218 57-185 0-316.5-131.5T128 704zm1088-448q185 0 316.5 131.5T1664 704t-131.5 316.5T1216 1152q-117 0-218-57 154-167 154-391T998 313q101-57 218-57z"/></svg>