<svg width="128" height="128" viewBox="0 0 1792 1792" xmlns="http://www.w3.org/2000/svg"><path d="M1790 1007q12-155-52.5-292t-186-224T1280 388V128h224q14 0 23-9t9-23V32q0-14-9-23t-23-9h-224v-224q0-14-9-23t-23-9h-64q-14 0-23 9t-9 23V0H640v-224q0-14-9-23t-23-9h-64q-14 0-23 9t-9 23V0H288q-14 0-23 9t-9 23v64q0 14 9 23t23 9h224v260q-150 16-271.5 103t-186 224T2 1007q17 206 164.5 356.5T519 1533q206 21 377-94 171 115 377 94 205-19 352.5-169.5T1790 1007zM896 647q128 131 128 313t-128 313q-128-131-128-313t128-313zM576 512q115 0 218 57-154 165-154 391 0 224 154 391-103 57-218 57-185 0-316.5-131.5T128 960t131.5-316.5T576 512zm576-384v260q-137 15-256 94-119-79-256-94V128h512zm64 384q185 0 316.5 131.5T1664 960t-131.5 316.5T1216 1408q-115 0-218-57 154-167 154-391 0-226-154-391 103-57 218-57z"/></svg>