<svg width="64" height="64" viewBox="0 0 1536 1536" xmlns="http://www.w3.org/2000/svg"><path d="M1050 495q0 78-28 147-41-25-85-34 22-50 22-114 0-117-77-198.5T689 214t-193.5 81.5T418 494q0 115 78 199.5T689 778q53 0 98-19 4 43 27 87-60 21-125 21-154 0-257.5-108.5T328 495t103.5-261T689 128t257.5 106.5T1050 495zM872 850q2-24 2-71 0-63-5-123t-20.5-132.5-40.5-130-68.5-106T639 217q21-3 42-3h10q219 139 219 411 0 116-38 225zm0 0q-4 80-44 171.5T730 1152q92-156 142-302zm335 105q0 102-51 174-41-86-124-109-69-19-109-53.5T883 867q0-40 24-77 74 17 140.5 67t95.5 115q-4-52-74.5-111.5T930 763q52-52 110-52 51 0 90 37t60 90q17 42 17 117zm329 165V160q0-119-84.5-203.5T1248-128H288q-119 0-203.5 84.5T0 160v960q0 119 84.5 203.5T288 1408h960q119 0 203.5-84.5T1536 1120z"/></svg>