<svg width="64" height="64" viewBox="0 0 1536 1536" xmlns="http://www.w3.org/2000/svg"><path d="M1497 709V511q-101-23-198-23-65-136-165.5-271T952 1.5 824-105q-80-45-162 3-28 17-60.5 43.5t-85 83.5T414 153.5t-107.5 184-105.5 244T109.5 896 39 1286h283q26-218 70-398.5t104.5-317T618 335t140-195q169 169 287 406-142 72-223 220t-81 333q0 192 104 314.5t284 122.5q178 0 273-105.5t95-297.5q0-159-58-286-7-1-19.5-3t-46-2-63 6-62 25.5T1198 925q31 103 31 184 0 87-29 132t-79 45q-53 0-85-49.5t-32-140.5q0-186 105-293.5T1376 695q62 0 121 14z"/></svg>