<svg width="128" height="128" viewBox="0 0 1664 1664" xmlns="http://www.w3.org/2000/svg"><path d="M768 1184V96q0-26-19-45t-45-19-45 19L326 384H64q-26 0-45 19T0 448v384q0 26 19 45t45 19h262l333 333q19 19 45 19t45-19 19-45zm384-544q0-76-42.5-141.5T997 405q-10-5-25-5-26 0-45 18.5T908 464q0 21 12 35.5t29 25 34 23 29 36 12 56.5-12 56.5-29 36-34 23-29 25-12 35.5q0 27 19 45.5t45 18.5q15 0 25-5 70-27 112.5-93t42.5-142zm256 0q0-153-85-282.5T1098 169q-13-5-25-5-27 0-46 19t-19 45q0 39 39 59 56 29 76 44 74 54 115.5 135.5T1280 640t-41.5 173.5T1123 949q-20 15-76 44-39 20-39 59 0 26 19 45t45 19q13 0 26-5 140-59 225-188.5t85-282.5zm256 0q0-230-127-422.5T1199-66q-13-5-26-5-26 0-45 19t-19 45q0 36 39 59 7 4 22.5 10.5T1193 73q46 25 82 51 123 91 192 227t69 289-69 289-192 227q-36 26-82 51-7 4-22.5 10.5T1148 1228q-39 23-39 59 0 26 19 45t45 19q13 0 26-5 211-91 338-283.5T1664 640z"/></svg>