<svg width="64" height="64" viewBox="0 0 1536 1536" xmlns="http://www.w3.org/2000/svg"><path d="M985 562q13 0 97.5-44t89.5-53q2-5 2-15 0-33-17-76-16-39-71-65.5T984 282q-57 0-190 62-98 45-170 118T476 647q-72 107-71 194v8q3 91 74 158 24 22 52 22 6 0 18-1.5t19-1.5q19 0 26.5-6.5T610 992q8-20 33-88t25-75q0-21-34.5-57.5T599 725q0-7 5-15 34-73 102-137 56-53 151-101 12-7 22-7 15 0 54 48.5t52 48.5zM782 32q127 0 243.5 50T1226 216t134 200.5 50 243.5-50 243.5-134 200.5-200.5 134-243.5 50-243.5-50T338 1104 204 903.5 154 660q0-203 120-368L195 59l242 77Q595 32 782 32zm0 1382q153 0 292.5-60t240.5-161 161-240.5 60-292.5-60-292.5T1315 127 1074.5-34 782-94Q587-94 417 0L0-134l136 405Q28 449 28 660q0 153 60 292.5T249 1193t240.5 161 292.5 60z"/></svg>