<svg width="128" height="128" viewBox="0 0 1536 1536" xmlns="http://www.w3.org/2000/svg"><path d="M1438 723q34-35 29-82l-44-551q-4-42-34.5-70T1317-8q-6 0-9 1-44 3-72.5 36.5T1210 107l35 429-143-8q55-113 55-240 0-216-148-372L872 53q91 101 91 235 0 145-102.5 248T613 639q-134 0-236-92L240 685q120 114 284 141l264 300-149 87-181-161q-33-30-77-27.5t-73 35.5-26.5 77 34.5 73l239 213q26 23 60 26.5t64-14.5l488-283q36-21 48-68 17-67-26-117L984 735l371 20q49 3 83-32zm-198 457q-74 0-126 52t-52 126 52 126 126 52 126.5-52 52.5-126-52.5-126-126.5-52zM613-62q106 0 196 61l139-139Q802-256 613-256q-148 0-273.5 73T141 15 68 288q0 188 116 336l139-139q-60-88-60-197 0-145 102.5-247.5T613-62z"/></svg>