<svg width="64" height="64" viewBox="0 0 2304 2304" xmlns="http://www.w3.org/2000/svg"><path d="M1494-103l-295 695q-25-49-158.5-305.5T842-103q-1-1-27.5-.5T788-102Q706 91 532.5 485T273 1081q-21 50-66.5 107.5T103 1289 1 1332q0 5-.5 24t-.5 27h583v-50q-39-2-79.5-16t-66.5-43-10-64q26-59 216.5-499T879 171q31 61 140 266.5T1150 685q-19 39-126 281t-136 295q-38 69-201 71v50l513-1v-47q-60-2-93.5-25t-12.5-69q33-70 87-189.5t86-187.5q110 214 173 363 24 55-10 79.5t-129 26.5q1 7 1 25v24q64 0 170.5.5t180 1 92.5.5v-49q-62-2-119-33t-90-81l-213-442q13-33 127.5-290T1572 214l441 1017q-14 38-49.5 62.5t-65 31.5-55.5 8v50l460-4 1-2-1-44q-139-4-201-145Q1576-28 1543-103h-49z"/></svg>