<svg width="64" height="64" viewBox="0 0 1792 1792" xmlns="http://www.w3.org/2000/svg"><path d="M948 508l163-329h-51L885 529 714 179h-49l179 374-78 33 21 49 240-102-21-50zm-385 592l304-130-130-304-304 130zm344-185l240-103-103-239-239 102zm281-150l191-81-82-190-190 81zm492-125q0 159-62 304t-167.5 250.5T1200 1362t-304 62-304-62-250.5-167.5T174 944t-62-304 62-304T341.5 85.5 592-82t304-62 304 62 250.5 167.5T1618 336t62 304zm112 0q0-182-71-348T1530 6t-286-191-348-71-348 71T262 6 71 292 0 640t71 348 191 286 286 191 348 71 348-71 286-191 191-286 71-348z"/></svg>