<svg width="128" height="128" viewBox="0 0 1027 1027" xmlns="http://www.w3.org/2000/svg"><path d="M603 0H431q-13 0-22.5 9T399 32v330H111q-13 0-22.5 9T79 394v103q0 13 9.5 22.5T111 529h288v85H111q-13 0-22.5 9T79 646v104q0 13 9.5 22.5T111 782h214L4 1360q-8 16 0 32 10 16 28 16h194q19 0 29-18l215-425q19-38 56-125 10 24 30.5 68t27.5 61l191 420q8 19 29 19h191q17 0 27-16 9-14 1-31L710 782h215q13 0 22.5-9.5T957 750V646q0-14-9.5-23t-22.5-9H635v-85h290q13 0 22.5-9.5T957 497V394q0-14-9.5-23t-22.5-9H635V32q0-13-9.5-22.5T603 0z"/></svg>