<svg width="64" height="64" viewBox="0 0 1536 1536" xmlns="http://www.w3.org/2000/svg"><path d="M971 292V81q0-67-39-67-23 0-45 22v301q22 22 45 22 39 0 39-67zm338-1v-46h-90v46q0 68 45 68t45-68zM343 509h107v94H138v-94h105V-60h100v569zM631-60h89v494h-89V56q-30-42-57-42-18 0-21 21-1 3-1 35v364h-89V43q0-49 8-73 12-37 58-37 48 0 102 61v-54zm429 148v197q0 73-9 99-17 56-71 56-50 0-93-54v217h-89V-60h89v48q45-55 93-55 54 0 71 55 9 27 9 100zm338 10v13h-91q0-51-2-61-7-36-40-36-46 0-46 69v87h179v103q0 79-27 116-39 51-106 51-68 0-107-51-28-37-28-116V100q0-79 29-116 39-51 108-51 72 0 108 53 18 27 21 54 2 9 2 58zm-608 913v210q0 69-43 69t-43-69v-210q0-70 43-70t43 70zm719-751q0-234-26-350-14-59-58-99t-102-46q-184-21-555-21t-555 21q-58 6-102.5 46T53-90Q27 22 27 260q0 234 26 350 14 59 58 99t103 47q183 20 554 20t555-20q58-7 102.5-47t57.5-99q26-112 26-350zM511 1536h102l-121-399V866H392v271q-14 74-61 212-37 103-65 187h106l71-263zm370-333v-175q0-81-28-118-38-51-106-51-67 0-105 51-28 38-28 118v175q0 80 28 117 38 51 105 51 68 0 106-51 28-37 28-117zm335 162V866h-91v55q-53-62-103-62-46 0-59 37-8 24-8 75v394h91V998q0-33 1-35 3-22 21-22 27 0 57 43v381h91z"/></svg>