<svg width="64" height="64" viewBox="0 0 1536 1536" xmlns="http://www.w3.org/2000/svg"><path d="M919 233v157q0 50-29 50-17 0-33-16V200q16-16 33-16 29 0 29 49zm184 122h66v34q0 51-33 51t-33-51v-34zM532 621v-70h-80V128h-74v423h-78v70h232zm201-126V128h-67v40q-39-45-76-45-33 0-42 28-6 17-6 54v290h66V225q0-24 1-26 1-15 15-15 20 0 42 31v280h67zm252-111V238q0-52-7-73-12-42-53-42-35 0-68 41v-36h-67v493h67V460q32 40 68 40 41 0 53-42 7-21 7-74zm251-129v-9q0-29-2-43-3-22-15-40-27-40-80-40-52 0-81 38-21 27-21 86v129q0 59 20 86 29 38 80 38t78-38q21-29 21-86v-76h-133v-65q0-51 34-51 24 0 30 26 0 1 .5 7t.5 16.5V255h68zm-451 824V923q0-51-32-51t-32 51v156q0 52 32 52t32-52zm533-713q0 177-19 260-10 44-43 73.5t-76 34.5q-136 15-412 15-275 0-411-15-44-5-76.5-34.5T238 626q-20-87-20-260 0-176 20-260 10-43 42.5-73T356-2q137-15 412-15t412 15q43 5 75.5 35t42.5 73q20 84 20 260zm-755 651l90 296h-75l-51-195-53 195h-78q7-23 23-69l24-69q35-103 46-158V816h74v201zm289-81v130q0 58-21 87-29 38-78 38-51 0-78-38-21-29-21-87V936q0-58 21-87 27-38 78-38 49 0 78 38 21 27 21 87zm181-120h67v370h-67V903q-22-31-42-31-15 0-16 16-1 2-1 26v272h-67V893q0-37 6-55 11-27 43-27 36 0 77 45v-40zm503 304V160q0-119-84.5-203.5T1248-128H288q-119 0-203.5 84.5T0 160v960q0 119 84.5 203.5T288 1408h960q119 0 203.5-84.5T1536 1120z"/></svg>