<svg width="64" height="64" viewBox="0 0 1120 1120" xmlns="http://www.w3.org/2000/svg"><path d="M0 1160q0 80 57 137t137 57q79 0 135.5-57t56.5-137-56.5-137T194 966q-80 0-137 57T0 1160zm94 0q0-42 29-71 30-30 71-30t71 30 30 71-30 71-71 30q-42 0-71-29.5T94 1160zm415-472q0-123 68-219 36-50 99-79.5T819 360q234 0 293 178 6 23-6.5 43.5T1070 606q-23 6-43-7t-25-36q0-1-1.5-5.5L998 550q-18-30-48-48-50-30-131-30-50 0-89 17-64 27-91 95-18 44-18 104v344q0 24 3 48 6 61 48 111 47 56 147 56 83 0 131-29 32-19 48-48 1-3 2.5-8.5t1.5-6.5q6-22 25-32.5t43-5.5q23 5 35.5 24.5t6.5 42.5v1l-9 25q-8 18-29.5 46t-48.5 47q-33 24-87.5 40T819 1359q-81 0-143.5-28.5T578 1253q-69-95-69-221V688z"/></svg>