<svg width="64" height="64" viewBox="0 0 2428 2428" xmlns="http://www.w3.org/2000/svg"><path d="M0 90q0 40 27 67 28 26 64 26h578q118 0 201.5-84.5T954-104q0-119-83-202.5T669-390t-203 84q-25 25-25 64t24.5 64.5T530-152q37 0 65-26 32-31 74-31t73 30.5 31 74.5q0 42-31 72.5T669-1H91Q54-1 27 25.5T0 90zm0 324q0 39 27 66 28 26 64 26h1125q42 0 73 31t31 74-31 73.5-73 30.5q-44 0-73-30-29-24-68-24t-63.5 24.5T987 749q0 40 24 65 81 81 205 81 119 0 202.5-83t83.5-201-83.5-201.5T1216 326H91q-38 0-64.5 25.5T0 414zm229 252q0-13 17-13h154q13 0 23 16 36 87 112 144t170 64l56 8q21 0 21 18l8 55q17 173 146.5 290.5T1242 1366q177 0 307-116.5T1697 958l8-63q0-18 18-18h173q145 0 248.5-102T2248 530t-103.5-245T1896 183h-737q-20 0-20-18V17q0-18 20-18h737q145 0 267.5 71t194 193.5T2429 530q0 145-71.5 267t-194 193-267.5 71h-33q-50 213-223.5 349T1242 1546q-226 0-400-140.5T621 1046q-137-32-243-131.5T231 679v-4q-2-5-2-9z"/></svg>