<svg width="64" height="64" viewBox="0 0 2539 2539" xmlns="http://www.w3.org/2000/svg"><path d="M0 87q0 39 27 65t67 26h957q38 0 63-25.5t25-65.5q0-38-25.5-63.5T1051-2H94Q54-2 27 23.5T0 87zm281 326q0 38 29 64 23 24 63 24h960q37 0 61.5-25t24.5-63-24.5-65-61.5-27H373q-37 0-64.5 27.5T281 413zm66 249q0-15 18-15h152q15 0 25 15 36 87 111 144t168 64l58 7q18 0 18 19l7 55q18 174 148.5 290t306.5 116q174 0 302-114.5T1811 954l8-63q0-17 19-17h171q145 0 247.5-102T2359 525q0-140-104-243.5T2009 178h-735q-19 0-19-18V17q0-19 19-19h735q108 0 206.5 41.5t169 112.5T2497 320.5t42 204.5q0 144-70.5 265.5t-192.5 192-267 70.5h-33q-52 215-224.5 351.5T1359 1541q-227 0-401.5-141.5T736 1038q-138-31-242-129.5T349 672v-2q-2-4-2-8zm122-905q0 39 28 64 24 25 63 25h959q39 0 65.5-25.5T1611-243t-27-65-65-27H560q-37 0-64 27t-27 65z"/></svg>