<svg width="64" height="64" viewBox="0 0 2885 2885" xmlns="http://www.w3.org/2000/svg"><path d="M0 523q0-212 146-363T506-1q19 0 19 18v142q0 19-19 19-137 7-231 106.5T181 523q0 135 90 234t224 110l56 8q17 0 17 15l8 59q20 175 147.5 290t302.5 115 305.5-115T1479 952l7-62q4-18 23-18h171q142 0 244-102.5T2026 523q0-139-94-238.5T1701 178q-21 0-21-19V17q0-18 21-18 213 7 359 159t146 365q0 108-41 214 124 154 124 357 0 113-44 216.5T2126 1489t-178.5 119.5T1730 1653q-246 0-412-186-143 70-292 70-226 0-398.5-140T406 1037q-180-41-293-184.5T0 523zm571-750q0-27 17.5-54t50.5-37q37-11 68.5 4t42.5 60l15 65q8 36-10.5 67.5T699-79q-36 11-68-8t-42-57l-15-63q-3-9-3-20zm82 309q0-35 26-61 25-27 60-27 38 0 64.5 25.5T830 82t-26.5 62.5T739 170q-37 0-61.5-25T653 82zm65 243q-2-25 14-48.5t51-34.5q33-10 66.5 7.5T894 304l29 96q12 39-7 69.5T858 511q-35 11-67.5-7T747 451l-26-98q-3-27-3-28zm123-885q0-27 17-52.5t52-35.5q13-3 26-3 69 0 85 65l14 63q10 41-9 73t-56 39q-34 11-67-7.5T859-473l-14-63q-4-18-4-24zm60 2394q0-38 26-64l70-68q22-25 57.5-27.5t66.5 27.5q26 26 26 63 0 38-26 64l-67 69q-25 25-63 28-37 0-63.5-27t-26.5-65zm24-2084q0-36 26-62t62-26q38 0 63 25t25 63q0 37-25 62t-63 25-63-25-25-62zM991-8q-2-24 14.5-50t48.5-32q37-10 68 6t44 60l28 96q11 35-7.5 67t-56.5 43q-35 11-68-8.5t-44-56.5l-24-96q-3-14-3-29zm295-229q0-27 16-51.5t49-34.5q5 0 15-2t15-2q65 0 81 70l15 64q11 34-7.5 67T1415-82q-40 10-72.5-8.5T1299-147l-10-63q0-2-1.5-12t-1.5-15zm79 315q0-37 26-61 24-26 62-26t63 25 25 62q0 38-25 63t-63 25-63-25-25-63zm65 247q0-27 17-51.5t52-34.5q3 0 13-2t15-2q17 0 39 10 33 17 43 56l26 96q10 36-7.5 67.5T1574 507q-37 11-68.5-6t-42.5-54l-30-97q0-3-1.5-11.5T1430 325zm37 1036q106 106 263 106 158 0 269-108.5t111-264.5q0-106-57-200-157 157-373 157h-33q-45 175-180 310zm176 562q0-37 24.5-61.5t62.5-24.5q39 0 66 24.5t27 61.5v220q0 37-27.5 64t-65.5 27q-37 0-62-26.5t-25-64.5v-220zm589-242q0-40 24-64 57-57 129 0l153 153q27 27 27 67 0 38-26.5 64.5T2474 1928q-37 0-65-26l-153-158q-24-23-24-63zm83-1264q0-37 29-63l65-67q32-26 65-26 32 0 64 26 27 25 27 63 0 36-27 66l-69 65q-24 27-61 27t-64-27q-29-27-29-64zm158 677q0-38 28-63 29-29 66-29h216q37 0 62.5 27t25.5 65-25.5 64.5-62.5 26.5h-216q-38 0-66-27t-28-64z"/></svg>