<svg width="64" height="64" viewBox="0 0 842 842" xmlns="http://www.w3.org/2000/svg"><path d="M3 781v2q-1 13 .5 39T14 908t26.5 123T95 1175t87.5 154T316 1477.5 501 1610q25 14 52.5 6t40.5-33q14-25 6.5-53t-32.5-42q-210-115-323-325 86 40 174 40 172 0 295-122.5T837 786q0-13-.5-25.5t-4.5-55-12-82-25-99-40.5-113-62-117.5-86-119.5T491 62.5 343-39q-15-9-33-9-41 0-62 37-14 25-6 52.5T275 82q215 120 326 329-87-41-182-41-111 0-206.5 55t-152 150T3 781zm181 5q0-98 69-167t166-69q91 0 158.5 60.5T655 761l1 24q0 4 1 5-1 96-70.5 162.5T419 1019q-89 0-155.5-58T186 816l-2-27v-3z"/></svg>