<svg width="64" height="64" viewBox="0 0 2632 2632" xmlns="http://www.w3.org/2000/svg"><path d="M0 99q0-36 27-61t66-25h1985q38 0 64.5 25t26.5 61q0 39-26 65.5t-65 26.5H93q-38 0-65.5-27T0 99zm278 332q0-38 28-63 22-29 63-29h1985q37 0 62 27t25 65q0 37-25 62t-62 25H369q-38 0-64.5-25T278 431zm16 258v5q-7-24 13-24h154q9 0 20 16 38 83 113.5 136T760 882l57 8q20 0 20 19l6 53q17 172 145.5 287.5T1291 1365q172 0 301-114t147-285l7-61q0-19 22-19h169q103 0 187-55t125-145q11-16 23-16h151q19 0 16 24-35 89-49 113 116 104 160 274l18 70q4 10-1.5 17t-12.5 7l-66 23q-143 41-217.5 169t-39.5 273l14 62q8 15-14 25l-90 25q-175 43-343-28t-263-226q-127 49-244 49-222 0-395.5-140T672 1050q-135-32-236.5-129T294 689zm169-915q0-38 28-63 27-29 63-29h1989q37 0 63 27t26 65q0 37-26 62t-63 25H554q-38 0-64.5-25T463-226zm1227 1629q56 92 150.5 142t199.5 40q-11-167 75-312.5t237-215.5q-24-56-80-114-147 121-335 121h-34q-51 210-213 339z"/></svg>