<svg width="64" height="64" viewBox="0 0 2331 2331" xmlns="http://www.w3.org/2000/svg"><path d="M0 528q0-213 149-366.5T512-2q19 0 19 18v143q0 18-19 18-137 8-233.5 110T182 528q0 133 90.5 231.5T497 874l57 4q21 0 21 18l7 58q17 173 147 290.5t305 117.5q174 0 305-117.5T1488 954l8-61q0-19 18-19h173q143 0 247.5-102.5T2039 528q0-139-96.5-241T1709 177q-22 0-22-18V16q0-18 22-18 213 7 361 161.5T2218 528q0 141-73 262 129 117 169 279l15 77q2 1 2 7 0 12-17 17l-60 19q-91 26-156 88.5t-92.5 131.5-27.5 137q-3 36 9 88l15 65q7 16-15 26l-84 26q-72 16-135 16-60 0-122-14t-128-43.5-128-85-107-130.5q-132 48-249 48-226 0-401.5-140.5T407 1042q-177-41-292-185T0 528zm593-729q0-27 17.5-52.5T663-289q37-11 68.5 4.5T774-225l153 626q10 40-9 72t-56 39q-35 11-67.5-7T751 451L597-178q0-2-2-10t-2-13zm278-328q0-25 16.5-49t47.5-33q18-4 26-4 70 0 87 63l240 953q10 39-7.5 69.5T1227 512q-37 11-70.5-7.5T1115 451L874-501q0-2-1.5-12.5T871-529zm444 319q0-57 67-79 22-6 32-6 18 0 37 8 33 13 42 62l153 626q10 38-8 69t-54 42q-37 11-70-7t-41-54l-153-629q-5-27-5-32zm126 1605q51 93 139.5 141.5T1768 1583q19 0 29-1v-32q-2-155 82-293t236-210q-36-73-84-114-147 121-344 121h-33q-44 203-213 341z"/></svg>