<svg width="64" height="64" viewBox="0 0 2297 2297" xmlns="http://www.w3.org/2000/svg"><path d="M0 529q0-213 149-366.5T512-1q19 0 19 18v143q0 18-19 18-137 8-233.5 110T182 529q0 133 90.5 231T497 874l56 4q21 0 21 19l8 58q17 173 146.5 290t304.5 117q174 0 305-117t149-290l8-61q0-20 18-20h173q145 0 248-101.5T2037 529q0-138-97-240.5T1706 178q-20 0-20-18V17q0-18 20-18 214 7 362.5 161.5T2217 529q0 114-46 214 126 154 126 354 0 152-75.5 281.5T2017 1583t-280 75q-248 0-415-185-129 69-289 69-226 0-401-140.5T407 1043q-177-42-292-185.5T0 529zM681 90q0-35 26-61 27-27 62-27 37 0 62.5 25T857 90t-25 63-63 25-63-25-25-63zm0-387q0-38 26-62 26-26 62-26 38 0 63 25t25 63-25.5 64.5T769-206t-62.5-26.5T681-297zm341 185q0-37 27-65.5t62-28.5q37 0 64 28t27 66q0 35-27 61.5T1111-24q-35 0-62-26.5t-27-61.5zm0 383q0-36 26-62t63-26q38 0 64.5 25.5T1202 271t-26.5 63.5T1111 361q-36 0-62.5-26.5T1022 271zm0-775q0-37 26.5-64t62.5-27q37 0 64 26.5t27 64.5q0 35-27 61.5t-64 26.5q-35 0-62-26.5t-27-61.5zm345 594q0-33 26-61 27-27 64-27t62.5 25 25.5 63-25 63-63 25-64-25-26-63zm0-387q0-36 26-62t64-26 63 25 25 63-25.5 64.5T1457-206t-63.5-26.5T1367-297zm105 1666q108 108 265 108t266.5-111 109.5-269q0-94-54-196-154 154-373 154h-33q-47 186-181 314z"/></svg>