<svg width="64" height="64" viewBox="0 0 2564 2564" xmlns="http://www.w3.org/2000/svg"><path d="M0 89q0-37 29-64Q56-2 94-2h612q42 0 73.5-30.5T811-105q0-43-31.5-74T706-210q-41 0-73 32-29 26-65 26-38 0-64-26t-26-64q0-36 26-64 84-84 202-84t201.5 83T991-105q0 118-83.5 202T706 181H94q-38 0-66-27.5T0 89zm0 322q0-35 29-62 28-26 65-26h1157q118 0 201.5 83t83.5 201-83.5 200.5T1251 890q-122 0-202-81-24-25-24-65t24.5-64 62.5-24 66 24q30 30 73 30 41 0 72-30t31-73q0-42-31-73t-72-31H94q-38 0-66-27.5T0 411zm269 251q0-14 17-14h153q13 0 23 16 36 87 111.5 143.5T742 871l56 8q20 0 20 18l8 55q17 173 147 289.5t305 116.5 304.5-116T1730 952l7-62q0-19 20-19h173q145 0 247-101t102-243-102.5-244T1930 181h-737q-18 0-18-19V16q0-18 18-18h737q143 0 264.5 71T2387 262t71 265q0 141-73 264 117 113 161 275l16 72q3 3 3 8 0 7-15 17l-64 22q-134 41-204.5 145t-70.5 215q0 39 10 84l14 66q4 16-14 24l-85 26q-70 17-133 17-59 0-120-14t-125.5-43.5-125.5-85-107-130.5q-113 48-247 48-226 0-399.5-140T658 1040q-137-32-242-131T271 674v-3q-2-3-2-9zm1411 735q50 88 138 134.5t182 46.5q22 0 33-1-2-14-2-38 0-151 84-289t232-207q-25-60-80-110-142 122-337 122h-35q-43 201-215 342z"/></svg>