<svg width="64" height="64" viewBox="0 0 2328 2328" xmlns="http://www.w3.org/2000/svg"><path d="M0 529q0-177 106-316.5T381 22l-69-181q-7-22 15-22h226L415-627h30L896-27q6 7 2 14.5T883-5H651l264 495q11 23-14 23H585q-14 0-24-16L447 190q-114 29-189.5 124.5T182 529q0 133 90.5 231T497 874l56 8q21 0 21 19l8 54q17 173 146.5 290t304.5 117q174 0 305-117.5T1487 955l8-61q0-20 18-20h173q145 0 248-101.5T2037 529q0-136-96-236t-235-110q-20 0-20-20V18q0-19 20-19 213 7 361.5 161.5T2216 529q0 139-70 261 122 118 161 280l20 73q1 1 1 7 0 13-16 17l-66 18q-92 27-156 89.5t-90.5 130T1974 1539q0 44 11 91l12 65q4 16-15 25l-85 26q-75 15-132 15-59 1-120.5-12.5t-126.5-43-125.5-84T1287 1493q-136 49-254 49-226 0-401-140.5T407 1043q-177-42-292-185.5T0 529zM872-523q0-25 16.5-50t48.5-35q25-5 29-5 15 0 39 11 33 16 45 56l30 112q10 35-8.5 67.5T1015-323q-35 10-67.5-9T904-389l-29-107q0-3-1-8.5t-1.5-10-.5-8.5zm143 507q0-69 65-80 22-5 29-5 60 0 82 67l32 109q10 35-9 67.5t-57 43.5q-36 11-68.5-7.5T1045 122l-27-108q-3-14-3-30zm299-178q2-27 19-51.5t51-36.5q26-6 35-6 55 0 76 72l26 109q11 37-6.5 70T1461 7q-40 10-72.5-9T1349-59l-31-110q0-4-2-12.5t-2-12.5zm126 1589q53 89 143 137.5t188 48.5h23v-34q0-102 36-198t108.5-177 171.5-129q-27-60-81-110-146 125-343 125h-35q-45 201-211 337zm21-1077q0-69 69-88 22-4 32-4 58 0 79 69l30 111q1 8 1 23 2 27-15 52.5t-52 35.5q-2 0-10.5 1.5T1581 520q-26 0-51-16.5t-35-50.5l-31-109q0-1-1.5-11t-1.5-15z"/></svg>