<svg width="64" height="64" viewBox="0 0 2681 2681" xmlns="http://www.w3.org/2000/svg"><path d="M0 91q0-40 29-64Q56-1 94-1h1018q37 0 62.5 27t25.5 65-25.5 65-62.5 27H94q-38 0-66-27.5T0 91zm281 323q0-36 29-62 26-26 64-26h1019q38 0 63 25t25 63-25.5 64.5T1393 505H374q-38 0-65.5-27T281 414zm122 249q0-12 21-12h152q14 0 24 15 36 87 112 144t169 64l58 8q19 0 19 19l8 54q17 173 147 290t306 117 306-116 148-291l8-61q0-20 18-20h173q146 0 248.5-101T2423 529q0-142-102.5-244T2072 183h-737q-18 0-18-18V18q0-19 18-19h737q145 0 267.5 71t194 193 71.5 266q0 113-47 214 123 161 123 351 0 152-75.5 281.5T2401 1580t-282 75q-244 0-410-178-136 65-290 65-149 0-280.5-63t-221-177T797 1043q-140-32-244.5-128.5T407 683zm66-902q0-37 28-62 26-26 64-26h1020q38 0 64.5 25t26.5 63-27 65-64 27H561q-37 0-64.5-27.5T469-239zm1387 1608q108 104 263 104 158 0 269-110.5t111-268.5q0-101-52-189-157 153-375 153h-34q-39 175-182 311z"/></svg>