<svg width="64" height="64" viewBox="0 0 2293 2293" xmlns="http://www.w3.org/2000/svg"><path d="M0 526q0-105 40-200.5T148.5 160 312 47 512-1q19 0 19 18v143q0 18-19 18-136 7-232.5 109.5T183 526t90 235 224 110l57 7q16 0 16 16l8 57q18 175 149 291.5t307 116.5q174 0 304.5-115.5T1488 955l7-61q0-20 19-20h173q142 0 244-102t102-246q0-136-95-238.5T1707 178q-20 0-20-18V17q0-18 20-18 214 10 362 162t148 365q0 103-44 213 121 159 121 351 0 151-75.5 280.5t-204.5 205-280 75.5q-245 0-412-178-139 69-288 69-227 0-402-141t-224-361q-181-42-294.5-183.5T0 526zm575-720q0-27 15.5-51.5T642-282q18-9 39.5-7.5t43 21T754-217l30 108q10 40-8.5 72T719 2q-34 11-67-7.5T608-59l-30-111q-3-14-3-24zm140 509q1-31 18-55.5t51-29.5q28-5 32-5 60 0 81 70l30 107q10 37-8.5 70.5T862 517q-36 10-68-8.5T751 453l-32-112q-4-20-4-26zm132-843q0-28 16.5-53t51.5-35q23-5 30-5 14 0 40 11 27 13 41 59l32 108q10 40-9 72.5T993-331q-35 11-68.5-7.5T880-393l-30-111q-3-14-3-24zM989-16q0-27 17-52.5t52-35.5q36-11 67.5 5t43.5 60l30 108q11 40-7.5 71t-56.5 38q-35 12-68-6.5t-44-54.5L993 6q-4-14-4-22zm304-186q-2-25 14.5-49.5T1357-287l27-3q18-1 40 8 34 13 45 58l30 112q11 37-7.5 68.5T1437-1q-40 10-71.5-9T1327-67l-31-107q-3-27-3-28zm144 512q0-28 17.5-53t51.5-32q3 0 8.5-1t10-1.5 8.5-.5q69 0 86 66l30 110q10 40-9 72t-57 39q-37 11-68.5-7.5T1473 445l-32-109q-4-18-4-26zm36 1056q107 103 261 103 156 0 266-111.5t110-267.5q0-102-51-189-154 154-372 154h-34q-39 175-180 311z"/></svg>