<svg width="64" height="64" viewBox="0 0 2294 2294" xmlns="http://www.w3.org/2000/svg"><path d="M0 529q0-213 148.5-366T511-1q19 0 19 19v142q0 19-19 19-137 7-233 109t-96 241q0 133 90 231t224 114l56 8q21 0 21 19l8 54q17 173 146.5 289.5T1032 1361q174 0 305-117t149-289l7-62q0-19 19-19h173q145 0 247-101t102-244q0-139-96-241t-233-109q-20 0-20-19V18q0-19 20-19 140 5 257.5 77t185 192.5T2215 529q0 118-46 214 126 153 126 354 0 151-75.5 280T2015 1581.5t-280 75.5q-249 0-414-185-131 70-289 70-226 0-401-140.5T406 1043q-176-42-291-185.5T0 529zm573-744q14-35 49-49 32-16 66.5-2.5T736-219q14 35 1 69.5T690-99q-32 13-65.5-1T575-146q-16-27-2-69zm67 302q0-25 16.5-49T706 5q36-11 69 6t46 59l105 332q12 39-8 71t-59 40q-35 11-66.5-6.5T750 453L643 114q0-3-1-8.5t-1.5-10-.5-8.5zm199-598q0-11 6-31 15-36 49-48 13-8 35-8 10 0 32 6 35 13 50.5 48.5t-.5 70.5-48 49-66 1q-31-13-44.5-38.5T839-511zm79 285q0-28 16-51t51-30q3 0 12-2t14-2q69 5 86 66l188 647q11 39-6.5 69.5T1225 513q-37 11-69-6.5t-43-53.5L921-194q0-4-1-10.5t-1.5-12-.5-9.5zm367 43q0-16 5-34 13-34 49-47 15-7 38-7 19 0 31 6 36 14 49 46 13 35 .5 69T1413-99q-35 13-69.5-1t-50.5-46q-8-17-8-37zm76 271q0-57 66-80 22-6 32-6 19 0 36 9 28 14 43 59l105 332q12 37-6.5 68.5T1582 513q-37 11-68-6.5t-43-53.5l-105-334q-5-27-5-31zm110 1281q110 106 264 106 156 0 266.5-111t110.5-267q0-99-55-196-157 157-372 157h-35q-49 185-179 311z"/></svg>