<svg width="64" height="64" viewBox="0 0 2884 2884" xmlns="http://www.w3.org/2000/svg"><path d="M0 528q0 185 113.5 328T406 1039q37 165 149.5 288.5T825 1504q99 34 206 34 130 0 251-51 45 75 105.5 130t125 84.5T1638 1745t120 14q61 0 131-17l87-27q22-9 15-24l-15-64q-11-50-11-92 0-50 15.5-101t46.5-100 85-89 123-61l66-23q16-4 16-17 0-3-2-7l-19-72q-44-172-160-274 64-112 69-239 1-8 1-24 0-143-71-264.5T1942.5 71 1678 0H525Q382 0 261 71T70 263.5 0 528zm182 0q0-142 102-246t241-104h1153q142 0 243.5 103T2023 528q0 140-102 241.5T1678 871h-190l-11 80q-16 162-134 276.5T1062 1355q-5 0-15.5 1t-15.5 1q-81 0-164-31v2q-117-45-196.5-146T575 951l-7-77-73-3q-135-16-224-113t-89-230zm1253 865q170-145 210-339h34q199 0 338-126 53 50 81 114-146 69-230 210t-84 297v26q-8 1-26 1-93 2-181-46.5T1435 1393z"/></svg>