<svg width="64" height="64" viewBox="0 0 2294 2294" xmlns="http://www.w3.org/2000/svg"><path d="M0 533q0-176 106.5-317.5T381 24l-69-177q-7-22 15-22h226L431-611h31L897-25q6 7 1.5 15T883-2H651l264 498q12 23-14 23H585q-15 0-20-15L447 192q-114 29-189.5 125T182 533q0 134 90.5 233.5T497 878l56 7q21 0 21 18l8 55q17 174 146.5 290.5T1034 1365q175 0 305-116.5T1488 958l7-62q0-18 19-18h173q145 0 248-101.5T2038 533q0-137-96-237.5T1707 185q-20 0-20-19V19q0-18 20-18 213 7 361.5 162T2217 533q0 116-44 213 122 160 122 351 0 114-45 217.5T2130 1493t-179 119.5-217 44.5q-118 0-226-48t-186-134q-131 70-288 70-227 0-402-139.5T407 1046q-177-41-292-185T0 533zM872-520q0-28 17-54.5t49-32.5q3 0 8.5-1t10-1.5 8.5-.5q68 5 85 65l31 113q10 35-9.5 67.5T1015-321q-35 10-67.5-9T904-387l-27-107q-5-25-5-26zm143 509q0-24 16.5-48t49.5-36q35-12 67 5.5t43 56.5l32 111q10 40-8.5 72t-56.5 39q-36 11-68.5-7.5T1045 125l-27-109q0-3-1-8.5t-1.5-10-.5-8.5zm302-173q0-30 17-55.5t50-34.5q25-5 29-5 63 0 82 64l26 113q11 35-6 67t-53 44q-40 10-73-9.5T1349-57l-30-106q-2-8-2-21zm145 506q0-26 17-50.5t52-36.5q27-3 28-3 19 0 40 9 31 16 42 56l31 111q10 35-9.5 67.5T1606 519q-36 11-68-7.5t-43-56.5l-30-109q-3-14-3-24zm11 1051q106 102 261 102 157 0 267-110.5t110-267.5q0-101-52-190-158 154-372 154h-34q-49 185-180 312z"/></svg>