<svg width="64" height="64" viewBox="0 0 2296 2296" xmlns="http://www.w3.org/2000/svg"><path d="M-2 529q0-213 148.5-366.5T510-1q18 0 18 18v146q0 20-18 20-140 10-235.5 110T179 529q0 135 91 234.5T495 874l56 7q20 0 20 20l7 53q17 173 147 290t306 117q175 0 305-116.5T1485 954l6-61q0-19 20-19h171q145 0 248-101.5T2033 529q0-136-95-236t-234-110q-22 0-22-20V17q0-18 22-18 213 7 361.5 161.5T2214 529q0 118-46 214 126 153 126 358 0 151-75.5 280.5t-204.5 205-280 75.5q-244 0-419-187-132 67-284 67-226 0-401.5-140T405 1043q-177-42-292-185.5T-2 529zm633-94q0-60 45.5-104T785 287t106.5 43T935 435q0 41-37.5 109T827 651q-3 4-19.5 21.5T785 698l-38-43q-44-48-80-112.5T631 435zM950 10q0-101 73.5-175t175.5-74q103 0 177 74t74 175q0 43-25 103t-60 111q-74 95-138 159-9 7-28 26l-62-62q-71-68-129-166.5T950 10zm157 715q0-43 30-71.5t76-28.5q41 0 70 28.5t29 71.5q0 65-99 172l-27-28q-30-32-54.5-74.5T1107 725zm362 644q107 106 265 106 156 0 266-109t110-265q0-101-54-197-160 154-374 154h-33q-45 188-180 311z"/></svg>