<svg width="64" height="64" viewBox="0 0 2282 2282" xmlns="http://www.w3.org/2000/svg"><path d="M0 529q0-143 70-264.5T261 72 525 1h1153q143 0 264.5 71T2135 264.5t71 264.5q0 102-45 213 121 148 121 352 0 152-74 280.5T2005.5 1578t-280.5 75q-239 0-413-186-122 69-287 69-225 0-397.5-139T406 1040q-179-40-292.5-183T0 529zm182 0q0 133 89 230t224 113l73 3 7 77q22 173 150 289.5t300 116.5q175 0 305-117t147-289l11-80h190q141 0 243-101.5T2023 529q0-144-101.5-247T1678 179H525q-139 0-241 104T182 529zm1283 836q110 106 260 106 158 0 268.5-109.5T2104 1094q0-99-55-196-153 153-371 153h-33q-44 178-180 314z"/></svg>