<svg width="64" height="64" viewBox="0 0 2330 2330" xmlns="http://www.w3.org/2000/svg"><path d="M0 531q0-178 106-317.5T381 23l-70-180q-4-22 16-22h226L449-553h31L897-26q6 8 1.5 15.5T883-3H651l264 494q11 23-14 23H585q-14 0-24-15L447 192q-115 29-190 124.5T182 531q0 133 90.5 231.5T497 877l56 8q21 0 21 18l8 55q17 173 146.5 290t304.5 117q173 0 304.5-117.5T1488 958l7-63q0-18 19-18h173q145 0 248-101.5T2038 531q0-136-96-236t-235-111q-20 0-20-18V19q0-19 20-19 140 5 257.5 77t185 192.5T2217 531q0 139-70 261 127 121 166 280l15 77q2 2 2 8 0 11-17 16l-60 19q-91 26-156 87.5t-92.5 131.5-27.5 141q0 42 9 85l15 65q7 16-15 25-34 14-96.5 28t-122.5 14q-58 0-119-14t-126.5-43.5-127.5-85-107-130.5q-132 48-254 48-226 0-401-140t-225-358q-177-42-292-186T0 531zM864-517q0-26 15.5-49.5T927-599q17-3 32-3 65 0 81 67l247 938q10 38-7.5 69.5T1226 514q-37 11-69.5-6.5T1114 455L867-488q-3-14-3-29zm445 322q0-26 15.5-49t49.5-33q5 0 16.5-1.5t17.5-1.5q61 0 77 67l160 616q10 39-8 70t-54 41q-37 11-69-6t-42-53l-160-621q-3-17-3-29zm132 1593q53 91 141.5 139t187.5 48q20 0 29-1v-34q0-154 83.5-291t231.5-210q-29-67-84-114-147 126-343 126h-34q-45 199-212 337z"/></svg>