<svg width="64" height="64" viewBox="0 0 2328 2328" xmlns="http://www.w3.org/2000/svg"><path d="M0 529q0-177 106-316.5T381 22l-69-181q-7-22 15-22h226L415-627h30L896-27q6 7 2 14.5T883-5H651l264 495q11 23-14 23H585q-14 0-24-16L447 190q-114 29-189.5 124.5T182 529q0 133 90.5 231T497 874l56 8q21 0 21 19l8 54q17 173 146.5 290t304.5 117q174 0 305-117.5T1487 955l8-61q0-20 18-20h173q145 0 248-101.5T2037 529q0-136-96-236t-235-110q-20 0-20-20V18q0-19 20-19 213 7 361.5 161.5T2216 529q0 139-70 261 122 118 161 280l20 73q1 1 1 7 0 13-16 17l-66 18q-92 27-156 89.5t-90.5 130T1974 1539q0 44 11 91l12 65q4 16-15 25l-85 26q-75 15-132 15-59 1-120.5-12.5t-126.5-43-125.5-84T1287 1493q-136 49-254 49-226 0-401-140.5T407 1043q-177-42-292-185.5T0 529zm1023-647q0-39 26-63 26-26 62-26 38 0 65 26t27 63q0 38-27 65.5T1111-25q-35 0-61.5-27.5T1023-118zm0 388q0-38 26-62 26-26 62-26 39 0 65.5 25t26.5 63q0 37-27 63.5t-65 26.5q-36 0-62-26.5t-26-63.5zm0-780q0-35 26-61 27-27 62-27 38 0 65 25.5t27 62.5q0 38-27 65.5t-65 27.5q-35 0-61.5-27.5T1023-510zm345 599q0-38 26.5-64.5T1458-2t62.5 26.5T1546 89q0 36-25.5 62t-62.5 26-63.5-26-26.5-62zm0-388q0-36 26-62t64-26 63 25.5 25 62.5q0 38-25 63t-63 25-64-25-26-63zm72 1694q53 89 143 137.5t188 48.5h23v-34q0-102 36-198t108.5-177 171.5-129q-27-60-81-110-146 125-343 125h-35q-45 201-211 337z"/></svg>