<svg width="64" height="64" viewBox="0 0 1755 1755" xmlns="http://www.w3.org/2000/svg"><path d="M0 239Q0 84 113.5-29.5T382-143h731q155 0 265.5 112T1489 239q0 77-22 131 133 85 210.5 226.5T1755 899q0 130-50.5 248.5t-136.5 204-204 136.5-247 51q-175 0-322.5-86t-232-233T478 899v-36q-161-92-212-266-121-38-193.5-135T0 239zm211 0q0 67 43 115t109 54l67 9q20 0 20 24l11 60q11 92 77.5 154T696 717q93 0 161.5-62T937 501l9-69q10-24 27-24h140q69 0 119.5-50t50.5-119q0-72-50.5-123T1113 65H382q-72 0-121.5 51T211 239zm472 682q11 175 135.5 294t298.5 119q178 0 302.5-127T1544 899q0-112-54-207.5T1343 537q-94 78-217 78-47 140-164.5 223T696 921h-13z"/></svg>