<svg width="64" height="64" viewBox="0 0 2213 2213" xmlns="http://www.w3.org/2000/svg"><path d="M0 525q0-179 104.5-318.5T377 16q14-3 26 8l124 153q-142 0-243 102T183 525q0 135 90 234.5T497 870l56 7q17 0 17 14l8 59q20 176 148.5 291.5T1030 1357q176 0 306.5-116.5T1483 950l8-62q4-18 23-18h173q144 0 245-101t101-244q0-133-90-232.5T1722 177q-19 0-52-6-31-3-44-24l-252-298q-23-29-17.5-67t33.5-61q17-20 60-20 42 0 65 37L1741-2q199 20 336 172t137 355q0 108-41.5 206t-112 168.5-168 112.5-205.5 42h-34q-53 212-226.5 347.5T1030 1537q-149 0-280.5-63.5t-221.5-177T407 1038q-180-40-293.5-183.5T0 525zm361-855q0-10 6-32 14-34 47-47 35-16 71-2t49 48q16 35 2 69t-49 46q-36 17-69 3t-49-50q-8-17-8-35zM558-70v-11q3-36 32-60 36-20 66-20 36 0 65 35l248 295q23 28 21 70-4 34-29.5 57T905 319q-9 0-15-1-37-7-60-35L578-13q-20-23-20-57zm82-503q0-19 8-34 13-34 47-50 17-8 35-8 20 0 33 8 37 15 50 44 16 35 2.5 71T768-493q-35 16-71.5 2T648-539q-8-15-8-34zm178 250v-12q4-35 33-58.5t59-23.5q36 0 67 35l464 559q18 20 18 55v13q-4 36-29 57t-56 21h-14q-37-2-59-33L837-265q-19-28-19-58zm375-123q0-14 6-32 14-35 49-50 22-6 33-6 23 0 36 8 36 14 49 45 16 27 2 71-13 33-47 47l-38 10q-14-3-34-8-35-13-48-47-8-19-8-38z"/></svg>