<svg width="64" height="64" viewBox="0 0 1816 1816" xmlns="http://www.w3.org/2000/svg"><path d="M0 1000q0 150 94.5 268.5T334 1419q41 180 184.5 295T847 1829q180 0 322-112.5t184-286.5h29q180 0 307-125.5t127-304.5q0-96-39.5-181.5T1667 672v-3q0-95-59.5-169.5T1458 405q-23-100-97-169t-174-85q46-55 46-121 0-77-54.5-132T1047-157t-131.5 55T861 30q0 31 11 61h-11q-93 0-160 67t-67 160q0 64 32 114-83 46-120 133H410v1q-172 11-291 136T0 1000zm149 26q0-128 90-218t217-90q79 0 146 36 19-119 111-198t216-79q139 0 237 98 66-76 164-76 91 0 155.5 64.5T1550 719q64 43 101 110.5t37 146.5q0 127-91 215.5t-219 88.5q-89 0-163-47 9 39 9 84 0 154-110 262t-266 108q-150 0-259-104t-114-253q-3 0-9 .5t-10 .5q-126 0-216.5-89.5T149 1026z"/></svg>