<svg width="64" height="64" viewBox="0 0 1609 1609" xmlns="http://www.w3.org/2000/svg"><path d="M0 794q0 31 21 53t51 22q31 0 52-22t21-53q0-30-21.5-51T72 722t-51 21.5T0 794zm211 0q0 31 21 53t51 22h344l-243 243q-22 20-22 50.5t22 52.5 52 22 52-22l242-242v342q0 31 22 53t53 22q30 0 51-22t21-53V970l244 245q22 22 52 22t52-22q19-22 19-52.5t-19-50.5L982 869h344q29 0 50.5-22t21.5-53q0-29-21.5-50.5T1326 722H981l244-244q19-20 19-50t-19-52q-23-22-52.5-22t-51.5 22L877 621V275q0-31-21-52.5T805 201q-31 0-53 21.5T730 275v343L488 376q-22-22-52-22t-52 22-22 52 22 50l245 244H283q-30 0-51 21.5T211 794zm2-516.5q0 29.5 22 51.5 20 22 50.5 22t52.5-22 22-51.5-22-51.5-52.5-22-50.5 22q-22 22-22 51.5zm0 1036q0 29.5 22 51.5 20 22 50.5 22t52.5-22 22-51.5-22-52.5q-22-22-52.5-22t-50.5 22q-22 23-22 52.5zM730 64q0 29 22 50.5t53 21.5q30 0 51-21.5T877 64q0-31-21-52.5T805-10q-31 0-53 21.5T730 64zm0 1463q0 31 22 52.5t53 21.5q30 0 51-21.5t21-52.5q0-29-21-50.5t-51-21.5q-31 0-53 21.5t-22 50.5zm519-1249.5q0 29.5 22 51.5 20 22 50.5 22t52.5-22 22-51.5-22-51.5-52.5-22-50.5 22q-22 22-22 51.5zm0 1036q0 29.5 22 51.5 20 22 50.5 22t52.5-22 22-51.5-22-52.5q-22-22-52.5-22t-50.5 22q-22 23-22 52.5zM1463 794q0 31 21.5 53t52.5 22q29 0 50.5-22t21.5-53q0-29-21.5-50.5T1537 722q-31 0-52.5 21.5T1463 794z"/></svg>