<svg width="64" height="64" viewBox="0 0 2210 2210" xmlns="http://www.w3.org/2000/svg"><path d="M0 527q0 184 115 327.5T406 1039q49 218 224 357.5t401 139.5q220 0 392-136t225-350h33q143 0 265-69.5t193-190 71-263.5q0-214-147.5-368T1702-2q-21 0-21 18v142q0 19 21 19 137 7 233 109t96 241-104 241.5T1681 871h-171q-20 0-20 18l-7 62q-17 172-147.5 289T1031 1357q-175 0-305-116.5T579 951l-6-58q0-19-21-19l-56-3q-131-6-222.5-107T182 527q0-139 96-241t233-109q18 0 18-19V16q0-18-18-18Q297 8 148.5 161T0 527zm632-94q0 39 39 105.5T744 646q34 38 41 45l38-43q41-44 76.5-108.5T935 433q0-63-43-105t-107-42q-63 0-108 43t-45 104zM950 8q0 44 25.5 102t62.5 109q29 41 71 89.5t64 69.5q11 10 26 25l26-25q60-53 136-156 38-53 63-111t25-103q0-103-72.5-175.5T1199-240q-103 0-176 72T950 8zm157 710q0 67 104 171l26-27q28-34 51-75.5t23-68.5q0-41-29.5-70.5T1211 618q-43 0-73.5 29.5T1107 718z"/></svg>