<svg width="64" height="64" viewBox="0 0 2054 2054" xmlns="http://www.w3.org/2000/svg"><path d="M0 605q104 5 176 80.5T248 865q0-104 72-179.5T496 605q-104-5-176-80.5T248 345q0 104-72 179.5T0 605zm248 768q202 10 342.5 156.5T731 1879q0-203 141-349.5t343-156.5q-133-6-244-75.5t-175.5-184T731 865q0 204-140.5 351T248 1373zM602 224q152 7 258 117.5T966 605q0-153 105.5-263.5T1329 224q-152-7-257.5-117.5T966-157q0 153-106 263.5T602 224zm727 506q152 7 257 117t105 264q0-153 106-263.5T2055 730q-152-7-258-117t-106-263q0 153-105 263t-257 117z"/></svg>