<svg width="64" height="64" viewBox="0 0 2213 2213" xmlns="http://www.w3.org/2000/svg"><path d="M0 527q0-177 106-317T381 19l-70-179q-5-23 15-23h227L448-642h30L896-29q6 7 1.5 14.5T882-7H650l264 495q11 23-15 23H585q-15 0-25-16L446 189q-114 29-189 124t-75 214q0 133 90.5 231T497 872l56 7q21 0 21 19l7 54q17 173 146.5 290t304.5 117q174 0 304.5-117T1486 952l7-62q0-18 19-18h171q145 0 248-101.5T2034 527q0-136-95-235.5T1704 181q-21 0-21-19V16q0-18 21-18 213 7 361.5 161T2214 527q0 144-71 265.5t-193.5 192T1683 1055h-33q-53 213-225.5 348T1032 1538q-226 0-401-140t-224-358q-177-41-292-184.5T0 527zM869-509q0-63 62-82 2 0 12-1.5t15-1.5q27 0 52.5 15.5T1045-527l240 927q10 38-7 69t-53 42q-27 3-28 3-26 0-50.5-16t-33.5-48L872-480q-3-13-3-29zm443 327q0-21 11-40 22-35 54-47 17-5 32-5t34 8q33 14 45 61l154 605q5 23 5 29 0 24-17 48t-49 34q-27 3-28 3-27 0-50-15.5t-32-48.5l-156-608q0-3-1.5-11.5T1312-182z"/></svg>