<svg width="64" height="64" viewBox="0 0 1537 1537" xmlns="http://www.w3.org/2000/svg"><path d="M0 767q0 209 103.5 386.5T384 1434t385 103q156 0 298-61t245-164 164-245.5 61-299.5q0-156-61-298.5t-164-245-245-163T769 0Q612 0 469.5 61T224 225 60.5 469.5 0 767zm169 0q0-243 177-422 177-177 423-177 162 0 300 80.5T1288 467t81 300-81 300.5-219 219-300 80.5-300-80.5-219-219T169 767zm384 289q6 23 26 34 20 12 43.5 6t34.5-26l53-89v241q0 24 16.5 40.5T767 1279t40.5-16.5T824 1222V767q0-24-16.5-40.5T767 710q-41 0-54 36l-154 267q-12 20-6 43z"/></svg>