<svg width="64" height="64" viewBox="0 0 1537 1537" xmlns="http://www.w3.org/2000/svg"><path d="M0 767q0 209 103.5 386.5T384 1434t385 103q156 0 298-61t245-164 164-245.5 61-299.5q0-156-61-298.5t-164-245-245-163T769 0Q612 0 469.5 61T224 225 60.5 469.5 0 767zm169 0q0-243 177-422 177-177 423-177 162 0 300 80.5T1288 467t81 300-81 300.5-219 219-300 80.5-300-80.5-219-219T169 767zm541 0v455q0 24 16.5 40.5T767 1279t40.5-16.5T824 1222V866l190 107q20 12 43 6t34-28q12-20 5.5-43t-26.5-35L805 725q-17-15-38-15-24 0-40.5 16.5T710 767z"/></svg>