<svg width="64" height="64" viewBox="0 0 2153 2153" xmlns="http://www.w3.org/2000/svg"><path d="M0 733q0-49 37-82 34-35 83-35h802q53 0 93-38.5t40-92.5q0-55-40.5-95T922 350t-93 41q-37 33-84 33-49 0-82-32.5T630 311q0-49 34-82 107-109 258-109 150 0 256.5 107.5T1285 485t-106.5 257.5T922 850H120q-48 0-84-34.5T0 733zm0 411q0-46 37-79 34-34 83-34h1496q151 0 258 106.5t107 257.5q0 150-106.5 255T1616 1755q-156 0-257-102-32-35-32-84 0-50 31.5-81.5t81.5-31.5q49 0 85 32 39 39 91 39 54 0 92.5-38.5t38.5-93.5q0-56-38.5-95t-92.5-39H120q-48 0-84-34.5T0 1144zm1395-911q0-117 91.5-177.5T1733-5q95 0 168 19t114 47 66.5 66.5T2115 198t8 65q0 66-38 113.5T1985 437l2 3v-1q72 10 119 63.5t47 126.5q0 61-28 104.5t-76 65.5-98 31.5-108 9.5q-76 0-137-15t-99-39.5-63-57-35-64.5-10-66q0-55 29-96t80-57v-3q-90-10-151.5-65.5T1395 233zm226 24q0 56 45 82t108 26q65 0 94.5-29.5T1898 272v-14q0-45-40.5-68T1754 167l3 1q-22 0-43 3t-43.5 12-36 28-13.5 46zm81 328q0 51 39.5 74t95.5 23q48 0 81.5-21.5T1952 593q0-12-5-25t-18-28.5-42-25.5-70-10q-64 0-89.5 24.5T1702 585z"/></svg>