<svg width="64" height="64" viewBox="0 0 2158 2158" xmlns="http://www.w3.org/2000/svg"><path d="M0 731q0-48 37-81 34-35 83-35h802q53 0 93.5-39t40.5-93q0-55-40.5-94.5T922 349q-52 0-93 41-36 33-83 33-49 0-82.5-32.5T630 310q0-49 34-83 108-108 258-108 151 0 257.5 107T1286 483t-107 258-257 108H120q-48 0-84-35T0 731zm0 412q0-46 37-79 34-34 83-34h1497q151 0 258 107t107 257-106.5 255.5T1617 1755q-156 0-257-104-32-33-32-83t31.5-81 80.5-31q50 0 85 32 38 38 92 38 53 0 92.5-38.5t39.5-93.5-39.5-95-92.5-40H120q-48 0-84-34t-36-82zm1403-879q-4-51 12.5-97.5t53-86 104-63T1731-6q92 0 163.5 24.5T2006 79t65.5 84 34 87.5 8.5 78.5q0 107-68.5 172T1869 566q-111 0-155-46h-2l37 109h368l42 201h-559l-155-476h213q26 54 118 54 51 0 82-26.5t31-79.5q0-54-37-87t-107-33q-50 0-78 18-34 18-38 64h-226z"/></svg>