<svg width="64" height="64" viewBox="0 0 1024 1024" xmlns="http://www.w3.org/2000/svg"><path d="M1024 256v505.6c0 108.8-89.6 198.4-198.4 198.4H198.4C89.6 960 0 870.4 0 761.6V134.4C0 25.6 89.6-64 198.4-64h627.2c96 0 179.2 70.4 192 160-51.2 25.6-281.6 121.6-396.8 179.2-89.6-108.8-185.6-172.8-326.4-172.8s-236.8 89.6-224 192C83.2 364.8 128 480 339.2 460.8c108.8-12.8 160-32 249.6-64 25.6 44.8 44.8 89.6 57.6 140.8H249.6V576H448v70.4H204.8v44.8H448v102.4s0 19.2 19.2 19.2h96V697.6h256v-44.8h-256V576h211.2c-19.2-76.8-51.2-147.2-83.2-211.2C748.8 345.6 1024 256 1024 256zm-742.4-89.6c-147.2 0-172.8 96-166.4 134.4 12.8 38.4 51.2 89.6 134.4 89.6 96 0 179.2-25.6 281.6-76.8-64-89.6-153.6-147.2-249.6-147.2z"/></svg>