<svg width="128" height="128" viewBox="0 0 1024 1024" xmlns="http://www.w3.org/2000/svg"><path d="M515.013 448.447l440.194 65.316A451.72 451.72 0 0 0 960 448c0-85.665-24.044-165.714-65.751-233.767l-379.41 231.722 380.527-232.44-20.304-28.034C791.337 69.877 657.485.001 512 .001c-247.424 0-448 200.576-448 448s200.576 448 448 448h34.316l-31.303-447.553zm426.88 126.017l-61.406-18.037a381.02 381.02 0 0 1-20.975 55.177l57.884 27.303a445.101 445.101 0 0 0 24.496-64.442zm-60.618 127.258l-52.719-36.287a386.02 386.02 0 0 1-37.137 45.969l46.561 43.91a450.041 450.041 0 0 0 43.295-53.592zm-93.679 99.502l-39.402-50.433a384.768 384.768 0 0 1-49.212 32.696l31.213 55.873a448.647 448.647 0 0 0 57.401-38.135zm-124.722 68.727l-21.55-60.263a380.934 380.934 0 0 1-56.967 15.511l11.981 62.868a444.953 444.953 0 0 0 66.536-18.117zM128 448c0-212.077 171.923-384 384-384 112.873 0 217.501 49.013 289.593 131.8L448.281 411.616l29.296 418.862C281.627 813.07 128 648.476 128 448z"/></svg>