<svg width="128" height="128" viewBox="0 0 1024 1024" xmlns="http://www.w3.org/2000/svg"><path d="M217.6 614.4h563.2V204.8c0-38.4-32-70.4-64-70.4H672V0c0-32-25.6-64-64-64-32 0-64 25.6-64 64v140.8h-89.6V0c0-32-25.6-64-64-64-32 0-64 25.6-64 64v140.8h-44.8c-38.4 0-70.4 32-70.4 70.4l6.4 403.2zM128 627.2c-32 0-64-25.6-64-64V300.8c0-32 25.6-64 64-64s64 25.6 64 64v262.4c0 38.4-32 64-64 64zM780.8 640H211.2c0 96 57.6 185.6 147.2 224l-44.8 83.2V960c6.4 0 12.8 0 12.8-6.4l44.8-83.2C409.6 889.6 448 896 492.8 896s83.2-6.4 121.6-25.6l44.8 83.2c6.4 6.4 12.8 6.4 19.2 6.4s6.4-6.4 0-12.8L640 864c83.2-44.8 140.8-128 140.8-224zM390.4 768c0 12.8-12.8 25.6-25.6 25.6-12.8-6.4-19.2-12.8-19.2-25.6s12.8-25.6 25.6-25.6 19.2 12.8 19.2 25.6zm262.4 0c0 12.8-12.8 25.6-25.6 25.6-12.8-6.4-25.6-12.8-25.6-25.6s12.8-25.6 25.6-25.6 25.6 12.8 25.6 25.6zm217.6-140.8c-32 0-64-25.6-64-64V300.8c0-32 25.6-64 64-64 32 0 64 25.6 64 64v262.4c-6.4 38.4-32 64-64 64z"/></svg>