<svg width="128" height="128" viewBox="0 0 1024 1024" xmlns="http://www.w3.org/2000/svg"><path d="M800 736h-51.2l44.8 44.8c19.2 19.2 19.2 57.6 0 76.8s-57.6 19.2-76.8 0L588.8 736H435.2l-128 121.6c-19.2 19.2-57.6 19.2-76.8 0s-19.2-57.6 0-76.8l44.8-44.8H224c-89.6 0-160-70.4-160-160V230.4C64 134.4 134.4 64 224 64h569.6c89.6 0 160 70.4 160 160v352c6.4 89.6-64 160-153.6 160zm44.8-505.6c0-32-25.6-57.6-57.6-57.6H230.4c-32 0-57.6 25.6-57.6 57.6v339.2c0 32 25.6 57.6 57.6 57.6h556.8c32 0 57.6-25.6 57.6-57.6V230.4zM345.6 512c-32 0-57.6-25.6-57.6-57.6v-57.6c0-32 25.6-57.6 57.6-57.6s57.6 25.6 57.6 57.6v57.6c0 32-25.6 57.6-57.6 57.6zm332.8 0c-32 0-57.6-25.6-57.6-57.6v-57.6c0-32 25.6-57.6 57.6-57.6s57.6 25.6 57.6 57.6v57.6c0 32-25.6 57.6-57.6 57.6z"/></svg>