<svg width="64" height="64" viewBox="0 0 1024 1024" xmlns="http://www.w3.org/2000/svg"><path d="M787.2 595.2c-64 0-128 25.6-172.8 70.4v32l19.2 57.6c12.8 64-6.4 134.4-57.6 172.8-12.8 19.2-38.4 32-64 32s-51.2-12.8-70.4-25.6c-51.2-38.4-64-108.8-57.6-172.8 6.4-19.2 6.4-44.8 19.2-57.6v-38.4c-44.8-44.8-102.4-70.4-166.4-70.4H192V0h640v595.2h-44.8zM768 64h-64v128h-64V64h-64v192h-64V64H384v64h-64V64h-64v313.6h512V64zM256 531.2c70.4 6.4 140.8 38.4 192 89.6l19.2 19.2v76.8l-6.4 12.8c0 6.4-6.4 19.2-12.8 44.8-6.4 32 0 83.2 38.4 108.8 6.4 6.4 19.2 12.8 25.6 12.8s19.2-6.4 25.6-12.8c38.4-25.6 44.8-76.8 38.4-108.8-6.4-25.6-12.8-38.4-12.8-44.8l-6.4-12.8V640l19.2-19.2c51.2-51.2 121.6-83.2 192-89.6V448H256v83.2zM544 800c0-17.673-14.327-32-32-32s-32 14.327-32 32c0 17.673 14.327 32 32 32s32-14.327 32-32z"/></svg>