<svg width="64" height="64" viewBox="0 0 1024 1024" xmlns="http://www.w3.org/2000/svg"><path d="M448 192h128V-64H448v256zM128 960V-64h256v320h256V-64h256V960H128zm192-384v-64h-64v64h64zm-64 64v64h64v-64h-64zm64-192v-64h-64v64h64zm0-128v-64h-64v64h64zm0-128v-64h-64v64h64zm0 576h-64v64h64v-64zm320-64v-64h-64v64h64zm-64 64v64h64v-64h-64zm64-192v-64h-64v64h64zm0-128v-64h-64v64h64zm128 256v-64h-64v64h64zm-64 64v64h64v-64h-64zm64-192v-64h-64v64h64zm0-128v-64h-64v64h64zm0-128v-64h-64v64h64zm0-128v-64h-64v64h64zM448 704v-64h-64v64h64zm-64 64v64h64v-64h-64zm64-192v-64h-64v64h64zm0-128v-64h-64v64h64z"/></svg>