<svg width="64" height="64" viewBox="0 0 1024 1024" xmlns="http://www.w3.org/2000/svg"><path d="M896 960H128V-64h768V960zM192 0v896h640V0H640v256H384V0H192zm256 0v192h128V0H448zM320 832h-64v-64h64v64zm0-128h-64v-64h64v64zm0-128h-64v-64h64v64zm0-128h-64v-64h64v64zm0-128h-64v-64h64v64zm0-128h-64v-64h64v64zm448 640h-64v-64h64v64zm0-128h-64v-64h64v64zm0-128h-64v-64h64v64zm0-128h-64v-64h64v64zm0-128h-64v-64h64v64zm0-128h-64v-64h64v64zM640 832h-64v-64h64v64zm0-128h-64v-64h64v64zm0-128h-64v-64h64v64zm0-128h-64v-64h64v64zM448 832h-64v-64h64v64zm0-128h-64v-64h64v64zm0-128h-64v-64h64v64zm0-128h-64v-64h64v64z"/></svg>