<svg width="64" height="64" viewBox="0 0 1024 1024" xmlns="http://www.w3.org/2000/svg"><path d="M134.4 396.8zM672 672zm-512 0h192v96c0 89.6 70.4 160 160 160s160-70.4 160-160c0 89.6-70.4 160-160 160s-160-70.4-160-160v-96H160zm352 288c-108.8 0-192-83.2-192-192v-64H128L64 0h896l-64 704H704v64c0 108.8-83.2 192-192 192zM384 704v64c0 70.4 57.6 128 128 128s128-57.6 128-128v-64H384zM134.4 64l51.2 576h652.8l51.2-576H134.4zM640 556.8V512h64v64h-64zm64 19.2h-64v-64h64v64zm-384-19.2V512h64v64h-64zm64 19.2h-64v-64h64v64z"/></svg>