<svg width="64" height="64" viewBox="0 0 1024 1024" xmlns="http://www.w3.org/2000/svg"><path d="M128 128h768v576H128V128zM64 768h64.141v64h256.036v-64h575.822V64h-896v704zm352-576c-123.712 0-224 100.288-224 224s100.288 224 224 224 224-100.288 224-224-100.288-224-224-224zm0 64c88.366 0 160 71.634 160 160s-71.634 160-160 160-160-71.634-160-160 71.634-160 160-160zm224 384h192v-64H640v64zM320 416c0 53.019 42.611 96 96 96 53.019 0 96-42.611 96-96 0-53.019-42.611-96-96-96-53.019 0-96 42.611-96 96z"/></svg>