<svg width="128" height="128" viewBox="0 0 1024 1024" xmlns="http://www.w3.org/2000/svg"><path d="M576 288c-51.2 0-96-44.8-96-96s44.8-96 96-96 96 44.8 96 96-44.8 96-96 96zm0-128c-19.2 0-32 12.8-32 32s12.8 32 32 32 32-12.8 32-32-12.8-32-32-32zM448 288c0-17.673-14.327-32-32-32s-32 14.327-32 32c0 17.673 14.327 32 32 32s32-14.327 32-32zM947.2 83.2L640 595.2V896h64v64H320v-64h64V595.2L294.4 448 76.8 76.8C38.4 12.8 83.2-64 160-64h704c76.8 0 121.6 83.2 83.2 147.2zm-505.6 480L448 576v320h128V576l6.4-12.8L652.8 448H371.2l70.4 115.2zM896 19.2s-6.4 0 0 0c-6.4-6.4-6.4-12.8-12.8-12.8C876.8 0 870.4 0 864 0H160c-19.2 0-25.6 12.8-25.6 12.8v12.8c0 6.4 0 12.8 6.4 19.2l192 339.2h358.4L889.6 44.8c6.4-6.4 6.4-19.2 6.4-25.6z"/></svg>