<svg width="128" height="128" viewBox="0 0 1024 1024" xmlns="http://www.w3.org/2000/svg"><path d="M320 819.2c-19.2 6.4-38.4 12.8-64 12.8-108.8 0-192-83.2-192-192 0-32 6.4-57.6 19.2-89.6C121.6 672 211.2 768 320 819.2zM768 832c-25.6 0-44.8-6.4-64-12.8C812.8 768 902.4 672 940.8 550.4c12.8 32 19.2 57.6 19.2 89.6 0 108.8-83.2 192-192 192zm128-416c0 211.2-172.8 384-384 384S128 627.2 128 416c0-121.6 57.6-230.4 147.2-300.8l-51.2-96 57.6-25.6 44.8 89.6C384 51.2 448 32 512 32s128 19.2 179.2 44.8L736-12.8l57.6 25.6-51.2 96C838.4 185.6 896 294.4 896 416zm-448-32v256h64V448h192v-64H448z"/></svg>