<svg width="64" height="64" viewBox="0 0 1024 1024" xmlns="http://www.w3.org/2000/svg"><path d="M230.4 768c25.6 19.2 57.6 38.4 89.6 51.2-19.2 6.4-38.4 12.8-64 12.8-108.8 0-192-83.2-192-192 0-32 6.4-57.6 19.2-89.6 12.8 32 25.6 64 44.8 96 25.6 44.8 64 83.2 102.4 121.6zM768 832c-25.6 0-44.8-6.4-64-12.8 32-12.8 64-32 89.6-57.6 38.4-32 76.8-70.4 102.4-115.2 19.2-32 32-57.6 44.8-96 12.8 32 19.2 57.6 19.2 89.6 0 108.8-83.2 192-192 192zm128-416c0 211.2-172.8 384-384 384S128 627.2 128 416c0-121.6 57.6-230.4 147.2-300.8l-51.2-96 57.6-25.6 44.8 89.6C384 51.2 448 32 512 32s128 19.2 179.2 44.8L736-12.8l57.6 25.6-51.2 96C838.4 185.6 896 294.4 896 416zm-704 0c0 179.2 140.8 320 320 320s320-140.8 320-320S691.2 96 512 96 192 236.8 192 416zm320 224h-64V384h256v64H512z"/></svg>