<svg width="128" height="128" viewBox="0 0 1024 1024" xmlns="http://www.w3.org/2000/svg"><path d="M448 658.687V704h128v-45.313a159.847 159.847 0 0 0 31.006-17.934l39.271 22.673 64-110.851-39.267-22.671c.654-5.878.99-11.851.99-17.903s-.336-12.026-.99-17.903l39.267-22.671-64-110.851-39.271 22.673A159.847 159.847 0 0 0 576 365.315v-45.313H448v45.313a159.847 159.847 0 0 0-31.006 17.934l-39.271-22.673-64 110.851 39.267 22.671c-.654 5.878-.99 11.851-.99 17.903s.336 12.026.99 17.903l-39.267 22.671 64 110.851 39.271-22.673A159.847 159.847 0 0 0 448 658.687zM64 832h896V192H64v640zm64-576h768v512H128V256zm384 144c61.856 0 112 50.144 112 112s-50.144 112-112 112-112-50.144-112-112 50.144-112 112-112zM384 192h256v-64H384v64zm-128-64h512V64H256v64z"/></svg>