<svg width="128" height="128" viewBox="0 0 1024 1024" xmlns="http://www.w3.org/2000/svg"><path d="M481.007 841.156v54.815h64v-55.978L864 655.822V282.645l52.185-30.054-31.94-55.46-54.479 31.375.946 1.643L511.999 46.14 197.22 227.878l-52.463-30.517-32.18 55.322 47.422 27.585v375.555l321.007 185.333zm0-73.901L224 618.872V317.495l54.542 31.726 32.18-55.322-49.74-28.933L512.001 120.04l252.735 145.917-45.889 26.428 31.94 55.46 49.214-28.343V618.87L545.008 766.09v-61.867h-64v63.029zm1.681.971h58.623l-29.312 16.923-29.312-16.923zm29.181-320l.657-1.13.651 1.13h-1.308zm-30.862 18.766v45.234h64v-45.869l39.399-22.69-31.94-55.46-40.007 23.04-35.772-20.808-32.18 55.322 36.5 21.231zm302.822-190.01L800 286.318v18.742l-16.171-28.078zm-534.094-5.522L224 315.702v-29.384l25.735-14.858zm116.308 54.62l-32.18 55.322 55.322 32.18 32.18-55.322-55.322-32.18zm241.883 30.187l31.94 55.46 55.46-31.94-31.94-55.46-55.46 31.94zm-62.919 219.959h-64v64h64v-64z"/></svg>