<svg width="128" height="128" viewBox="0 0 1024 1024" xmlns="http://www.w3.org/2000/svg"><path d="M640 656c0-61.738 50.223-112 112-112 61.738 0 112 50.223 112 112 0 61.738-50.223 112-112 112-61.738 0-112-50.223-112-112zm-64 0c0 97.202 78.996 176 176 176 97.202 0 176-78.996 176-176 0-97.202-78.996-176-176-176-97.202 0-176 78.996-176 176zM192 240c0-61.738 50.223-112 112-112 61.738 0 112 50.223 112 112 0 61.738-50.223 112-112 112-61.738 0-112-50.223-112-112zm-64 0c0 97.202 78.996 176 176 176 97.202 0 176-78.996 176-176 0-97.202-78.996-176-176-176-97.202 0-176 78.996-176 176zm64 304h224v224H192V544zm-64 288h352V480H128v352zm480-704h224v224H608V128zm-64 288h352V64H544v352z"/></svg>