<svg width="128" height="128" viewBox="0 0 1024 1024" xmlns="http://www.w3.org/2000/svg"><path d="M120.067 640L320 839.933V896h192V704H320v45.424L210.576 640H256V448H64v192h56.067zm695.917 64L704 592.016V448H512v192h149.474L768 746.526V896h192V704H815.984zM704 142.168L817.832 256H768v192h192V256h-51.658L704 51.658V0H512v192h192v-49.832zM64 192h192V0H64v192zm768 192v-64h64v64h-64zm0 448v-64h64v64h-64zm-448 0v-64h64v64h-64zM128 448h64V192h-64v256zm448 0h64V192h-64v256zm256 256V448h64v256h-64zM512 832h256v-64H512v64zM256 128h256V64H256v64zm0 448h256v-64H256v64z"/></svg>