<svg width="64" height="64" viewBox="0 0 1024 1024" xmlns="http://www.w3.org/2000/svg"><path d="M800 608c-12.8 147.2-140.8 256-288 256S243.2 748.8 224 608C115.2 595.2 32 499.2 32 384c0-121.6 102.4-224 224-224h512c121.6 0 224 102.4 224 224 0 115.2-83.2 204.8-192 224zm-32-384H256c-89.6 0-160 70.4-160 160s70.4 160 160 160h32v32c0 121.6 102.4 224 224 224s224-102.4 224-224v-32h32c89.6 0 160-70.4 160-160s-70.4-160-160-160zM544 396.8V640h-64V396.8L345.6 537.6l-51.2-51.2L512 275.2l217.6 211.2-51.2 51.2z"/></svg>