<svg width="64" height="64" viewBox="0 0 1024 1024" xmlns="http://www.w3.org/2000/svg"><path d="M512 595.2c-83.2 0-147.2-64-147.2-147.2s64-147.2 147.2-147.2 147.2 64 147.2 147.2c0 83.2-64 147.2-147.2 147.2zm0-230.4c-44.8 0-83.2 38.4-83.2 83.2s38.4 83.2 83.2 83.2 83.2-38.4 83.2-83.2c0-44.8-38.4-83.2-83.2-83.2zm0 448C275.2 812.8 76.8 659.2 0 448 76.8 236.8 275.2 83.2 512 83.2S947.2 236.8 1024 448c-76.8 211.2-275.2 364.8-512 364.8zm0-665.6c-192 0-371.2 121.6-441.6 300.8C140.8 627.2 320 748.8 512 748.8S883.2 627.2 953.6 448C883.2 268.8 704 147.2 512 147.2z"/></svg>