<svg width="128" height="128" viewBox="0 0 1024 1024" xmlns="http://www.w3.org/2000/svg"><path d="M448 384h192V256H448v128zm-256 0h192V256H192v128zm256-192H192V64h320v128zm192 0h-64V64h320v128H704zm64 192h192V256H704v128zM320 537.6c0-32 6.4-64 19.2-89.6h409.6c12.8 25.6 19.2 57.6 19.2 89.6 0 115.2-76.8 172.8-134.4 217.6S563.2 864 563.2 896C480 832 435.2 780.8 416 736c-32-83.2 6.4-147.2 6.4-147.2 6.4-12.8 6.4-19.2 0-25.6-6.4 0-12.8 6.4-19.2 6.4 0 0-6.4 6.4-6.4 12.8-12.8 19.2-12.8 51.2-12.8 51.2-6.4 19.2-6.4 51.2 0 70.4 0 0-32-19.2-51.2-64C320 601.6 320 556.8 320 537.6z"/></svg>