<svg width="128" height="128" viewBox="0 0 1024 1024" xmlns="http://www.w3.org/2000/svg"><path d="M953.6 441.6l-38.4 160C902.4 659.2 844.8 704 780.8 704H230.4c-64 0-115.2-44.8-134.4-102.4l-38.4-160c-32-128 64-249.6 198.4-249.6 76.8 0 147.2 44.8 179.2 108.8l6.4 19.2h128l6.4-19.2C608 230.4 678.4 192 755.2 192c134.4 0 230.4 121.6 198.4 249.6zM320 448v-64h-64v64h-64v64h64v64h64v-64h64v-64h-64zm352 64c19.2 0 32-12.8 32-32s-12.8-32-32-32-32 12.8-32 32 12.8 32 32 32zm64-64c19.2 0 32-12.8 32-32s-12.8-32-32-32-32 12.8-32 32 12.8 32 32 32zm0 64c-19.2 0-32 12.8-32 32s12.8 32 32 32 32-12.8 32-32-12.8-32-32-32zm64 0c19.2 0 32-12.8 32-32s-12.8-32-32-32-32 12.8-32 32 12.8 32 32 32z"/></svg>