<svg width="64" height="64" viewBox="0 0 1024 1024" xmlns="http://www.w3.org/2000/svg"><path d="M167.19 315.917h140.895v227.9l166.045-22.083-102.808 205.683L167.19 315.918zM350.042 501.1l-41.956-249.183H64.001L370.811 870.4l173.683-343.904-194.451-25.395zm159.091 11.49c-5.888 20.051-9.047 41.27-9.047 63.226 0 123.712 100.288 224 224 224s224-100.288 224-224c0-93.782-57.633-174.104-139.413-207.479-12.592-5.139-32.786 132.763-32.786 132.763l-266.753 11.49zm292.793-76.595c49.012 27.344 82.159 79.712 82.159 139.821 0 88.366-71.634 160-160 160s-160-71.634-160-160c0-18.981 3.305-37.19 9.371-54.083l246.629 22.083s-41.198-120.675-18.159-107.821zM372.085 95.817h384v384h-384v-384zm-64 448h512v-512h-512v512z"/></svg>