<svg width="128" height="128" viewBox="0 0 1024 1024" xmlns="http://www.w3.org/2000/svg"><path d="M896 710.4H755.2c25.6 51.2 6.4 108.8-44.8 128-12.8 6.4-32 12.8-44.8 12.8-25.6 0-44.8-6.4-64-25.6L480 710.4 358.4 825.6c-19.2 19.2-44.8 25.6-64 25.6-12.8 0-32-6.4-44.8-12.8-51.2-25.6-70.4-83.2-44.8-128H64v-320h64V6.4h704v384h64v320zm-249.6 64c6.4 6.4 12.8 6.4 25.6 6.4 6.4 0 12.8 0 12.8-6.4l19.2-19.2v-32c-6.4-12.8-19.2-19.2-32-19.2h-96l70.4 70.4zM256 761.6c0 6.4 6.4 12.8 19.2 19.2 6.4 0 12.8 6.4 12.8 6.4 6.4 0 19.2 0 25.6-6.4l70.4-64h-89.6c-12.8 0-25.6 6.4-32 19.2v6.4c-6.4 0-6.4 12.8-6.4 19.2zM128 646.4h320v-192H128v192zm64-576v320h192v-320H192zm256 0v320h64v-320h-64zm320 0H576v320h192v-320zm64 384H512v192h320v-192z"/></svg>