<svg width="128" height="128" viewBox="0 0 1024 1024" xmlns="http://www.w3.org/2000/svg"><path d="M192 224c0-53.384 42.729-96 96-96 53.384 0 96 42.729 96 96 0 53.384-42.729 96-96 96-53.384 0-96-42.729-96-96zm-64 0c0 88.366 71.018 160 160 160 88.366 0 160-71.018 160-160 0-88.366-71.018-160-160-160-88.366 0-160 71.018-160 160zm64 608h192V640H192v192zm64-64v-64h64v64h-64zm448 64h192V640H704v192zm64-64v-64h64v64h-64zM384 512h64v-64h-64v64zm128 0h64v-64h-64v64zm128 0h64v-64h-64v64zm128 0h64v-64h-64v64zm0 128h64v-64h-64v64zm-512 0h64V356.637h-64V640z"/></svg>