<svg width="64" height="64" viewBox="0 0 1024 1024" xmlns="http://www.w3.org/2000/svg"><path d="M768 896H256L128 768l64-512L448 0h128l256 256 64 512-128 128zm6.4-608l-224-224H544v192h-64V64h-6.4l-224 224-51.2 454.4 83.2 89.6h460.8l89.6-89.6L774.4 288zM320 576h128v-64H320v64zm256 0h128v-64H576v64zm51.2-224h-38.4L512 428.8 435.2 352h-38.4l-51.2 57.6-51.2-51.2 76.8-70.4h89.6l51.2 51.2 51.2-51.2h89.6l76.8 70.4-51.2 51.2zm-192 262.4l25.6 51.2-147.2 76.8-83.2-76.8 51.2-51.2 44.8 51.2zm128 51.2l25.6-51.2 108.8 51.2 44.8-51.2 51.2 51.2-83.2 76.8z"/></svg>