<svg width="64" height="64" viewBox="0 0 1024 1024" xmlns="http://www.w3.org/2000/svg"><path d="M251.938 539.575L63.821 648.185l32 55.426 886.81-512-32-55.426-100.783 58.187c-8.079-32.567-22.109-64.544-45.021-108.687C772.559 23.514 766.445 9.647 766.445.08v-64H340.417v64c0-1.139-17.422 22.975-58.59 70.551-5.771 6.677-8.155 9.444-11.606 13.487C215.6 148.099 192.03 185.057 192.03 232.53c.116 2.97.082 3.617.045 4.321L192 434.923c0 44.605 24.108 83.344 59.938 104.652zM791.46 228.082L360.788 476.731V361.297c0-9.884-10.094-17.873-22.546-17.873s-22.546 7.988-22.546 17.873V493.05c-32.983-.03-59.695-26.04-59.695-58.127l.075-198.048c0-.761.209-1.463-.045-4.345 0-66.026 148.387-176.547 148.387-232.45h298.028c0 56.715 75.272 142.393 89.015 228.003zm1.916 147.989l64-36.845v273.857c0 56.525-43.498 102.684-98.745 107.663-18.71 44.273-63.147 75.085-114.702 75.085-14.418 51.839-62.617 89.528-119.241 89.528-1.18 0-2.352-.018-3.599.159-16.88 43.492-58.786 74.483-108.176 74.483-64.44 0-116.125-52.769-116.125-117.2V661.964l64-36.845v217.683c0 29.37 23.323 53.2 52.125 53.2s52.14-23.815 52.14-53.2V565.093l45.048-25.934v279.097c4.584 2.284 9.466 3.106 14.588 3.106 32.938 0 59.635-25.921 59.635-57.903v-89.528l.134-177.58 45.093-25.96v258.278c4.614 2.344 9.511 3.165 14.648 3.165 33.073 0 59.874-25.921 59.874-57.903V479.556c.791-9.317 10.437-16.693 22.382-16.693 12.453 0 22.546 8.003 22.546 17.888v176.443c24.532-.149 44.376-19.829 44.376-44.107V376.076z"/></svg>