<svg width="128" height="128" viewBox="0 0 1024 1024" xmlns="http://www.w3.org/2000/svg"><path d="M876.8 249.6c0-96-76.8-172.8-172.8-172.8H320c-96 0-172.8 76.8-172.8 172.8V640c0 96 76.8 172.8 172.8 172.8h384c96 0 172.8-76.8 172.8-172.8V249.6zM704 896H320C179.2 896 64 780.8 64 633.6V256C64 115.2 179.2-6.4 320-6.4h384c140.8 0 256 115.2 256 262.4v377.6C960 780.8 844.8 896 704 896zM512 294.4c-83.2 0-153.6 70.4-153.6 153.6S428.8 601.6 512 601.6 665.6 531.2 665.6 448c0-89.6-70.4-153.6-153.6-153.6zm0 384c-128 0-230.4-102.4-230.4-236.8S384 211.2 512 211.2s230.4 102.4 230.4 230.4S640 678.4 512 678.4zm243.2 64c-32 0-51.2-25.6-51.2-51.2s25.6-51.2 51.2-51.2c32 0 51.2 25.6 51.2 51.2s-25.6 51.2-51.2 51.2z"/></svg>