<svg width="128" height="128" viewBox="0 0 1024 1024" xmlns="http://www.w3.org/2000/svg"><path d="M160 576c0 194.404 157.596 352 352 352s352-157.596 352-352c0-153.926-99.691-288.608-244.775-335.35l-235.094-68.724v76.021C250.715 299.911 160 429.163 160 576zm224-433.788l306.324 84.443v-64L384 78.212v64zm0-102.4l306.324 84.443v-64L384-24.188v64zm216.431 262.01C718.421 339.845 800 450.058 800 576c0 159.058-128.942 288-288 288S224 735.058 224 576c0-126.758 82.636-237.516 201.706-274.858l22.424-7.032v-36.799l152.3 44.511zM554.489 755.2V602.473H640L469.336 388.655v152.727H384L554.489 755.2z"/></svg>