<svg width="128" height="128" viewBox="0 0 1024 1024" xmlns="http://www.w3.org/2000/svg"><path d="M896 537.6c0 192-160 352-352 352S192 736 192 537.6c0-147.2 96-275.2 224-326.4v-89.6c0-70.4 57.6-128 128-128s128 57.6 128 128v89.6c128 51.2 224 179.2 224 326.4zm-352-480c-38.4 0-64 25.6-64 64h128c0-32-25.6-64-64-64zM576 256v128l134.4 134.4-44.8 44.8L544 441.6 428.8 563.2l-51.2-44.8L512 384V256c-140.8 19.2-256 134.4-256 281.6 0 160 128 288 288 288s288-128 288-288c0-147.2-115.2-268.8-256-281.6z"/></svg>