<svg width="64" height="64" viewBox="0 0 1024 1024" xmlns="http://www.w3.org/2000/svg"><path d="M640 582.4c0-70.692-57.308-128-128-128s-128 57.308-128 128c0 70.692 57.308 128 128 128s128-57.308 128-128zM512 896c-179.2 0-320-140.8-320-320 0-102.4 44.8-185.6 121.6-249.6v-352L512 121.6 710.4-19.2v352C780.8 390.4 832 480 832 582.4 825.6 755.2 684.8 896 512 896zm0-512c-108.8 0-192 89.6-192 192 0 108.8 89.6 192 192 192s192-89.6 192-192-89.6-192-192-192zm0-185.6l-38.4-25.6-96-70.4V288c38.4-12.8 83.2-25.6 134.4-25.6 44.8 0 89.6 12.8 134.4 32V108.8l-96 70.4-38.4 19.2z"/></svg>