<svg width="64" height="64" viewBox="0 0 1024 1024" xmlns="http://www.w3.org/2000/svg"><path d="M825.6 576c0 172.8-140.8 320-320 320S192 755.2 192 576c0-102.4 44.8-185.6 121.6-249.6v-352L512 121.6 710.4-19.2v352C780.8 390.4 825.6 480 825.6 576zM256 576c0 140.8 115.2 256 256 256s256-115.2 256-256-115.2-256-256-256c-140.8 6.4-256 121.6-256 256zm384-473.6l-96 70.4-32 25.6-38.4-25.6-96-70.4V288c38.4-19.2 83.2-32 134.4-32s89.6 12.8 134.4 32V102.4zM512 384c108.8 0 192 89.6 192 192s-89.6 192-192 192-192-89.6-192-192 83.2-192 192-192zm0 326.4c70.4 0 128-57.6 128-128S582.4 448 512 448s-128 57.6-128 128 51.2 134.4 128 134.4z"/></svg>