<svg width="64" height="64" viewBox="0 0 1024 1024" xmlns="http://www.w3.org/2000/svg"><path d="M966.4 288H640l320 326.4c19.2-51.2 32-108.8 32-166.4s-12.8-108.8-25.6-160zm-256 595.2c102.4-44.8 185.6-128 236.8-230.4L710.4 416v467.2zM672 576L345.6 896c51.2 19.2 108.8 32 166.4 32s108.8-12.8 160-25.6V576zM76.8 646.4c44.8 102.4 128 185.6 230.4 236.8L544 646.4H76.8zM64 275.2C44.8 332.8 32 390.4 32 448s12.8 108.8 25.6 160h339.2L64 275.2zM320 6.4c-102.4 44.8-192 128-243.2 230.4L320 480V6.4zM358.4 320l320-320c-51.2-19.2-108.8-32-172.8-32-51.2 0-102.4 6.4-153.6 25.6V320zm588.8-70.4c-44.8-102.4-128-185.6-224-230.4L492.8 249.6h454.4z"/></svg>