<svg width="128" height="128" viewBox="0 0 1024 1024" xmlns="http://www.w3.org/2000/svg"><path d="M512 960c-204.8 0-364.8-166.4-364.8-364.8V300.8C147.2 102.4 307.2-64 512-64s364.8 166.4 364.8 364.8v294.4c0 198.4-160 364.8-364.8 364.8zm300.8-659.2C812.8 134.4 678.4 0 512 0S211.2 134.4 211.2 300.8v294.4C211.2 761.6 345.6 896 512 896s300.8-134.4 300.8-300.8V300.8zM512 832c-57.6 0-108.8-44.8-108.8-108.8v-44.8c0-57.6 51.2-102.4 108.8-102.4s108.8 44.8 108.8 108.8v38.4c0 64-51.2 108.8-108.8 108.8zm44.8-147.2c0-25.6-19.2-44.8-44.8-44.8s-44.8 19.2-44.8 44.8v38.4c0 25.6 19.2 44.8 44.8 44.8s44.8-19.2 44.8-44.8v-38.4z"/></svg>