<svg width="128" height="128" viewBox="0 0 1024 1024" xmlns="http://www.w3.org/2000/svg"><path d="M256 768V192c-19.2 12.8-44.8 19.2-70.4 19.2-76.8 0-134.4-57.6-134.4-134.4S108.8-57.6 185.6-57.6C256-57.6 313.6-6.4 320 64v403.2l448 147.2V307.2c-19.2 12.8-44.8 19.2-70.4 19.2-76.8 0-134.4-57.6-134.4-134.4S620.8 57.6 697.6 57.6c70.4 0 128 57.6 134.4 128V960L256 768zM185.6 6.4c-38.4 0-70.4 32-70.4 70.4s32 70.4 70.4 70.4 70.4-32 70.4-70.4-32-70.4-70.4-70.4zm512 121.6c-38.4 0-70.4 32-70.4 70.4s32 70.4 70.4 70.4 70.4-32 70.4-70.4-32-70.4-70.4-70.4zM320 537.6v185.6l448 147.2V684.8L320 537.6z"/></svg>