<svg width="64" height="64" viewBox="0 0 1024 1024" xmlns="http://www.w3.org/2000/svg"><path d="M874.15 320C888.301 360.036 896 403.119 896 448s-7.7 87.964-21.85 128H720.62c10.026-41.178 15.381-83.885 15.381-128s-5.354-86.822-15.381-128h153.53zm-29.522-64H700.904c-16.824-45.008-39.239-87.949-66.238-128.643a683.945 683.945 0 0 0-40.132-54.466C701.317 96.279 791.468 164.101 844.628 256zm-475.08 64h284.904C665.867 361.095 672 403.818 672 448s-6.133 86.905-17.548 128H369.548C358.133 534.905 352 492.182 352 448s6.133-86.905 17.548-128zm22.499-64c13.774-32.277 30.804-63.395 50.619-93.261 19.963-30.09 41.356-56.692 62.69-79.471a580.516 580.516 0 0 1 6.644-6.98 573.098 573.098 0 0 1 6.644 6.98c21.335 22.779 42.727 49.381 62.69 79.471 19.815 29.866 36.844 60.984 50.619 93.261H392.046zM149.85 320h153.53c-10.026 41.178-15.381 83.885-15.381 128s5.354 86.822 15.381 128H149.85C135.699 535.964 128 492.881 128 448s7.7-87.964 21.85-128zm29.522-64c53.16-91.899 143.312-159.721 250.094-183.109a683.945 683.945 0 0 0-40.132 54.466C362.335 168.051 339.92 210.992 323.096 256H179.372zm665.256 384c-53.16 91.899-143.312 159.721-250.094 183.109a683.945 683.945 0 0 0 40.132-54.466c26.999-40.694 49.414-83.635 66.238-128.643h143.724zm-452.581 0h239.907c-13.774 32.277-30.804 63.395-50.619 93.261-19.963 30.09-41.356 56.692-62.69 79.471a580.516 580.516 0 0 1-6.644 6.98 573.098 573.098 0 0 1-6.644-6.98c-21.335-22.779-42.727-49.381-62.69-79.471-19.815-29.866-36.844-60.984-50.619-93.261zm-212.675 0h143.724c16.824 45.008 39.239 87.949 66.238 128.643a683.945 683.945 0 0 0 40.132 54.466C322.683 799.721 232.532 731.899 179.372 640zM512 0C264.576 0 64 200.576 64 448s200.576 448 448 448 448-200.576 448-448S759.424 0 512 0z"/></svg>