<svg width="64" height="64" viewBox="0 0 1024 1024" xmlns="http://www.w3.org/2000/svg"><path d="M102.4 588.8c0-57.6 44.8-102.4 102.4-102.4s108.8 51.2 108.8 102.4c0 57.6-44.8 102.4-102.4 102.4-64 0-108.8-44.8-108.8-102.4zM0 249.6v-12.8h198.4c12.8 83.2 51.2 147.2 115.2 192-32 12.8-64 19.2-102.4 19.2C70.4 448 0 364.8 0 249.6zm710.4 339.2c0-57.6 44.8-102.4 102.4-102.4s108.8 51.2 108.8 102.4c0 57.6-44.8 102.4-102.4 102.4-64 0-108.8-44.8-108.8-102.4zm115.2-345.6H1024V256c0 108.8-76.8 192-204.8 192-44.8 0-76.8-6.4-108.8-19.2 64-44.8 102.4-108.8 115.2-185.6zM364.8 652.8c0-83.2 64-147.2 147.2-147.2S659.2 576 659.2 652.8c0 83.2-64 147.2-147.2 147.2-83.2-6.4-147.2-70.4-147.2-147.2zM224 172.8v-19.2h569.6v19.2C800 326.4 697.6 448 512 448c-192 0-288-121.6-288-275.2z"/></svg>