<svg width="128" height="128" viewBox="0 0 1024 1024" xmlns="http://www.w3.org/2000/svg"><path d="M544 608h128V480H544v128zm-192 0h128V480H352v128zm16 192h96v-96h-96v96zm-192 0h96v-96h-96v96zm0-208h96v-96h-96v96zm0-192h96v-96h-96v96zm0-192h96v-96h-96v96zm576 384h96v-96h-96v96zm0-192h96v-96h-96v96zm0-192h96v-96h-96v96zM560 800h96v-96h-96v96zM368 208h96v-96h-96v96zm192 0h96v-96h-96v96zm192 592h96v-96h-96v96zM576 928h64v-64h-64v64zm-192 0h64v-64h-64v64zM576 32h64v-64h-64v64zm352 352h64v-64h-64v64zm0 192h64v-64h-64v64zM32 384h64v-64H32v64zm0 192h64v-64H32v64zM384 32h64v-64h-64v64zm160 384h128V288H544v128zm-192 0h128V288H352v128z"/></svg>