<svg width="64" height="64" viewBox="0 0 1024 1024" xmlns="http://www.w3.org/2000/svg"><path d="M480 838.277L176 662.763l304-175.514v24.752h64v-29.525l312.113 180.198L544 842.872V832h-64v6.277zm359.9-614.311l-5.597 3.178 31.599 55.655 6.057-3.439v318.561L581.686 430.332l-25.66-45.195L544 391.965V53.128l295.9 170.838zm-649.685 1.064L480 57.723v334.818l-7.394-4.274-25.464 44.051L160 598.099V281.487l3.533 2.042 32.029-55.409-5.346-3.09zm745.744 465.445v-484.95L515.98-36.95 96.001 205.525v484.95L515.98 932.95l419.979-242.475zM385.168 411.646l32.029-55.409-55.409-32.029-32.029 55.409 55.409 32.029zM274.35 347.588l32.029-55.409-55.409-32.029-32.029 55.409 55.409 32.029zm337.331 5.951l31.599 55.655 55.655-31.599-31.599-55.655-55.655 31.599zm111.311-63.198l31.599 55.655 55.655-31.599-31.599-55.655-55.655 31.599zM544 576h-64v64h64v-64zm0 128h-64v64h64v-64z"/></svg>