<svg width="64" height="64" viewBox="0 0 1024 1024" xmlns="http://www.w3.org/2000/svg"><path d="M64 832h896V64H64v768zm64-192V128h768v512H128zm480 64c17.673 0 32 14.327 32 32s-14.327 32-32 32c-17.673 0-32-14.327-32-32s14.327-32 32-32zm128 0c17.673 0 32 14.327 32 32s-14.327 32-32 32c-17.673 0-32-14.327-32-32s14.327-32 32-32zm128 0c17.673 0 32 14.327 32 32s-14.327 32-32 32c-17.673 0-32-14.327-32-32s14.327-32 32-32zM608 320.721l67.882 67.882L608 456.485l45.255 45.255 113.137-113.137-113.137-113.137L608 320.721zM414.392 456.485l-67.882-67.882 67.882-67.882-45.255-45.255L256 388.603 369.137 501.74l45.255-45.255zM561.551 524.8l40.169-23.192-139.151-241.016-40.169 23.192L561.551 524.8z"/></svg>