<svg width="64" height="64" viewBox="0 0 1024 1024" xmlns="http://www.w3.org/2000/svg"><path d="M64 832h128v-64h-64v-64H64v128zm768 0h128V704h-64v64h-64v64zM64 192h64v-64h64V64H64v128zm832-64v64h64V64H832v64h64zM160 736h704V160H160v576zm64-512h576v448H224V224zm384 160.721l67.882 67.882L608 520.485l45.255 45.255 113.137-113.137-113.137-113.137L608 384.721zM414.392 520.485l-67.882-67.882 67.882-67.882-45.255-45.255L256 452.603 369.137 565.74l45.255-45.255zM561.551 588.8l40.169-23.192-139.151-241.016-40.169 23.192L561.551 588.8z"/></svg>