<svg width="128" height="128" viewBox="0 0 1024 1024" xmlns="http://www.w3.org/2000/svg"><path d="M902.4 326.4c-6.4 25.6-19.2 64-32 96l-44.8 108.8v32c0 192-89.6 384-307.2 384s-307.2-192-307.2-384v-32L160 416c-12.8-32-25.6-64-38.4-89.6-44.8-134.4-25.6-192-19.2-192C128 128 192 236.8 192 236.8c0-57.6 32-140.8 96-198.4-25.6-6.4-57.6-19.2-76.8-32s-12.8-25.6-12.8-32C217.6-51.2 448-44.8 512-38.4c64-6.4 294.4-19.2 307.2 6.4 6.4 6.4 6.4 19.2-12.8 32s-51.2 25.6-76.8 32c70.4 57.6 96 134.4 96 198.4 0 0 64-102.4 89.6-102.4 12.8 6.4 25.6 64-12.8 198.4z"/></svg>