<svg width="64" height="64" viewBox="0 0 1024 1024" xmlns="http://www.w3.org/2000/svg"><path d="M512 371.2c-6.4-6.4 0-6.4 0-12.8 64-25.6 166.4-38.4 236.8-38.4l204.8 217.6c6.4 6.4 6.4 25.6-6.4 25.6L672 614.4c-6.4 0-6.4 6.4-12.8 6.4L524.8 864c0 6.4-6.4 12.8-12.8 12.8s-12.8 0-12.8-6.4L364.8 620.8c0-6.4-6.4-6.4-12.8-6.4L76.8 563.2c-12.8 0-19.2-19.2-6.4-25.6l198.4-204.8c6.4-6.4 6.4-6.4 6.4-12.8L230.4 44.8c0-6.4 6.4-19.2 12.8-19.2h6.4l256 121.6h12.8l256-121.6h6.4c6.4 0 19.2 6.4 12.8 19.2l-32 192V256c44.8 32 64 57.6 70.4 64v6.4C768 300.8 614.4 256 422.4 256H384c-25.6 0-51.2 6.4-64 6.4s-19.2 19.2-6.4 25.6c57.6 51.2 256 192 256 192 6.4 0 6.4 6.4 0 12.8-6.4 0-64 25.6-166.4 25.6-32 0-70.4 0-108.8-6.4-19.2-12.8-25.6 0-12.8 6.4 44.8 25.6 147.2 51.2 256 51.2h6.4c76.8 0 140.8-25.6 160-38.4 6.4-6.4 6.4-12.8 0-19.2-38.4-32-153.6-115.2-192-140.8z"/></svg>