<svg width="64" height="64" viewBox="0 0 1024 1024" xmlns="http://www.w3.org/2000/svg"><path d="M499.2 108.8l-44.8 44.8-44.8-44.8 89.6-89.6 89.6 89.6-44.8 44.8zm172.8 320l-32 38.4 12.8 70.4c12.8 51.2 0 108.8-25.6 153.6L499.2 896l-128-204.8c-32-44.8-38.4-102.4-25.6-153.6l12.8-70.4-32-38.4c-19.2-25.6-32-57.6-32-89.6V134.4l102.4 83.2 6.4 6.4 6.4-25.6h172.8l6.4 25.6 6.4-6.4 102.4-83.2v204.8c6.4 32-6.4 64-25.6 89.6zm-313.6-160v70.4c0 12.8 6.4 32 12.8 38.4l19.2-83.2-32-25.6zm236.8 281.6l-57.6-281.6h-70.4l-64 281.6c-6.4 38.4 0 76.8 19.2 108.8l76.8 121.6 76.8-128c19.2-32 25.6-64 19.2-102.4zM640 268.8l-32 25.6 12.8 89.6c12.8-12.8 19.2-25.6 19.2-44.8v-70.4zM467.2 614.4h64v-64h-64v64z"/></svg>