<svg width="64" height="64" viewBox="0 0 1024 1024" xmlns="http://www.w3.org/2000/svg"><path d="M793.6 729.6l-44.8 44.8-288-281.6-102.4 102.4c19.2 25.6 25.6 51.2 25.6 83.2 0 83.2-70.4 153.6-153.6 153.6S76.8 761.6 76.8 678.4c0-83.2 70.4-153.6 153.6-153.6 32 0 57.6 6.4 83.2 25.6L416 448 313.6 345.6c-25.6 19.2-51.2 25.6-83.2 25.6-83.2 0-153.6-70.4-153.6-153.6S147.2 64 230.4 64C313.6 64 384 134.4 384 217.6c0 32-6.4 57.6-25.6 83.2l102.4 102.4 281.6-281.6 44.8 44.8L505.6 448l288 281.6zm-652.8-51.2c0 51.2 38.4 89.6 89.6 89.6s89.6-38.4 89.6-89.6c0-51.2-38.4-89.6-89.6-89.6s-89.6 38.4-89.6 89.6zM230.4 128c-51.2 0-89.6 38.4-89.6 89.6s38.4 89.6 89.6 89.6c51.2 0 89.6-38.4 89.6-89.6S281.6 128 230.4 128z"/></svg>