<svg width="128" height="128" viewBox="0 0 1024 1024" xmlns="http://www.w3.org/2000/svg"><path d="M704 512v64h64v-64h64v-64h-64v-64h-64v64h-64v64h64zM64 832h896V64H64v768zm64-192V128h768v512H128zm480 64c17.673 0 32 14.327 32 32s-14.327 32-32 32c-17.673 0-32-14.327-32-32s14.327-32 32-32zm128 0c17.673 0 32 14.327 32 32s-14.327 32-32 32c-17.673 0-32-14.327-32-32s14.327-32 32-32zm128 0c17.673 0 32 14.327 32 32s-14.327 32-32 32c-17.673 0-32-14.327-32-32s14.327-32 32-32zM256 512h64v-64h-64v64zm448-192h64v-64h-64v64zm-448-64h64v-64h-64v64zm128 0h64v-64h-64v64zm0 256h64v-64h-64v64zm128 0h64v-64h-64v64zm128-256h64v-64h-64v64zm-128 0h64v-64h-64v64zM256 384h64v-64h-64v64z"/></svg>