<svg width="64" height="64" viewBox="0 0 1024 1024" xmlns="http://www.w3.org/2000/svg"><path d="M563.2 652.8c0-28.277-22.923-51.2-51.2-51.2s-51.2 22.923-51.2 51.2c0 28.277 22.923 51.2 51.2 51.2s51.2-22.923 51.2-51.2zM512 928C249.6 928 32 710.4 32 448S249.6-32 512-32s480 217.6 480 480-217.6 480-480 480zM102.4 448c0 224 179.2 409.6 409.6 409.6 115.2 0 204.8-89.6 204.8-204.8S627.2 448 512 448s-204.8-89.6-204.8-204.8S396.8 38.4 512 38.4C288 38.4 102.4 224 102.4 448zm460.8-204.8c0-25.6-19.2-51.2-51.2-51.2s-51.2 25.6-51.2 51.2c0 32 25.6 51.2 51.2 51.2s51.2-19.2 51.2-51.2z"/></svg>