<svg width="128" height="128" viewBox="0 0 1024 1024" xmlns="http://www.w3.org/2000/svg"><path d="M704 90.827h192v647.917h-64v64.792h128v-777.5H704v64.792zm-128 0h64V26.035h-64v64.792zM64 831.585h256v-64.792H128V118.876h64V54.084H64v777.5zm322.551 0h64v-64.792h-64v64.792zm-42.264-707.832l-59.226 59.226-45.255-45.255L377.25.28l45.255 45.255-.806.806 90.484 90.484-45.815 45.815-58.082-58.082v299.788h-64V123.753zm332.605 585.789l60.656-60.656 45.255 45.255-137.444 137.444-45.255-45.255.375-.375-90.559-90.559 45.815-45.815 57.157 57.157v-322.86h64v325.664z"/></svg>