<svg width="64" height="64" viewBox="0 0 1024 1024" xmlns="http://www.w3.org/2000/svg"><path d="M896 512c0 211.2-172.8 384-384 384S128 723.2 128 512c0-198.4 153.6-364.8 352-384V64H320V0h384v64H544v64c198.4 19.2 352 185.6 352 384zM512 832c166.4 0 300.8-128 313.6-288h-128C684.8 633.6 608 704 512 704s-172.8-70.4-185.6-160h-128C211.2 704 345.6 832 512 832zm128-320c0-70.4-57.6-128-128-128s-128 57.6-128 128 57.6 128 128 128 128-57.6 128-128zm-441.6-32h128C339.2 390.4 416 320 512 320s172.8 70.4 185.6 160h128C812.8 320 678.4 192 512 192S211.2 320 198.4 480z"/></svg>