<svg width="128" height="128" viewBox="0 0 1024 1024" xmlns="http://www.w3.org/2000/svg"><path d="M371.2 326.4c0-6.4-6.4-6.4-12.8-6.4-12.8 0-25.6 6.4-32 19.2v6.4l-96 198.4v6.4c0 6.4 6.4 19.2 19.2 19.2h12.8l108.8-76.8c0-6.4 12.8-12.8 25.6-12.8H416l518.4 230.4C838.4 825.6 684.8 896 512 896 230.4 896 0 704 0 467.2c0-128 70.4-243.2 179.2-320 6.4-6.4 12.8-12.8 12.8-25.6v-12.8c-6.4-32-19.2-83.2-25.6-83.2V12.8c0-6.4 6.4-19.2 19.2-19.2h12.8l115.2 64c0 6.4 6.4 12.8 19.2 12.8h12.8C396.8 57.6 454.4 44.8 512 44.8c281.6 0 512 192 512 428.8 0 70.4-19.2 140.8-57.6 198.4L371.2 326.4z"/></svg>