<svg width="128" height="128" viewBox="0 0 1024 1024" xmlns="http://www.w3.org/2000/svg"><path d="M512 654.572c-193.484 0-335.807-104.753-335.807-104.753L64 712.137c131.787 76.232 284.793 119.862 447.989 119.862 163.229 0 316.264-43.648 448.069-119.909L846.57 549.818S705.484 654.571 512 654.571zm0-294.212c-98.2 0-168.369-52.784-168.369-52.784L242.957 453.228S355.139 536.884 512 536.884s268.969-83.656 268.969-83.656L680.25 307.576S610.199 360.36 512 360.36zM511.989 64l-99.837 144.442s39.223 31.671 99.848 31.671 99.322-31.671 99.322-31.671C577.946 160.167 511.989 64 511.989 64z"/></svg>