<svg width="128" height="128" viewBox="0 0 1024 1024" xmlns="http://www.w3.org/2000/svg"><path d="M1024 480c-12.8 256-224 460.8-480 480h-64C224 940.8 19.2 736 0 480v-64C12.8 160 224-44.8 480-64h64c256 12.8 460.8 224 480 480v64zm-224 0c-6.4 64-19.2 134.4-44.8 192H896v6.4c32-57.6 57.6-128 64-198.4H800zM480 736h-96c25.6 38.4 57.6 70.4 96 96v-96zm64 96c38.4-25.6 70.4-57.6 96-96h-96v96zm-64-160V480H288c6.4 70.4 25.6 134.4 57.6 192H480zm0-256V224H345.6c-32 57.6-51.2 121.6-57.6 192h192zm0-256V64c-38.4 25.6-70.4 57.6-96 96h96zm64 0h96c-25.6-38.4-57.6-70.4-96-96v96zm0 64v192h192c-6.4-70.4-25.6-134.4-57.6-192H544zm0 256v192h134.4c32-57.6 51.2-121.6 57.6-192H544zm313.6 256H716.8c-38.4 57.6-89.6 115.2-147.2 153.6 115.2-12.8 211.2-70.4 288-153.6zM454.4 889.6c-57.6-38.4-108.8-96-147.2-153.6H166.4c76.8 83.2 172.8 140.8 288 153.6zM128 678.4l147.2-6.4c-25.6-57.6-44.8-128-44.8-192H64c6.4 70.4 32 140.8 64 198.4zM224 416c6.4-64 19.2-134.4 44.8-192H128v-6.4c-32 57.6-57.6 128-64 198.4h160zm-57.6-256h140.8c38.4-57.6 89.6-115.2 147.2-153.6-115.2 12.8-211.2 70.4-288 153.6zM569.6 6.4c57.6 44.8 108.8 96 147.2 153.6h140.8C780.8 76.8 684.8 19.2 569.6 6.4zM896 217.6L748.8 224c25.6 57.6 44.8 128 44.8 192H960c-6.4-70.4-32-140.8-64-198.4z"/></svg>