<svg width="128" height="128" viewBox="0 0 1024 1024" xmlns="http://www.w3.org/2000/svg"><path d="M505.6 576c25.6 0 44.8 12.8 57.6 32 12.8 6.4 19.2 32 19.2 64v96c0 32-6.4 51.2-12.8 64-19.2 25.6-38.4 32-64 32s-44.8-12.8-57.6-32c-12.8-12.8-19.2-32-19.2-64V665.6c0-32 6.4-51.2 19.2-70.4 12.8-12.8 32-19.2 57.6-19.2zM480 780.8c0 25.6 6.4 38.4 25.6 38.4s25.6-12.8 25.6-38.4V659.2c0-25.6-6.4-38.4-25.6-38.4S480 633.6 480 659.2v121.6zm147.2-185.6c0 6.4-6.4 19.2-6.4 44.8v224H672V652.8v-19.2c0-6.4 6.4-12.8 12.8-12.8 12.8 0 19.2 6.4 32 25.6V864H768V576h-51.2v32c-19.2-25.6-38.4-32-57.6-32-12.8 0-25.6 6.4-32 19.2zm198.4-345.6V224h-51.2v25.6c0 25.6 6.4 38.4 25.6 38.4s25.6-12.8 25.6-38.4zM268.8 851.2c-12.8 38.4-25.6 70.4-38.4 108.8H288l38.4-147.2L371.2 960h57.6l-70.4-230.4V576h-57.6v153.6c-6.4 32-19.2 70.4-32 121.6zm652.8-422.4c-6.4 44.8-44.8 83.2-89.6 83.2-102.4 12.8-211.2 12.8-320 12.8s-211.2 0-313.6-12.8c-44.8 0-83.2-38.4-89.6-83.2C96 364.8 96 294.4 96 230.4S96 96 108.8 32c12.8-44.8 44.8-76.8 89.6-83.2C300.8-64 409.6-64 518.4-64s211.2 0 320 12.8c44.8 6.4 83.2 38.4 89.6 83.2 12.8 64 12.8 134.4 12.8 198.4s0 134.4-19.2 198.4zm-588.8-57.6h-64V44.8h-51.2v326.4h-64v57.6h179.2v-57.6zM486.4 44.8h-51.2v32c-19.2-25.6-38.4-32-57.6-32s-25.6 6.4-32 19.2c0 6.4-6.4 19.2-6.4 44.8v224h51.2V128v-19.2c0-6.4 6.4-12.8 12.8-12.8 12.8 0 19.2 6.4 32 25.6v211.2h51.2v-288zm198.4 89.6c0-25.6 0-44.8-6.4-57.6-6.4-19.2-19.2-32-38.4-32s-38.4 12.8-51.2 32V51.2h-57.6v377.6h51.2V307.2c19.2 19.2 32 32 51.2 32s32-12.8 38.4-32c6.4-12.8 6.4-32 6.4-57.6V134.4zm192 44.8H774.4V128c0-25.6 6.4-38.4 25.6-38.4 12.8 0 19.2 6.4 25.6 19.2v32h51.2v-6.4-32c0-12.8-6.4-19.2-12.8-32-12.8-19.2-32-32-64-32-25.6 0-44.8 12.8-64 32-12.8 12.8-19.2 38.4-19.2 64v96c0 32 6.4 51.2 19.2 64 12.8 19.2 32 32 64 32 25.6 0 44.8-12.8 57.6-32 12.8-12.8 12.8-38.4 12.8-64l6.4-51.2zm-243.2 70.4V128c0-25.6-6.4-38.4-19.2-38.4-6.4 0-19.2 6.4-25.6 12.8v172.8c6.4 6.4 19.2 12.8 25.6 12.8s19.2-12.8 19.2-38.4z"/></svg>