<svg width="64" height="64" viewBox="0 0 1024 1024" xmlns="http://www.w3.org/2000/svg"><path d="M500 797q-109 0-201-53.5T153.5 598 100 397t53.5-201T299 50.5 500-3t201 53.5T846.5 196 900 397t-53.5 201T701 743.5 500 797zm0-75q88 0 163-43.5T781.5 560 825 397q0-43-11-84l-1 1-361 161q23 41 65 41 23 0 43-13 7-5 12-10l66 67q-52 44-126 44-110 0-163-83l-121 54q45 68 116.5 107.5T500 722zM193 504l127-57q-5-26-5-53 0-29 5-54.5t14.5-44.5 22-35.5T384 232t31-19.5 32.5-13.5 32-7 29.5-2q62 0 113 35 8 6 15 12l-58 71-5-5q-23-22-54-22-42 0-64 35.5T434 397l350-156h1q-42-77-118-123T500 72q-88 0-163 43.5T218.5 234 175 397q0 55 18 107z"/></svg>