<svg width="64" height="64" viewBox="0 0 1024 1024" xmlns="http://www.w3.org/2000/svg"><path d="M499 796q-165 0-281-116-118-120-118-284t118-282Q337-4 499-4q166 0 287 119 114 113 114 281T784 680Q667 796 499 796zm1.5-72Q637 724 732 627q96-94 96-231 0-138-94-229-100-98-233-98-135 0-232 97-97 96-97 230 0 132 98 231 94 97 230.5 97zM437 622l-108-47V461l-95-40V318l102-44 103 43 7-3 210-87 5-1 4 1 97 42 7 3v113l-8 4-79 33v99zm27-216l183-75v-3h1v-71l-1 1v-1l-183 76v73zm201-4l59-25-64-27-58 25zm79-44v-69l-71-31v70z"/></svg>