<svg width="64" height="64" viewBox="0 0 1024 1024" xmlns="http://www.w3.org/2000/svg"><path d="M499 796q-165 0-281-116-118-120-118-284t118-282Q337-4 499-4q166 0 287 119 114 113 114 281T784 680Q667 796 499 796zm1.5-72Q637 724 732 627q96-94 96-231 0-138-94-229-100-98-233-98-135 0-232 97-97 96-97 230 0 132 98 231 94 97 230.5 97zM334 620q-8-2-14-8t-6-15V303q0-9 6.5-15.5T336 281h88v-87q0-9 6-15.5t16-6.5h218q9 0 15.5 6.5T686 194v294q0 9-6.5 15.5T664 510h-88v87q0 10-6 16.5t-16 6.5H334zm24-45h175v-65h-90q-8-1-13.5-7t-5.5-15V325h-66v250zm109-108h175V216H467v251z"/></svg>