<svg width="64" height="64" viewBox="0 0 1024 1024" xmlns="http://www.w3.org/2000/svg"><path d="M499 796q-165 0-281-117-118-120-118-283 0-165 118-282Q337-4 499-4q166 0 287 118 114 114 114 281.5T784 679Q667 796 499 796zm1.5-72.5Q637 724 732 627q96-94 96-231 0-138-94-230-100-98-233-98-135 0-232 98-97 96-97 230 0 132 98 231 94 96 230.5 96.5zM498 606q-69 0-116.5-40T322 452h-31l79-79 79 79h-29q10 71 90 71 44 0 67.5-33.5T601 393q0-61-25.5-97.5T508 259q-84 0-88 73H319q10-75 59.5-115.5T496 176q92 0 150 61t58 153q0 95-56 155.5T498 606z"/></svg>