<svg width="64" height="64" viewBox="0 0 1024 1024" xmlns="http://www.w3.org/2000/svg"><path d="M258 849q-76 0-129.5-53.5T75 666V182q0-88 67-142Q193-1 258-1h484q76 0 129.5 53.5T925 182v484q0 50-24.5 92T834 824.5 742 849H258zm-37-126q116 0 222.5-44.5t188.5-126T758 364t44-222H686q0 92-35.5 177.5t-101 151-150.5 101T221 607v116zm0-196q77 0 147.5-29.5t125-83.5T577 289t29-147H493q0 53-21 103.5T413.5 334t-88 59T221 414v113zm78-226h2q33 0 56-23.5t23-56.5-23-56-56-23-56.5 23-23.5 56 22.5 56 55.5 24z"/></svg>