<svg width="64" height="64" viewBox="0 0 1024 1024" xmlns="http://www.w3.org/2000/svg"><path d="M160 700q-67 0-113.5-47T0 540V253q0-66 46.5-113T160 93h680q67 0 113.5 47t46.5 113v287q0 66-46.5 113T840 700H160zm160-81q80 0 80-85 0-17-19.5-72T361 397q0-27 24.5-48t54.5-31 54.5-22.5T519 270v-53H124v53q0 14 24.5 27.5t53.5 24 54 30 25 44.5q0 6-20 62.5T241 534q0 47 21 66t58 19zm289-77q118 0 202.5-84.5T896 253h-55q0 97-68 165.5T609 487v55zm0-98q78 0 133.5-55.5T798 254h-55q0 55-40 95-39 40-94 40v55zm38-113q16 0 27-11.5t11-27.5-11-27-27-11-27 11-11 27 11 27.5 27 11.5z"/></svg>