<svg width="64" height="64" viewBox="0 0 1024 1024" xmlns="http://www.w3.org/2000/svg"><path d="M500 848q-115 0-213-57T132 636 75 422.5t57-213T287 55 500-2t213 57 155 154.5 57 213T868 636 713 791t-213 57zm2.5-65q98.5 0 182.5-49t133-132.5T867 419q0-74-29-141.5T760.5 161t-116-78T502 54q-98 0-182 49T187 236t-49 183 49 182.5T320 734t182.5 49zM719 662H527v-67h17q15 0 18.5-2.5t3.5-7.5q0-2-2-5t-11-13L419 427v129q0 19 3 26 4 7 11 11 4 2 25 2h13v67H261v-67h18q16 0 22-3.5t9-10.5 3-29V288q0-22-2-28-3-7-9-10-7-4-25-4h-16v-67h210v67h-17q-18 0-23.5 3t-8.5 10-3 25v48l65 64 75-121q10-16 10-20t-5-6q-5-3-29-3h-9v-67h217v67h-8q-18 0-28 7-7 4-23 28L560 469l104 101q13 12 19 17 8 5 13 7 5 1 19 1h7l17 1v66h-20z"/></svg>