<svg width="64" height="64" viewBox="0 0 1024 1024" xmlns="http://www.w3.org/2000/svg"><path d="M922 704q-1 1-3 0H73q-37 1-59-31-17-26-13-57V155q2-37 35-55 25-14 55-10v-1h421l421 1h1q37 2 55 35 14 24 10 55h1v228.5L999 637v2q-2 36-35 55-19 10-42 10zm-4-47h2q12 0 20-5 10-6 11-16 1-89 1-228V177q2-16-5-29-5-10-16-10-71-1-419.5-1H88q-16-2-28 5-10 5-11 16v460l-1 2q-2 14 6 26 7 10 18 10h840q3 1 6 1zm-773-97V233h96v188l96-120 96 120V233h96v327h-96l-96-120-96 120h-96zm552 0V392h-96l144-159 144 159h-96v168h-96z"/></svg>