<svg width="64" height="64" viewBox="0 0 1024 1024" xmlns="http://www.w3.org/2000/svg"><path d="M242 798q-54-9-93.5-49T100 655V140q13-75 79-117 29-18 60-24 2-1 4-1h515q1 0 3 1 53 10 91.5 49.5T900 141v515q-9 53-49 93t-94 49H242zm560-99v-76q-106-1-284 0v75q48 0 142.5.5t141.5.5zm-321-1q1-25 1-75H200v75h281zm179-112h142v-76H518v76h142zm-178 0v-76H200v75q31 0 129.5.5t152.5.5zm72-112l248-1q0-51-1-76-31 0-283-1v78h36zm-72 0v-78H200v77h193l89 1zm36-115h283v-75H518v75zm-207-35q55 0 88-40 34-38 24-93.5T367 112q-43-25-94.5-6T206 173q-18 45 6 91t71 56q14 4 28 4z"/></svg>