<svg width="64" height="64" viewBox="0 0 1024 1024" xmlns="http://www.w3.org/2000/svg"><path d="M500 797q-52 0-101.5-13t-96-39.5T217 680q-57-58-87-131.5T100 397t30-151.5 87.5-131 131-87.5T500-3t151.5 30 131 87.5 87.5 131T900 397t-30 151.5-87.5 131-131 87.5T500 797zm0-75q134 0 229.5-95.5T825 397t-95.5-229.5T500 72t-230 95q-62 63-84 146.5t0 167T270 627q96 95 230 95zm54-95l47-49-46 49h-1zm-238-3V170h368v318l-4 4-121 128-4 4H316zm25-25h204l5-5V484h-1v-2h70l-18 1-27 1h79l6-6V195H341h317l-2 143-1 48V197H343v397h-2v5zm204-5q2-2 3-10v10h-3zm140-105V170h2v318zm-165-14l31-94zm-72-1l-85-253q0-1 2-1h55q-1-1-2-1h-2 7l4 10q-2-3-3-5l13 43h93l13-46-3 6 2-10h11q-6 2-8 3h56q-1-1-6-2 9 1 9 2l-2.5 7.5-6 17.5-4.5 15q9-32 10-33l-83 247h-70zm35-59l31-102h-62zm-44-151v-1l21 1h-21z"/></svg>