<svg width="64" height="64" viewBox="0 0 1024 1024" xmlns="http://www.w3.org/2000/svg"><path d="M272 798q-72 0-122-50.5T100 626V170q0-72 50-122T272-2h456q72 0 122 50t50 122v456q0 71-50 121.5T728 798H272zm142-63q64 0 117-30h1q60-32 95.5-91.5T662 486v-1q1-68-35-128l211-210-87-87-210 210q-31-18-65-27h-2q-90-24-177 21-63 32-98 91v1h-1q-44 71-34.5 156.5T231 657q0 1 1 1 35 38 83 57.5t99 19.5zm0-75q-78 0-128-53v-1h-1q-39-40-45.5-101.5T262 395h1v-1q24-41 69-64 61-31 124-14h1q55 13 93.5 62.5T588 485v1q0 46-25.5 88.5T496 639l-1 1q-36 20-81 20z"/></svg>