<svg width="64" height="64" viewBox="0 0 1024 1024" xmlns="http://www.w3.org/2000/svg"><path d="M271 798q-71 0-121-50t-50-121V168q0-70 50-120T271-2h458q71 0 121 50t50 120v459q0 71-50 121t-121 50H271zm230.5-110Q622 688 707 602.5T792 397q0-79-39-146T647 145t-145-39q-121 0-206 85.5T211 397t85 205.5T501.5 688zm.5-88q-84 0-144-59.5T298 397t60-143.5T502 194t143.5 59.5T705 397q0 55-27.5 102t-74 74T502 600zm-.5-138q29.5 0 50.5-21t21-50q0-15-5.5-28t-15-22.5-23-15.5-27.5-6q-30 0-51 21t-21 50.5 21 50.5 50.5 21z"/></svg>