<svg width="64" height="64" viewBox="0 0 1024 1024" xmlns="http://www.w3.org/2000/svg"><path d="M132 847q-36 0-60.5-24.5t-24.5-60T71.5 702t60.5-25h736q23 0 43 11.5t31 31 11 43-11 43-31 30.5-43 11H132zm0-226q-36 0-60.5-25T47 535.5t24.5-60T132 451h628q35 0 60 24.5t25 60.5q0 23-11.5 42.5t-31 31T760 621H132zm-3-227q-34-1-58-25.5T47 309t24.5-60 60.5-25h700q35 0 60 25t25 60q0 23-11.5 42.5t-31 31T832 394H129zm3-227q-36 0-60.5-24.5T47 82.5 71.5 22 132-3h374q35 0 60 25t25 60q0 24-11.5 43.5t-31 30.5-42.5 11H132z"/></svg>