<svg width="64" height="64" viewBox="0 0 1024 1024" xmlns="http://www.w3.org/2000/svg"><path d="M809 850q-25 0-47-11-35-15-53-50.5T695 713V393q-6 5-55.5 55T562 522q-38 25-83 15.5T406 493L305 393q0 31 .5 176.5T305 746q-4 42-36.5 72.5T194 849q-51 4-87.5-37T76 720V105q1-15 6.5-30T97 48.5 118 27t26-16 28.5-9 30-1.5T232 8q15 7 30 18.5t25 22 24.5 26T336 98q27 27 81.5 82t82.5 82q21-20 106-105L737 26Q765 2 803 .5t70.5 19T918 75q5 20 6.5 42.5t.5 51.5 0 43v267.5L924 746q-3 44-37.5 74T809 850zm-616-67q14 1 26-8.5t17-23 2-28.5-15-24q-16-13-34.5-12.5t-33.5 15-13 34.5q0 19 14.5 33.5T191 783h2zm619 0q15 1 26.5-8.5t16.5-23 2-28.5-14-24q-16-13-35-12.5t-33.5 15T761 736q0 19 15 33.5t34 13.5h2zM502 474q17 0 30.5-12.5t16-29T542 400t-27-21.5-35.5 2.5-23.5 25q-11 23 4 46t40 22h2zm310-310q28 0 41.5-28T849 86q-17-24-48-18.5T763 101q-4 11-1.5 22.5t9 20.5 17 14.5T810 164h2zm-619 0q12 0 22-6t15.5-16.5T238 120t-2-22.5T222 79q-22-22-52.5-7T143 118q0 12 6.5 23t17.5 17 24 6h2z"/></svg>